<svg width="557" height="82" viewBox="0 0 557 82" fill="none" xmlns="http://www.w3.org/2000/svg">
<g opacity="0.8" filter="url(#filter0_di_133_157)">
<path fill-rule="evenodd" clip-rule="evenodd" d="M1.03906 1.07617V1.80859C2.50391 1.80859 3.64323 2.03646 4.45703 2.49219C5.27083 2.94792 5.74284 3.64779 5.87305 4.5918C6.03581 5.53581 6.11719 7.3099 6.11719 9.91406V19.8157C8.60469 19.365 11.1198 18.9326 13.5651 18.5406C13.8503 18.4953 14.1346 18.4504 14.418 18.4058V2.58984H16.3223C21.9212 2.58984 26.153 3.20833 29.0176 4.44531C31.9147 5.68229 34.112 7.52148 35.6094 9.96289C36.5547 11.4836 37.2016 13.2443 37.5501 15.2451C39.9745 14.9692 42.4534 14.7041 45.0244 14.4458C44.6662 12.839 44.0669 11.3447 43.2266 9.96289C41.7617 7.52148 39.9876 5.66602 37.9043 4.39648C35.821 3.0944 33.64 2.21549 31.3613 1.75977C29.0827 1.30404 25.209 1.07617 19.7402 1.07617H1.03906ZM45.0978 21.5538C42.6067 21.6627 40.1102 21.778 37.612 21.8996C37.2113 24.2927 36.3159 26.694 34.9258 29.1035C33.0052 32.4889 29.0827 34.1816 23.1582 34.1816H14.418V23.2126C13.7586 23.2554 13.0999 23.2985 12.442 23.3422C10.3075 23.483 8.18508 23.6237 6.11719 23.7614V64.1133C6.11719 67.7917 5.80794 70.0866 5.18945 70.998C4.57096 71.877 3.15495 72.3164 0.941406 72.3164V73H28.7246C33.9655 73 38.0345 72.3978 40.9316 71.1934C43.8613 69.9564 46.4492 67.4824 48.6953 63.7715C50.974 60.0605 52.1133 55.9427 52.1133 51.418C52.1133 46.5677 50.7949 42.4499 48.1582 39.0645C45.5215 35.6465 41.6152 33.498 36.4395 32.6191C41.288 29.7733 44.1741 26.0848 45.0978 21.5538ZM64.3203 20.8355C67.1094 20.7492 69.8783 20.6715 72.6211 20.6024V36.7207H80.1406C86.0651 36.7207 90.4596 35.321 93.3242 32.5215C96.1888 29.722 97.6211 26.0436 97.6211 21.4863C97.6211 21.0584 97.6079 20.6328 97.5814 20.2094C100.082 20.1958 102.539 20.1909 104.946 20.1949C104.484 22.6916 103.475 25.1077 101.918 27.4434C99.737 30.7311 96.6445 33.5143 92.6406 35.793L97.7188 43.6055C98.8255 45.5586 101.755 49.8392 106.508 56.4473C111.293 63.0553 114.988 67.0918 117.592 68.5566C120.196 69.9889 122.719 70.7051 125.16 70.7051C127.569 70.7051 130.336 69.7773 133.461 67.9219L133.754 68.8984C129.848 72.0885 124.77 73.6836 118.52 73.6836C114.353 73.6836 110.772 72.4629 107.777 70.0215C104.783 67.5475 99.5742 60.7767 92.1523 49.709C92.0872 49.6439 92.0547 49.5788 92.0547 49.5137L84.8281 38.3809L78.4316 38.5762H72.6211V66.1152C72.6211 68.3288 72.9141 69.9238 73.5 70.9004C74.0859 71.8444 75.502 72.3164 77.748 72.3164V73H59.1445V72.3164C61.4557 72.2188 62.888 71.7305 63.4414 70.8516C64.0273 69.9727 64.3203 68.1823 64.3203 65.4805V20.8355ZM104.331 11.0426C104.071 10.2952 103.755 9.59354 103.383 8.9375C102.146 6.72396 100.307 4.98242 97.8652 3.71289C95.4564 2.41081 93.0964 1.64583 90.7852 1.41797C88.474 1.1901 84.7305 1.07617 79.5547 1.07617H59.1445V1.80859C61.6185 1.84115 63.0996 2.47591 63.5879 3.71289C64.0762 4.91732 64.3203 6.44727 64.3203 8.30273V12.7517C65.7102 12.6433 67.1339 12.5345 68.5947 12.4249C70.0145 12.3212 71.3495 12.225 72.6211 12.1357V2.98047H78.5293C85.6256 2.98047 90.5736 4.96615 93.373 8.9375C93.8947 9.66298 94.3683 10.3968 94.7938 11.1388C97.5869 11.0927 100.701 11.0622 104.331 11.0426ZM158.84 22.71L141.762 65.8223C140.59 68.752 139.516 70.5749 138.539 71.291C137.562 71.9746 136.358 72.3164 134.926 72.3164V73H145.619V72.3164C144.024 72.3164 143.227 71.7793 143.227 70.7051C143.227 70.2494 143.601 69.0449 144.35 67.0918L155.238 39.8945H176.234L186.635 65.4805C186.667 65.4805 186.716 65.6432 186.781 65.9688C186.879 66.2617 186.993 66.4733 187.123 66.6035C187.872 68.3939 188.246 69.696 188.246 70.5098C188.246 71.7142 187.481 72.3164 185.951 72.3164V73H202.748V72.3164C200.046 72.3164 198.028 70.9492 196.693 68.2148C195.391 65.4479 194.74 63.9017 194.74 63.5762L179.17 25.0357C176.149 24.6394 173.005 24.2532 169.802 23.884L175.355 37.8926H155.922L161.821 23.0117C160.827 22.9089 159.833 22.8083 158.84 22.71ZM174.073 12.4181C169.843 12.093 166.418 11.8399 163.224 11.6437L167.836 0.00195312H169.057L174.073 12.4181ZM213.979 31.3625V64.6992C213.979 68.0195 213.669 70.1191 213.051 70.998C212.465 71.877 210.935 72.3164 208.461 72.3164V73H222.279V72.3164C220.326 72.0234 219.105 71.7305 218.617 71.4375C218.129 71.1445 217.755 70.5911 217.494 69.7773C217.234 68.9635 217.104 67.7103 217.104 66.0176V32.073C216.049 31.8312 215.006 31.5941 213.979 31.3625ZM217.104 16.6984C216.066 16.5645 215.025 16.4328 213.979 16.303V16.0176C213.979 11.7533 213.376 8.27018 212.172 5.56836C211 2.86654 208.266 1.61328 203.969 1.80859V1.07617H217.494L234.505 19.1967C230.087 18.4991 225.712 17.8548 221.291 17.2535L217.104 12.7949V16.6984ZM240.512 37.7177L274.477 73.8789V47.1447C273.471 46.8554 272.447 46.5582 271.4 46.2527V58.498L255.607 41.6746C251.047 40.4263 245.892 39.0775 240.512 37.7177ZM271.4 26.4915C272.394 26.7468 273.417 27.0139 274.477 27.2943V8.40039C274.477 5.73112 274.883 3.98958 275.697 3.17578C276.511 2.32943 277.976 1.8737 280.092 1.80859V1.07617H266.176V1.80859C267.706 1.80859 268.959 2.11784 269.936 2.73633C270.912 3.32227 271.4 4.98242 271.4 7.7168V26.4915ZM292.445 52.0013V62.502C292.445 66.2129 292.169 68.7845 291.615 70.2168C291.062 71.6165 289.906 72.3164 288.148 72.3164H287.27V73H321.059C329.815 73 336.277 72.3327 340.443 70.998C344.643 69.6309 348.63 67.1244 352.406 63.4785C352.699 63.193 352.988 62.9033 353.271 62.6096C351.343 62.3889 349.435 62.1614 347.547 61.9269C341.986 68.0394 332.863 71.0957 320.18 71.0957C315.329 71.0957 311.472 70.7214 308.607 69.9727C305.743 69.1914 303.708 67.9544 302.504 66.2617C301.332 64.5365 300.746 61.916 300.746 58.4004V53.9583C297.987 53.3426 295.246 52.6965 292.445 52.0013ZM300.746 34.6861C297.775 33.8255 295.018 33.0303 292.445 32.2932V10.1094C292.445 6.20312 292.104 3.8431 291.42 3.0293C290.769 2.21549 289.385 1.80859 287.27 1.80859V1.07617H320.277C328.676 1.07617 335.3 1.74349 340.15 3.07812C345.033 4.38021 349.281 6.44727 352.895 9.2793C356.508 12.1113 359.372 15.7409 361.488 20.168C363.604 24.5625 364.662 29.4779 364.662 34.9141C364.662 40.1549 363.555 45.3145 361.342 50.3926C361.273 50.551 361.204 50.7087 361.134 50.8657C359.075 50.4124 356.987 49.937 354.858 49.4372C356.121 45.7969 356.752 42.0138 356.752 38.0879C356.752 28.485 353.008 20.168 345.521 13.1367C338.067 6.10547 326.82 2.58984 311.781 2.58984H300.746V34.6861ZM376.722 64.8737C376.706 68.0063 376.413 70.0315 375.844 70.9492C375.258 71.8607 373.76 72.3164 371.352 72.3164V73H390.541V72.3164C388.751 72.3164 387.497 72.1048 386.781 71.6816C386.098 71.2259 385.626 70.6725 385.365 70.0215C385.164 69.4171 385.051 67.9095 385.028 65.4987C382.212 65.3005 379.444 65.0923 376.722 64.8737ZM385.023 55.3822C382.233 54.9416 379.477 54.4777 376.723 53.9838V9.91406C376.723 6.49609 376.397 4.26628 375.746 3.22461C375.095 2.15039 373.63 1.67839 371.352 1.80859V1.07617H390.541V1.80859C389.597 1.71094 388.539 1.85742 387.367 2.24805C386.228 2.63867 385.544 3.20833 385.316 3.95703C385.121 4.70573 385.023 6.47982 385.023 9.2793V55.3822ZM404.56 66.6758C404.456 68.8678 404.161 70.3085 403.676 70.998C403.09 71.877 401.56 72.3164 399.086 72.3164V73H412.904V72.3164C410.951 72.0234 409.73 71.7305 409.242 71.4375C408.754 71.1445 408.38 70.5911 408.119 69.7773C407.902 69.1003 407.776 68.119 407.74 66.8335C406.673 66.7821 405.613 66.7295 404.56 66.6758ZM407.729 58.4303C406.675 58.309 405.633 58.1871 404.604 58.0642V16.0176C404.604 11.7533 404.001 8.27018 402.797 5.56836C401.625 2.86654 398.891 1.61328 394.594 1.80859V1.07617H408.119L462.025 58.498V7.7168C462.025 4.98242 461.537 3.32227 460.561 2.73633C459.584 2.11784 458.331 1.80859 456.801 1.80859V1.07617H470.717V1.80859C468.601 1.8737 467.136 2.32943 466.322 3.17578C465.508 3.98958 465.102 5.73112 465.102 8.40039V62.8431C461.361 62.7379 457.815 62.6065 454.362 62.4449L407.729 12.7949V58.4303ZM459.579 67.9987L465.102 73.8789V67.9959C463.261 68.0002 461.419 68.0011 459.579 67.9987ZM496.649 67.5725C499.389 69.2174 502.09 70.4243 504.75 71.1934C508.949 72.3978 513.832 73 519.398 73H548.402V72.3164H547.377C545.782 72.3164 544.675 71.8281 544.057 70.8516C543.471 69.8424 543.178 68.1986 543.178 65.9199V65.0235C540.653 65.2354 537.849 65.4521 534.856 65.6663C534.744 67.8298 534.198 69.2002 533.217 69.7773C532.143 70.4284 529.424 70.8353 525.062 70.998L521.205 71.0957C518.959 71.1608 515.932 70.9004 512.123 70.3145C508.579 69.7389 505.345 68.7686 502.42 67.4037C500.546 67.4646 498.619 67.5209 496.649 67.5725ZM534.877 63.1458C537.898 63.1531 540.685 63.1651 543.178 63.181V54.5918C543.178 52.2806 543.52 50.7181 544.203 49.9043C544.919 49.0905 546.319 48.6836 548.402 48.6836V48H529.799V48.6836C531.426 48.5859 532.68 48.9115 533.559 49.6602C534.438 50.3763 534.877 51.7923 534.877 53.9082V63.1458ZM496.28 63.2038C494.305 63.2023 492.393 63.1985 490.536 63.192C486.852 60.0234 483.81 56.2126 481.41 51.7598C478.741 46.7467 477.406 41.6198 477.406 36.3789C477.406 30.6497 479.083 24.9368 482.436 19.2402C485.821 13.5436 490.622 8.92122 496.84 5.37305C503.057 1.79232 510.105 0.00195312 517.982 0.00195312C525.046 0.00195312 532.517 1.56445 540.395 4.68945L543.373 12.9902H542.689C540.183 9.80013 536.749 7.16341 532.387 5.08008C528.057 2.96419 523.223 1.90625 517.885 1.90625C508.607 1.90625 501.007 5.4056 495.082 12.4043C489.158 19.3704 486.195 28.0293 486.195 38.3809C486.195 42.6777 486.684 46.5189 487.66 49.9043C488.637 53.2572 490.46 56.5775 493.129 59.8652C494.154 61.0998 495.204 62.2127 496.28 63.2038ZM14.418 35.6953H20.0332C26.9017 35.6953 31.6217 36.0534 34.1934 36.7695C36.7975 37.4857 39.125 39.5039 41.1758 42.8242C43.2266 46.1445 44.252 50.4414 44.252 55.7148C44.252 60.793 43.0964 64.6341 40.7852 67.2383C38.474 69.8099 34.5189 71.0957 28.9199 71.0957C25.3066 71.0957 22.5397 70.7865 20.6191 70.168C18.6986 69.5169 17.2988 68.6706 16.4199 67.6289C15.5736 66.5872 15.0202 65.5944 14.7598 64.6504C14.5319 63.7064 14.418 61.6556 14.418 58.498V35.6953Z" fill="#C9A48A"/>
</g>
<defs>
<filter id="filter0_di_133_157" x="0.941406" y="0.00195312" width="555.461" height="81.877" filterUnits="userSpaceOnUse" color-interpolation-filters="sRGB">
<feFlood flood-opacity="0" result="BackgroundImageFix"/>
<feColorMatrix in="SourceAlpha" type="matrix" values="0 0 0 0 0 0 0 0 0 0 0 0 0 0 0 0 0 0 127 0" result="hardAlpha"/>
<feOffset dx="4" dy="4"/>
<feGaussianBlur stdDeviation="2"/>
<feComposite in2="hardAlpha" operator="out"/>
<feColorMatrix type="matrix" values="0 0 0 0 0 0 0 0 0 0 0 0 0 0 0 0 0 0 0.28 0"/>
<feBlend mode="normal" in2="BackgroundImageFix" result="effect1_dropShadow_133_157"/>
<feBlend mode="normal" in="SourceGraphic" in2="effect1_dropShadow_133_157" result="shape"/>
<feColorMatrix in="SourceAlpha" type="matrix" values="0 0 0 0 0 0 0 0 0 0 0 0 0 0 0 0 0 0 127 0" result="hardAlpha"/>
<feOffset dy="2"/>
<feGaussianBlur stdDeviation="2.5"/>
<feComposite in2="hardAlpha" operator="arithmetic" k2="-1" k3="1"/>
<feColorMatrix type="matrix" values="0 0 0 0 0.54902 0 0 0 0 0.411765 0 0 0 0 0.317647 0 0 0 1 0"/>
<feBlend mode="normal" in2="shape" result="effect2_innerShadow_133_157"/>
</filter>
</defs>
</svg>
