<svg width="602" height="60" viewBox="0 0 602 60" fill="none" xmlns="http://www.w3.org/2000/svg">
<g opacity="0.8" filter="url(#filter0_di_137_135)">
<path fill-rule="evenodd" clip-rule="evenodd" d="M46.3926 8.61328L44.5127 3.28125C44.4899 3.25846 44.4443 3.23568 44.376 3.21289L42.1201 2.3584C40.7529 1.81152 39.0326 1.28743 36.959 0.786133C34.9082 0.262044 32.4701 0 29.6445 0C23.9935 0 18.9691 1.23047 14.5713 3.69141C10.1735 6.12956 6.80111 9.47917 4.4541 13.7402C2.12988 17.9785 0.967773 22.3991 0.967773 27.002C0.967773 31.6294 2.01369 35.8155 4.10552 39.56C6.49961 39.6281 8.8982 39.6938 11.2987 39.757C10.201 38.1649 9.27528 36.4425 8.52148 34.5898C6.65299 29.9414 5.71875 25.8285 5.71875 22.251C5.71875 16.4632 7.8265 11.5299 12.042 7.45117C16.2803 3.3724 21.8288 1.33301 28.6875 1.33301C35.2956 1.33301 41.0378 3.75977 45.9141 8.61328H46.3926ZM50.1366 45.0881C50.4557 45.1003 50.7765 45.1126 51.0988 45.1248L48.3408 49.3555C42.6442 50.5859 38.9414 51.3151 37.2324 51.543C35.5462 51.7708 33.279 51.8848 30.4307 51.8848C19.8805 51.8848 12.3268 49.4466 7.76953 44.5703C7.2553 44.0147 6.77023 43.4469 6.31432 42.8667C8.97751 43.0464 11.6302 43.2165 14.3141 43.379C15.2734 44.3407 16.3162 45.2391 17.4424 46.0742C21.4984 49.0592 26.4089 50.5518 32.1738 50.5518C35.9564 50.5518 39.6592 49.9479 43.2822 48.7402C46.1417 47.7752 48.4265 46.5578 50.1366 45.0881ZM60.9047 45.479C64.392 45.5979 67.4714 45.6941 70.4893 45.7719C74.0035 48.0698 77.7747 49.2188 81.8027 49.2188C85.2663 49.2188 88.6842 48.2959 92.0566 46.4502C92.2849 46.3237 92.5099 46.1941 92.7316 46.0612C93.6088 46.0648 94.5136 46.068 95.4489 46.0709C90.6632 49.9468 84.7131 51.8848 77.5986 51.8848C70.8489 51.8848 65.2843 49.7495 60.9047 45.479ZM100.325 40.9325C104.155 35.7624 106.07 29.6263 106.07 22.5244C106.07 16.0986 103.826 10.7438 99.3369 6.45996C94.848 2.15332 89.0716 0 82.0078 0C76.1061 0 71.002 1.43555 66.6953 4.30664C62.3887 7.15495 59.1644 10.8464 57.0225 15.3809C54.8805 19.9154 53.8096 24.3359 53.8096 28.6426C53.8096 33.0937 54.8909 37.1013 57.0536 40.6652C59.6431 40.6997 62.2141 40.7309 64.7632 40.7589C60.0129 35.4404 57.6377 29.2939 57.6377 22.3193C57.6377 16.7367 59.6657 12.0654 63.7217 8.30566C67.8005 4.5459 72.335 2.66602 77.3252 2.66602C80.8571 2.66602 84.6966 3.79395 88.8438 6.0498C93.0137 8.30566 96.3975 11.4274 98.9951 15.415C101.616 19.4027 102.926 23.8346 102.926 28.7109C102.926 32.1517 101.957 35.5013 100.021 38.7598C99.5667 39.5232 99.0736 40.2484 98.541 40.9355C99.1385 40.9347 99.7333 40.9338 100.325 40.9325ZM112.068 46.0927L111.983 46.6895C111.892 47.4642 111.756 48.1706 111.573 48.8086C111.391 49.4238 111.129 49.8796 110.787 50.1758C110.468 50.472 109.728 50.6201 108.565 50.6201V51.0986H116.256V50.6201C114.729 50.6201 113.966 49.9593 113.966 48.6377C113.966 47.9085 114.011 47.2591 114.103 46.6895L114.184 46.0931C113.466 46.093 112.761 46.0928 112.068 46.0927ZM114.902 40.8485C114.209 40.8554 113.51 40.8618 112.805 40.8678L117.726 6.01562C116.791 3.75977 115.857 2.40397 114.923 1.94824C113.989 1.49251 113.089 1.26465 112.223 1.26465V0.751953H121.725L138.759 40.3781C137.728 40.4124 136.712 40.4447 135.714 40.4749C134.745 40.5024 133.755 40.5286 132.744 40.5536L119.195 9.50195L114.902 40.8485ZM135.161 46.0942L137.345 51.0986H137.687L139.858 46.0844C138.381 46.0888 136.82 46.092 135.161 46.0942ZM159.902 39.4997L155.733 9.43359L142.385 40.2514C141.624 40.2792 140.87 40.306 140.123 40.3318L157.203 0.751953H165.133V1.26465C162.467 1.40137 161.134 2.80273 161.134 5.46875C161.134 6.03841 161.202 6.82454 161.339 7.82715L165.669 39.2082C163.749 39.3087 161.823 39.406 159.902 39.4997ZM160.78 45.838L160.86 46.416C160.997 47.4186 161.065 48.0908 161.065 48.4326C161.065 49.9365 160.325 50.6657 158.844 50.6201V51.0986H170.157V50.6201C168.904 50.5062 168.072 50.1872 167.662 49.6631C167.275 49.1162 166.922 47.8857 166.603 45.9717L166.561 45.6705C164.557 45.7353 162.663 45.7907 160.78 45.838ZM176.786 45.3061C176.763 47.6316 176.547 49.0954 176.139 49.6973C175.706 50.3125 174.715 50.6201 173.165 50.6201V51.0986H192.613C196.282 51.0986 199.13 50.6771 201.158 49.834C203.209 48.9681 205.021 47.2363 206.593 44.6387C206.723 44.426 206.849 44.2113 206.969 43.9948C205.561 44.0661 204.14 44.1364 202.704 44.2058C202.307 45.3218 201.757 46.275 201.056 47.0654C199.438 48.8656 196.669 49.7656 192.75 49.7656C190.221 49.7656 188.284 49.5492 186.939 49.1162C185.595 48.6605 184.615 48.068 184 47.3389C183.408 46.6097 183.02 45.9147 182.838 45.2539C182.825 45.1993 182.812 45.1395 182.8 45.0744C180.894 45.1497 178.956 45.2245 176.983 45.2987C176.917 45.3011 176.851 45.3036 176.786 45.3061ZM203.378 36.6569C203.131 34.0144 202.448 31.7873 201.329 29.9756C199.894 27.6514 198.264 26.2386 196.441 25.7373C194.641 25.236 191.337 24.9854 186.529 24.9854H182.599V38.2276C180.7 38.3492 178.759 38.4691 176.788 38.5866V6.93848C176.788 5.11556 176.731 3.8737 176.617 3.21289C176.526 2.55208 176.196 2.06217 175.626 1.74316C175.056 1.42415 174.259 1.26465 173.233 1.26465V0.751953H186.324C190.152 0.751953 192.864 0.911458 194.459 1.23047C196.054 1.54948 197.581 2.16471 199.039 3.07617C200.497 3.96484 201.739 5.26367 202.765 6.97266C203.79 8.65885 204.303 10.5843 204.303 12.749C204.303 17.0101 202.206 20.3711 198.014 22.832C201.637 23.4473 204.371 24.9512 206.217 27.3438C208.062 29.7135 208.985 32.596 208.985 35.9912C208.985 36.0333 208.985 36.0753 208.985 36.1173C206.97 36.3186 205.091 36.4996 203.378 36.6569ZM218.653 43.3617C219.124 43.9373 219.627 44.4997 220.162 45.0488C224.605 49.6061 230.313 51.8848 237.286 51.8848C245.877 51.8848 252.77 49.0592 257.965 43.4082C258.868 42.4255 259.693 41.4031 260.44 40.3411C259.822 40.394 259.195 40.4473 258.556 40.5012C256.762 42.9453 254.491 44.9283 251.744 46.4502C248.372 48.2959 244.954 49.2188 241.49 49.2188C236.03 49.2188 231.042 47.1075 226.526 42.8849C223.927 43.0494 221.307 43.208 218.653 43.3617ZM220.364 34.9237C218.332 35.145 216.361 35.356 214.469 35.5545C213.821 33.3835 213.497 31.0795 213.497 28.6426C213.497 24.3359 214.568 19.9154 216.71 15.3809C218.852 10.8464 222.076 7.15495 226.383 4.30664C230.689 1.43555 235.794 0 241.695 0C248.759 0 254.535 2.15332 259.024 6.45996C263.513 10.7438 265.758 16.0986 265.758 22.5244C265.758 24.9987 265.525 27.3558 265.06 29.5957C264.242 29.7019 263.413 29.8089 262.573 29.9167C262.6 29.516 262.613 29.1141 262.613 28.7109C262.613 23.8346 261.303 19.4027 258.683 15.415C256.085 11.4274 252.701 8.30566 248.531 6.0498C244.384 3.79395 240.545 2.66602 237.013 2.66602C232.022 2.66602 227.488 4.5459 223.409 8.30566C219.353 12.0654 217.325 16.7367 217.325 22.3193C217.325 26.8739 218.338 31.0754 220.364 34.9237ZM290.757 37.134C290.896 41.6332 292.031 44.7956 294.161 46.6211C296.394 48.5352 299.869 49.4922 304.586 49.4922C308.87 49.4922 312.117 48.4782 314.327 46.4502C316.56 44.4222 317.677 41.9841 317.677 39.1357C317.677 37.404 317.289 35.9342 316.515 34.7266C316.297 34.3807 316.055 34.0475 315.788 33.7268C317.162 33.5335 318.58 33.3336 320.045 33.1266C320.335 34.2583 320.479 35.4866 320.479 36.8115C320.479 38.1787 320.32 39.4889 320.001 40.7422C319.682 41.9727 319.169 43.1689 318.463 44.3311C317.757 45.4704 316.902 46.5186 315.899 47.4756C314.92 48.4098 313.917 49.1276 312.892 49.6289C311.866 50.1074 310.248 50.472 308.038 50.7227C305.828 50.9733 304.369 51.0986 303.663 51.0986H290.23V37.2012C290.405 37.1789 290.58 37.1565 290.757 37.134ZM310.199 23.4016C306.289 23.8884 302.245 24.4188 297.912 25.0111C297.668 24.8743 297.443 24.7404 297.237 24.6094C295.688 23.584 294.389 22.0573 293.341 20.0293C292.293 17.9785 291.769 15.8936 291.769 13.7744C291.769 9.87793 293.102 6.60807 295.768 3.96484C298.456 1.32161 301.977 0 306.329 0C308.015 0 309.838 0.193685 311.798 0.581055C313.757 0.968424 314.851 1.21908 315.079 1.33301C315.17 1.37858 315.261 1.40137 315.353 1.40137L317.745 7.69043L317.335 7.75879C317.335 7.736 316.697 7.0638 315.421 5.74219C314.168 4.42057 312.721 3.40658 311.08 2.7002C309.462 1.97103 307.628 1.60645 305.577 1.60645C302.136 1.60645 299.402 2.59766 297.374 4.58008C295.369 6.53971 294.366 8.9095 294.366 11.6895C294.366 13.5352 294.833 15.153 295.768 16.543C296.725 17.9102 298.707 19.1862 301.715 20.3711C305.356 21.5902 308.184 22.6003 310.199 23.4016ZM328.341 31.9504V47.0312C328.341 48.6035 328.033 49.5833 327.418 49.9707C326.826 50.3353 325.948 50.5518 324.786 50.6201V51.0986H359.205V44.1602H358.727C358.43 46.1198 358.009 47.3958 357.462 47.9883C356.915 48.5579 356.243 48.9453 355.445 49.1504C354.671 49.3327 352.87 49.4238 350.045 49.4238H341.158C339.244 49.4238 337.809 49.2985 336.852 49.0479C335.917 48.7744 335.234 48.125 334.801 47.0996C334.368 46.0514 334.151 44.3538 334.151 42.0068V31.1247C332.934 31.2972 331.701 31.4724 330.451 31.6503C329.738 31.7518 329.035 31.8518 328.341 31.9504ZM334.151 20.7777C332.176 20.9662 330.245 21.1563 328.341 21.35V6.35742C328.341 4.51172 328.181 3.21289 327.862 2.46094C327.543 1.70898 326.518 1.33301 324.786 1.33301V0.751953H356.437V7.69043H355.924C355.24 5.11556 354.659 3.60026 354.181 3.14453C353.725 2.6888 352.586 2.46094 350.763 2.46094H334.151V20.7777ZM366.349 26.7375V45.835C366.349 47.7262 366.144 48.9795 365.733 49.5947C365.346 50.21 364.343 50.5518 362.726 50.6201V51.0986H375.748V50.6201C374.176 50.6201 373.185 50.2897 372.774 49.6289C372.364 48.9453 372.159 47.8288 372.159 46.2793V27.002H376.227L380.704 26.8652L385.763 34.6582C385.763 34.7038 385.785 34.7493 385.831 34.7949C391.026 42.5423 394.672 47.2819 396.769 49.0137C398.865 50.7227 401.371 51.5771 404.288 51.5771C408.663 51.5771 412.218 50.4606 414.952 48.2275L414.747 47.5439C412.56 48.8428 410.623 49.4922 408.937 49.4922C407.228 49.4922 405.462 48.9909 403.639 47.9883C401.816 46.9629 399.229 44.1374 395.88 39.5117C392.553 34.8861 390.502 31.8896 389.728 30.5225L386.173 25.0537C386.673 24.7688 387.154 24.4727 387.613 24.1653C386.373 24.304 385.122 24.4461 383.858 24.5919C382.118 25.3327 379.973 25.7031 377.423 25.7031H374.552C371.89 26.031 369.161 26.3753 366.349 26.7375ZM372.159 17.7526C370.205 17.8772 368.269 18.0051 366.349 18.1363V5.81055C366.349 4.51172 366.178 3.44076 365.836 2.59766C365.494 1.73177 364.457 1.28743 362.726 1.26465V0.751953H377.013C380.636 0.751953 383.256 0.831706 384.874 0.991211C386.492 1.15072 388.144 1.6862 389.83 2.59766C391.539 3.48633 392.827 4.7054 393.692 6.25488C394.558 7.78158 394.991 9.66146 394.991 11.8945C394.991 13.4839 394.691 15.0292 394.09 16.5302C392.566 16.6037 391.055 16.6789 389.555 16.7557C389.624 16.2048 389.659 15.6326 389.659 15.0391C389.659 11.9401 388.668 9.01204 386.686 6.25488C384.726 3.47493 381.262 2.08496 376.295 2.08496H372.159V17.7526ZM415.25 21.4893L427.53 51.8848H428.18L441.074 19.7079C440.333 19.7514 439.597 19.7951 438.866 19.839L429.854 42.3486L421.266 21.0193C419.246 21.1708 417.243 21.3272 415.25 21.4893ZM419.046 15.5057C416.982 15.5768 414.941 15.6502 412.922 15.726L409.62 7.55371C408.344 4.43197 407.296 2.60905 406.476 2.08496C405.655 1.53809 404.812 1.26465 403.946 1.26465V0.751953H415.567V1.26465C414.542 1.19629 414.029 1.59505 414.029 2.46094C414.029 2.80273 414.098 3.16732 414.234 3.55469L419.046 15.5057ZM440.86 14.8596C441.583 14.8414 442.309 14.8234 443.038 14.8056L447.013 4.8877C447.035 4.81934 447.354 4.27246 447.97 3.24707C448.585 2.22168 449.177 1.64062 449.747 1.50391C450.34 1.3444 450.898 1.26465 451.422 1.26465V0.751953H443.868V1.26465C445.076 1.19629 445.68 1.54948 445.68 2.32422C445.68 2.64323 445.577 3.06478 445.372 3.58887L440.86 14.8596ZM457.95 18.7934V45.2197C457.95 47.5212 457.745 49.0023 457.335 49.6631C456.925 50.3011 455.877 50.6201 454.19 50.6201V51.0986H467.623V50.6201C466.37 50.6201 465.493 50.472 464.991 50.1758C464.513 49.8568 464.182 49.4694 464 49.0137C463.84 48.5352 463.761 47.2477 463.761 45.1514V18.5062C461.871 18.5974 459.938 18.693 457.95 18.7934ZM463.761 14.3872C461.774 14.4166 459.835 14.4483 457.95 14.4823V6.93848C457.95 4.5459 457.722 2.98503 457.267 2.25586C456.811 1.50391 455.785 1.1735 454.19 1.26465V0.751953H467.623V1.26465C466.962 1.19629 466.222 1.29883 465.401 1.57227C464.604 1.8457 464.125 2.24447 463.966 2.76855C463.829 3.29264 463.761 4.53451 463.761 6.49414V14.3872ZM474.061 18.0358C473.028 20.9434 472.511 23.9322 472.511 27.002C472.511 33.8151 474.778 39.6712 479.312 44.5703C483.87 49.4466 491.423 51.8848 501.974 51.8848C504.822 51.8848 507.089 51.7708 508.775 51.543C510.484 51.3151 514.187 50.5859 519.884 49.3555L523.404 43.9551L522.96 43.8184C521.183 45.8691 518.471 47.5098 514.825 48.7402C511.202 49.9479 507.499 50.5518 503.717 50.5518C497.952 50.5518 493.041 49.0592 488.985 46.0742C484.929 43.0664 481.956 39.2383 480.064 34.5898C478.196 29.9414 477.262 25.8285 477.262 22.251C477.262 20.7373 477.406 19.282 477.694 17.8852C476.494 17.9334 475.284 17.9836 474.061 18.0358ZM478.841 14.2139C477.796 14.2228 476.758 14.2322 475.728 14.2422C475.816 14.0746 475.905 13.9073 475.997 13.7402C478.344 9.47917 481.716 6.12956 486.114 3.69141C490.512 1.23047 495.536 0 501.188 0C504.013 0 506.451 0.262044 508.502 0.786133C510.576 1.28743 512.296 1.81152 513.663 2.3584L515.919 3.21289C515.987 3.23568 516.033 3.25846 516.056 3.28125L517.936 8.61328H517.457C512.581 3.75977 506.839 1.33301 500.23 1.33301C493.372 1.33301 487.823 3.3724 483.585 7.45117C481.476 9.49158 479.895 11.7458 478.841 14.2139ZM530.274 16.828V47.0312C530.274 48.6035 529.967 49.5833 529.352 49.9707C528.759 50.3353 527.882 50.5518 526.72 50.6201V51.0986H561.139V44.1602H560.66C560.364 46.1198 559.942 47.3958 559.396 47.9883C558.849 48.5579 558.176 48.9453 557.379 49.1504C556.604 49.3327 554.804 49.4238 551.979 49.4238H543.092C541.178 49.4238 539.742 49.2985 538.785 49.0479C537.851 48.7744 537.167 48.125 536.734 47.0996C536.301 46.0514 536.085 44.3538 536.085 42.0068V26.4551H551.91C553.049 26.4551 553.824 26.569 554.234 26.7969C554.667 27.0247 554.941 27.4691 555.055 28.1299H555.567V23.3789H555.055C555.032 23.9258 554.815 24.3473 554.405 24.6436C553.995 24.917 553.027 25.0537 551.5 25.0537H536.085V16.8071C534.093 16.8126 532.158 16.8195 530.274 16.828ZM536.085 14.2194C534.169 14.2029 532.231 14.1881 530.274 14.175V6.35742C530.274 4.51172 530.115 3.21289 529.796 2.46094C529.477 1.70898 528.451 1.33301 526.72 1.33301V0.751953H558.37V7.69043H557.857C557.174 5.11556 556.593 3.60026 556.114 3.14453C555.659 2.6888 554.519 2.46094 552.696 2.46094H536.085V14.2194ZM565.57 16.8085C565.831 17.8913 566.234 18.9649 566.778 20.0293C567.826 22.0573 569.125 23.584 570.675 24.6094C572.247 25.612 574.959 26.7855 578.81 28.1299C582.683 29.4515 585.315 30.5794 586.705 31.5137C588.095 32.4251 589.177 33.4961 589.952 34.7266C590.727 35.9342 591.114 37.404 591.114 39.1357C591.114 41.9841 589.998 44.4222 587.765 46.4502C585.554 48.4782 582.307 49.4922 578.023 49.4922C573.307 49.4922 569.832 48.5352 567.599 46.6211C565.366 44.707 564.226 41.3232 564.181 36.4697H563.668V51.0986H577.101C577.807 51.0986 579.265 50.9733 581.476 50.7227C583.686 50.472 585.304 50.1074 586.329 49.6289C587.354 49.1276 588.357 48.4098 589.337 47.4756C590.34 46.5186 591.194 45.4704 591.9 44.3311C592.607 43.1689 593.119 41.9727 593.438 40.7422C593.758 39.4889 593.917 38.1787 593.917 36.8115C593.917 33.5303 593.028 30.8415 591.251 28.7451C589.496 26.6488 587.662 25.1676 585.748 24.3018C583.857 23.4131 580.325 22.1029 575.152 20.3711C572.346 19.2654 570.432 18.0804 569.411 16.816C568.433 16.8143 567.448 16.8124 566.457 16.8103C566.16 16.8097 565.865 16.8091 565.57 16.8085ZM568.294 14.7242C568.111 14.7196 567.929 14.7151 567.747 14.7105C566.926 14.6899 566.089 14.6697 565.236 14.6501C565.216 14.3589 565.206 14.067 565.206 13.7744C565.206 9.87793 566.539 6.60807 569.205 3.96484C571.894 1.32161 575.414 0 579.767 0C581.453 0 583.276 0.193685 585.235 0.581055C587.195 0.968424 588.289 1.21908 588.517 1.33301C588.608 1.37858 588.699 1.40137 588.79 1.40137L591.183 7.69043L590.772 7.75879C590.772 7.736 590.134 7.0638 588.858 5.74219C587.605 4.42057 586.158 3.40658 584.518 2.7002C582.9 1.97103 581.065 1.60645 579.015 1.60645C575.574 1.60645 572.84 2.59766 570.812 4.58008C568.806 6.53971 567.804 8.9095 567.804 11.6895C567.804 12.7807 567.967 13.7923 568.294 14.7242ZM182.599 23.9258V1.81152H183.932C187.851 1.81152 190.813 2.24447 192.818 3.11035C194.846 3.97624 196.384 5.26367 197.433 6.97266C198.481 8.65885 199.005 10.7666 199.005 13.2959C199.005 15.6429 198.321 18.0013 196.954 20.3711C195.61 22.7409 192.864 23.9258 188.717 23.9258H182.599Z" fill="#C9A48A"/>
</g>
<defs>
<filter id="filter0_di_137_135" x="0.967773" y="0" width="600.949" height="59.8848" filterUnits="userSpaceOnUse" color-interpolation-filters="sRGB">
<feFlood flood-opacity="0" result="BackgroundImageFix"/>
<feColorMatrix in="SourceAlpha" type="matrix" values="0 0 0 0 0 0 0 0 0 0 0 0 0 0 0 0 0 0 127 0" result="hardAlpha"/>
<feOffset dx="4" dy="4"/>
<feGaussianBlur stdDeviation="2"/>
<feComposite in2="hardAlpha" operator="out"/>
<feColorMatrix type="matrix" values="0 0 0 0 0 0 0 0 0 0 0 0 0 0 0 0 0 0 0.28 0"/>
<feBlend mode="normal" in2="BackgroundImageFix" result="effect1_dropShadow_137_135"/>
<feBlend mode="normal" in="SourceGraphic" in2="effect1_dropShadow_137_135" result="shape"/>
<feColorMatrix in="SourceAlpha" type="matrix" values="0 0 0 0 0 0 0 0 0 0 0 0 0 0 0 0 0 0 127 0" result="hardAlpha"/>
<feOffset dy="2"/>
<feGaussianBlur stdDeviation="2.5"/>
<feComposite in2="hardAlpha" operator="arithmetic" k2="-1" k3="1"/>
<feColorMatrix type="matrix" values="0 0 0 0 0.54902 0 0 0 0 0.411765 0 0 0 0 0.317647 0 0 0 1 0"/>
<feBlend mode="normal" in2="shape" result="effect2_innerShadow_137_135"/>
</filter>
</defs>
</svg>
