<svg width="442" height="167" viewBox="0 0 442 167" fill="none" xmlns="http://www.w3.org/2000/svg">
<g opacity="0.8" filter="url(#filter0_di_137_139)">
<path fill-rule="evenodd" clip-rule="evenodd" d="M93.1396 12.4033L90.4541 4.78613C90.4215 4.75358 90.3564 4.72103 90.2588 4.68848L87.0361 3.46777C85.083 2.68652 82.6253 1.93783 79.6631 1.22168C76.7334 0.472982 73.2503 0.0986328 69.2139 0.0986328C61.1409 0.0986328 53.9632 1.85645 47.6807 5.37207C41.3981 8.85514 36.5804 13.6403 33.2275 19.7275C29.9306 25.7396 28.2705 32.0084 28.2473 38.534C30.6078 38.3548 33.0694 38.1921 35.6129 38.0462C35.2271 35.8821 35.0342 33.8287 35.0342 31.8857C35.0342 23.6175 38.0452 16.57 44.0674 10.7432C50.1221 4.91634 58.0485 2.00293 67.8467 2.00293C77.2868 2.00293 85.4899 5.46973 92.4561 12.4033H93.1396ZM37.9373 46.6051C35.1045 46.6005 32.1404 46.6062 29.0279 46.6207C30.3437 53.0392 33.3224 58.7558 37.9639 63.7705C44.4743 70.7367 55.2653 74.2197 70.3369 74.2197C74.4059 74.2197 77.6449 74.057 80.0537 73.7314C82.4951 73.4059 87.7848 72.3643 95.9229 70.6064L100.952 62.8916L100.317 62.6963C97.7783 65.626 93.9046 67.9697 88.6963 69.7275C83.5205 71.4528 78.2308 72.3154 72.8271 72.3154C64.5915 72.3154 57.5765 70.1833 51.7822 65.9189C45.988 61.6221 41.7399 56.1533 39.0381 49.5127C38.6417 48.5266 38.2748 47.5575 37.9373 46.6051ZM105.524 52.1343C108.903 52.794 112.437 53.5262 116.209 54.3376C117.296 55.8821 118.509 57.3825 119.849 58.8389C126.945 66.5537 134.904 70.4111 143.726 70.4111C148.649 70.4111 153.507 69.1059 158.302 66.4955C159.201 66.8461 160.103 67.2042 161.007 67.5702C154.576 72.0032 146.814 74.2197 137.72 74.2197C127.759 74.2197 119.604 70.9645 113.257 64.4541C109.66 60.7655 107.083 56.6589 105.524 52.1343ZM175.973 47.5846C177.587 42.8888 178.394 37.7861 178.394 32.2764C178.394 23.0967 175.187 15.4469 168.774 9.32715C162.362 3.1748 154.11 0.0986328 144.019 0.0986328C135.588 0.0986328 128.296 2.14941 122.144 6.25098C115.991 10.32 111.385 15.5934 108.325 22.0713C105.784 27.4501 104.299 32.7167 103.867 37.8711C105.849 37.9739 107.786 38.087 109.669 38.2106C109.359 36.1889 109.204 34.1132 109.204 31.9834C109.204 24.0081 112.101 17.335 117.896 11.9639C123.722 6.59277 130.2 3.90723 137.329 3.90723C142.375 3.90723 147.86 5.51855 153.784 8.74121C159.741 11.9639 164.575 16.4235 168.286 22.1201C172.03 27.8167 173.901 34.1481 173.901 41.1143C173.901 43.0859 173.679 45.0366 173.234 46.9664C174.152 47.1693 175.065 47.3754 175.973 47.5846ZM191.932 51.7273C190.987 51.4528 190.037 51.1824 189.083 50.9161L195.044 8.69238C193.709 5.46973 192.375 3.53288 191.04 2.88184C189.705 2.23079 188.42 1.90527 187.183 1.90527V1.17285H200.757L226.05 60.0107L251.44 1.17285H262.769V1.90527C258.96 2.10059 257.056 4.10254 257.056 7.91113C257.056 8.72493 257.153 9.84798 257.349 11.2803L264.868 65.7725C265.324 68.5068 265.828 70.2646 266.382 71.0459C266.968 71.7946 268.156 72.2503 269.946 72.4131V73.0967H253.784V72.4131C255.9 72.4782 256.958 71.4365 256.958 69.2881C256.958 68.7998 256.86 67.8395 256.665 66.4072L249.341 13.5752L227.225 64.6338C224.091 63.2201 220.924 61.8843 217.605 60.5674L197.144 13.6729L191.932 51.7273ZM240.063 110.273C243.089 112.025 245.834 113.592 248.364 115.009V148.601C248.364 151.595 248.478 153.435 248.706 154.118C248.966 154.769 249.438 155.323 250.122 155.778C250.838 156.201 252.091 156.413 253.882 156.413V157.097H234.692V156.413C237.101 156.413 238.599 155.957 239.185 155.046C239.771 154.102 240.063 151.986 240.063 148.698V110.273ZM218.702 97.6987C219.469 98.1525 220.244 98.6117 221.025 99.0762C221.082 99.1097 221.138 99.1431 221.194 99.1766L197.534 158.22H196.606L171.021 94.8896C169.198 90.43 167.7 87.8258 166.528 87.0771C165.356 86.2959 164.152 85.9053 162.915 85.9053V85.1729H179.517V85.9053C178.052 85.8076 177.319 86.3773 177.319 87.6143C177.319 88.1025 177.417 88.6234 177.612 89.1768L199.927 144.597L218.702 97.6987ZM260.877 121.66C263.692 123.051 266.319 124.258 268.955 125.382C269.609 127.951 270.509 130.661 271.655 133.513C274.357 140.153 278.605 145.622 284.399 149.919C290.194 154.183 297.209 156.315 305.444 156.315C310.848 156.315 316.138 155.453 321.313 153.728C326.522 151.97 330.396 149.626 332.935 146.696L333.569 146.892L328.54 154.606C320.402 156.364 315.112 157.406 312.671 157.731C310.262 158.057 307.023 158.22 302.954 158.22C287.882 158.22 277.091 154.737 270.581 147.771C264.103 140.772 260.864 132.406 260.864 122.673C260.864 122.335 260.869 121.997 260.877 121.66ZM278.623 93.0286C277.873 92.6272 277.132 92.2285 276.402 91.833C277.631 90.9509 278.93 90.1306 280.298 89.3721C286.58 85.8564 293.758 84.0986 301.831 84.0986C305.868 84.0986 309.351 84.473 312.28 85.2217C315.243 85.9378 317.7 86.6865 319.653 87.4678L322.876 88.6885C322.974 88.721 323.039 88.7536 323.071 88.7861L325.757 96.4033H325.073C318.107 89.4697 309.904 86.0029 300.464 86.0029C291.679 86.0029 284.399 88.3448 278.623 93.0286ZM343.384 146.04V151.286C343.384 153.532 342.944 154.932 342.065 155.485C341.219 156.006 339.966 156.315 338.306 156.413V157.097H387.476V150.087C387.042 150.085 386.616 150.083 386.197 150.08C385.857 151.289 385.453 152.146 384.985 152.653C384.204 153.467 383.244 154.021 382.104 154.313C380.998 154.574 378.426 154.704 374.39 154.704H361.694C358.96 154.704 356.909 154.525 355.542 154.167C354.207 153.776 353.231 152.849 352.612 151.384C352.219 150.433 351.951 149.108 351.808 147.408C351.522 147.363 351.231 147.318 350.937 147.272C348.351 146.866 345.836 146.456 343.384 146.04ZM351.685 123.714C348.831 123.01 346.046 122.281 343.384 121.538V93.1807C343.384 90.5439 343.156 88.6885 342.7 87.6143C342.244 86.54 340.78 86.0029 338.306 86.0029V85.1729H383.521V95.085H382.788C381.812 91.4066 380.981 89.2419 380.298 88.5908C379.647 87.9398 378.019 87.6143 375.415 87.6143H351.685V119.89H373.706C375.887 119.89 377.271 119.694 377.856 119.304C378.442 118.881 378.752 118.278 378.784 117.497H379.517V124.284H378.784C378.621 123.34 378.231 122.705 377.612 122.38C377.026 122.054 375.92 121.892 374.292 121.892H351.685V123.714ZM396.056 150.094C396.264 150.306 396.48 150.508 396.704 150.7C399.894 153.435 404.858 154.802 411.597 154.802C417.716 154.802 422.355 153.353 425.513 150.456C425.721 150.267 425.923 150.075 426.117 149.881C427.396 149.847 428.604 149.806 429.759 149.76C429.146 150.513 428.479 151.233 427.759 151.921C426.359 153.256 424.927 154.281 423.462 154.997C421.997 155.681 419.686 156.201 416.528 156.56C413.371 156.918 411.287 157.097 410.278 157.097H391.089V150.096C392.649 150.098 394.301 150.096 396.056 150.094ZM433.745 131.682C431.534 131.74 429.35 131.785 427.198 131.816C426.302 130.828 425.236 129.929 423.999 129.118C422.013 127.784 418.254 126.172 412.72 124.284C407.218 122.364 403.345 120.687 401.099 119.255C398.885 117.79 397.03 115.609 395.532 112.712C394.035 109.782 393.286 106.804 393.286 103.776C393.286 98.21 395.19 93.5387 398.999 89.7627C402.84 85.9867 407.869 84.0986 414.087 84.0986C416.496 84.0986 419.1 84.3753 421.899 84.9287C424.699 85.4821 426.261 85.8402 426.587 86.0029C426.717 86.068 426.847 86.1006 426.978 86.1006L430.396 95.085L429.81 95.1826C429.81 95.1501 428.898 94.1898 427.075 92.3018C425.285 90.4137 423.218 88.9652 420.874 87.9561C418.563 86.9144 415.942 86.3936 413.013 86.3936C408.097 86.3936 404.191 87.8096 401.294 90.6416C398.429 93.4411 396.997 96.8265 396.997 100.798C396.997 103.435 397.664 105.746 398.999 107.731C400.366 109.685 403.198 111.507 407.495 113.2C414.884 115.674 419.93 117.546 422.632 118.815C425.366 120.052 427.987 122.168 430.493 125.163C432.062 127.013 433.146 129.186 433.745 131.682ZM274.341 1.17285V1.90527C275.806 1.90527 276.945 2.13314 277.759 2.58887C278.573 3.0446 279.045 3.74447 279.175 4.68848C279.338 5.63249 279.419 7.40658 279.419 10.0107V64.21C279.419 67.8883 279.11 70.1833 278.491 71.0947C277.873 71.9736 276.457 72.4131 274.243 72.4131V73.0967H302.026C307.267 73.0967 311.336 72.4945 314.233 71.29C317.163 70.0531 319.751 67.5791 321.997 63.8682C324.276 60.1572 325.415 56.0394 325.415 51.5146C325.415 46.6644 324.097 42.5466 321.46 39.1611C318.823 35.7432 314.917 33.5947 309.741 32.7158C315.731 29.2002 318.726 24.3988 318.726 18.3115C318.726 15.2191 317.993 12.4684 316.528 10.0596C315.063 7.61816 313.289 5.7627 311.206 4.49316C309.123 3.19108 306.942 2.31217 304.663 1.85645C302.384 1.40072 298.511 1.17285 293.042 1.17285H274.341ZM287.72 34.2783V2.68652H289.624C295.223 2.68652 299.455 3.30501 302.319 4.54199C305.216 5.77897 307.414 7.61816 308.911 10.0596C310.409 12.4684 311.157 15.4795 311.157 19.0928C311.157 22.4456 310.181 25.8148 308.228 29.2002C306.307 32.5856 302.384 34.2783 296.46 34.2783H287.72ZM287.72 35.792H293.335C300.203 35.792 304.923 36.1501 307.495 36.8662C310.099 37.5824 312.427 39.6006 314.478 42.9209C316.528 46.2412 317.554 50.5381 317.554 55.8115C317.554 60.8896 316.398 64.7308 314.087 67.335C311.776 69.9066 307.821 71.1924 302.222 71.1924C298.608 71.1924 295.841 70.8831 293.921 70.2646C292 69.6136 290.601 68.7673 289.722 67.7256C288.875 66.6839 288.322 65.6911 288.062 64.7471C287.834 63.8031 287.72 61.7523 287.72 58.5947V35.792ZM396.899 9.32715C390.487 3.1748 382.235 0.0986328 372.144 0.0986328C363.713 0.0986328 356.421 2.14941 350.269 6.25098C344.116 10.32 339.51 15.5934 336.45 22.0713C333.39 28.5492 331.86 34.8643 331.86 41.0166C331.86 50.1312 335.034 57.9437 341.382 64.4541C347.729 70.9645 355.884 74.2197 365.845 74.2197C378.117 74.2197 387.964 70.1833 395.386 62.1104C402.808 54.0374 406.519 44.0928 406.519 32.2764C406.519 23.0967 403.312 15.4469 396.899 9.32715ZM386.499 66.4561C381.681 69.0928 376.798 70.4111 371.851 70.4111C363.029 70.4111 355.07 66.5537 347.974 58.8389C340.877 51.124 337.329 42.1722 337.329 31.9834C337.329 24.0081 340.226 17.335 346.021 11.9639C351.847 6.59277 358.325 3.90723 365.454 3.90723C370.5 3.90723 375.985 5.51855 381.909 8.74121C387.866 11.9639 392.7 16.4235 396.411 22.1201C400.155 27.8167 402.026 34.1481 402.026 41.1143C402.026 46.0296 400.643 50.8148 397.876 55.4697C395.109 60.1247 391.317 63.7868 386.499 66.4561ZM39.7705 95.085L36.3525 86.1006C36.2223 86.1006 36.0921 86.068 35.9619 86.0029C35.6364 85.8402 34.0739 85.4821 31.2744 84.9287C28.4749 84.3753 25.8708 84.0986 23.4619 84.0986C17.2445 84.0986 12.2152 85.9867 8.37402 89.7627C4.56543 93.5387 2.66113 98.21 2.66113 103.776C2.66113 106.804 3.40983 109.782 4.90723 112.712C6.40462 115.609 8.26009 117.79 10.4736 119.255C12.7197 120.687 16.5934 122.364 22.0947 124.284C27.6286 126.172 31.3883 127.784 33.374 129.118C35.3597 130.42 36.9059 131.95 38.0127 133.708C39.1195 135.433 39.6729 137.533 39.6729 140.007C39.6729 144.076 38.0778 147.559 34.8877 150.456C31.7301 153.353 27.0915 154.802 20.9717 154.802C14.2334 154.802 9.26921 153.435 6.0791 150.7C2.889 147.966 1.26139 143.132 1.19629 136.198H0.463867V157.097H19.6533C20.6624 157.097 22.7458 156.918 25.9033 156.56C29.0609 156.201 31.3721 155.681 32.8369 154.997C34.3018 154.281 35.7341 153.256 37.1338 151.921C38.5661 150.554 39.7868 149.056 40.7959 147.429C41.805 145.769 42.5374 144.06 42.9932 142.302C43.4489 140.511 43.6768 138.64 43.6768 136.687C43.6768 131.999 42.4072 128.158 39.8682 125.163C37.3617 122.168 34.7412 120.052 32.0068 118.815C29.305 117.546 24.2594 115.674 16.8701 113.2C12.5732 111.507 9.74121 109.685 8.37402 107.731C7.03939 105.746 6.37207 103.435 6.37207 100.798C6.37207 96.8265 7.80436 93.4411 10.6689 90.6416C13.5661 87.8096 17.4723 86.3936 22.3877 86.3936C25.3174 86.3936 27.9378 86.9144 30.249 87.9561C32.5928 88.9652 34.6598 90.4137 36.4502 92.3018C38.2731 94.1898 39.1846 95.1501 39.1846 95.1826L39.7705 95.085ZM49.8291 85.1729V86.0029C52.3031 86.0029 53.7679 86.54 54.2236 87.6143C54.6794 88.6885 54.9072 90.5439 54.9072 93.1807V151.286C54.9072 153.532 54.4678 154.932 53.5889 155.485C52.7425 156.006 51.4893 156.315 49.8291 156.413V157.097H98.999V147.185H98.3154C97.8923 149.984 97.29 151.807 96.5088 152.653C95.7275 153.467 94.7673 154.021 93.6279 154.313C92.5212 154.574 89.9495 154.704 85.9131 154.704H73.2178C70.4834 154.704 68.4326 154.525 67.0654 154.167C65.7308 153.776 64.7542 152.849 64.1357 151.384C63.5173 149.886 63.208 147.461 63.208 144.108V121.892H85.8154C87.443 121.892 88.5498 122.054 89.1357 122.38C89.7542 122.705 90.1449 123.34 90.3076 124.284H91.04V117.497H90.3076C90.2751 118.278 89.9658 118.881 89.3799 119.304C88.7939 119.694 87.4105 119.89 85.2295 119.89H63.208V87.6143H86.9385C89.5426 87.6143 91.1702 87.9398 91.8213 88.5908C92.5049 89.2419 93.335 91.4066 94.3115 95.085H95.0439V85.1729H49.8291ZM104.028 85.1729V85.9053C106.502 85.9378 107.983 86.5726 108.472 87.8096C108.96 89.014 109.204 90.5439 109.204 92.3994V149.577C109.204 152.279 108.911 154.069 108.325 154.948C107.772 155.827 106.34 156.315 104.028 156.413V157.097H122.632V156.413C120.386 156.413 118.97 155.941 118.384 154.997C117.798 154.021 117.505 152.425 117.505 150.212V122.673H123.315L129.712 122.478L136.938 133.61C136.938 133.675 136.971 133.741 137.036 133.806C144.458 144.873 149.666 151.644 152.661 154.118C155.656 156.56 159.237 157.78 163.403 157.78C169.653 157.78 174.731 156.185 178.638 152.995L178.345 152.019C175.22 153.874 172.453 154.802 170.044 154.802C167.603 154.802 165.08 154.086 162.476 152.653C159.871 151.188 156.177 147.152 151.392 140.544C146.639 133.936 143.709 129.655 142.603 127.702L137.524 119.89C141.528 117.611 144.621 114.828 146.802 111.54C149.015 108.22 150.122 104.737 150.122 101.091C150.122 97.9007 149.504 95.2152 148.267 93.0342C147.03 90.8206 145.19 89.0791 142.749 87.8096C140.34 86.5075 137.98 85.7425 135.669 85.5146C133.358 85.2868 129.614 85.1729 124.438 85.1729H104.028ZM117.505 120.817V87.0771H123.413C130.509 87.0771 135.457 89.0628 138.257 93.0342C141.089 96.973 142.505 101.156 142.505 105.583C142.505 110.14 141.073 113.819 138.208 116.618C135.343 119.418 130.949 120.817 125.024 120.817H117.505Z" fill="#C9A48A"/>
</g>
<defs>
<filter id="filter0_di_137_139" x="0.463867" y="0.0986328" width="441.281" height="166.121" filterUnits="userSpaceOnUse" color-interpolation-filters="sRGB">
<feFlood flood-opacity="0" result="BackgroundImageFix"/>
<feColorMatrix in="SourceAlpha" type="matrix" values="0 0 0 0 0 0 0 0 0 0 0 0 0 0 0 0 0 0 127 0" result="hardAlpha"/>
<feOffset dx="4" dy="4"/>
<feGaussianBlur stdDeviation="2"/>
<feComposite in2="hardAlpha" operator="out"/>
<feColorMatrix type="matrix" values="0 0 0 0 0 0 0 0 0 0 0 0 0 0 0 0 0 0 0.28 0"/>
<feBlend mode="normal" in2="BackgroundImageFix" result="effect1_dropShadow_137_139"/>
<feBlend mode="normal" in="SourceGraphic" in2="effect1_dropShadow_137_139" result="shape"/>
<feColorMatrix in="SourceAlpha" type="matrix" values="0 0 0 0 0 0 0 0 0 0 0 0 0 0 0 0 0 0 127 0" result="hardAlpha"/>
<feOffset dy="2"/>
<feGaussianBlur stdDeviation="2.5"/>
<feComposite in2="hardAlpha" operator="arithmetic" k2="-1" k3="1"/>
<feColorMatrix type="matrix" values="0 0 0 0 0.54902 0 0 0 0 0.411765 0 0 0 0 0.317647 0 0 0 1 0"/>
<feBlend mode="normal" in2="shape" result="effect2_innerShadow_137_139"/>
</filter>
</defs>
</svg>
