<svg width="579" height="69" viewBox="0 0 579 69" fill="none" xmlns="http://www.w3.org/2000/svg">
<path opacity="0.8" fill-rule="evenodd" clip-rule="evenodd" d="M58.6221 13.0693L56.2051 6.21387C56.1758 6.18457 56.1172 6.15527 56.0293 6.12598L53.1289 5.02734C51.3711 4.32422 49.1592 3.65039 46.4932 3.00586C43.8564 2.33203 40.7217 1.99512 37.0889 1.99512C29.8232 1.99512 23.3633 3.57715 17.709 6.74121C12.0547 9.87598 7.71875 14.1826 4.70117 19.6611C1.71289 25.1104 0.21875 30.7939 0.21875 36.7119C0.21875 41.5492 1.10766 46.0112 2.88549 50.098C5.79106 50.267 8.85025 50.4441 11.9407 50.6217C11.1892 49.2988 10.5192 47.9142 9.93066 46.4678C7.52832 40.4912 6.32715 35.2031 6.32715 30.6035C6.32715 23.1621 9.03711 16.8193 14.457 11.5752C19.9062 6.33105 27.04 3.70898 35.8584 3.70898C44.3545 3.70898 51.7373 6.8291 58.0068 13.0693H58.6221ZM63.4352 59.966C63.8369 59.9939 64.2414 60.0219 64.6487 60.0498L61.127 65.4521C53.8027 67.0342 49.042 67.9717 46.8447 68.2646C44.6768 68.5576 41.7617 68.7041 38.0996 68.7041C24.5352 68.7041 14.8232 65.5693 8.96387 59.2998C7.29999 57.5021 5.87354 55.6043 4.68453 53.6062C7.6464 54.0812 10.669 54.5384 13.5943 54.9465C14.0715 55.0124 14.546 55.0775 15.0182 55.1419C16.8436 57.4013 18.971 59.4318 21.4004 61.2334C26.6152 65.0713 32.9287 66.9902 40.3408 66.9902C45.2041 66.9902 49.9648 66.2139 54.623 64.6611C58.2992 63.4204 61.2365 61.8554 63.4352 59.966ZM77.7107 60.8795C82.2389 61.1382 86.1303 61.3154 90.5449 61.436C94.7935 63.9962 99.3283 65.2764 104.149 65.2764C108.603 65.2764 112.997 64.0898 117.333 61.7168C117.354 61.7051 117.375 61.6934 117.396 61.6817C118.592 61.6828 119.832 61.6836 121.12 61.6841C115.067 66.3641 107.609 68.7041 98.7441 68.7041C90.2855 68.7041 83.2743 66.0959 77.7107 60.8795ZM128.967 53.2007C133.223 46.8587 135.351 39.4435 135.351 30.9551C135.351 22.6934 132.465 15.8086 126.693 10.3008C120.922 4.76367 113.495 1.99512 104.413 1.99512C96.8252 1.99512 90.2627 3.84082 84.7256 7.53223C79.1885 11.1943 75.043 15.9404 72.2891 21.7705C69.5352 27.6006 68.1582 33.2842 68.1582 38.8213C68.1582 44.0344 69.3118 48.7743 71.6191 53.0409C74.8626 53.1172 78.0736 53.1834 81.2431 53.2394C75.8011 46.672 73.0801 39.156 73.0801 30.6914C73.0801 23.5137 75.6875 17.5078 80.9023 12.6738C86.1465 7.83984 91.9766 5.42285 98.3926 5.42285C102.934 5.42285 107.87 6.87305 113.202 9.77344C118.563 12.6738 122.914 16.6875 126.254 21.8145C129.623 26.9414 131.308 32.6396 131.308 38.9092C131.308 43.333 130.062 47.6396 127.572 51.8291C127.282 52.3167 126.98 52.7921 126.665 53.2555C127.441 53.2383 128.209 53.22 128.967 53.2007ZM147.983 61.6544C147.904 63.823 147.634 65.2354 147.172 65.8916C146.645 66.6826 145.268 67.0781 143.041 67.0781V67.6934H155.478V67.0781C153.72 66.8145 152.621 66.5508 152.182 66.2871C151.742 66.0234 151.405 65.5254 151.171 64.793C150.948 64.096 150.831 63.0409 150.82 61.6277C149.912 61.638 148.969 61.6469 147.983 61.6544ZM150.819 52.1642C149.872 52.2304 148.934 52.2939 148.007 52.3547V16.4092C148.007 12.5713 147.465 9.43652 146.381 7.00488C145.326 4.57324 142.865 3.44531 138.998 3.62109V2.96191H151.171L193.41 47.9553C190.545 48.3375 187.462 48.7174 184.237 49.0878L150.819 13.5088V52.1642ZM193.849 59.3212L202.455 68.4844V58.6114C199.656 58.8544 196.793 59.0905 193.849 59.3212ZM214.808 57.4507C215.531 59.3308 216.54 60.826 217.836 61.9365C220.707 64.3975 225.175 65.6279 231.239 65.6279C236.747 65.6279 240.922 64.3242 243.764 61.7168C246.369 59.3508 247.792 56.5507 248.033 53.3163C249.192 53.1459 250.307 52.9805 251.388 52.8185C251.299 53.3457 251.189 53.8655 251.059 54.3779C250.648 55.96 249.989 57.498 249.081 58.9922C248.173 60.457 247.074 61.8047 245.785 63.0352C244.525 64.2363 243.236 65.1592 241.918 65.8037C240.6 66.4189 238.52 66.8877 235.678 67.21C232.836 67.5322 230.961 67.6934 230.053 67.6934H212.782V57.6538C213.46 57.5867 214.136 57.519 214.808 57.4507ZM247.161 37.7259C243.845 38.4563 240.443 39.1908 237.037 39.9119C235.651 39.3613 234.055 38.7781 232.25 38.1621C227.299 36.4336 223.812 34.9248 221.791 33.6357C219.799 32.3174 218.129 30.3545 216.781 27.7471C215.434 25.1104 214.76 22.4297 214.76 19.7051C214.76 14.6953 216.474 10.4912 219.901 7.09277C223.358 3.69434 227.885 1.99512 233.48 1.99512C235.648 1.99512 237.992 2.24414 240.512 2.74219C243.031 3.24023 244.438 3.5625 244.73 3.70898C244.848 3.76758 244.965 3.79688 245.082 3.79688L248.158 11.8828L247.631 11.9707C247.631 11.9414 246.811 11.0771 245.17 9.37793C243.559 7.67871 241.698 6.375 239.589 5.4668C237.509 4.5293 235.15 4.06055 232.514 4.06055C228.09 4.06055 224.574 5.33496 221.967 7.88379C219.389 10.4033 218.1 13.4502 218.1 17.0244C218.1 19.3975 218.7 21.4775 219.901 23.2646C221.132 25.0225 223.681 26.6631 227.548 28.1865C234.198 30.4131 238.739 32.0977 241.171 33.2402C243.24 34.1763 245.237 35.6715 247.161 37.7259ZM262.228 51.0938C262.783 55.8965 264.597 59.7744 267.67 62.7275C271.449 66.3311 276.547 68.1328 282.963 68.1328C291.605 68.1328 299.047 64.6611 305.287 57.7178V67.6934H317.504V67.0781C315.98 67.0781 314.896 66.873 314.252 66.4629C313.637 66.0234 313.227 65.4814 313.021 64.8369C312.816 64.1924 312.714 62.8301 312.714 60.75V39.5108C310.091 40.1739 307.621 40.7969 305.287 41.3833V55.3447C299.867 61.6436 293.656 64.793 286.654 64.793C282.201 64.793 278.231 63.2109 274.745 60.0469C272.204 57.7192 270.589 54.2631 269.9 49.6785C267.31 50.1905 264.805 50.6509 262.228 51.0938ZM269.516 32.4986C267.273 33.0701 264.758 33.6859 262.045 34.3309V9.02637C262.045 6.68262 261.767 5.20312 261.21 4.58789C260.653 3.94336 259.35 3.62109 257.299 3.62109V2.96191H274.481V3.62109C272.665 3.62109 271.376 3.91406 270.614 4.5C269.882 5.05664 269.516 6.4043 269.516 8.54297V32.4986ZM305.287 23.9541C307.756 23.4522 310.214 22.9761 312.714 22.5148V8.01562C312.714 6.375 312.978 5.26172 313.505 4.67578C314.062 4.08984 315.395 3.73828 317.504 3.62109V2.96191H300.497V3.62109H301.112C302.548 3.62109 303.603 3.9873 304.276 4.71973C304.95 5.42285 305.287 7.69336 305.287 11.5312V23.9541ZM327.128 35.8855V62.0244C327.128 63.8701 326.82 65.1738 326.205 65.9355C325.619 66.6973 324.315 67.0781 322.294 67.0781V67.6934H366.898V52.1367H366.283C366.078 57.3223 365.082 60.8525 363.295 62.7275C361.537 64.6025 358.754 65.54 354.945 65.54H347.035C342.494 65.54 339.286 64.749 337.411 63.167C335.536 61.5557 334.599 58.8018 334.599 54.9053V34.0508C332.182 34.6376 329.695 35.2487 327.128 35.8855ZM334.599 18.9377C332.164 19.2908 329.753 19.6564 327.364 20.0347C327.285 20.0471 327.206 20.0594 327.128 20.0717V9.02637C327.128 7.15137 326.894 5.80371 326.425 4.9834C325.956 4.13379 324.55 3.67969 322.206 3.62109V2.96191H339.564V3.62109C337.953 3.62109 336.825 3.82617 336.181 4.23633C335.536 4.64648 335.111 5.12988 334.906 5.68652C334.701 6.24316 334.599 7.50293 334.599 9.46582V18.9377ZM385.575 23.4417V61.4092C385.575 63.6357 385.297 65.1006 384.74 65.8037C384.184 66.5068 382.807 66.9316 380.609 67.0781V67.6934H398.144V67.0781C396.737 67.0781 395.712 66.9756 395.067 66.7705C394.452 66.5361 393.954 66.0088 393.573 65.1885C393.222 64.3389 393.046 62.7715 393.046 60.4863V22.3159C390.543 22.6725 388.06 23.0464 385.575 23.4417ZM393.046 13.0801C390.518 13.2408 388.029 13.4086 385.575 13.5835V5.07129H369.359C367.719 5.07129 366.649 5.17383 366.151 5.37891C365.653 5.55469 365.404 6.02344 365.404 6.78516C365.404 7.16602 365.521 7.75195 365.756 8.54297H365.141L362.064 0.720703H362.68C363.207 1.77539 363.72 2.41992 364.218 2.6543C364.745 2.85938 365.858 2.96191 367.558 2.96191H410.58C412.279 2.96191 413.495 2.85938 414.228 2.6543C414.989 2.41992 415.546 1.77539 415.897 0.720703H416.513L413.437 8.54297H412.821C412.938 8.07422 412.997 7.44434 412.997 6.65332C412.997 5.97949 412.748 5.55469 412.25 5.37891C411.781 5.17383 411.02 5.07129 409.965 5.07129H393.046V13.0801ZM424.379 18.7094V60.1348C424.379 63.0938 424.115 64.998 423.588 65.8477C423.061 66.668 421.713 67.0781 419.545 67.0781V67.6934H436.815V67.0781C435.204 67.0781 434.076 66.8877 433.432 66.5068C432.816 66.0967 432.392 65.5986 432.157 65.0127C431.952 64.3975 431.85 62.7422 431.85 60.0469V18.0264C430.159 18.1764 428.427 18.3332 426.643 18.4972C425.882 18.5678 425.127 18.6385 424.379 18.7094ZM431.85 11.2529C429.482 11.3242 427.202 11.4025 425.027 11.4877C424.811 11.4959 424.595 11.5041 424.379 11.5123V10.916C424.379 7.83984 424.086 5.83301 423.5 4.89551C422.914 3.92871 421.596 3.50391 419.545 3.62109V2.96191H436.815V3.62109C435.966 3.5332 435.014 3.66504 433.959 4.0166C432.934 4.36816 432.318 4.88086 432.113 5.55469C431.938 6.22852 431.85 7.8252 431.85 10.3447V11.2529ZM449.472 16.6143V60.2227C449.472 63.2109 449.193 65.1006 448.637 65.8916C448.109 66.6826 446.732 67.0781 444.506 67.0781V67.6934H456.942V67.0781C455.185 66.8145 454.086 66.5508 453.646 66.2871C453.207 66.0234 452.87 65.5254 452.636 64.793C452.401 64.0605 452.284 62.9326 452.284 61.4092V16.4257C451.351 16.4862 450.414 16.549 449.472 16.6143ZM454.871 16.2632L503.92 68.4844V14.9951C502.983 14.9979 502.061 15.0013 501.151 15.0052V54.6416L464.642 15.751C461.347 15.8964 458.119 16.0662 454.871 16.2632ZM459.947 10.7495C456.236 10.7794 452.578 10.8212 449.01 10.8751C448.741 9.43143 448.352 8.14136 447.846 7.00488C446.791 4.57324 444.33 3.44531 440.463 3.62109V2.96191H452.636L459.947 10.7495ZM501.151 10.902C502.081 10.9168 503.004 10.9325 503.92 10.9489V9.55371C503.92 7.15137 504.286 5.58398 505.019 4.85156C505.751 4.08984 507.069 3.67969 508.974 3.62109V2.96191H496.449V3.62109C497.826 3.62109 498.954 3.89941 499.833 4.45605C500.712 4.9834 501.151 6.47754 501.151 8.93848V10.902ZM522.57 15.0001C521.441 16.3514 520.425 17.7879 519.521 19.3096C516.503 24.4365 514.994 29.5781 514.994 34.7344C514.994 39.4512 516.195 44.0654 518.598 48.5771C521.029 53.0889 524.193 56.8682 528.09 59.915C532.016 62.9326 535.854 64.9834 539.604 66.0674C543.383 67.1514 547.777 67.6934 552.787 67.6934H578.891V67.0781H577.968C576.532 67.0781 575.536 66.6387 574.979 65.7598C574.452 64.8516 574.188 63.3721 574.188 61.3213V51.126C574.188 49.0459 574.496 47.6396 575.111 46.9072C575.756 46.1748 577.016 45.8086 578.891 45.8086V45.1934H562.147V45.8086C563.612 45.7207 564.74 46.0137 565.531 46.6875C566.322 47.332 566.718 48.6064 566.718 50.5107V60.3105C566.718 62.7129 566.22 64.207 565.224 64.793C564.257 65.3789 561.811 65.7451 557.885 65.8916L554.413 65.9795C552.392 66.0381 549.667 65.8037 546.239 65.2764C542.812 64.7197 539.706 63.7529 536.923 62.376C534.169 60.9697 531.576 58.8018 529.145 55.8721C526.742 52.9131 525.102 49.9248 524.223 46.9072C523.344 43.8604 522.904 40.4033 522.904 36.5361C522.904 28.1224 525.079 20.9512 529.428 15.0225C528.725 15.0202 528.018 15.0177 527.308 15.015C525.694 15.0093 524.115 15.0043 522.57 15.0001ZM532.088 11.8345C530.883 11.7775 529.673 11.7221 528.463 11.6686C527.624 11.631 526.766 11.5945 525.89 11.559C527.846 9.79848 530.044 8.22184 532.484 6.8291C538.08 3.60645 544.423 1.99512 551.513 1.99512C557.87 1.99512 564.594 3.40137 571.684 6.21387L574.364 13.6846H573.749C571.493 10.8135 568.402 8.44043 564.477 6.56543C560.58 4.66113 556.229 3.70898 551.425 3.70898C543.682 3.70898 537.236 6.4175 532.088 11.8345ZM202.455 46.6205C201.644 46.7535 200.873 46.8761 200.147 46.9873C199.995 47.0112 199.841 47.035 199.687 47.0588V8.93848C199.687 6.47754 199.247 4.9834 198.368 4.45605C197.489 3.89941 196.361 3.62109 194.984 3.62109V2.96191H207.509V3.62109C205.604 3.67969 204.286 4.08984 203.554 4.85156C202.821 5.58398 202.455 7.15137 202.455 9.55371V46.6205Z" fill="#C9A48A"/>
</svg>
