<svg width="490" height="76" viewBox="0 0 490 76" fill="none" xmlns="http://www.w3.org/2000/svg">
<path opacity="0.8" fill-rule="evenodd" clip-rule="evenodd" d="M64.8926 14L62.207 6.38281C62.1745 6.35026 62.1094 6.31771 62.0117 6.28516L58.7891 5.06445C56.8359 4.2832 54.3783 3.53451 51.416 2.81836C48.4863 2.06966 45.0033 1.69531 40.9668 1.69531C32.8939 1.69531 25.7161 3.45312 19.4336 6.96875C13.151 10.4518 8.33333 15.237 4.98047 21.3242C4.59315 22.0305 4.22843 22.7403 3.88629 23.4537C5.46194 23.117 7.13518 22.7714 8.86574 22.4264C10.3688 18.7337 12.687 15.3716 15.8203 12.3398C21.875 6.51302 29.8014 3.59961 39.5996 3.59961C49.0397 3.59961 57.2428 7.06641 64.209 14H64.8926ZM7.77353 25.6855C6.05598 25.8029 4.42815 25.9143 2.92474 26.0173C2.86815 26.0212 2.81173 26.025 2.75549 26.0289C0.918498 30.6317 0 35.3786 0 40.2695C0 50.0026 3.23893 58.3685 9.7168 65.3672C16.2272 72.3333 27.0182 75.8164 42.0898 75.8164C46.1589 75.8164 49.3978 75.6536 51.8066 75.3281C54.248 75.0026 59.5378 73.9609 67.6758 72.2031L72.7051 64.4883L72.0703 64.293C69.5312 67.2227 65.6576 69.5664 60.4492 71.3242C55.2734 73.0495 49.9837 73.9121 44.5801 73.9121C36.3444 73.9121 29.3294 71.7799 23.5352 67.5156C17.7409 63.2188 13.4928 57.75 10.791 51.1094C8.12175 44.4688 6.78711 38.5931 6.78711 33.4824C6.78711 30.7502 7.11592 28.1512 7.77353 25.6855ZM80.878 22.0686C81.7187 22.0485 82.5567 22.0292 83.3918 22.0109C81.7686 25.5025 80.957 29.3589 80.957 33.5801C80.957 43.7689 84.5052 52.7207 91.6016 60.4355C98.6979 68.1504 106.657 72.0078 115.479 72.0078C120.426 72.0078 125.309 70.6895 130.127 68.0527C134.945 65.3835 138.737 61.7214 141.504 57.0664C144.271 52.4115 145.654 47.6263 145.654 42.7109C145.654 35.7448 143.783 29.4134 140.039 23.7168C139.747 23.2679 139.447 22.8266 139.141 22.3931C140.016 22.438 140.873 22.4853 141.711 22.5348C143.859 22.6704 146.103 22.8304 148.414 23.0115C149.569 26.3564 150.146 29.9769 150.146 33.873C150.146 45.6895 146.436 55.6341 139.014 63.707C131.592 71.7799 121.745 75.8164 109.473 75.8164C99.5117 75.8164 91.3574 72.5612 85.0098 66.0508C78.6621 59.5404 75.4883 51.7279 75.4883 42.6133C75.4883 36.4609 77.0182 30.1458 80.0781 23.668C80.3339 23.1264 80.6006 22.5933 80.878 22.0686ZM142.264 12.7043C141.714 12.0971 141.135 11.5036 140.527 10.9238C134.115 4.77148 125.863 1.69531 115.771 1.69531C107.34 1.69531 100.049 3.74609 93.8965 7.84766C91.4603 9.45891 89.2665 11.259 87.3152 13.248C88.2586 13.1982 89.1966 13.1528 90.1442 13.1115C95.842 8.03976 102.155 5.50391 109.082 5.50391C114.128 5.50391 119.613 7.11523 125.537 10.3379C126.875 11.0619 128.157 11.8484 129.382 12.6973C134.404 12.6911 138.62 12.6914 142.264 12.7043ZM164.209 24.4697V66.3926C164.209 69.7129 163.9 71.8125 163.281 72.6914C162.695 73.5703 161.165 74.0098 158.691 74.0098V74.6934H172.51V74.0098C170.557 73.7168 169.336 73.4238 168.848 73.1309C168.359 72.8379 167.985 72.2845 167.725 71.4707C167.464 70.6569 167.334 69.4036 167.334 67.7109V24.8057C166.294 24.6913 165.252 24.5793 164.209 24.4697ZM178.241 26.1012L224.707 75.5723V35.0628C223.676 34.8136 222.649 34.5674 221.631 34.3246V60.1914L191.388 27.9758C187.418 27.3388 182.952 26.7048 178.241 26.1012ZM178.518 14.2667C177.795 14.2087 177.066 14.1509 176.332 14.0933C171.392 13.7059 167.591 13.4221 163.952 13.2157C163.669 10.9283 163.152 8.94362 162.402 7.26172C161.23 4.5599 158.496 3.30664 154.199 3.50195V2.76953H167.725L178.518 14.2667ZM221.631 18.8229C222.658 18.9653 223.683 19.1101 224.707 19.2575V10.0938C224.707 7.42448 225.114 5.68294 225.928 4.86914C226.742 4.02279 228.206 3.56706 230.322 3.50195V2.76953H216.406V3.50195C217.936 3.50195 219.189 3.8112 220.166 4.42969C221.143 5.01562 221.631 6.67578 221.631 9.41016V18.8229ZM259.814 44.2627V67.7109C259.814 70.1849 259.505 71.8125 258.887 72.5938C258.268 73.375 256.738 73.847 254.297 74.0098V74.6934H273.779V74.0098C272.217 74.0098 271.077 73.8958 270.361 73.668C269.678 73.4076 269.124 72.8216 268.701 71.9102C268.311 70.9661 268.115 69.2246 268.115 66.6855V46.7622C266.432 46.2572 264.691 45.7299 262.883 45.178C261.921 44.8847 260.896 44.5789 259.814 44.2627ZM268.115 27.423C265.166 26.6677 262.466 26.0201 259.814 25.4292V5.11328H241.797C239.974 5.11328 238.786 5.22721 238.232 5.45508C237.679 5.65039 237.402 6.17122 237.402 7.01758C237.402 7.44076 237.533 8.0918 237.793 8.9707H237.109L233.691 0.279297H234.375C234.961 1.45117 235.531 2.16732 236.084 2.42773C236.67 2.6556 237.907 2.76953 239.795 2.76953H287.598C289.486 2.76953 290.837 2.6556 291.65 2.42773C292.497 2.16732 293.115 1.45117 293.506 0.279297H294.189L290.771 8.9707H290.088C290.218 8.44987 290.283 7.75 290.283 6.87109C290.283 6.1224 290.007 5.65039 289.453 5.45508C288.932 5.22721 288.086 5.11328 286.914 5.11328H268.115V27.423ZM303.125 55.9649V68.8828C303.125 71.1289 302.686 72.5286 301.807 73.082C300.96 73.6029 299.707 73.9121 298.047 74.0098V74.6934H347.217V64.7812H346.533C346.11 67.5807 345.508 69.4036 344.727 70.25C343.945 71.0638 342.985 71.6172 341.846 71.9102C340.739 72.1706 338.167 72.3008 334.131 72.3008H321.436C318.701 72.3008 316.65 72.1217 315.283 71.7637C313.949 71.373 312.972 70.4453 312.354 68.9805C311.735 67.4831 311.426 65.0579 311.426 61.7051V57.6387C308.549 57.0873 305.806 56.5353 303.125 55.9649ZM311.426 39.8534C309.365 39.2485 307.25 38.6237 305.077 37.9779C304.417 37.7819 303.766 37.5889 303.125 37.3989V10.7773C303.125 8.14062 302.897 6.28516 302.441 5.21094C301.986 4.13672 300.521 3.59961 298.047 3.59961V2.76953H343.262V12.6816H342.529C341.553 9.00325 340.723 6.83854 340.039 6.1875C339.388 5.53646 337.76 5.21094 335.156 5.21094H311.426V37.4863H333.447C335.628 37.4863 337.012 37.291 337.598 36.9004C338.184 36.4772 338.493 35.875 338.525 35.0938H339.258V41.8809H338.525C338.363 40.9368 337.972 40.3021 337.354 39.9766C336.768 39.651 335.661 39.4883 334.033 39.4883H311.426V39.8534ZM359.033 64.4952V66.3926C359.033 69.7129 358.724 71.8125 358.105 72.6914C357.52 73.5703 355.99 74.0098 353.516 74.0098V74.6934H367.334V74.0098C365.381 73.7168 364.16 73.4238 363.672 73.1309C363.184 72.8379 362.809 72.2845 362.549 71.4707C362.288 70.6569 362.158 69.4036 362.158 67.7109V64.7996C361.11 64.7 360.068 64.5985 359.033 64.4952ZM362.158 53.0978C361.122 52.881 360.081 52.6588 359.033 52.4307V17.7109C359.033 13.4466 358.431 9.96354 357.227 7.26172C356.055 4.5599 353.32 3.30664 349.023 3.50195V2.76953H362.549L416.455 60.1914V9.41016C416.455 6.67578 415.967 5.01562 414.99 4.42969C414.014 3.8112 412.76 3.50195 411.23 3.50195V2.76953H425.146V3.50195C423.031 3.56706 421.566 4.02279 420.752 4.86914C419.938 5.68294 419.531 7.42448 419.531 10.0938V61.2401C416.117 60.9067 412.543 60.536 408.723 60.1245C407.322 59.9722 405.945 59.8197 404.592 59.6664L362.158 14.4883V53.0978ZM412.454 68.0375L419.531 75.5723V68.2652C417.092 68.1975 414.727 68.1216 412.454 68.0375ZM454.621 68.6926C454.547 70.6206 454.244 71.921 453.711 72.5938C453.092 73.375 451.562 73.847 449.121 74.0098V74.6934H468.604V74.0098C467.041 74.0098 465.902 73.8958 465.186 73.668C464.502 73.4076 463.949 72.8216 463.525 71.9102C463.246 71.2349 463.066 70.1516 462.987 68.6601C460.211 68.679 457.417 68.6899 454.621 68.6926ZM462.939 63.7787V5.11328H481.738C482.91 5.11328 483.757 5.22721 484.277 5.45508C484.831 5.65039 485.107 6.1224 485.107 6.87109C485.107 7.75 485.042 8.44987 484.912 8.9707H485.596L489.014 0.279297H488.33C487.939 1.45117 487.321 2.16732 486.475 2.42773C485.661 2.6556 484.31 2.76953 482.422 2.76953H434.619C432.731 2.76953 431.494 2.6556 430.908 2.42773C430.355 2.16732 429.785 1.45117 429.199 0.279297H428.516L431.934 8.9707H432.617C432.357 8.0918 432.227 7.44076 432.227 7.01758C432.227 6.17122 432.503 5.65039 433.057 5.45508C433.61 5.22721 434.798 5.11328 436.621 5.11328H454.639V63.5672C457.296 63.6521 460.049 63.722 462.939 63.7787Z" fill="#C9A48A"/>
</svg>
