<svg width="498" height="84" viewBox="0 0 498 84" fill="none" xmlns="http://www.w3.org/2000/svg">
<g opacity="0.8" filter="url(#filter0_di_135_109)">
<path fill-rule="evenodd" clip-rule="evenodd" d="M64.8926 13.7207L62.207 6.10352C62.1745 6.07096 62.1094 6.03841 62.0117 6.00586L58.7891 4.78516C56.8359 4.00391 54.3783 3.25521 51.416 2.53906C48.4863 1.79036 45.0033 1.41602 40.9668 1.41602C32.8939 1.41602 25.7161 3.17383 19.4336 6.68945C13.151 10.1725 8.33333 14.9577 4.98047 21.0449C4.59315 21.7512 4.22843 22.461 3.88629 23.1744C5.46194 22.8377 7.13518 22.4921 8.86574 22.1471C10.3688 18.4544 12.687 15.0923 15.8203 12.0605C21.875 6.23372 29.8014 3.32031 39.5996 3.32031C49.0397 3.32031 57.2428 6.78711 64.209 13.7207H64.8926ZM7.77353 25.4062C6.05598 25.5236 4.42815 25.635 2.92474 25.738C2.86815 25.7419 2.81173 25.7457 2.75549 25.7496C0.918498 30.3524 0 35.0993 0 39.9902C0 49.7233 3.23893 58.0892 9.7168 65.0879C16.2272 72.054 27.0182 75.5371 42.0898 75.5371C46.1589 75.5371 49.3978 75.3744 51.8066 75.0488C54.248 74.7233 59.5378 73.6816 67.6758 71.9238L72.7051 64.209L72.0703 64.0137C69.5312 66.9434 65.6576 69.2871 60.4492 71.0449C55.2734 72.7702 49.9837 73.6328 44.5801 73.6328C36.3444 73.6328 29.3294 71.5006 23.5352 67.2363C17.7409 62.9395 13.4928 57.4707 10.791 50.8301C8.12175 44.1895 6.78711 38.3138 6.78711 33.2031C6.78711 30.4709 7.11592 27.8719 7.77353 25.4062ZM80.878 21.7893C81.7187 21.7692 82.5567 21.7499 83.3918 21.7316C81.7686 25.2232 80.957 29.0796 80.957 33.3008C80.957 43.4896 84.5052 52.4414 91.6016 60.1562C98.6979 67.8711 106.657 71.7285 115.479 71.7285C120.426 71.7285 125.309 70.4102 130.127 67.7734C134.945 65.1042 138.737 61.4421 141.504 56.7871C144.271 52.1322 145.654 47.347 145.654 42.4316C145.654 35.4655 143.783 29.1341 140.039 23.4375C139.747 22.9886 139.447 22.5473 139.141 22.1138C140.016 22.1587 140.873 22.206 141.711 22.2555C143.859 22.3911 146.103 22.5511 148.414 22.7322C149.569 26.0771 150.146 29.6976 150.146 33.5938C150.146 45.4102 146.436 55.3548 139.014 63.4277C131.592 71.5006 121.745 75.5371 109.473 75.5371C99.5117 75.5371 91.3574 72.2819 85.0098 65.7715C78.6621 59.2611 75.4883 51.4486 75.4883 42.334C75.4883 36.1816 77.0182 29.8665 80.0781 23.3887C80.3339 22.8471 80.6006 22.314 80.878 21.7893ZM142.264 12.425C141.714 11.8178 141.135 11.2243 140.527 10.6445C134.115 4.49219 125.863 1.41602 115.771 1.41602C107.34 1.41602 100.049 3.4668 93.8965 7.56836C91.4603 9.17961 89.2665 10.9797 87.3152 12.9687C88.2586 12.9189 89.1966 12.8735 90.1442 12.8322C95.842 7.76046 102.155 5.22461 109.082 5.22461C114.128 5.22461 119.613 6.83594 125.537 10.0586C126.875 10.7826 128.157 11.5691 129.382 12.418C134.404 12.4118 138.62 12.4121 142.264 12.425ZM164.209 24.1904V66.1133C164.209 69.4336 163.9 71.5332 163.281 72.4121C162.695 73.291 161.165 73.7305 158.691 73.7305V74.4141H172.51V73.7305C170.557 73.4375 169.336 73.1445 168.848 72.8516C168.359 72.5586 167.985 72.0052 167.725 71.1914C167.464 70.3776 167.334 69.1244 167.334 67.4316V24.5264C166.294 24.412 165.252 24.3 164.209 24.1904ZM178.241 25.8219L224.707 75.293V34.7835C223.676 34.5343 222.649 34.2881 221.631 34.0453V59.9121L191.388 27.6965C187.418 27.0595 182.952 26.4256 178.241 25.8219ZM178.518 13.9874C177.795 13.9294 177.066 13.8716 176.332 13.814C171.392 13.4266 167.591 13.1428 163.952 12.9364C163.669 10.649 163.152 8.66432 162.402 6.98242C161.23 4.2806 158.496 3.02734 154.199 3.22266V2.49023H167.725L178.518 13.9874ZM221.631 18.5436C222.658 18.686 223.683 18.8308 224.707 18.9782V9.81445C224.707 7.14518 225.114 5.40365 225.928 4.58984C226.742 3.74349 228.206 3.28776 230.322 3.22266V2.49023H216.406V3.22266C217.936 3.22266 219.189 3.5319 220.166 4.15039C221.143 4.73633 221.631 6.39648 221.631 9.13086V18.5436ZM259.814 43.9834V67.4316C259.814 69.9056 259.505 71.5332 258.887 72.3145C258.268 73.0957 256.738 73.5677 254.297 73.7305V74.4141H273.779V73.7305C272.217 73.7305 271.077 73.6165 270.361 73.3887C269.678 73.1283 269.124 72.5423 268.701 71.6309C268.311 70.6869 268.115 68.9453 268.115 66.4062V46.483C266.432 45.9779 264.691 45.4506 262.883 44.8987C261.921 44.6054 260.896 44.2996 259.814 43.9834ZM268.115 27.1437C265.166 26.3884 262.466 25.7408 259.814 25.1499V4.83398H241.797C239.974 4.83398 238.786 4.94792 238.232 5.17578C237.679 5.37109 237.402 5.89193 237.402 6.73828C237.402 7.16146 237.533 7.8125 237.793 8.69141H237.109L233.691 0H234.375C234.961 1.17188 235.531 1.88802 236.084 2.14844C236.67 2.3763 237.907 2.49023 239.795 2.49023H287.598C289.486 2.49023 290.837 2.3763 291.65 2.14844C292.497 1.88802 293.115 1.17188 293.506 0H294.189L290.771 8.69141H290.088C290.218 8.17057 290.283 7.4707 290.283 6.5918C290.283 5.8431 290.007 5.37109 289.453 5.17578C288.932 4.94792 288.086 4.83398 286.914 4.83398H268.115V27.1437ZM303.125 55.6856V68.6035C303.125 70.8496 302.686 72.2494 301.807 72.8027C300.96 73.3236 299.707 73.6328 298.047 73.7305V74.4141H347.217V64.502H346.533C346.11 67.3014 345.508 69.1244 344.727 69.9707C343.945 70.7845 342.985 71.3379 341.846 71.6309C340.739 71.8913 338.167 72.0215 334.131 72.0215H321.436C318.701 72.0215 316.65 71.8424 315.283 71.4844C313.949 71.0938 312.972 70.166 312.354 68.7012C311.735 67.2038 311.426 64.7786 311.426 61.4258V57.3594C308.549 56.808 305.806 56.256 303.125 55.6856ZM311.426 39.5741C309.365 38.9692 307.25 38.3444 305.077 37.6986C304.417 37.5026 303.766 37.3096 303.125 37.1196V10.498C303.125 7.86133 302.897 6.00586 302.441 4.93164C301.986 3.85742 300.521 3.32031 298.047 3.32031V2.49023H343.262V12.4023H342.529C341.553 8.72396 340.723 6.55924 340.039 5.9082C339.388 5.25716 337.76 4.93164 335.156 4.93164H311.426V37.207H333.447C335.628 37.207 337.012 37.0117 337.598 36.6211C338.184 36.1979 338.493 35.5957 338.525 34.8145H339.258V41.6016H338.525C338.363 40.6576 337.972 40.0228 337.354 39.6973C336.768 39.3717 335.661 39.209 334.033 39.209H311.426V39.5741ZM359.033 64.2159V66.1133C359.033 69.4336 358.724 71.5332 358.105 72.4121C357.52 73.291 355.99 73.7305 353.516 73.7305V74.4141H367.334V73.7305C365.381 73.4375 364.16 73.1445 363.672 72.8516C363.184 72.5586 362.809 72.0052 362.549 71.1914C362.288 70.3776 362.158 69.1244 362.158 67.4316V64.5203C361.11 64.4207 360.068 64.3192 359.033 64.2159ZM362.158 52.8185C361.122 52.6017 360.081 52.3795 359.033 52.1514V17.4316C359.033 13.1673 358.431 9.68425 357.227 6.98242C356.055 4.2806 353.32 3.02734 349.023 3.22266V2.49023H362.549L416.455 59.9121V9.13086C416.455 6.39648 415.967 4.73633 414.99 4.15039C414.014 3.5319 412.76 3.22266 411.23 3.22266V2.49023H425.146V3.22266C423.031 3.28776 421.566 3.74349 420.752 4.58984C419.938 5.40365 419.531 7.14518 419.531 9.81445V60.9608C416.117 60.6274 412.543 60.2567 408.723 59.8452C407.322 59.6929 405.945 59.5404 404.592 59.3871L362.158 14.209V52.8185ZM412.454 67.7582L419.531 75.293V67.9859C417.092 67.9182 414.727 67.8423 412.454 67.7582ZM454.621 68.4134C454.547 70.3413 454.244 71.6417 453.711 72.3145C453.092 73.0957 451.562 73.5677 449.121 73.7305V74.4141H468.604V73.7305C467.041 73.7305 465.902 73.6165 465.186 73.3887C464.502 73.1283 463.949 72.5423 463.525 71.6309C463.246 70.9556 463.066 69.8723 462.987 68.3808C460.211 68.3997 457.417 68.4106 454.621 68.4134ZM462.939 63.4994V4.83398H481.738C482.91 4.83398 483.757 4.94792 484.277 5.17578C484.831 5.37109 485.107 5.8431 485.107 6.5918C485.107 7.4707 485.042 8.17057 484.912 8.69141H485.596L489.014 0H488.33C487.939 1.17188 487.321 1.88802 486.475 2.14844C485.661 2.3763 484.31 2.49023 482.422 2.49023H434.619C432.731 2.49023 431.494 2.3763 430.908 2.14844C430.355 1.88802 429.785 1.17188 429.199 0H428.516L431.934 8.69141H432.617C432.357 7.8125 432.227 7.16146 432.227 6.73828C432.227 5.89193 432.503 5.37109 433.057 5.17578C433.61 4.94792 434.798 4.83398 436.621 4.83398H454.639V63.2879C457.296 63.3728 460.049 63.4427 462.939 63.4994Z" fill="#C9A48A"/>
</g>
<defs>
<filter id="filter0_di_135_109" x="0" y="0" width="497.014" height="83.5371" filterUnits="userSpaceOnUse" color-interpolation-filters="sRGB">
<feFlood flood-opacity="0" result="BackgroundImageFix"/>
<feColorMatrix in="SourceAlpha" type="matrix" values="0 0 0 0 0 0 0 0 0 0 0 0 0 0 0 0 0 0 127 0" result="hardAlpha"/>
<feOffset dx="4" dy="4"/>
<feGaussianBlur stdDeviation="2"/>
<feComposite in2="hardAlpha" operator="out"/>
<feColorMatrix type="matrix" values="0 0 0 0 0 0 0 0 0 0 0 0 0 0 0 0 0 0 0.28 0"/>
<feBlend mode="normal" in2="BackgroundImageFix" result="effect1_dropShadow_135_109"/>
<feBlend mode="normal" in="SourceGraphic" in2="effect1_dropShadow_135_109" result="shape"/>
<feColorMatrix in="SourceAlpha" type="matrix" values="0 0 0 0 0 0 0 0 0 0 0 0 0 0 0 0 0 0 127 0" result="hardAlpha"/>
<feOffset dy="2"/>
<feGaussianBlur stdDeviation="2.5"/>
<feComposite in2="hardAlpha" operator="arithmetic" k2="-1" k3="1"/>
<feColorMatrix type="matrix" values="0 0 0 0 0.54902 0 0 0 0 0.411765 0 0 0 0 0.317647 0 0 0 1 0"/>
<feBlend mode="normal" in2="shape" result="effect2_innerShadow_135_109"/>
</filter>
</defs>
</svg>
