<svg width="362" height="75" viewBox="0 0 362 75" fill="none" xmlns="http://www.w3.org/2000/svg">
<path opacity="0.8" fill-rule="evenodd" clip-rule="evenodd" d="M0.109375 1.76953V2.50195C2.22526 2.50195 3.60872 2.90885 4.25977 3.72266C4.94336 4.53646 5.28516 6.89648 5.28516 10.8027V59.9099C8.09393 59.9989 10.8699 60.0743 13.604 60.1357C13.592 59.7976 13.5859 59.4503 13.5859 59.0938V3.2832H24.6211C39.6602 3.2832 50.9069 6.79883 58.3613 13.8301C65.8483 20.8613 69.5918 29.1784 69.5918 38.7812C69.5918 46.0836 67.4076 52.892 63.0394 59.2063C65.3011 59.0052 67.6541 58.772 70.0558 58.5123C71.6538 56.2277 73.0291 53.7523 74.1816 51.0859C76.3952 46.0078 77.502 40.8483 77.502 35.6074C77.502 30.1712 76.444 25.2559 74.3281 20.8613C72.2122 16.4342 69.3477 12.8047 65.7344 9.97266C62.1211 7.14062 57.873 5.07357 52.9902 3.77148C48.14 2.43685 41.5156 1.76953 33.1172 1.76953H0.109375ZM57.8884 69.6889C55.2276 69.6954 52.2266 69.6943 48.7829 69.689C44.3441 71.089 39.0896 71.7891 33.0195 71.7891C28.1693 71.7891 24.3118 71.4147 21.4473 70.666C20.196 70.3248 19.1031 69.8966 18.1686 69.3814C13.8002 69.202 10.0206 68.9198 5.00915 68.4784C4.87405 69.4932 4.68936 70.3038 4.45508 70.9102C3.90169 72.3099 2.74609 73.0098 0.988281 73.0098H0.109375V73.6934H33.8984C42.6549 73.6934 49.1165 73.026 53.2832 71.6914C54.8476 71.1821 56.3827 70.5146 57.8884 69.6889ZM89.7554 68.1686C92.8622 67.8694 95.8469 67.5656 98.7318 67.2539C98.8099 67.5164 98.8947 67.7586 98.9863 67.9805C99.6048 69.4453 100.581 70.373 101.916 70.7637C103.283 71.1217 105.334 71.3008 108.068 71.3008H120.764C124.8 71.3008 127.372 71.1706 128.479 70.9102C129.618 70.6172 130.578 70.0638 131.359 69.25C132.141 68.4036 132.743 66.5807 133.166 63.7812H133.85V73.6934H84.6797V73.0098C86.3398 72.9121 87.5931 72.6029 88.4395 72.082C89.2805 71.5525 89.7191 70.248 89.7554 68.1686ZM98.0586 54.5629C95.4435 55.0312 92.6503 55.4927 89.7578 55.9372V9.77734C89.7578 7.14062 89.5299 5.28516 89.0742 4.21094C88.6185 3.13672 87.1536 2.59961 84.6797 2.59961V1.76953H129.895V11.6816H129.162C128.186 8.00326 127.355 5.83854 126.672 5.1875C126.021 4.53646 124.393 4.21094 121.789 4.21094H98.0586V36.4863H120.08C122.261 36.4863 123.645 36.291 124.23 35.9004C124.816 35.4772 125.126 34.875 125.158 34.0938H125.891V40.8809H125.158C124.995 39.9368 124.605 39.3021 123.986 38.9766C123.4 38.651 122.294 38.4883 120.666 38.4883H98.0586V54.5629ZM139.324 61.185C140.137 63.8113 141.388 65.8486 143.078 67.2969C146.268 70.0312 151.232 71.3984 157.971 71.3984C164.09 71.3984 168.729 69.9499 171.887 67.0527C175.077 64.1556 176.672 60.6725 176.672 56.6035C176.672 54.7265 176.353 53.0649 175.716 51.6189C177.199 51.1131 178.77 50.5702 180.446 49.9843C180.599 51.033 180.676 52.1326 180.676 53.2832C180.676 55.2363 180.448 57.1081 179.992 58.8984C179.536 60.6562 178.804 62.3652 177.795 64.0254C176.786 65.653 175.565 67.1504 174.133 68.5176C172.733 69.8522 171.301 70.8776 169.836 71.5938C168.371 72.2773 166.06 72.7982 162.902 73.1562C159.745 73.5143 157.661 73.6934 156.652 73.6934H137.463V61.5492C138.082 61.4294 138.703 61.308 139.324 61.185ZM166.894 34.4917C165.533 34.9892 164.127 35.5075 162.669 36.0486C160.241 36.9495 157.336 37.9633 154.126 39.0382C151.186 37.8677 148.969 36.8055 147.473 35.8516C145.259 34.3867 143.404 32.2057 141.906 29.3086C140.409 26.3789 139.66 23.4004 139.66 20.373C139.66 14.8066 141.564 10.1354 145.373 6.35938C149.214 2.58333 154.243 0.695312 160.461 0.695312C162.87 0.695312 165.474 0.972005 168.273 1.52539C171.073 2.07878 172.635 2.43685 172.961 2.59961C173.091 2.66471 173.221 2.69727 173.352 2.69727L176.77 11.6816L176.184 11.7793C176.184 11.7467 175.272 10.7865 173.449 8.89844C171.659 7.01042 169.592 5.56185 167.248 4.55273C164.937 3.51107 162.316 2.99023 159.387 2.99023C154.471 2.99023 150.565 4.40625 147.668 7.23828C144.803 10.0378 143.371 13.4232 143.371 17.3945C143.371 20.0312 144.038 22.3424 145.373 24.3281C146.74 26.2812 149.572 28.1042 153.869 29.7969C159.641 31.7292 163.982 33.2941 166.894 34.4917ZM191.711 45.9846V65.2949C191.711 68.5827 191.418 70.6986 190.832 71.6426C190.246 72.554 188.749 73.0098 186.34 73.0098V73.6934H205.529V73.0098C203.739 73.0098 202.486 72.7982 201.77 72.375C201.086 71.9193 200.614 71.3659 200.354 70.7148C200.126 70.0312 200.012 68.1921 200.012 65.1973V42.9946C199.543 43.1636 199.071 43.334 198.595 43.5058C196.149 44.389 193.86 45.2134 191.711 45.9846ZM200.012 24.0989C197.164 24.8011 194.434 25.5195 191.711 26.2871V10.6074C191.711 7.18945 191.385 4.95964 190.734 3.91797C190.083 2.84375 188.618 2.37174 186.34 2.50195V1.76953H205.529V2.50195C204.585 2.4043 203.527 2.55078 202.355 2.94141C201.216 3.33203 200.533 3.90169 200.305 4.65039C200.109 5.39909 200.012 7.17318 200.012 9.97266V24.0989ZM212.259 38.6511C212.501 43.3439 213.822 47.9446 216.223 52.4531C218.924 57.4661 222.44 61.6654 226.77 65.0508C231.132 68.4036 235.396 70.6823 239.562 71.8867C243.762 73.0911 248.645 73.6934 254.211 73.6934H283.215V73.0098H282.189C280.594 73.0098 279.488 72.5215 278.869 71.5449C278.283 70.5358 277.99 68.8919 277.99 66.6133V55.2852C277.99 52.974 278.332 51.4115 279.016 50.5977C279.732 49.7839 281.132 49.377 283.215 49.377V48.6934H264.611V49.377C266.239 49.2793 267.492 49.6048 268.371 50.3535C269.25 51.0697 269.689 52.4857 269.689 54.6016V65.4902C269.689 68.1595 269.136 69.8197 268.029 70.4707C266.955 71.1217 264.237 71.5286 259.875 71.6914L256.018 71.7891C253.771 71.8542 250.744 71.5938 246.936 71.0078C243.127 70.3893 239.676 69.3151 236.584 67.7852C233.524 66.2227 230.643 63.8138 227.941 60.5586C225.272 57.2708 223.449 53.9505 222.473 50.5977C221.496 47.2122 221.008 43.3711 221.008 39.0742C221.008 37.9044 221.046 36.7563 221.121 35.6297C218.296 36.5714 215.35 37.5763 212.259 38.6511ZM225.963 18.7164C222.924 19.2287 219.943 19.7704 217.01 20.3431C217.088 20.2066 217.168 20.0701 217.248 19.9336C220.633 14.237 225.435 9.61458 231.652 6.06641C237.87 2.48568 244.917 0.695312 252.795 0.695312C259.859 0.695312 267.329 2.25781 275.207 5.38281L277.955 13.041C277.645 13.0606 277.336 13.0803 277.028 13.1002C274.569 10.1707 271.292 7.7284 267.199 5.77344C262.87 3.65755 258.036 2.59961 252.697 2.59961C243.42 2.59961 235.819 6.09896 229.895 13.0977C228.394 14.862 227.084 16.7349 225.963 18.7164ZM295.568 19.4699V65.3926C295.568 68.7129 295.259 70.8125 294.641 71.6914C294.055 72.5703 292.525 73.0098 290.051 73.0098V73.6934H303.869V73.0098C301.916 72.7168 300.695 72.4238 300.207 72.1309C299.719 71.8379 299.344 71.2845 299.084 70.4707C298.824 69.6569 298.693 68.4036 298.693 66.7109V19.105C297.668 19.2217 296.627 19.3432 295.568 19.4699ZM303.481 18.5859L356.066 74.5723V16.5735C355.021 16.5727 353.996 16.5729 352.99 16.5739V59.1914L314.001 17.6594C310.504 17.9129 307.053 18.219 303.481 18.5859ZM308.525 11.8265C303.931 11.9042 299.483 12.016 295.304 12.1623C295.02 9.89742 294.506 7.93054 293.762 6.26172C292.59 3.5599 289.855 2.30664 285.559 2.50195V1.76953H299.084L308.525 11.8265ZM352.99 12.1122C354.031 12.1452 355.057 12.1802 356.066 12.2171V9.09375C356.066 6.42448 356.473 4.68294 357.287 3.86914C358.101 3.02279 359.566 2.56706 361.682 2.50195V1.76953H347.766V2.50195C349.296 2.50195 350.549 2.8112 351.525 3.42969C352.502 4.01562 352.99 5.67578 352.99 8.41016V12.1122Z" fill="#C9A48A"/>
</svg>
