<svg width="370" height="83" viewBox="0 0 370 83" fill="none" xmlns="http://www.w3.org/2000/svg">
<g opacity="0.8" filter="url(#filter0_di_135_113)">
<path fill-rule="evenodd" clip-rule="evenodd" d="M0.109375 1.49023V2.22266C2.22526 2.22266 3.60872 2.62956 4.25977 3.44336C4.94336 4.25716 5.28516 6.61719 5.28516 10.5234V59.6306C8.09393 59.7196 10.8699 59.795 13.604 59.8564C13.592 59.5183 13.5859 59.171 13.5859 58.8145V3.00391H24.6211C39.6602 3.00391 50.9069 6.51953 58.3613 13.5508C65.8483 20.582 69.5918 28.8991 69.5918 38.502C69.5918 45.8043 67.4076 52.6127 63.0394 58.927C65.3011 58.7259 67.6541 58.4927 70.0558 58.233C71.6538 55.9484 73.0291 53.473 74.1816 50.8066C76.3952 45.7285 77.502 40.569 77.502 35.3281C77.502 29.8919 76.444 24.9766 74.3281 20.582C72.2122 16.1549 69.3477 12.5254 65.7344 9.69336C62.1211 6.86133 57.873 4.79427 52.9902 3.49219C48.14 2.15755 41.5156 1.49023 33.1172 1.49023H0.109375ZM57.8884 69.4096C55.2276 69.4161 52.2266 69.415 48.7829 69.4097C44.3441 70.8097 39.0896 71.5098 33.0195 71.5098C28.1693 71.5098 24.3118 71.1354 21.4473 70.3867C20.196 70.0455 19.1031 69.6173 18.1686 69.1021C13.8002 68.9228 10.0206 68.6405 5.00915 68.1991C4.87405 69.2139 4.68936 70.0245 4.45508 70.6309C3.90169 72.0306 2.74609 72.7305 0.988281 72.7305H0.109375V73.4141H33.8984C42.6549 73.4141 49.1165 72.7467 53.2832 71.4121C54.8476 70.9028 56.3827 70.2353 57.8884 69.4096ZM89.7554 67.8893C92.8622 67.5901 95.8469 67.2863 98.7318 66.9746C98.8099 67.2371 98.8947 67.4793 98.9863 67.7012C99.6048 69.166 100.581 70.0938 101.916 70.4844C103.283 70.8424 105.334 71.0215 108.068 71.0215H120.764C124.8 71.0215 127.372 70.8913 128.479 70.6309C129.618 70.3379 130.578 69.7845 131.359 68.9707C132.141 68.1244 132.743 66.3014 133.166 63.502H133.85V73.4141H84.6797V72.7305C86.3398 72.6328 87.5931 72.3236 88.4395 71.8027C89.2805 71.2732 89.7191 69.9687 89.7554 67.8893ZM98.0586 54.2836C95.4435 54.7519 92.6503 55.2134 89.7578 55.6579V9.49805C89.7578 6.86133 89.5299 5.00586 89.0742 3.93164C88.6185 2.85742 87.1536 2.32031 84.6797 2.32031V1.49023H129.895V11.4023H129.162C128.186 7.72396 127.355 5.55924 126.672 4.9082C126.021 4.25716 124.393 3.93164 121.789 3.93164H98.0586V36.207H120.08C122.261 36.207 123.645 36.0117 124.23 35.6211C124.816 35.1979 125.126 34.5957 125.158 33.8145H125.891V40.6016H125.158C124.995 39.6576 124.605 39.0228 123.986 38.6973C123.4 38.3717 122.294 38.209 120.666 38.209H98.0586V54.2836ZM139.324 60.9057C140.137 63.532 141.388 65.5693 143.078 67.0176C146.268 69.752 151.232 71.1191 157.971 71.1191C164.09 71.1191 168.729 69.6706 171.887 66.7734C175.077 63.8763 176.672 60.3932 176.672 56.3242C176.672 54.4472 176.353 52.7856 175.716 51.3396C177.199 50.8338 178.77 50.2909 180.446 49.705C180.599 50.7537 180.676 51.8533 180.676 53.0039C180.676 54.957 180.448 56.8288 179.992 58.6191C179.536 60.377 178.804 62.0859 177.795 63.7461C176.786 65.3737 175.565 66.8711 174.133 68.2383C172.733 69.5729 171.301 70.5983 169.836 71.3145C168.371 71.998 166.06 72.5189 162.902 72.877C159.745 73.235 157.661 73.4141 156.652 73.4141H137.463V61.2699C138.082 61.1501 138.703 61.0287 139.324 60.9057ZM166.894 34.2124C165.533 34.7099 164.127 35.2282 162.669 35.7693C160.241 36.6702 157.336 37.684 154.126 38.7589C151.186 37.5884 148.969 36.5262 147.473 35.5723C145.259 34.1074 143.404 31.9264 141.906 29.0293C140.409 26.0996 139.66 23.1211 139.66 20.0938C139.66 14.5273 141.564 9.85612 145.373 6.08008C149.214 2.30404 154.243 0.416016 160.461 0.416016C162.87 0.416016 165.474 0.692708 168.273 1.24609C171.073 1.79948 172.635 2.15755 172.961 2.32031C173.091 2.38542 173.221 2.41797 173.352 2.41797L176.77 11.4023L176.184 11.5C176.184 11.4674 175.272 10.5072 173.449 8.61914C171.659 6.73112 169.592 5.28255 167.248 4.27344C164.937 3.23177 162.316 2.71094 159.387 2.71094C154.471 2.71094 150.565 4.12695 147.668 6.95898C144.803 9.75846 143.371 13.1439 143.371 17.1152C143.371 19.752 144.038 22.0632 145.373 24.0488C146.74 26.002 149.572 27.8249 153.869 29.5176C159.641 31.4499 163.982 33.0149 166.894 34.2124ZM191.711 45.7053V65.0156C191.711 68.3034 191.418 70.4193 190.832 71.3633C190.246 72.2747 188.749 72.7305 186.34 72.7305V73.4141H205.529V72.7305C203.739 72.7305 202.486 72.5189 201.77 72.0957C201.086 71.64 200.614 71.0866 200.354 70.4355C200.126 69.752 200.012 67.9128 200.012 64.918V42.7153C199.543 42.8843 199.071 43.0547 198.595 43.2265C196.149 44.1097 193.86 44.9341 191.711 45.7053ZM200.012 23.8196C197.164 24.5218 194.434 25.2402 191.711 26.0078V10.3281C191.711 6.91016 191.385 4.68034 190.734 3.63867C190.083 2.56445 188.618 2.09245 186.34 2.22266V1.49023H205.529V2.22266C204.585 2.125 203.527 2.27148 202.355 2.66211C201.216 3.05273 200.533 3.6224 200.305 4.37109C200.109 5.11979 200.012 6.89388 200.012 9.69336V23.8196ZM212.259 38.3718C212.501 43.0646 213.822 47.6653 216.223 52.1738C218.924 57.1868 222.44 61.3861 226.77 64.7715C231.132 68.1244 235.396 70.403 239.562 71.6074C243.762 72.8119 248.645 73.4141 254.211 73.4141H283.215V72.7305H282.189C280.594 72.7305 279.488 72.2422 278.869 71.2656C278.283 70.2565 277.99 68.6126 277.99 66.334V55.0059C277.99 52.6947 278.332 51.1322 279.016 50.3184C279.732 49.5046 281.132 49.0977 283.215 49.0977V48.4141H264.611V49.0977C266.239 49 267.492 49.3255 268.371 50.0742C269.25 50.7904 269.689 52.2064 269.689 54.3223V65.2109C269.689 67.8802 269.136 69.5404 268.029 70.1914C266.955 70.8424 264.237 71.2494 259.875 71.4121L256.018 71.5098C253.771 71.5749 250.744 71.3145 246.936 70.7285C243.127 70.11 239.676 69.0358 236.584 67.5059C233.524 65.9434 230.643 63.5345 227.941 60.2793C225.272 56.9915 223.449 53.6712 222.473 50.3184C221.496 46.9329 221.008 43.0918 221.008 38.7949C221.008 37.6251 221.046 36.477 221.121 35.3504C218.296 36.2921 215.35 37.297 212.259 38.3718ZM225.963 18.4371C222.924 18.9494 219.943 19.4911 217.01 20.0638C217.088 19.9273 217.168 19.7908 217.248 19.6543C220.633 13.9577 225.435 9.33529 231.652 5.78711C237.87 2.20638 244.917 0.416016 252.795 0.416016C259.859 0.416016 267.329 1.97852 275.207 5.10352L277.955 12.7617C277.645 12.7813 277.336 12.801 277.028 12.8209C274.569 9.89136 271.292 7.44911 267.199 5.49414C262.87 3.37826 258.036 2.32031 252.697 2.32031C243.42 2.32031 235.819 5.81966 229.895 12.8184C228.394 14.5827 227.084 16.4556 225.963 18.4371ZM295.568 19.1906V65.1133C295.568 68.4336 295.259 70.5332 294.641 71.4121C294.055 72.291 292.525 72.7305 290.051 72.7305V73.4141H303.869V72.7305C301.916 72.4375 300.695 72.1445 300.207 71.8516C299.719 71.5586 299.344 71.0052 299.084 70.1914C298.824 69.3776 298.693 68.1244 298.693 66.4316V18.8257C297.668 18.9424 296.627 19.0639 295.568 19.1906ZM303.481 18.3066L356.066 74.293V16.2942C355.021 16.2934 353.996 16.2936 352.99 16.2946V58.9121L314.001 17.3801C310.504 17.6336 307.053 17.9397 303.481 18.3066ZM308.525 11.5472C303.931 11.6249 299.483 11.7367 295.304 11.883C295.02 9.61812 294.506 7.65124 293.762 5.98242C292.59 3.2806 289.855 2.02734 285.559 2.22266V1.49023H299.084L308.525 11.5472ZM352.99 11.8329C354.031 11.8659 355.057 11.9009 356.066 11.9378V8.81445C356.066 6.14518 356.473 4.40365 357.287 3.58984C358.101 2.74349 359.566 2.28776 361.682 2.22266V1.49023H347.766V2.22266C349.296 2.22266 350.549 2.5319 351.525 3.15039C352.502 3.73633 352.99 5.39648 352.99 8.13086V11.8329Z" fill="#C9A48A"/>
</g>
<defs>
<filter id="filter0_di_135_113" x="0.109375" y="0.416016" width="369.572" height="81.877" filterUnits="userSpaceOnUse" color-interpolation-filters="sRGB">
<feFlood flood-opacity="0" result="BackgroundImageFix"/>
<feColorMatrix in="SourceAlpha" type="matrix" values="0 0 0 0 0 0 0 0 0 0 0 0 0 0 0 0 0 0 127 0" result="hardAlpha"/>
<feOffset dx="4" dy="4"/>
<feGaussianBlur stdDeviation="2"/>
<feComposite in2="hardAlpha" operator="out"/>
<feColorMatrix type="matrix" values="0 0 0 0 0 0 0 0 0 0 0 0 0 0 0 0 0 0 0.28 0"/>
<feBlend mode="normal" in2="BackgroundImageFix" result="effect1_dropShadow_135_113"/>
<feBlend mode="normal" in="SourceGraphic" in2="effect1_dropShadow_135_113" result="shape"/>
<feColorMatrix in="SourceAlpha" type="matrix" values="0 0 0 0 0 0 0 0 0 0 0 0 0 0 0 0 0 0 127 0" result="hardAlpha"/>
<feOffset dy="2"/>
<feGaussianBlur stdDeviation="2.5"/>
<feComposite in2="hardAlpha" operator="arithmetic" k2="-1" k3="1"/>
<feColorMatrix type="matrix" values="0 0 0 0 0.54902 0 0 0 0 0.411765 0 0 0 0 0.317647 0 0 0 1 0"/>
<feBlend mode="normal" in2="shape" result="effect2_innerShadow_135_113"/>
</filter>
</defs>
</svg>
