<svg width="389" height="83" viewBox="0 0 389 83" fill="none" xmlns="http://www.w3.org/2000/svg">
<g opacity="0.8" filter="url(#filter0_di_133_155)">
<path fill-rule="evenodd" clip-rule="evenodd" d="M0.460938 3.07617V3.80859C2.57682 3.80859 3.96029 4.21549 4.61133 5.0293C5.29492 5.8431 5.63672 8.20312 5.63672 12.1094V13.2811C8.14994 13.2037 10.8424 13.1476 13.9375 13.1073V4.58984H24.9727C38.4122 4.58984 48.8233 7.39743 56.2058 13.0126C61.0116 13.0307 64.8509 13.0706 68.239 13.1458C67.5536 12.4892 66.8359 11.8671 66.0859 11.2793C62.4727 8.44727 58.2246 6.38021 53.3418 5.07812C48.4915 3.74349 41.8672 3.07617 33.4688 3.07617H0.460938ZM75.761 24.7022C72.3518 24.3649 68.962 24.0553 65.6681 23.7815C68.5183 28.7275 69.9434 34.1629 69.9434 40.0879C69.9434 48.2585 67.209 55.8105 61.7402 62.7441C56.304 69.6452 46.8477 73.0957 33.3711 73.0957C28.5208 73.0957 24.6634 72.7214 21.7988 71.9727C18.9342 71.1914 16.8997 69.9544 15.6953 68.2617C14.5234 66.5365 13.9375 63.916 13.9375 60.4004V22.2131C11.2187 22.2295 8.44939 22.2563 5.63672 22.2932V64.502C5.63672 68.2129 5.36003 70.7845 4.80664 72.2168C4.25326 73.6165 3.09766 74.3164 1.33984 74.3164H0.460938V75H34.25C43.0065 75 49.4681 74.3327 53.6348 72.998C57.834 71.6309 61.8216 69.1244 65.5977 65.4785C69.3737 61.8001 72.3522 57.4382 74.5332 52.3926C76.7467 47.3145 77.8535 42.1549 77.8535 36.9141C77.8535 32.5 77.156 28.4294 75.761 24.7022ZM89.9141 26.2503C92.7616 26.5926 95.5447 26.9469 98.2148 27.308V66.5039C98.2148 69.4987 98.3288 71.3379 98.5566 72.0215C98.8171 72.6725 99.2891 73.2259 99.9727 73.6816C100.689 74.1048 101.942 74.3164 103.732 74.3164V75H84.543V74.3164C86.9518 74.3164 88.4492 73.8607 89.0352 72.9492C89.6211 72.0052 89.9141 69.8893 89.9141 66.6016V26.2503ZM98.2148 14.9869C95.9196 14.7973 93.5709 14.6103 91.1618 14.4249C90.738 14.3923 90.3223 14.3605 89.9141 14.3293V11.9141C89.9141 8.49609 89.5885 6.26628 88.9375 5.22461C88.2865 4.15039 86.8216 3.67839 84.543 3.80859V3.07617H103.732V3.80859C102.788 3.71094 101.73 3.85742 100.559 4.24805C99.4193 4.63867 98.7357 5.20833 98.5078 5.95703C98.3125 6.70573 98.2148 8.47982 98.2148 11.2793V14.9869ZM111.801 29.3916C110.882 32.3829 110.422 35.3787 110.422 38.3789C110.422 43.6198 111.757 48.7467 114.426 53.7598C117.128 58.7728 120.643 62.972 124.973 66.3574C129.335 69.7103 133.599 71.9889 137.766 73.1934C141.965 74.3978 146.848 75 152.414 75H181.418V74.3164H180.393C178.798 74.3164 177.691 73.8281 177.072 72.8516C176.486 71.8424 176.193 70.1986 176.193 67.9199V56.5918C176.193 54.2806 176.535 52.7181 177.219 51.9043C177.935 51.0905 179.335 50.6836 181.418 50.6836V50H162.814V50.6836C164.442 50.5859 165.695 50.9115 166.574 51.6602C167.453 52.3763 167.893 53.7923 167.893 55.9082V66.7969C167.893 69.4661 167.339 71.1263 166.232 71.7773C165.158 72.4284 162.44 72.8353 158.078 72.998L154.221 73.0957C151.975 73.1608 148.947 72.9004 145.139 72.3145C141.33 71.696 137.88 70.6217 134.787 69.0918C131.727 67.5293 128.846 65.1204 126.145 61.8652C123.475 58.5775 121.652 55.2572 120.676 51.9043C119.699 48.5189 119.211 44.6777 119.211 40.3809C119.211 37.0828 119.512 33.9566 120.113 31.0022C117.059 30.3698 114.329 29.8374 112.051 29.4361C111.968 29.4213 111.885 29.4064 111.801 29.3916ZM125.626 17.662C123.285 17.3914 120.911 17.1294 118.492 16.8747C121.523 13.1336 125.311 9.9664 129.855 7.37305C136.073 3.79232 143.12 2.00195 150.998 2.00195C158.062 2.00195 165.533 3.56445 173.41 6.68945L176.389 14.9902H175.705C173.199 11.8001 169.764 9.16341 165.402 7.08008C161.073 4.96419 156.239 3.90625 150.9 3.90625C141.623 3.90625 134.022 7.4056 128.098 14.4043C127.207 15.4519 126.383 16.5378 125.626 17.662ZM191.867 49.2571V66.6016C191.867 69.8893 191.574 72.0052 190.988 72.9492C190.402 73.8607 188.905 74.3164 186.496 74.3164V75H205.686V74.3164C203.895 74.3164 202.642 74.1048 201.926 73.6816C201.242 73.2259 200.77 72.6725 200.51 72.0215C200.282 71.3379 200.168 69.4987 200.168 66.5039V51.5829C197.528 50.8646 194.779 50.0935 191.867 49.2571ZM200.168 31.665C197.138 30.8192 194.399 30.0706 191.867 29.3979V11.9141C191.867 8.49609 191.542 6.26628 190.891 5.22461C190.24 4.15039 188.775 3.67839 186.496 3.80859V3.07617H205.686V3.80859C204.742 3.71094 203.684 3.85742 202.512 4.24805C201.372 4.63867 200.689 5.20833 200.461 5.95703C200.266 6.70573 200.168 8.47982 200.168 11.2793V31.665ZM235.178 59.4453V68.0176C235.178 70.4915 234.868 72.1191 234.25 72.9004C233.632 73.6816 232.102 74.1536 229.66 74.3164V75H249.143V74.3164C247.58 74.3164 246.441 74.2025 245.725 73.9746C245.041 73.7142 244.488 73.1283 244.064 72.2168C243.674 71.2728 243.479 69.5312 243.479 66.9922V60.8901C240.896 60.4632 238.341 60.0199 235.811 59.5596C235.599 59.5215 235.388 59.4834 235.178 59.4453ZM243.479 44.07C240.805 43.3257 238.042 42.5461 235.178 41.7289V5.41992H217.16C215.337 5.41992 214.149 5.53385 213.596 5.76172C213.042 5.95703 212.766 6.47786 212.766 7.32422C212.766 7.7474 212.896 8.39844 213.156 9.27734H212.473L209.055 0.585938H209.738C210.324 1.75781 210.894 2.47396 211.447 2.73438C212.033 2.96224 213.27 3.07617 215.158 3.07617H262.961C264.849 3.07617 266.2 2.96224 267.014 2.73438C267.86 2.47396 268.479 1.75781 268.869 0.585938H269.553L266.135 9.27734H265.451C265.581 8.75651 265.646 8.05664 265.646 7.17773C265.646 6.42904 265.37 5.95703 264.816 5.76172C264.296 5.53385 263.449 5.41992 262.277 5.41992H243.479V44.07ZM269.914 64.5686L268.625 67.8223C267.453 70.752 266.379 72.5749 265.402 73.291C264.426 73.9746 263.221 74.3164 261.789 74.3164V75H272.482V74.3164C270.887 74.3164 270.09 73.7793 270.09 72.7051C270.09 72.2494 270.464 71.0449 271.213 69.0918L272.89 64.9035C271.892 64.7937 270.9 64.682 269.914 64.5686ZM277.744 52.7796C276.783 52.5672 275.817 52.3501 274.842 52.1279L294.699 2.00195H295.92L319.262 59.7807C316.036 59.3842 312.917 58.9764 309.868 58.5492L303.098 41.8945H282.102L277.744 52.7796ZM313.755 68.2504C313.825 68.4019 313.902 68.5196 313.986 68.6035C314.735 70.3939 315.109 71.696 315.109 72.5098C315.109 73.7142 314.344 74.3164 312.814 74.3164V75H329.611V74.3164C326.91 74.3164 324.891 72.9492 323.557 70.2148C323.304 69.6779 323.076 69.1869 322.872 68.7419C319.777 68.5876 316.739 68.4239 313.755 68.2504ZM336.728 69.349C336.662 71.06 336.324 72.2926 335.715 73.0469C335.064 73.8932 333.615 74.3164 331.369 74.3164V75H380.93V69.9982C379.418 70.0005 377.905 70.0006 376.395 69.9985C374.43 71.7378 371.515 72.6074 367.648 72.6074H358.859C353.814 72.6074 350.249 71.7285 348.166 69.9707C348.054 69.8742 347.944 69.774 347.838 69.6701C343.966 69.5812 340.243 69.4742 336.728 69.349ZM379.306 64.7584C379.843 64.7758 380.384 64.7927 380.93 64.8091V57.7148H380.246C380.136 60.4891 379.823 62.8369 379.306 64.7584ZM345.104 62.555C342.42 62.3028 339.645 62.0286 336.74 61.7308V9.81445C336.74 7.73112 336.48 6.23372 335.959 5.32227C335.438 4.37826 333.876 3.8737 331.271 3.80859V3.07617H350.559V3.80859C348.768 3.80859 347.515 4.03646 346.799 4.49219C346.083 4.94792 345.611 5.48503 345.383 6.10352C345.155 6.72201 345.041 8.12174 345.041 10.3027V60.791C345.041 61.4045 345.062 61.9925 345.104 62.555ZM292.502 15.3809L302.219 39.8926H282.785L292.502 15.3809Z" fill="#C9A48A"/>
</g>
<defs>
<filter id="filter0_di_133_155" x="0.460938" y="0.585938" width="388.469" height="82.4141" filterUnits="userSpaceOnUse" color-interpolation-filters="sRGB">
<feFlood flood-opacity="0" result="BackgroundImageFix"/>
<feColorMatrix in="SourceAlpha" type="matrix" values="0 0 0 0 0 0 0 0 0 0 0 0 0 0 0 0 0 0 127 0" result="hardAlpha"/>
<feOffset dx="4" dy="4"/>
<feGaussianBlur stdDeviation="2"/>
<feComposite in2="hardAlpha" operator="out"/>
<feColorMatrix type="matrix" values="0 0 0 0 0 0 0 0 0 0 0 0 0 0 0 0 0 0 0.28 0"/>
<feBlend mode="normal" in2="BackgroundImageFix" result="effect1_dropShadow_133_155"/>
<feBlend mode="normal" in="SourceGraphic" in2="effect1_dropShadow_133_155" result="shape"/>
<feColorMatrix in="SourceAlpha" type="matrix" values="0 0 0 0 0 0 0 0 0 0 0 0 0 0 0 0 0 0 127 0" result="hardAlpha"/>
<feOffset dy="2"/>
<feGaussianBlur stdDeviation="2.5"/>
<feComposite in2="hardAlpha" operator="arithmetic" k2="-1" k3="1"/>
<feColorMatrix type="matrix" values="0 0 0 0 0.54902 0 0 0 0 0.411765 0 0 0 0 0.317647 0 0 0 1 0"/>
<feBlend mode="normal" in2="shape" result="effect2_innerShadow_133_155"/>
</filter>
</defs>
</svg>
