<svg width="525" height="306" viewBox="0 0 525 306" fill="none" xmlns="http://www.w3.org/2000/svg">
<g filter="url(#filter0_di_145_324)">
<path fill-rule="evenodd" clip-rule="evenodd" d="M270.053 220V297.809L343.135 220H303.327L280.819 243.976V220H270.053ZM375.613 143H415.457L470.858 84.0154V143H481.796V95.2954C481.796 80.3694 483.904 68.1794 488.119 58.7227C492.221 49.2663 501.791 44.8799 516.83 45.5635V43H469.491L375.613 143ZM481.796 220H470.858V270.295C470.858 276.219 470.403 280.605 469.491 283.454C468.58 286.302 467.269 288.239 465.561 289.264C463.852 290.29 459.579 291.315 452.743 292.34V294.733H501.107V292.34C492.449 292.34 487.094 290.802 485.043 287.726C482.878 284.65 481.796 277.301 481.796 265.68V220Z" fill="#C9A48A"/>
</g>
<g filter="url(#filter1_di_145_324)">
<path fill-rule="evenodd" clip-rule="evenodd" d="M244.011 220V243.976L221.503 220H181.695L254.777 297.809V220H244.011ZM150.155 144L55.3388 43H8V45.5635C23.039 44.8799 32.6093 49.2663 36.7109 58.7227C40.9264 68.1794 43.0341 80.3694 43.0341 95.2954V144H53.9716V84.0154L110.312 144H150.155ZM53.9716 220V270.295C53.9716 276.219 54.4274 280.605 55.3388 283.454C56.2503 286.302 57.5605 288.239 59.2695 289.264C60.9785 290.29 65.2509 291.315 72.0869 292.34V294.733H23.7226V292.34C32.3815 292.34 37.7363 290.802 39.7871 287.726C41.9518 284.65 43.0341 277.301 43.0341 265.68V220H53.9716Z" fill="#C9A48A"/>
</g>
<g filter="url(#filter2_d_145_324)">
<path d="M51.5375 161.723V162.133C51.0089 162.078 50.4164 162.16 49.7602 162.379C49.1221 162.598 48.7393 162.917 48.6117 163.336C48.5023 163.755 48.4477 164.749 48.4477 166.316V197.242C48.4477 198.919 48.5115 199.949 48.6391 200.332C48.7849 200.697 49.0492 201.007 49.432 201.262C49.8331 201.499 50.5349 201.617 51.5375 201.617V202H40.7914V201.617C42.1404 201.617 42.9789 201.362 43.307 200.852C43.6352 200.323 43.7992 199.138 43.7992 197.297V166.672C43.7992 164.758 43.6169 163.509 43.2523 162.926C42.8878 162.324 42.0675 162.06 40.7914 162.133V161.723H51.5375ZM100.364 163.746L101.868 168.012H101.485C97.5837 164.129 92.9899 162.188 87.7034 162.188C82.2165 162.188 77.7777 163.819 74.387 167.082C71.0146 170.345 69.3284 174.292 69.3284 178.922C69.3284 181.784 70.0758 185.074 71.5706 188.793C73.0837 192.512 75.4626 195.574 78.7074 197.98C81.9521 200.368 85.8805 201.562 90.4925 201.562C93.5185 201.562 96.4808 201.079 99.3792 200.113C102.296 199.129 104.465 197.816 105.887 196.176L106.243 196.285L103.426 200.605C98.8688 201.59 95.9066 202.173 94.5394 202.355C93.1904 202.538 91.3766 202.629 89.098 202.629C80.6579 202.629 74.6149 200.678 70.9691 196.777C67.3415 192.858 65.5277 188.173 65.5277 182.723C65.5277 179.04 66.4574 175.504 68.3167 172.113C70.1943 168.704 72.8922 166.025 76.4105 164.074C79.9287 162.105 83.9482 161.121 88.4691 161.121C90.7295 161.121 92.68 161.331 94.3206 161.75C95.9795 162.151 97.3558 162.57 98.4495 163.008L100.254 163.691C100.309 163.71 100.345 163.728 100.364 163.746ZM140.44 161.121C146.091 161.121 150.712 162.844 154.303 166.289C157.894 169.716 159.69 174 159.69 179.141C159.69 185.758 157.612 191.327 153.455 195.848C149.299 200.368 143.785 202.629 136.912 202.629C131.334 202.629 126.768 200.806 123.213 197.16C119.658 193.514 117.881 189.139 117.881 184.035C117.881 180.59 118.738 177.053 120.451 173.426C122.165 169.798 124.744 166.845 128.19 164.566C131.635 162.27 135.718 161.121 140.44 161.121ZM140.276 200.496C143.046 200.496 145.781 199.758 148.479 198.281C151.177 196.786 153.3 194.736 154.85 192.129C156.399 189.522 157.174 186.842 157.174 184.09C157.174 180.189 156.126 176.643 154.03 173.453C151.951 170.263 149.244 167.766 145.908 165.961C142.591 164.156 139.519 163.254 136.694 163.254C132.701 163.254 129.074 164.758 125.811 167.766C122.566 170.773 120.944 174.51 120.944 178.977C120.944 184.682 122.931 189.695 126.905 194.016C130.878 198.336 135.336 200.496 140.276 200.496ZM206.875 161.723H214.668V162.133C213.483 162.169 212.663 162.424 212.207 162.898C211.751 163.354 211.524 164.329 211.524 165.824V202.492L179.395 168.285V198.09C179.395 199.038 179.468 199.74 179.613 200.195C179.759 200.651 179.969 200.961 180.242 201.125C180.516 201.289 181.199 201.453 182.293 201.617V202H174.555V201.617C175.94 201.617 176.797 201.371 177.125 200.879C177.472 200.387 177.645 199.211 177.645 197.352V170.09C177.645 167.702 177.307 165.751 176.633 164.238C175.977 162.725 174.445 162.023 172.039 162.133V161.723H179.613L209.801 193.879V165.441C209.801 163.91 209.528 162.98 208.981 162.652C208.434 162.306 207.732 162.133 206.875 162.133V161.723ZM292.049 161.723V162.133C291.52 162.078 290.928 162.16 290.271 162.379C289.633 162.598 289.251 162.917 289.123 163.336C289.014 163.755 288.959 164.749 288.959 166.316V197.242C288.959 198.919 289.023 199.949 289.15 200.332C289.296 200.697 289.56 201.007 289.943 201.262C290.344 201.499 291.046 201.617 292.049 201.617V202H281.303V201.617C282.652 201.617 283.49 201.362 283.818 200.852C284.146 200.323 284.31 199.138 284.31 197.297V166.672C284.31 164.758 284.128 163.509 283.764 162.926C283.399 162.324 282.579 162.06 281.303 162.133V161.723H292.049ZM343.035 161.723H349.379V162.133C347.246 162.242 346.18 163.363 346.18 165.496C346.18 165.952 346.234 166.581 346.344 167.383L350.555 197.898C350.81 199.43 351.092 200.414 351.402 200.852C351.73 201.271 352.396 201.526 353.398 201.617V202H344.348V201.617C345.532 201.654 346.125 201.07 346.125 199.867C346.125 199.594 346.07 199.056 345.961 198.254L341.859 168.668L327.422 202H327.148L312.629 168.723L308.555 198.473C308.482 198.928 308.445 199.448 308.445 200.031C308.445 201.089 309.056 201.617 310.277 201.617V202H304.125V201.617C305.055 201.617 305.647 201.499 305.902 201.262C306.176 201.025 306.385 200.66 306.531 200.168C306.677 199.658 306.786 199.092 306.859 198.473L311.453 165.934C310.706 164.129 309.958 163.044 309.211 162.68C308.463 162.315 307.743 162.133 307.051 162.133V161.723H314.652L328.816 194.672L343.035 161.723ZM387.049 183.461H375.291L369.193 198.691C368.774 199.785 368.564 200.46 368.564 200.715C368.564 201.316 369.011 201.617 369.904 201.617V202H363.916V201.617C364.718 201.617 365.392 201.426 365.939 201.043C366.486 200.642 367.088 199.621 367.744 197.98L382.345 161.121H383.029L397.412 196.723C397.412 196.905 397.776 197.771 398.506 199.32C399.253 200.852 400.383 201.617 401.896 201.617V202H392.49V201.617C393.347 201.617 393.775 201.28 393.775 200.605C393.775 200.15 393.566 199.421 393.146 198.418C393.073 198.345 393.01 198.227 392.955 198.062C392.918 197.88 392.891 197.789 392.873 197.789L387.049 183.461ZM375.674 182.34H386.556L381.115 168.613L375.674 182.34ZM451.761 201.617V202H435.519C432.402 202 429.668 201.663 427.316 200.988C424.983 200.314 422.595 199.038 420.152 197.16C417.728 195.264 415.759 192.913 414.246 190.105C412.751 187.298 412.004 184.427 412.004 181.492C412.004 178.284 412.942 175.085 414.82 171.895C416.716 168.704 419.405 166.116 422.886 164.129C426.368 162.124 430.315 161.121 434.726 161.121C438.682 161.121 442.866 161.996 447.277 163.746L448.945 168.395H448.562C447.159 166.608 445.235 165.132 442.793 163.965C440.368 162.78 437.661 162.188 434.672 162.188C429.476 162.188 425.22 164.147 421.902 168.066C418.584 171.967 416.925 176.816 416.925 182.613C416.925 185.02 417.199 187.171 417.746 189.066C418.293 190.944 419.313 192.803 420.808 194.645C422.321 196.467 423.935 197.816 425.648 198.691C427.38 199.548 429.312 200.15 431.445 200.496C433.578 200.824 435.273 200.97 436.531 200.934L438.691 200.879C441.134 200.788 442.656 200.56 443.258 200.195C443.877 199.831 444.187 198.901 444.187 197.406V191.309C444.187 190.124 443.941 189.331 443.449 188.93C442.957 188.51 442.255 188.328 441.343 188.383V188H451.761V188.383C450.595 188.383 449.811 188.611 449.41 189.066C449.027 189.522 448.836 190.397 448.836 191.691V198.035C448.836 199.311 449 200.232 449.328 200.797C449.674 201.344 450.294 201.617 451.187 201.617H451.761ZM464.959 162.188V161.723H490.279V167.273H489.869C489.322 165.214 488.857 164.001 488.474 163.637C488.11 163.272 487.198 163.09 485.74 163.09H472.451V181.164H484.783C486.004 181.164 486.779 181.055 487.107 180.836C487.435 180.599 487.608 180.262 487.627 179.824H488.037V183.625H487.627C487.535 183.096 487.317 182.741 486.97 182.559C486.642 182.376 486.022 182.285 485.111 182.285H472.451V194.727C472.451 196.604 472.624 197.962 472.97 198.801C473.317 199.621 473.864 200.141 474.611 200.359C475.377 200.56 476.525 200.66 478.056 200.66H485.166C487.426 200.66 488.866 200.587 489.486 200.441C490.124 200.277 490.662 199.967 491.099 199.512C491.537 199.038 491.874 198.017 492.111 196.449H492.494V202H464.959V201.617C465.888 201.562 466.59 201.389 467.064 201.098C467.556 200.788 467.802 200.004 467.802 198.746V166.207C467.802 164.73 467.675 163.691 467.42 163.09C467.164 162.488 466.344 162.188 464.959 162.188Z" fill="url(#paint0_linear_145_324)" shape-rendering="crispEdges"/>
</g>
<g filter="url(#filter3_di_145_324)">
<mask id="path-4-outside-1_145_324" maskUnits="userSpaceOnUse" x="153.514" y="0" width="204" height="203" fill="black">
<rect fill="white" x="153.514" width="204" height="203"/>
<path d="M236.179 1.82564C220.669 2.79501 211.217 3.76437 205.886 4.79433C202.917 5.40018 198.555 5.58194 191.467 5.46077C182.318 5.27901 181.167 5.33958 179.895 6.36954C179.107 6.97539 178.32 8.12652 178.077 8.85355C177.895 9.76233 176.381 11.0346 173.655 12.4887C164.264 17.5779 156.994 28.3015 154.994 39.9339C153.54 48.2947 155.539 63.3805 158.993 70.5295C164.143 81.0108 178.804 90.9468 194.738 94.7637C197.343 95.3696 199.767 96.0966 200.191 96.339C202.554 97.793 212.55 122.815 213.762 130.327C214.429 134.508 217.518 138.991 221.032 140.809C223.88 142.263 224.546 142.323 233.271 142.263L242.419 142.202L242.904 148.018C243.146 151.229 243.146 159.287 242.964 165.952C242.601 179.826 241.147 189.398 238.36 197.093C237.39 199.758 236.724 202 236.906 202C237.087 202 241.328 198.971 246.296 195.275C252.597 190.549 255.505 188.671 256.051 189.095C265.866 196.547 273.318 202 273.621 202C273.802 202 273.318 200.182 272.469 197.941C268.35 186.975 266.471 167.042 267.804 147.594L268.168 141.96L274.893 142.384C281.739 142.808 286.707 142.02 291.13 139.779C293.614 138.567 295.734 134.387 297.673 126.935C301.308 113.182 308.699 96.7025 311.608 95.8543C312.456 95.6119 315.667 94.7031 318.817 93.8549C329.541 90.9468 338.023 86.2212 345.051 79.2539C349.716 74.5888 352.2 70.2872 353.957 63.8651C357.713 49.9911 356.32 35.3294 350.322 25.5146C347.656 21.1524 340.386 14.1851 336.266 12.0646C333.661 10.6711 332.631 9.76233 332.207 8.36887C331.843 7.33891 330.934 6.18778 330.207 5.88486C329.42 5.52134 324.815 5.3396 318.878 5.46077C311.911 5.64253 307.609 5.40017 304.64 4.8549C299.127 3.70378 290.342 2.85558 273.136 1.76505C257.02 0.735092 252.719 0.7351 236.179 1.82564ZM254.051 6.49072C254.051 8.55063 253.809 10.5499 253.567 10.974C253.264 11.4587 250.962 11.5193 244.358 10.974C238.481 10.5499 233.452 10.5499 229.211 10.9135C223.335 11.4587 222.608 11.3981 219.518 10.1864C217.7 9.45941 214.004 8.36887 211.339 7.76302C206.734 6.73306 206.613 6.67247 208.612 6.24837C211.278 5.64251 231.15 3.94613 242.237 3.40086C246.902 3.15852 251.446 2.91618 252.416 2.85559C254.051 2.73442 254.051 2.79501 254.051 6.49072ZM271.318 3.58261C280.648 4.00671 298.824 5.58193 301.914 6.24837C303.913 6.67247 303.853 6.73306 299.188 7.76302C296.522 8.36887 292.826 9.45941 291.009 10.1864C287.919 11.3981 287.192 11.4587 281.315 10.9135C277.074 10.5499 272.045 10.5499 266.169 10.974C261.322 11.3376 257.262 11.5193 257.081 11.3981C256.96 11.2164 256.717 9.15648 256.596 6.85423L256.354 2.61325L259.868 2.91617C261.867 3.09792 267.017 3.40085 271.318 3.58261ZM196.919 8.12653C202.857 8.91414 208.491 10.1258 215.943 12.1252L221.759 13.761L223.395 23.2123C225.455 35.0265 225.94 39.631 225.152 39.631C222.971 39.631 214.489 36.844 210.854 34.9659C207.401 33.1483 204.856 31.0278 198.919 25.0299C194.738 20.7889 189.043 15.6997 186.196 13.6398C183.348 11.5799 181.046 9.58058 181.046 9.15648C181.046 8.6718 182.197 8.42945 184.499 8.49004C188.861 8.61121 196.253 11.9434 200.07 15.5785C201.584 17.0326 202.433 17.5779 202.008 16.8508C201.16 15.0939 195.526 10.1258 192.921 8.73238C190.376 7.33891 190.679 7.33891 196.919 8.12653ZM316.697 9.39882C313.365 11.5193 309.427 15.0938 308.457 16.9114C308.094 17.5778 309.063 16.972 310.638 15.5179C314.758 11.7616 321.665 8.61121 326.027 8.49004C328.329 8.42945 329.48 8.6718 329.48 9.15648C329.48 9.51999 327.178 11.5799 324.331 13.6398C321.483 15.6997 315.788 20.8495 311.608 25.0905C305.367 31.3913 303.247 33.2089 299.551 35.0265C295.916 36.9046 287.495 39.631 285.435 39.631C284.647 39.631 284.829 37.6316 286.828 25.3934L288.706 13.8821L294.28 12.2463C300.884 10.3076 313.304 7.94477 318.211 7.58125C319.423 7.52067 319.12 7.88418 316.697 9.39882ZM177.895 15.1544C173.836 22.5459 174.563 30.119 179.652 33.633L181.652 34.9659L179.713 32.906C177.532 30.6037 176.502 28.2409 176.502 25.7569C176.502 23.8182 178.198 18.6078 178.986 18.0625C179.289 17.8808 179.228 18.4866 178.925 19.3348C177.168 23.9999 178.925 29.392 183.591 33.633C189.467 38.9039 196.98 39.2069 202.069 34.36C202.917 33.5118 203.947 33.0271 204.311 33.2695C205.22 33.8148 204.614 34.663 202.311 36.0564C199.888 37.5105 201.584 37.5711 204.493 36.117C206.189 35.2082 206.855 35.1476 207.643 35.6929C209.097 36.7834 208.855 37.0864 206.068 37.874C198.737 39.8733 184.923 39.5098 178.744 37.2076C174.866 35.7535 171.898 32.7848 171.352 29.7555C170.928 27.5745 171.776 23.5152 173.291 20.5465C174.866 17.5173 179.168 11.1558 179.652 11.1558C179.895 11.1558 179.107 12.9734 177.895 15.1544ZM333.721 14.488C337.417 20.0619 339.113 24.3634 339.174 28.2409C339.174 31.3913 338.992 31.876 337.114 33.8148C333.115 37.9346 323.604 39.9339 312.395 39.0251C307.064 38.5404 301.914 37.4499 301.914 36.7834C301.914 36.6017 302.338 36.117 302.883 35.6929C303.671 35.1476 304.337 35.2082 306.034 36.117C308.942 37.5711 310.638 37.5105 308.215 36.0564C305.913 34.663 305.307 33.8148 306.155 33.2695C306.518 33.0271 307.67 33.633 308.76 34.5418C314.455 39.3886 321.907 38.7828 327.663 33.0877C331.661 29.1497 333.176 23.697 331.601 19.2137C331.056 17.6384 331.056 17.5778 331.904 18.729C332.994 20.1224 334.024 23.5152 334.024 25.8175C334.024 28.2409 332.934 30.6037 330.813 32.906C329.541 34.2389 329.299 34.7235 330.086 34.2994C333.237 32.6636 335.236 28.665 335.236 23.9393C335.236 20.9101 334.872 19.5772 332.873 15.7603C331.54 13.2157 330.692 11.1558 330.995 11.1558C331.237 11.1558 332.51 12.6704 333.721 14.488ZM250.295 14.3668C254.294 14.9727 256.232 14.9727 260.292 14.3668C267.683 13.2157 285.253 12.6098 285.798 13.458C286.041 13.8821 285.495 17.3355 284.647 21.1524C283.799 24.9693 282.951 30.7249 282.708 33.9359L282.345 39.7521L280.467 39.3886C260.655 35.2688 249.871 35.2688 229.999 39.3886L228 39.7521V36.7229C228 32.5425 226.97 25.151 225.516 19.2137C224.849 16.4267 224.486 13.8821 224.728 13.5186C225.273 12.6098 242.722 13.2157 250.295 14.3668ZM171.11 19.3954C168.686 24.1817 167.838 28.0591 168.565 31.2702C169.111 33.5724 168.989 33.9359 167.293 36.0564C165.657 38.1163 165.415 38.9039 165.415 41.9332C165.415 43.8719 165.657 45.9318 166.021 46.5377C166.505 47.3859 166.687 46.5983 166.93 43.0237C167.172 39.328 167.535 38.1163 168.565 36.9652L169.959 35.5112L173.352 37.874C178.986 41.6909 188.74 43.3873 197.707 42.1756C200.191 41.812 202.311 41.6303 202.493 41.7514C202.614 41.8726 201.827 43.0237 200.736 44.2355C198.434 46.9012 197.101 49.8093 197.101 52.2933V54.0503L191.709 53.8685C185.711 53.5656 183.954 53.0204 178.744 49.6882C176.805 48.4159 175.048 47.5071 174.927 47.6888C174.806 47.81 175.593 49.264 176.684 50.8999C179.41 54.8985 184.257 57.8066 188.074 57.8066H190.861L193.951 62.4717L197.04 67.1368L194.738 68.1667C192.012 69.3784 189.891 72.1048 189.407 75.0735C189.225 76.2246 188.983 77.1939 188.922 77.1939C188.861 77.1939 186.741 75.9822 184.318 74.5282C181.834 73.1347 177.956 70.8931 175.654 69.6208C168.444 65.6827 165.354 61.6841 163.173 53.3839L162.022 49.0217L162.386 52.6568C162.81 57.0796 164.506 62.1688 166.324 64.7133C167.596 66.4097 167.657 67.0762 167.414 71.4383L167.111 76.2852L164.809 73.1347C161.659 68.8332 160.447 65.7433 158.932 58.4125C157.842 53.3233 157.66 50.6575 157.902 45.0836C158.205 36.9652 159.538 32.179 163.052 26.3627C165.112 22.9094 172.14 15.0939 172.685 15.5785C172.746 15.6997 172.079 17.3961 171.11 19.3954ZM188.922 17.8202L192.072 20.2436L190.618 23.1517C189.467 25.3328 189.164 26.6657 189.407 28.9073C189.649 31.7549 190.376 33.2695 190.861 31.9972C191.648 29.8161 195.102 24.7875 195.829 24.7875C196.313 24.7875 197.889 26.2416 199.343 28.0591C201.948 31.2096 202.008 31.3307 200.918 32.4819C196.859 37.0258 189.831 36.1776 184.802 30.6037C182.258 27.7562 181.712 26.0598 182.076 22.3641C182.379 20.0013 184.56 15.3968 185.408 15.3968C185.65 15.3968 187.226 16.4873 188.922 17.8202ZM327.239 18.4866C328.39 20.6071 328.632 21.8188 328.45 24.6664C328.208 27.7562 327.905 28.4227 325.785 30.6037C320.392 36.2382 313.668 37.0258 309.608 32.4819C308.578 31.3307 308.639 31.2096 310.941 28.2409C312.274 26.5445 313.668 25.0299 314.031 24.7875C315 24.1817 316.394 25.5751 318.09 28.9679C320.029 32.7848 320.029 32.8454 320.695 31.7549C321.725 30.1796 321.362 25.7569 320.029 23.2123C319.363 21.8794 318.878 20.5465 318.999 20.2436C319.302 19.3954 324.573 15.4574 325.239 15.6391C325.542 15.6997 326.451 16.972 327.239 18.4866ZM344.566 22.0006C349.898 28.4227 352.806 37.2075 352.806 47.1436C352.806 58.0489 349.655 68.8937 345.051 74.1647L343.173 76.2852L343.112 71.3172C343.112 66.8338 343.294 66.1068 344.93 63.4411C345.96 61.8052 347.171 58.5942 347.656 56.292C348.868 50.4152 348.686 48.0523 347.414 53.2627C346.141 58.5942 343.476 63.441 340.567 65.925C339.356 67.0156 335.357 69.439 331.783 71.4383C328.208 73.3771 324.512 75.437 323.604 76.1034C321.483 77.5575 321.301 77.4969 321.301 75.437C321.301 73.0136 318.999 69.8025 316.091 68.3485L313.607 67.1368L316.636 62.4717C319.605 57.8066 319.605 57.8066 322.271 57.8066C325.179 57.8066 327.36 57.019 330.268 54.8379C332.267 53.3839 336.205 48.2341 335.721 47.7494C335.539 47.6282 333.176 48.84 330.389 50.5363C327.602 52.1722 324.755 53.5656 324.088 53.6262C323.361 53.6868 320.695 53.7474 318.151 53.8685L313.425 53.9897V52.1116C313.425 49.7487 311.608 45.8713 309.487 43.6902C308.578 42.7208 307.972 41.8726 308.094 41.7514C308.215 41.6303 310.456 41.812 313.122 42.1756C322.574 43.3267 332.752 41.4485 337.902 37.5711L340.567 35.5112L341.9 36.9046C342.991 38.0557 343.354 39.328 343.597 42.5997C343.9 47.2647 344.566 47.7494 345.172 43.7508C345.657 40.4792 344.808 37.4499 342.809 35.39C341.476 33.9965 341.355 33.633 341.961 31.4519C342.809 28.4226 341.9 23.8787 339.416 19.2137C338.447 17.3961 337.659 15.7603 337.659 15.5785C337.659 14.9727 342.264 19.2742 344.566 22.0006ZM221.396 42.1756L224.789 42.842L222.547 47.9312C221.275 50.7181 220.063 53.0204 219.76 53.0204C218.548 53.0204 210.733 46.4771 208.491 43.6296L206.068 40.6003L208.612 39.328L211.096 38.0557L214.55 39.7521C216.428 40.6609 219.518 41.7515 221.396 42.1756ZM303.61 41.6909C302.641 43.4479 296.643 49.2035 293.25 51.6269C290.645 53.4444 290.342 53.5656 289.979 52.5357C289.797 51.9298 288.767 49.5064 287.676 47.1436L285.738 42.842L289.13 42.115C291.009 41.7514 294.038 40.6609 295.855 39.7521L299.188 38.1163L301.732 39.2675C304.034 40.2974 304.216 40.6003 303.61 41.6909ZM254.051 48.3553V57.6248L249.386 58.049C246.781 58.2307 242.358 58.8366 239.511 59.3212C230.605 60.8965 229.333 60.6541 224.486 56.7161C221.578 54.3532 221.578 54.535 224.667 47.7494L226.606 43.4478L235.028 41.812C243.994 40.1156 249.689 39.2069 252.416 39.0857L254.051 39.0251V48.3553ZM262.836 39.631C265.199 39.9945 270.834 40.9638 275.499 41.812L283.92 43.4478L285.859 47.7494C289.009 54.5956 289.009 54.2321 285.495 57.2007C281.678 60.4118 279.437 60.7753 271.439 59.3818C268.289 58.8366 263.624 58.2307 261.079 57.9884L256.475 57.6248V48.3553C256.475 37.7528 255.808 38.6616 262.836 39.631ZM211.702 50.2334C215.034 52.7174 218.064 54.7773 218.427 54.7773C218.851 54.7773 218.306 55.6861 217.276 56.7161C215.095 59.0789 214.065 60.8965 214.065 62.5928C214.065 63.6228 213.399 63.3805 209.036 60.6541C206.31 58.8971 202.917 56.9584 201.463 56.3526C199.1 55.262 198.919 55.0803 198.919 52.7174C198.919 50.2334 200.312 47.2647 202.736 44.6596C203.947 43.3267 204.008 43.3267 204.795 44.4778C205.22 45.0837 208.37 47.6888 211.702 50.2334ZM309.911 47.4465C311.062 49.3246 311.608 50.9604 311.608 52.5963C311.608 55.0197 311.547 55.1408 307.609 57.1402C305.428 58.2913 302.035 60.23 300.096 61.5023L296.582 63.744L296.219 61.5023C295.977 59.9877 295.128 58.473 293.795 57.2007L291.796 55.2014L296.098 52.2933C298.461 50.6575 301.793 48.0523 303.429 46.4771C306.882 43.1449 307.185 43.2055 309.911 47.4465ZM224.728 59.3818L228.303 62.1688L238.966 61.7447C244.842 61.5629 250.598 61.5629 251.81 61.7447L254.051 62.1688V69.9843V77.7392L251.81 78.4057C246.721 79.7991 238.178 80.405 234.361 79.6174C231.09 78.9509 230.362 78.4662 226.788 74.7705C224.607 72.5289 221.275 69.3784 219.397 67.8032C215.58 64.7133 215.156 63.3805 216.791 60.23C217.64 58.5942 219.881 56.5949 220.79 56.5949C221.032 56.5949 222.789 57.8672 224.728 59.3818ZM291.493 57.5643C292.22 58.0489 293.25 59.2607 293.735 60.23C295.431 63.4411 294.947 64.7133 290.887 68.1667C288.767 69.8631 285.435 73.0136 283.435 75.0735C280.164 78.4662 279.437 78.9509 276.226 79.6174C272.469 80.405 266.896 80.1021 260.413 78.7692L256.778 78.0421L256.596 70.1055L256.414 62.1688L258.716 61.7447C259.928 61.5023 265.623 61.5629 271.318 61.7447C281.739 62.2293 283.011 62.0476 285.071 60.0483C286.162 59.0183 289.433 56.6555 289.797 56.5949C289.979 56.5949 290.766 57.019 291.493 57.5643ZM200.797 60.8965C204.068 62.5323 207.522 69.8025 213.459 87.1906C221.032 109.425 224.425 115.06 233.149 119.846C237.451 122.209 240.723 124.814 240.723 125.844C240.723 126.208 239.026 126.268 236.482 126.026C226 124.996 222.183 122.27 220.487 114.818C216.913 99.1865 206.613 75.6187 196.616 60.2906C195.647 58.8971 195.708 58.8971 197.101 59.3212C197.949 59.5636 199.585 60.2906 200.797 60.8965ZM314.455 59.4424C314.273 59.7453 313.001 61.8052 311.608 64.1681C307.245 71.3172 299.733 86.5241 296.522 94.7031C294.825 98.9441 292.402 106.396 291.069 111.182C288.949 118.937 288.403 120.149 286.525 121.845C284.102 124.087 280.103 125.42 274.045 126.026C267.623 126.632 268.471 125.299 277.862 119.604C286.707 114.272 289.433 109.789 296.825 87.857C299.309 80.5261 302.702 71.6807 304.398 68.2273C307.306 62.1687 307.548 61.9264 310.578 60.4724C313.849 58.9577 314.879 58.7154 314.455 59.4424ZM211.884 67.6214C213.883 68.9543 216.731 71.0748 218.124 72.2259L220.669 74.2859V80.7079C220.608 84.2825 220.911 88.5234 221.335 90.2198C222.426 95.1272 225.637 100.883 229.514 104.942L233.149 108.82V100.398C233.149 95.7937 233.513 90.0986 233.937 87.7358L234.725 83.4342L239.693 83.0707C242.419 82.889 246.721 82.162 249.205 81.4349C251.689 80.6473 254.415 80.1021 255.263 80.1021C256.111 80.1021 258.838 80.6473 261.322 81.4349C263.806 82.162 268.107 82.889 270.834 83.0707L275.741 83.4342L276.589 87.4329C277.013 89.6746 277.377 95.2484 277.377 100.035V108.638L280.285 105.79C284.162 102.034 286.525 98.1565 288.403 92.825C289.736 89.0081 289.918 87.4329 289.918 81.3138L289.857 74.1647L293.311 71.5595C297.37 68.4696 302.277 65.0769 302.762 65.0769C302.883 65.0769 301.853 67.6215 300.399 70.6507C299.006 73.7406 295.977 81.3138 293.735 87.4935C286.707 107.002 283.132 112.879 275.923 116.575C271.621 118.756 268.653 120.937 267.32 122.997C265.441 125.905 264.654 135.538 264.654 155.652C264.654 175.948 265.32 182.37 268.228 191.943C269.016 194.487 269.561 196.547 269.44 196.547C269.258 196.547 266.047 194.184 262.23 191.337L255.263 186.066L248.356 191.337C244.54 194.184 241.268 196.547 241.086 196.547C240.904 196.547 241.086 195.578 241.571 194.427C242.964 191.095 244.782 181.764 245.63 173.888C246.418 165.528 246.054 137.295 244.964 129.6C243.934 122.33 242.661 120.815 233.149 115.726C227.151 112.455 223.516 106.154 216.488 86.5847C214.065 79.9203 211.036 72.3471 209.763 69.7419C208.431 67.1974 207.582 65.0769 207.764 65.0769C208.006 65.0769 209.824 66.228 211.884 67.6214ZM170.746 69.2572C170.928 69.6208 174.139 71.8018 177.895 74.1041C181.591 76.4669 186.075 79.5568 187.832 80.9502C190.8 83.4343 197.707 91.4315 197.707 92.4615C197.707 93.1279 188.377 89.614 182.258 86.5847C174.079 82.6466 170.686 79.8597 169.898 76.7699C168.686 72.0442 169.292 66.955 170.746 69.2572ZM341.113 73.0741C340.931 75.4976 340.628 77.9816 340.386 78.5268C339.78 80.0415 332.631 84.646 326.633 87.4329C320.938 90.0987 312.819 93.1279 312.819 92.5827C312.819 92.3403 313.789 90.8863 314.94 89.311C318.393 84.5854 324.876 78.9509 331.298 74.9523C334.691 72.8924 338.083 70.6507 338.871 69.9843C339.719 69.3178 340.628 68.7726 340.931 68.712C341.234 68.712 341.294 70.6507 341.113 73.0741ZM201.645 75.3764C203.523 78.7086 205.704 82.9496 206.552 84.7671L208.067 88.0993L206.795 89.9169C206.068 90.9468 205.28 92.5221 205.038 93.3703C204.614 94.8849 204.493 94.8243 201.706 90.8863C200.13 88.6446 197.222 85.0701 195.223 83.0102C192.86 80.4656 191.77 78.8298 191.951 78.0421C192.072 77.4363 192.315 76.164 192.557 75.2552C192.921 73.3165 196.253 69.3178 197.404 69.3178C197.889 69.3178 199.767 72.0442 201.645 75.3764ZM315.364 70.9536C317.242 73.0135 317.969 74.4676 318.514 77.1334C318.817 78.9509 318.575 79.4962 314.94 83.3737C312.759 85.7365 309.911 89.2505 308.578 91.2498L306.215 94.8243L305.246 92.5221C304.701 91.3104 303.853 89.7957 303.307 89.1899C302.338 88.1599 302.459 87.7358 304.883 83.0707C309.972 73.2559 312.335 69.3178 313.062 69.3178C313.486 69.3178 314.516 70.0449 315.364 70.9536ZM228.606 81.4349L230.787 82.5861L230.241 87.3117C229.999 89.9169 229.878 94.6426 230.06 97.793L230.423 103.549L228.969 101.731C226.909 99.2471 223.94 93.1885 223.213 89.9169C222.85 88.4023 222.608 84.5854 222.608 81.4349V75.6793L224.486 77.9816C225.516 79.2539 227.333 80.7685 228.606 81.4349ZM287.07 91.068C286.101 94.3396 283.617 99.1259 281.497 101.852C280.467 103.185 280.406 102.882 280.345 92.7644L280.285 82.2225L282.042 81.4955C283.011 81.0714 284.647 79.6779 285.738 78.4057L287.676 76.0428L287.858 81.859C287.979 85.8577 287.737 88.7052 287.07 91.068ZM212.732 98.8835C214.368 103.125 216.186 108.274 216.791 110.274L217.821 113.969L216.246 115.545L214.731 117.059L213.096 112.758C212.187 110.334 210.248 105.972 208.733 103.003C206.613 98.6412 206.128 97.1266 206.431 95.4908C206.795 93.0673 208.431 90.341 209.218 90.8257C209.521 91.0074 211.096 94.6426 212.732 98.8835ZM304.095 95.1272C304.398 96.8842 303.913 98.3989 301.126 104.336C299.309 108.214 297.491 112.515 297.067 113.848C295.977 117.302 295.977 117.241 294.22 115.545L292.644 113.909L293.977 109.668C295.674 104.276 298.036 97.9142 299.975 93.552L301.429 90.2198L302.58 91.6133C303.186 92.4009 303.853 93.9761 304.095 95.1272ZM222.062 123.178C223.032 124.148 224.91 125.359 226.182 125.965C228.303 126.935 228.484 127.177 227.939 128.51C227.212 130.388 227.212 134.508 227.939 137.052C228.424 138.688 228.363 138.991 227.454 138.991C225.758 138.991 221.154 136.386 219.942 134.69C219.336 133.841 218.185 130.327 217.337 126.935C216.004 121.118 215.943 120.634 216.852 118.513L217.821 116.272L219.033 118.816C219.699 120.27 221.032 122.209 222.062 123.178ZM294.22 119.483C294.523 121.058 292.826 129.782 291.554 132.993C290.706 135.174 288.1 137.476 285.616 138.325C282.405 139.415 281.86 139.233 282.527 137.416C283.314 135.477 283.314 129.297 282.527 128.086C282.102 127.419 282.708 126.813 285.132 125.481C288.646 123.602 290.645 121.482 291.675 118.513C292.16 116.999 292.523 116.696 293.129 117.18C293.553 117.544 294.038 118.574 294.22 119.483ZM241.147 128.328C241.207 128.389 241.45 130.933 241.753 134.023L242.298 139.597H236.724C233.271 139.597 230.968 139.355 230.665 138.931C230.06 137.901 229.575 130.812 230.06 129.055C230.423 127.54 230.423 127.54 235.755 127.904C238.663 128.086 241.086 128.267 241.147 128.328ZM280.467 128.813C281.073 130.751 280.891 136.022 280.164 137.961C279.558 139.536 279.437 139.597 274.045 139.597H268.592V137.537C268.592 136.447 268.774 133.841 268.955 131.842L269.38 128.146L273.378 127.904C275.559 127.783 277.983 127.662 278.71 127.601C279.618 127.54 280.164 127.904 280.467 128.813Z"/>
</mask>
<path d="M236.179 1.82564C220.669 2.79501 211.217 3.76437 205.886 4.79433C202.917 5.40018 198.555 5.58194 191.467 5.46077C182.318 5.27901 181.167 5.33958 179.895 6.36954C179.107 6.97539 178.32 8.12652 178.077 8.85355C177.895 9.76233 176.381 11.0346 173.655 12.4887C164.264 17.5779 156.994 28.3015 154.994 39.9339C153.54 48.2947 155.539 63.3805 158.993 70.5295C164.143 81.0108 178.804 90.9468 194.738 94.7637C197.343 95.3696 199.767 96.0966 200.191 96.339C202.554 97.793 212.55 122.815 213.762 130.327C214.429 134.508 217.518 138.991 221.032 140.809C223.88 142.263 224.546 142.323 233.271 142.263L242.419 142.202L242.904 148.018C243.146 151.229 243.146 159.287 242.964 165.952C242.601 179.826 241.147 189.398 238.36 197.093C237.39 199.758 236.724 202 236.906 202C237.087 202 241.328 198.971 246.296 195.275C252.597 190.549 255.505 188.671 256.051 189.095C265.866 196.547 273.318 202 273.621 202C273.802 202 273.318 200.182 272.469 197.941C268.35 186.975 266.471 167.042 267.804 147.594L268.168 141.96L274.893 142.384C281.739 142.808 286.707 142.02 291.13 139.779C293.614 138.567 295.734 134.387 297.673 126.935C301.308 113.182 308.699 96.7025 311.608 95.8543C312.456 95.6119 315.667 94.7031 318.817 93.8549C329.541 90.9468 338.023 86.2212 345.051 79.2539C349.716 74.5888 352.2 70.2872 353.957 63.8651C357.713 49.9911 356.32 35.3294 350.322 25.5146C347.656 21.1524 340.386 14.1851 336.266 12.0646C333.661 10.6711 332.631 9.76233 332.207 8.36887C331.843 7.33891 330.934 6.18778 330.207 5.88486C329.42 5.52134 324.815 5.3396 318.878 5.46077C311.911 5.64253 307.609 5.40017 304.64 4.8549C299.127 3.70378 290.342 2.85558 273.136 1.76505C257.02 0.735092 252.719 0.7351 236.179 1.82564ZM254.051 6.49072C254.051 8.55063 253.809 10.5499 253.567 10.974C253.264 11.4587 250.962 11.5193 244.358 10.974C238.481 10.5499 233.452 10.5499 229.211 10.9135C223.335 11.4587 222.608 11.3981 219.518 10.1864C217.7 9.45941 214.004 8.36887 211.339 7.76302C206.734 6.73306 206.613 6.67247 208.612 6.24837C211.278 5.64251 231.15 3.94613 242.237 3.40086C246.902 3.15852 251.446 2.91618 252.416 2.85559C254.051 2.73442 254.051 2.79501 254.051 6.49072ZM271.318 3.58261C280.648 4.00671 298.824 5.58193 301.914 6.24837C303.913 6.67247 303.853 6.73306 299.188 7.76302C296.522 8.36887 292.826 9.45941 291.009 10.1864C287.919 11.3981 287.192 11.4587 281.315 10.9135C277.074 10.5499 272.045 10.5499 266.169 10.974C261.322 11.3376 257.262 11.5193 257.081 11.3981C256.96 11.2164 256.717 9.15648 256.596 6.85423L256.354 2.61325L259.868 2.91617C261.867 3.09792 267.017 3.40085 271.318 3.58261ZM196.919 8.12653C202.857 8.91414 208.491 10.1258 215.943 12.1252L221.759 13.761L223.395 23.2123C225.455 35.0265 225.94 39.631 225.152 39.631C222.971 39.631 214.489 36.844 210.854 34.9659C207.401 33.1483 204.856 31.0278 198.919 25.0299C194.738 20.7889 189.043 15.6997 186.196 13.6398C183.348 11.5799 181.046 9.58058 181.046 9.15648C181.046 8.6718 182.197 8.42945 184.499 8.49004C188.861 8.61121 196.253 11.9434 200.07 15.5785C201.584 17.0326 202.433 17.5779 202.008 16.8508C201.16 15.0939 195.526 10.1258 192.921 8.73238C190.376 7.33891 190.679 7.33891 196.919 8.12653ZM316.697 9.39882C313.365 11.5193 309.427 15.0938 308.457 16.9114C308.094 17.5778 309.063 16.972 310.638 15.5179C314.758 11.7616 321.665 8.61121 326.027 8.49004C328.329 8.42945 329.48 8.6718 329.48 9.15648C329.48 9.51999 327.178 11.5799 324.331 13.6398C321.483 15.6997 315.788 20.8495 311.608 25.0905C305.367 31.3913 303.247 33.2089 299.551 35.0265C295.916 36.9046 287.495 39.631 285.435 39.631C284.647 39.631 284.829 37.6316 286.828 25.3934L288.706 13.8821L294.28 12.2463C300.884 10.3076 313.304 7.94477 318.211 7.58125C319.423 7.52067 319.12 7.88418 316.697 9.39882ZM177.895 15.1544C173.836 22.5459 174.563 30.119 179.652 33.633L181.652 34.9659L179.713 32.906C177.532 30.6037 176.502 28.2409 176.502 25.7569C176.502 23.8182 178.198 18.6078 178.986 18.0625C179.289 17.8808 179.228 18.4866 178.925 19.3348C177.168 23.9999 178.925 29.392 183.591 33.633C189.467 38.9039 196.98 39.2069 202.069 34.36C202.917 33.5118 203.947 33.0271 204.311 33.2695C205.22 33.8148 204.614 34.663 202.311 36.0564C199.888 37.5105 201.584 37.5711 204.493 36.117C206.189 35.2082 206.855 35.1476 207.643 35.6929C209.097 36.7834 208.855 37.0864 206.068 37.874C198.737 39.8733 184.923 39.5098 178.744 37.2076C174.866 35.7535 171.898 32.7848 171.352 29.7555C170.928 27.5745 171.776 23.5152 173.291 20.5465C174.866 17.5173 179.168 11.1558 179.652 11.1558C179.895 11.1558 179.107 12.9734 177.895 15.1544ZM333.721 14.488C337.417 20.0619 339.113 24.3634 339.174 28.2409C339.174 31.3913 338.992 31.876 337.114 33.8148C333.115 37.9346 323.604 39.9339 312.395 39.0251C307.064 38.5404 301.914 37.4499 301.914 36.7834C301.914 36.6017 302.338 36.117 302.883 35.6929C303.671 35.1476 304.337 35.2082 306.034 36.117C308.942 37.5711 310.638 37.5105 308.215 36.0564C305.913 34.663 305.307 33.8148 306.155 33.2695C306.518 33.0271 307.67 33.633 308.76 34.5418C314.455 39.3886 321.907 38.7828 327.663 33.0877C331.661 29.1497 333.176 23.697 331.601 19.2137C331.056 17.6384 331.056 17.5778 331.904 18.729C332.994 20.1224 334.024 23.5152 334.024 25.8175C334.024 28.2409 332.934 30.6037 330.813 32.906C329.541 34.2389 329.299 34.7235 330.086 34.2994C333.237 32.6636 335.236 28.665 335.236 23.9393C335.236 20.9101 334.872 19.5772 332.873 15.7603C331.54 13.2157 330.692 11.1558 330.995 11.1558C331.237 11.1558 332.51 12.6704 333.721 14.488ZM250.295 14.3668C254.294 14.9727 256.232 14.9727 260.292 14.3668C267.683 13.2157 285.253 12.6098 285.798 13.458C286.041 13.8821 285.495 17.3355 284.647 21.1524C283.799 24.9693 282.951 30.7249 282.708 33.9359L282.345 39.7521L280.467 39.3886C260.655 35.2688 249.871 35.2688 229.999 39.3886L228 39.7521V36.7229C228 32.5425 226.97 25.151 225.516 19.2137C224.849 16.4267 224.486 13.8821 224.728 13.5186C225.273 12.6098 242.722 13.2157 250.295 14.3668ZM171.11 19.3954C168.686 24.1817 167.838 28.0591 168.565 31.2702C169.111 33.5724 168.989 33.9359 167.293 36.0564C165.657 38.1163 165.415 38.9039 165.415 41.9332C165.415 43.8719 165.657 45.9318 166.021 46.5377C166.505 47.3859 166.687 46.5983 166.93 43.0237C167.172 39.328 167.535 38.1163 168.565 36.9652L169.959 35.5112L173.352 37.874C178.986 41.6909 188.74 43.3873 197.707 42.1756C200.191 41.812 202.311 41.6303 202.493 41.7514C202.614 41.8726 201.827 43.0237 200.736 44.2355C198.434 46.9012 197.101 49.8093 197.101 52.2933V54.0503L191.709 53.8685C185.711 53.5656 183.954 53.0204 178.744 49.6882C176.805 48.4159 175.048 47.5071 174.927 47.6888C174.806 47.81 175.593 49.264 176.684 50.8999C179.41 54.8985 184.257 57.8066 188.074 57.8066H190.861L193.951 62.4717L197.04 67.1368L194.738 68.1667C192.012 69.3784 189.891 72.1048 189.407 75.0735C189.225 76.2246 188.983 77.1939 188.922 77.1939C188.861 77.1939 186.741 75.9822 184.318 74.5282C181.834 73.1347 177.956 70.8931 175.654 69.6208C168.444 65.6827 165.354 61.6841 163.173 53.3839L162.022 49.0217L162.386 52.6568C162.81 57.0796 164.506 62.1688 166.324 64.7133C167.596 66.4097 167.657 67.0762 167.414 71.4383L167.111 76.2852L164.809 73.1347C161.659 68.8332 160.447 65.7433 158.932 58.4125C157.842 53.3233 157.66 50.6575 157.902 45.0836C158.205 36.9652 159.538 32.179 163.052 26.3627C165.112 22.9094 172.14 15.0939 172.685 15.5785C172.746 15.6997 172.079 17.3961 171.11 19.3954ZM188.922 17.8202L192.072 20.2436L190.618 23.1517C189.467 25.3328 189.164 26.6657 189.407 28.9073C189.649 31.7549 190.376 33.2695 190.861 31.9972C191.648 29.8161 195.102 24.7875 195.829 24.7875C196.313 24.7875 197.889 26.2416 199.343 28.0591C201.948 31.2096 202.008 31.3307 200.918 32.4819C196.859 37.0258 189.831 36.1776 184.802 30.6037C182.258 27.7562 181.712 26.0598 182.076 22.3641C182.379 20.0013 184.56 15.3968 185.408 15.3968C185.65 15.3968 187.226 16.4873 188.922 17.8202ZM327.239 18.4866C328.39 20.6071 328.632 21.8188 328.45 24.6664C328.208 27.7562 327.905 28.4227 325.785 30.6037C320.392 36.2382 313.668 37.0258 309.608 32.4819C308.578 31.3307 308.639 31.2096 310.941 28.2409C312.274 26.5445 313.668 25.0299 314.031 24.7875C315 24.1817 316.394 25.5751 318.09 28.9679C320.029 32.7848 320.029 32.8454 320.695 31.7549C321.725 30.1796 321.362 25.7569 320.029 23.2123C319.363 21.8794 318.878 20.5465 318.999 20.2436C319.302 19.3954 324.573 15.4574 325.239 15.6391C325.542 15.6997 326.451 16.972 327.239 18.4866ZM344.566 22.0006C349.898 28.4227 352.806 37.2075 352.806 47.1436C352.806 58.0489 349.655 68.8937 345.051 74.1647L343.173 76.2852L343.112 71.3172C343.112 66.8338 343.294 66.1068 344.93 63.4411C345.96 61.8052 347.171 58.5942 347.656 56.292C348.868 50.4152 348.686 48.0523 347.414 53.2627C346.141 58.5942 343.476 63.441 340.567 65.925C339.356 67.0156 335.357 69.439 331.783 71.4383C328.208 73.3771 324.512 75.437 323.604 76.1034C321.483 77.5575 321.301 77.4969 321.301 75.437C321.301 73.0136 318.999 69.8025 316.091 68.3485L313.607 67.1368L316.636 62.4717C319.605 57.8066 319.605 57.8066 322.271 57.8066C325.179 57.8066 327.36 57.019 330.268 54.8379C332.267 53.3839 336.205 48.2341 335.721 47.7494C335.539 47.6282 333.176 48.84 330.389 50.5363C327.602 52.1722 324.755 53.5656 324.088 53.6262C323.361 53.6868 320.695 53.7474 318.151 53.8685L313.425 53.9897V52.1116C313.425 49.7487 311.608 45.8713 309.487 43.6902C308.578 42.7208 307.972 41.8726 308.094 41.7514C308.215 41.6303 310.456 41.812 313.122 42.1756C322.574 43.3267 332.752 41.4485 337.902 37.5711L340.567 35.5112L341.9 36.9046C342.991 38.0557 343.354 39.328 343.597 42.5997C343.9 47.2647 344.566 47.7494 345.172 43.7508C345.657 40.4792 344.808 37.4499 342.809 35.39C341.476 33.9965 341.355 33.633 341.961 31.4519C342.809 28.4226 341.9 23.8787 339.416 19.2137C338.447 17.3961 337.659 15.7603 337.659 15.5785C337.659 14.9727 342.264 19.2742 344.566 22.0006ZM221.396 42.1756L224.789 42.842L222.547 47.9312C221.275 50.7181 220.063 53.0204 219.76 53.0204C218.548 53.0204 210.733 46.4771 208.491 43.6296L206.068 40.6003L208.612 39.328L211.096 38.0557L214.55 39.7521C216.428 40.6609 219.518 41.7515 221.396 42.1756ZM303.61 41.6909C302.641 43.4479 296.643 49.2035 293.25 51.6269C290.645 53.4444 290.342 53.5656 289.979 52.5357C289.797 51.9298 288.767 49.5064 287.676 47.1436L285.738 42.842L289.13 42.115C291.009 41.7514 294.038 40.6609 295.855 39.7521L299.188 38.1163L301.732 39.2675C304.034 40.2974 304.216 40.6003 303.61 41.6909ZM254.051 48.3553V57.6248L249.386 58.049C246.781 58.2307 242.358 58.8366 239.511 59.3212C230.605 60.8965 229.333 60.6541 224.486 56.7161C221.578 54.3532 221.578 54.535 224.667 47.7494L226.606 43.4478L235.028 41.812C243.994 40.1156 249.689 39.2069 252.416 39.0857L254.051 39.0251V48.3553ZM262.836 39.631C265.199 39.9945 270.834 40.9638 275.499 41.812L283.92 43.4478L285.859 47.7494C289.009 54.5956 289.009 54.2321 285.495 57.2007C281.678 60.4118 279.437 60.7753 271.439 59.3818C268.289 58.8366 263.624 58.2307 261.079 57.9884L256.475 57.6248V48.3553C256.475 37.7528 255.808 38.6616 262.836 39.631ZM211.702 50.2334C215.034 52.7174 218.064 54.7773 218.427 54.7773C218.851 54.7773 218.306 55.6861 217.276 56.7161C215.095 59.0789 214.065 60.8965 214.065 62.5928C214.065 63.6228 213.399 63.3805 209.036 60.6541C206.31 58.8971 202.917 56.9584 201.463 56.3526C199.1 55.262 198.919 55.0803 198.919 52.7174C198.919 50.2334 200.312 47.2647 202.736 44.6596C203.947 43.3267 204.008 43.3267 204.795 44.4778C205.22 45.0837 208.37 47.6888 211.702 50.2334ZM309.911 47.4465C311.062 49.3246 311.608 50.9604 311.608 52.5963C311.608 55.0197 311.547 55.1408 307.609 57.1402C305.428 58.2913 302.035 60.23 300.096 61.5023L296.582 63.744L296.219 61.5023C295.977 59.9877 295.128 58.473 293.795 57.2007L291.796 55.2014L296.098 52.2933C298.461 50.6575 301.793 48.0523 303.429 46.4771C306.882 43.1449 307.185 43.2055 309.911 47.4465ZM224.728 59.3818L228.303 62.1688L238.966 61.7447C244.842 61.5629 250.598 61.5629 251.81 61.7447L254.051 62.1688V69.9843V77.7392L251.81 78.4057C246.721 79.7991 238.178 80.405 234.361 79.6174C231.09 78.9509 230.362 78.4662 226.788 74.7705C224.607 72.5289 221.275 69.3784 219.397 67.8032C215.58 64.7133 215.156 63.3805 216.791 60.23C217.64 58.5942 219.881 56.5949 220.79 56.5949C221.032 56.5949 222.789 57.8672 224.728 59.3818ZM291.493 57.5643C292.22 58.0489 293.25 59.2607 293.735 60.23C295.431 63.4411 294.947 64.7133 290.887 68.1667C288.767 69.8631 285.435 73.0136 283.435 75.0735C280.164 78.4662 279.437 78.9509 276.226 79.6174C272.469 80.405 266.896 80.1021 260.413 78.7692L256.778 78.0421L256.596 70.1055L256.414 62.1688L258.716 61.7447C259.928 61.5023 265.623 61.5629 271.318 61.7447C281.739 62.2293 283.011 62.0476 285.071 60.0483C286.162 59.0183 289.433 56.6555 289.797 56.5949C289.979 56.5949 290.766 57.019 291.493 57.5643ZM200.797 60.8965C204.068 62.5323 207.522 69.8025 213.459 87.1906C221.032 109.425 224.425 115.06 233.149 119.846C237.451 122.209 240.723 124.814 240.723 125.844C240.723 126.208 239.026 126.268 236.482 126.026C226 124.996 222.183 122.27 220.487 114.818C216.913 99.1865 206.613 75.6187 196.616 60.2906C195.647 58.8971 195.708 58.8971 197.101 59.3212C197.949 59.5636 199.585 60.2906 200.797 60.8965ZM314.455 59.4424C314.273 59.7453 313.001 61.8052 311.608 64.1681C307.245 71.3172 299.733 86.5241 296.522 94.7031C294.825 98.9441 292.402 106.396 291.069 111.182C288.949 118.937 288.403 120.149 286.525 121.845C284.102 124.087 280.103 125.42 274.045 126.026C267.623 126.632 268.471 125.299 277.862 119.604C286.707 114.272 289.433 109.789 296.825 87.857C299.309 80.5261 302.702 71.6807 304.398 68.2273C307.306 62.1687 307.548 61.9264 310.578 60.4724C313.849 58.9577 314.879 58.7154 314.455 59.4424ZM211.884 67.6214C213.883 68.9543 216.731 71.0748 218.124 72.2259L220.669 74.2859V80.7079C220.608 84.2825 220.911 88.5234 221.335 90.2198C222.426 95.1272 225.637 100.883 229.514 104.942L233.149 108.82V100.398C233.149 95.7937 233.513 90.0986 233.937 87.7358L234.725 83.4342L239.693 83.0707C242.419 82.889 246.721 82.162 249.205 81.4349C251.689 80.6473 254.415 80.1021 255.263 80.1021C256.111 80.1021 258.838 80.6473 261.322 81.4349C263.806 82.162 268.107 82.889 270.834 83.0707L275.741 83.4342L276.589 87.4329C277.013 89.6746 277.377 95.2484 277.377 100.035V108.638L280.285 105.79C284.162 102.034 286.525 98.1565 288.403 92.825C289.736 89.0081 289.918 87.4329 289.918 81.3138L289.857 74.1647L293.311 71.5595C297.37 68.4696 302.277 65.0769 302.762 65.0769C302.883 65.0769 301.853 67.6215 300.399 70.6507C299.006 73.7406 295.977 81.3138 293.735 87.4935C286.707 107.002 283.132 112.879 275.923 116.575C271.621 118.756 268.653 120.937 267.32 122.997C265.441 125.905 264.654 135.538 264.654 155.652C264.654 175.948 265.32 182.37 268.228 191.943C269.016 194.487 269.561 196.547 269.44 196.547C269.258 196.547 266.047 194.184 262.23 191.337L255.263 186.066L248.356 191.337C244.54 194.184 241.268 196.547 241.086 196.547C240.904 196.547 241.086 195.578 241.571 194.427C242.964 191.095 244.782 181.764 245.63 173.888C246.418 165.528 246.054 137.295 244.964 129.6C243.934 122.33 242.661 120.815 233.149 115.726C227.151 112.455 223.516 106.154 216.488 86.5847C214.065 79.9203 211.036 72.3471 209.763 69.7419C208.431 67.1974 207.582 65.0769 207.764 65.0769C208.006 65.0769 209.824 66.228 211.884 67.6214ZM170.746 69.2572C170.928 69.6208 174.139 71.8018 177.895 74.1041C181.591 76.4669 186.075 79.5568 187.832 80.9502C190.8 83.4343 197.707 91.4315 197.707 92.4615C197.707 93.1279 188.377 89.614 182.258 86.5847C174.079 82.6466 170.686 79.8597 169.898 76.7699C168.686 72.0442 169.292 66.955 170.746 69.2572ZM341.113 73.0741C340.931 75.4976 340.628 77.9816 340.386 78.5268C339.78 80.0415 332.631 84.646 326.633 87.4329C320.938 90.0987 312.819 93.1279 312.819 92.5827C312.819 92.3403 313.789 90.8863 314.94 89.311C318.393 84.5854 324.876 78.9509 331.298 74.9523C334.691 72.8924 338.083 70.6507 338.871 69.9843C339.719 69.3178 340.628 68.7726 340.931 68.712C341.234 68.712 341.294 70.6507 341.113 73.0741ZM201.645 75.3764C203.523 78.7086 205.704 82.9496 206.552 84.7671L208.067 88.0993L206.795 89.9169C206.068 90.9468 205.28 92.5221 205.038 93.3703C204.614 94.8849 204.493 94.8243 201.706 90.8863C200.13 88.6446 197.222 85.0701 195.223 83.0102C192.86 80.4656 191.77 78.8298 191.951 78.0421C192.072 77.4363 192.315 76.164 192.557 75.2552C192.921 73.3165 196.253 69.3178 197.404 69.3178C197.889 69.3178 199.767 72.0442 201.645 75.3764ZM315.364 70.9536C317.242 73.0135 317.969 74.4676 318.514 77.1334C318.817 78.9509 318.575 79.4962 314.94 83.3737C312.759 85.7365 309.911 89.2505 308.578 91.2498L306.215 94.8243L305.246 92.5221C304.701 91.3104 303.853 89.7957 303.307 89.1899C302.338 88.1599 302.459 87.7358 304.883 83.0707C309.972 73.2559 312.335 69.3178 313.062 69.3178C313.486 69.3178 314.516 70.0449 315.364 70.9536ZM228.606 81.4349L230.787 82.5861L230.241 87.3117C229.999 89.9169 229.878 94.6426 230.06 97.793L230.423 103.549L228.969 101.731C226.909 99.2471 223.94 93.1885 223.213 89.9169C222.85 88.4023 222.608 84.5854 222.608 81.4349V75.6793L224.486 77.9816C225.516 79.2539 227.333 80.7685 228.606 81.4349ZM287.07 91.068C286.101 94.3396 283.617 99.1259 281.497 101.852C280.467 103.185 280.406 102.882 280.345 92.7644L280.285 82.2225L282.042 81.4955C283.011 81.0714 284.647 79.6779 285.738 78.4057L287.676 76.0428L287.858 81.859C287.979 85.8577 287.737 88.7052 287.07 91.068ZM212.732 98.8835C214.368 103.125 216.186 108.274 216.791 110.274L217.821 113.969L216.246 115.545L214.731 117.059L213.096 112.758C212.187 110.334 210.248 105.972 208.733 103.003C206.613 98.6412 206.128 97.1266 206.431 95.4908C206.795 93.0673 208.431 90.341 209.218 90.8257C209.521 91.0074 211.096 94.6426 212.732 98.8835ZM304.095 95.1272C304.398 96.8842 303.913 98.3989 301.126 104.336C299.309 108.214 297.491 112.515 297.067 113.848C295.977 117.302 295.977 117.241 294.22 115.545L292.644 113.909L293.977 109.668C295.674 104.276 298.036 97.9142 299.975 93.552L301.429 90.2198L302.58 91.6133C303.186 92.4009 303.853 93.9761 304.095 95.1272ZM222.062 123.178C223.032 124.148 224.91 125.359 226.182 125.965C228.303 126.935 228.484 127.177 227.939 128.51C227.212 130.388 227.212 134.508 227.939 137.052C228.424 138.688 228.363 138.991 227.454 138.991C225.758 138.991 221.154 136.386 219.942 134.69C219.336 133.841 218.185 130.327 217.337 126.935C216.004 121.118 215.943 120.634 216.852 118.513L217.821 116.272L219.033 118.816C219.699 120.27 221.032 122.209 222.062 123.178ZM294.22 119.483C294.523 121.058 292.826 129.782 291.554 132.993C290.706 135.174 288.1 137.476 285.616 138.325C282.405 139.415 281.86 139.233 282.527 137.416C283.314 135.477 283.314 129.297 282.527 128.086C282.102 127.419 282.708 126.813 285.132 125.481C288.646 123.602 290.645 121.482 291.675 118.513C292.16 116.999 292.523 116.696 293.129 117.18C293.553 117.544 294.038 118.574 294.22 119.483ZM241.147 128.328C241.207 128.389 241.45 130.933 241.753 134.023L242.298 139.597H236.724C233.271 139.597 230.968 139.355 230.665 138.931C230.06 137.901 229.575 130.812 230.06 129.055C230.423 127.54 230.423 127.54 235.755 127.904C238.663 128.086 241.086 128.267 241.147 128.328ZM280.467 128.813C281.073 130.751 280.891 136.022 280.164 137.961C279.558 139.536 279.437 139.597 274.045 139.597H268.592V137.537C268.592 136.447 268.774 133.841 268.955 131.842L269.38 128.146L273.378 127.904C275.559 127.783 277.983 127.662 278.71 127.601C279.618 127.54 280.164 127.904 280.467 128.813Z" fill="#C9A48A"/>
<path d="M236.179 1.82564C220.669 2.79501 211.217 3.76437 205.886 4.79433C202.917 5.40018 198.555 5.58194 191.467 5.46077C182.318 5.27901 181.167 5.33958 179.895 6.36954C179.107 6.97539 178.32 8.12652 178.077 8.85355C177.895 9.76233 176.381 11.0346 173.655 12.4887C164.264 17.5779 156.994 28.3015 154.994 39.9339C153.54 48.2947 155.539 63.3805 158.993 70.5295C164.143 81.0108 178.804 90.9468 194.738 94.7637C197.343 95.3696 199.767 96.0966 200.191 96.339C202.554 97.793 212.55 122.815 213.762 130.327C214.429 134.508 217.518 138.991 221.032 140.809C223.88 142.263 224.546 142.323 233.271 142.263L242.419 142.202L242.904 148.018C243.146 151.229 243.146 159.287 242.964 165.952C242.601 179.826 241.147 189.398 238.36 197.093C237.39 199.758 236.724 202 236.906 202C237.087 202 241.328 198.971 246.296 195.275C252.597 190.549 255.505 188.671 256.051 189.095C265.866 196.547 273.318 202 273.621 202C273.802 202 273.318 200.182 272.469 197.941C268.35 186.975 266.471 167.042 267.804 147.594L268.168 141.96L274.893 142.384C281.739 142.808 286.707 142.02 291.13 139.779C293.614 138.567 295.734 134.387 297.673 126.935C301.308 113.182 308.699 96.7025 311.608 95.8543C312.456 95.6119 315.667 94.7031 318.817 93.8549C329.541 90.9468 338.023 86.2212 345.051 79.2539C349.716 74.5888 352.2 70.2872 353.957 63.8651C357.713 49.9911 356.32 35.3294 350.322 25.5146C347.656 21.1524 340.386 14.1851 336.266 12.0646C333.661 10.6711 332.631 9.76233 332.207 8.36887C331.843 7.33891 330.934 6.18778 330.207 5.88486C329.42 5.52134 324.815 5.3396 318.878 5.46077C311.911 5.64253 307.609 5.40017 304.64 4.8549C299.127 3.70378 290.342 2.85558 273.136 1.76505C257.02 0.735092 252.719 0.7351 236.179 1.82564ZM254.051 6.49072C254.051 8.55063 253.809 10.5499 253.567 10.974C253.264 11.4587 250.962 11.5193 244.358 10.974C238.481 10.5499 233.452 10.5499 229.211 10.9135C223.335 11.4587 222.608 11.3981 219.518 10.1864C217.7 9.45941 214.004 8.36887 211.339 7.76302C206.734 6.73306 206.613 6.67247 208.612 6.24837C211.278 5.64251 231.15 3.94613 242.237 3.40086C246.902 3.15852 251.446 2.91618 252.416 2.85559C254.051 2.73442 254.051 2.79501 254.051 6.49072ZM271.318 3.58261C280.648 4.00671 298.824 5.58193 301.914 6.24837C303.913 6.67247 303.853 6.73306 299.188 7.76302C296.522 8.36887 292.826 9.45941 291.009 10.1864C287.919 11.3981 287.192 11.4587 281.315 10.9135C277.074 10.5499 272.045 10.5499 266.169 10.974C261.322 11.3376 257.262 11.5193 257.081 11.3981C256.96 11.2164 256.717 9.15648 256.596 6.85423L256.354 2.61325L259.868 2.91617C261.867 3.09792 267.017 3.40085 271.318 3.58261ZM196.919 8.12653C202.857 8.91414 208.491 10.1258 215.943 12.1252L221.759 13.761L223.395 23.2123C225.455 35.0265 225.94 39.631 225.152 39.631C222.971 39.631 214.489 36.844 210.854 34.9659C207.401 33.1483 204.856 31.0278 198.919 25.0299C194.738 20.7889 189.043 15.6997 186.196 13.6398C183.348 11.5799 181.046 9.58058 181.046 9.15648C181.046 8.6718 182.197 8.42945 184.499 8.49004C188.861 8.61121 196.253 11.9434 200.07 15.5785C201.584 17.0326 202.433 17.5779 202.008 16.8508C201.16 15.0939 195.526 10.1258 192.921 8.73238C190.376 7.33891 190.679 7.33891 196.919 8.12653ZM316.697 9.39882C313.365 11.5193 309.427 15.0938 308.457 16.9114C308.094 17.5778 309.063 16.972 310.638 15.5179C314.758 11.7616 321.665 8.61121 326.027 8.49004C328.329 8.42945 329.48 8.6718 329.48 9.15648C329.48 9.51999 327.178 11.5799 324.331 13.6398C321.483 15.6997 315.788 20.8495 311.608 25.0905C305.367 31.3913 303.247 33.2089 299.551 35.0265C295.916 36.9046 287.495 39.631 285.435 39.631C284.647 39.631 284.829 37.6316 286.828 25.3934L288.706 13.8821L294.28 12.2463C300.884 10.3076 313.304 7.94477 318.211 7.58125C319.423 7.52067 319.12 7.88418 316.697 9.39882ZM177.895 15.1544C173.836 22.5459 174.563 30.119 179.652 33.633L181.652 34.9659L179.713 32.906C177.532 30.6037 176.502 28.2409 176.502 25.7569C176.502 23.8182 178.198 18.6078 178.986 18.0625C179.289 17.8808 179.228 18.4866 178.925 19.3348C177.168 23.9999 178.925 29.392 183.591 33.633C189.467 38.9039 196.98 39.2069 202.069 34.36C202.917 33.5118 203.947 33.0271 204.311 33.2695C205.22 33.8148 204.614 34.663 202.311 36.0564C199.888 37.5105 201.584 37.5711 204.493 36.117C206.189 35.2082 206.855 35.1476 207.643 35.6929C209.097 36.7834 208.855 37.0864 206.068 37.874C198.737 39.8733 184.923 39.5098 178.744 37.2076C174.866 35.7535 171.898 32.7848 171.352 29.7555C170.928 27.5745 171.776 23.5152 173.291 20.5465C174.866 17.5173 179.168 11.1558 179.652 11.1558C179.895 11.1558 179.107 12.9734 177.895 15.1544ZM333.721 14.488C337.417 20.0619 339.113 24.3634 339.174 28.2409C339.174 31.3913 338.992 31.876 337.114 33.8148C333.115 37.9346 323.604 39.9339 312.395 39.0251C307.064 38.5404 301.914 37.4499 301.914 36.7834C301.914 36.6017 302.338 36.117 302.883 35.6929C303.671 35.1476 304.337 35.2082 306.034 36.117C308.942 37.5711 310.638 37.5105 308.215 36.0564C305.913 34.663 305.307 33.8148 306.155 33.2695C306.518 33.0271 307.67 33.633 308.76 34.5418C314.455 39.3886 321.907 38.7828 327.663 33.0877C331.661 29.1497 333.176 23.697 331.601 19.2137C331.056 17.6384 331.056 17.5778 331.904 18.729C332.994 20.1224 334.024 23.5152 334.024 25.8175C334.024 28.2409 332.934 30.6037 330.813 32.906C329.541 34.2389 329.299 34.7235 330.086 34.2994C333.237 32.6636 335.236 28.665 335.236 23.9393C335.236 20.9101 334.872 19.5772 332.873 15.7603C331.54 13.2157 330.692 11.1558 330.995 11.1558C331.237 11.1558 332.51 12.6704 333.721 14.488ZM250.295 14.3668C254.294 14.9727 256.232 14.9727 260.292 14.3668C267.683 13.2157 285.253 12.6098 285.798 13.458C286.041 13.8821 285.495 17.3355 284.647 21.1524C283.799 24.9693 282.951 30.7249 282.708 33.9359L282.345 39.7521L280.467 39.3886C260.655 35.2688 249.871 35.2688 229.999 39.3886L228 39.7521V36.7229C228 32.5425 226.97 25.151 225.516 19.2137C224.849 16.4267 224.486 13.8821 224.728 13.5186C225.273 12.6098 242.722 13.2157 250.295 14.3668ZM171.11 19.3954C168.686 24.1817 167.838 28.0591 168.565 31.2702C169.111 33.5724 168.989 33.9359 167.293 36.0564C165.657 38.1163 165.415 38.9039 165.415 41.9332C165.415 43.8719 165.657 45.9318 166.021 46.5377C166.505 47.3859 166.687 46.5983 166.93 43.0237C167.172 39.328 167.535 38.1163 168.565 36.9652L169.959 35.5112L173.352 37.874C178.986 41.6909 188.74 43.3873 197.707 42.1756C200.191 41.812 202.311 41.6303 202.493 41.7514C202.614 41.8726 201.827 43.0237 200.736 44.2355C198.434 46.9012 197.101 49.8093 197.101 52.2933V54.0503L191.709 53.8685C185.711 53.5656 183.954 53.0204 178.744 49.6882C176.805 48.4159 175.048 47.5071 174.927 47.6888C174.806 47.81 175.593 49.264 176.684 50.8999C179.41 54.8985 184.257 57.8066 188.074 57.8066H190.861L193.951 62.4717L197.04 67.1368L194.738 68.1667C192.012 69.3784 189.891 72.1048 189.407 75.0735C189.225 76.2246 188.983 77.1939 188.922 77.1939C188.861 77.1939 186.741 75.9822 184.318 74.5282C181.834 73.1347 177.956 70.8931 175.654 69.6208C168.444 65.6827 165.354 61.6841 163.173 53.3839L162.022 49.0217L162.386 52.6568C162.81 57.0796 164.506 62.1688 166.324 64.7133C167.596 66.4097 167.657 67.0762 167.414 71.4383L167.111 76.2852L164.809 73.1347C161.659 68.8332 160.447 65.7433 158.932 58.4125C157.842 53.3233 157.66 50.6575 157.902 45.0836C158.205 36.9652 159.538 32.179 163.052 26.3627C165.112 22.9094 172.14 15.0939 172.685 15.5785C172.746 15.6997 172.079 17.3961 171.11 19.3954ZM188.922 17.8202L192.072 20.2436L190.618 23.1517C189.467 25.3328 189.164 26.6657 189.407 28.9073C189.649 31.7549 190.376 33.2695 190.861 31.9972C191.648 29.8161 195.102 24.7875 195.829 24.7875C196.313 24.7875 197.889 26.2416 199.343 28.0591C201.948 31.2096 202.008 31.3307 200.918 32.4819C196.859 37.0258 189.831 36.1776 184.802 30.6037C182.258 27.7562 181.712 26.0598 182.076 22.3641C182.379 20.0013 184.56 15.3968 185.408 15.3968C185.65 15.3968 187.226 16.4873 188.922 17.8202ZM327.239 18.4866C328.39 20.6071 328.632 21.8188 328.45 24.6664C328.208 27.7562 327.905 28.4227 325.785 30.6037C320.392 36.2382 313.668 37.0258 309.608 32.4819C308.578 31.3307 308.639 31.2096 310.941 28.2409C312.274 26.5445 313.668 25.0299 314.031 24.7875C315 24.1817 316.394 25.5751 318.09 28.9679C320.029 32.7848 320.029 32.8454 320.695 31.7549C321.725 30.1796 321.362 25.7569 320.029 23.2123C319.363 21.8794 318.878 20.5465 318.999 20.2436C319.302 19.3954 324.573 15.4574 325.239 15.6391C325.542 15.6997 326.451 16.972 327.239 18.4866ZM344.566 22.0006C349.898 28.4227 352.806 37.2075 352.806 47.1436C352.806 58.0489 349.655 68.8937 345.051 74.1647L343.173 76.2852L343.112 71.3172C343.112 66.8338 343.294 66.1068 344.93 63.4411C345.96 61.8052 347.171 58.5942 347.656 56.292C348.868 50.4152 348.686 48.0523 347.414 53.2627C346.141 58.5942 343.476 63.441 340.567 65.925C339.356 67.0156 335.357 69.439 331.783 71.4383C328.208 73.3771 324.512 75.437 323.604 76.1034C321.483 77.5575 321.301 77.4969 321.301 75.437C321.301 73.0136 318.999 69.8025 316.091 68.3485L313.607 67.1368L316.636 62.4717C319.605 57.8066 319.605 57.8066 322.271 57.8066C325.179 57.8066 327.36 57.019 330.268 54.8379C332.267 53.3839 336.205 48.2341 335.721 47.7494C335.539 47.6282 333.176 48.84 330.389 50.5363C327.602 52.1722 324.755 53.5656 324.088 53.6262C323.361 53.6868 320.695 53.7474 318.151 53.8685L313.425 53.9897V52.1116C313.425 49.7487 311.608 45.8713 309.487 43.6902C308.578 42.7208 307.972 41.8726 308.094 41.7514C308.215 41.6303 310.456 41.812 313.122 42.1756C322.574 43.3267 332.752 41.4485 337.902 37.5711L340.567 35.5112L341.9 36.9046C342.991 38.0557 343.354 39.328 343.597 42.5997C343.9 47.2647 344.566 47.7494 345.172 43.7508C345.657 40.4792 344.808 37.4499 342.809 35.39C341.476 33.9965 341.355 33.633 341.961 31.4519C342.809 28.4226 341.9 23.8787 339.416 19.2137C338.447 17.3961 337.659 15.7603 337.659 15.5785C337.659 14.9727 342.264 19.2742 344.566 22.0006ZM221.396 42.1756L224.789 42.842L222.547 47.9312C221.275 50.7181 220.063 53.0204 219.76 53.0204C218.548 53.0204 210.733 46.4771 208.491 43.6296L206.068 40.6003L208.612 39.328L211.096 38.0557L214.55 39.7521C216.428 40.6609 219.518 41.7515 221.396 42.1756ZM303.61 41.6909C302.641 43.4479 296.643 49.2035 293.25 51.6269C290.645 53.4444 290.342 53.5656 289.979 52.5357C289.797 51.9298 288.767 49.5064 287.676 47.1436L285.738 42.842L289.13 42.115C291.009 41.7514 294.038 40.6609 295.855 39.7521L299.188 38.1163L301.732 39.2675C304.034 40.2974 304.216 40.6003 303.61 41.6909ZM254.051 48.3553V57.6248L249.386 58.049C246.781 58.2307 242.358 58.8366 239.511 59.3212C230.605 60.8965 229.333 60.6541 224.486 56.7161C221.578 54.3532 221.578 54.535 224.667 47.7494L226.606 43.4478L235.028 41.812C243.994 40.1156 249.689 39.2069 252.416 39.0857L254.051 39.0251V48.3553ZM262.836 39.631C265.199 39.9945 270.834 40.9638 275.499 41.812L283.92 43.4478L285.859 47.7494C289.009 54.5956 289.009 54.2321 285.495 57.2007C281.678 60.4118 279.437 60.7753 271.439 59.3818C268.289 58.8366 263.624 58.2307 261.079 57.9884L256.475 57.6248V48.3553C256.475 37.7528 255.808 38.6616 262.836 39.631ZM211.702 50.2334C215.034 52.7174 218.064 54.7773 218.427 54.7773C218.851 54.7773 218.306 55.6861 217.276 56.7161C215.095 59.0789 214.065 60.8965 214.065 62.5928C214.065 63.6228 213.399 63.3805 209.036 60.6541C206.31 58.8971 202.917 56.9584 201.463 56.3526C199.1 55.262 198.919 55.0803 198.919 52.7174C198.919 50.2334 200.312 47.2647 202.736 44.6596C203.947 43.3267 204.008 43.3267 204.795 44.4778C205.22 45.0837 208.37 47.6888 211.702 50.2334ZM309.911 47.4465C311.062 49.3246 311.608 50.9604 311.608 52.5963C311.608 55.0197 311.547 55.1408 307.609 57.1402C305.428 58.2913 302.035 60.23 300.096 61.5023L296.582 63.744L296.219 61.5023C295.977 59.9877 295.128 58.473 293.795 57.2007L291.796 55.2014L296.098 52.2933C298.461 50.6575 301.793 48.0523 303.429 46.4771C306.882 43.1449 307.185 43.2055 309.911 47.4465ZM224.728 59.3818L228.303 62.1688L238.966 61.7447C244.842 61.5629 250.598 61.5629 251.81 61.7447L254.051 62.1688V69.9843V77.7392L251.81 78.4057C246.721 79.7991 238.178 80.405 234.361 79.6174C231.09 78.9509 230.362 78.4662 226.788 74.7705C224.607 72.5289 221.275 69.3784 219.397 67.8032C215.58 64.7133 215.156 63.3805 216.791 60.23C217.64 58.5942 219.881 56.5949 220.79 56.5949C221.032 56.5949 222.789 57.8672 224.728 59.3818ZM291.493 57.5643C292.22 58.0489 293.25 59.2607 293.735 60.23C295.431 63.4411 294.947 64.7133 290.887 68.1667C288.767 69.8631 285.435 73.0136 283.435 75.0735C280.164 78.4662 279.437 78.9509 276.226 79.6174C272.469 80.405 266.896 80.1021 260.413 78.7692L256.778 78.0421L256.596 70.1055L256.414 62.1688L258.716 61.7447C259.928 61.5023 265.623 61.5629 271.318 61.7447C281.739 62.2293 283.011 62.0476 285.071 60.0483C286.162 59.0183 289.433 56.6555 289.797 56.5949C289.979 56.5949 290.766 57.019 291.493 57.5643ZM200.797 60.8965C204.068 62.5323 207.522 69.8025 213.459 87.1906C221.032 109.425 224.425 115.06 233.149 119.846C237.451 122.209 240.723 124.814 240.723 125.844C240.723 126.208 239.026 126.268 236.482 126.026C226 124.996 222.183 122.27 220.487 114.818C216.913 99.1865 206.613 75.6187 196.616 60.2906C195.647 58.8971 195.708 58.8971 197.101 59.3212C197.949 59.5636 199.585 60.2906 200.797 60.8965ZM314.455 59.4424C314.273 59.7453 313.001 61.8052 311.608 64.1681C307.245 71.3172 299.733 86.5241 296.522 94.7031C294.825 98.9441 292.402 106.396 291.069 111.182C288.949 118.937 288.403 120.149 286.525 121.845C284.102 124.087 280.103 125.42 274.045 126.026C267.623 126.632 268.471 125.299 277.862 119.604C286.707 114.272 289.433 109.789 296.825 87.857C299.309 80.5261 302.702 71.6807 304.398 68.2273C307.306 62.1687 307.548 61.9264 310.578 60.4724C313.849 58.9577 314.879 58.7154 314.455 59.4424ZM211.884 67.6214C213.883 68.9543 216.731 71.0748 218.124 72.2259L220.669 74.2859V80.7079C220.608 84.2825 220.911 88.5234 221.335 90.2198C222.426 95.1272 225.637 100.883 229.514 104.942L233.149 108.82V100.398C233.149 95.7937 233.513 90.0986 233.937 87.7358L234.725 83.4342L239.693 83.0707C242.419 82.889 246.721 82.162 249.205 81.4349C251.689 80.6473 254.415 80.1021 255.263 80.1021C256.111 80.1021 258.838 80.6473 261.322 81.4349C263.806 82.162 268.107 82.889 270.834 83.0707L275.741 83.4342L276.589 87.4329C277.013 89.6746 277.377 95.2484 277.377 100.035V108.638L280.285 105.79C284.162 102.034 286.525 98.1565 288.403 92.825C289.736 89.0081 289.918 87.4329 289.918 81.3138L289.857 74.1647L293.311 71.5595C297.37 68.4696 302.277 65.0769 302.762 65.0769C302.883 65.0769 301.853 67.6215 300.399 70.6507C299.006 73.7406 295.977 81.3138 293.735 87.4935C286.707 107.002 283.132 112.879 275.923 116.575C271.621 118.756 268.653 120.937 267.32 122.997C265.441 125.905 264.654 135.538 264.654 155.652C264.654 175.948 265.32 182.37 268.228 191.943C269.016 194.487 269.561 196.547 269.44 196.547C269.258 196.547 266.047 194.184 262.23 191.337L255.263 186.066L248.356 191.337C244.54 194.184 241.268 196.547 241.086 196.547C240.904 196.547 241.086 195.578 241.571 194.427C242.964 191.095 244.782 181.764 245.63 173.888C246.418 165.528 246.054 137.295 244.964 129.6C243.934 122.33 242.661 120.815 233.149 115.726C227.151 112.455 223.516 106.154 216.488 86.5847C214.065 79.9203 211.036 72.3471 209.763 69.7419C208.431 67.1974 207.582 65.0769 207.764 65.0769C208.006 65.0769 209.824 66.228 211.884 67.6214ZM170.746 69.2572C170.928 69.6208 174.139 71.8018 177.895 74.1041C181.591 76.4669 186.075 79.5568 187.832 80.9502C190.8 83.4343 197.707 91.4315 197.707 92.4615C197.707 93.1279 188.377 89.614 182.258 86.5847C174.079 82.6466 170.686 79.8597 169.898 76.7699C168.686 72.0442 169.292 66.955 170.746 69.2572ZM341.113 73.0741C340.931 75.4976 340.628 77.9816 340.386 78.5268C339.78 80.0415 332.631 84.646 326.633 87.4329C320.938 90.0987 312.819 93.1279 312.819 92.5827C312.819 92.3403 313.789 90.8863 314.94 89.311C318.393 84.5854 324.876 78.9509 331.298 74.9523C334.691 72.8924 338.083 70.6507 338.871 69.9843C339.719 69.3178 340.628 68.7726 340.931 68.712C341.234 68.712 341.294 70.6507 341.113 73.0741ZM201.645 75.3764C203.523 78.7086 205.704 82.9496 206.552 84.7671L208.067 88.0993L206.795 89.9169C206.068 90.9468 205.28 92.5221 205.038 93.3703C204.614 94.8849 204.493 94.8243 201.706 90.8863C200.13 88.6446 197.222 85.0701 195.223 83.0102C192.86 80.4656 191.77 78.8298 191.951 78.0421C192.072 77.4363 192.315 76.164 192.557 75.2552C192.921 73.3165 196.253 69.3178 197.404 69.3178C197.889 69.3178 199.767 72.0442 201.645 75.3764ZM315.364 70.9536C317.242 73.0135 317.969 74.4676 318.514 77.1334C318.817 78.9509 318.575 79.4962 314.94 83.3737C312.759 85.7365 309.911 89.2505 308.578 91.2498L306.215 94.8243L305.246 92.5221C304.701 91.3104 303.853 89.7957 303.307 89.1899C302.338 88.1599 302.459 87.7358 304.883 83.0707C309.972 73.2559 312.335 69.3178 313.062 69.3178C313.486 69.3178 314.516 70.0449 315.364 70.9536ZM228.606 81.4349L230.787 82.5861L230.241 87.3117C229.999 89.9169 229.878 94.6426 230.06 97.793L230.423 103.549L228.969 101.731C226.909 99.2471 223.94 93.1885 223.213 89.9169C222.85 88.4023 222.608 84.5854 222.608 81.4349V75.6793L224.486 77.9816C225.516 79.2539 227.333 80.7685 228.606 81.4349ZM287.07 91.068C286.101 94.3396 283.617 99.1259 281.497 101.852C280.467 103.185 280.406 102.882 280.345 92.7644L280.285 82.2225L282.042 81.4955C283.011 81.0714 284.647 79.6779 285.738 78.4057L287.676 76.0428L287.858 81.859C287.979 85.8577 287.737 88.7052 287.07 91.068ZM212.732 98.8835C214.368 103.125 216.186 108.274 216.791 110.274L217.821 113.969L216.246 115.545L214.731 117.059L213.096 112.758C212.187 110.334 210.248 105.972 208.733 103.003C206.613 98.6412 206.128 97.1266 206.431 95.4908C206.795 93.0673 208.431 90.341 209.218 90.8257C209.521 91.0074 211.096 94.6426 212.732 98.8835ZM304.095 95.1272C304.398 96.8842 303.913 98.3989 301.126 104.336C299.309 108.214 297.491 112.515 297.067 113.848C295.977 117.302 295.977 117.241 294.22 115.545L292.644 113.909L293.977 109.668C295.674 104.276 298.036 97.9142 299.975 93.552L301.429 90.2198L302.58 91.6133C303.186 92.4009 303.853 93.9761 304.095 95.1272ZM222.062 123.178C223.032 124.148 224.91 125.359 226.182 125.965C228.303 126.935 228.484 127.177 227.939 128.51C227.212 130.388 227.212 134.508 227.939 137.052C228.424 138.688 228.363 138.991 227.454 138.991C225.758 138.991 221.154 136.386 219.942 134.69C219.336 133.841 218.185 130.327 217.337 126.935C216.004 121.118 215.943 120.634 216.852 118.513L217.821 116.272L219.033 118.816C219.699 120.27 221.032 122.209 222.062 123.178ZM294.22 119.483C294.523 121.058 292.826 129.782 291.554 132.993C290.706 135.174 288.1 137.476 285.616 138.325C282.405 139.415 281.86 139.233 282.527 137.416C283.314 135.477 283.314 129.297 282.527 128.086C282.102 127.419 282.708 126.813 285.132 125.481C288.646 123.602 290.645 121.482 291.675 118.513C292.16 116.999 292.523 116.696 293.129 117.18C293.553 117.544 294.038 118.574 294.22 119.483ZM241.147 128.328C241.207 128.389 241.45 130.933 241.753 134.023L242.298 139.597H236.724C233.271 139.597 230.968 139.355 230.665 138.931C230.06 137.901 229.575 130.812 230.06 129.055C230.423 127.54 230.423 127.54 235.755 127.904C238.663 128.086 241.086 128.267 241.147 128.328ZM280.467 128.813C281.073 130.751 280.891 136.022 280.164 137.961C279.558 139.536 279.437 139.597 274.045 139.597H268.592V137.537C268.592 136.447 268.774 133.841 268.955 131.842L269.38 128.146L273.378 127.904C275.559 127.783 277.983 127.662 278.71 127.601C279.618 127.54 280.164 127.904 280.467 128.813Z" stroke="#C9A48A" mask="url(#path-4-outside-1_145_324)"/>
<path d="M230.705 16.5544L230.701 16.0565L234.335 15.6931C239.75 15.0849 247.295 15.5086 251.575 16.7311C253.305 17.2168 254.274 17.449 255.242 17.4563C256.212 17.4636 257.195 17.2458 258.957 16.7902L258.958 16.7899C262.08 16.0017 264.157 15.5582 266.26 15.3746C268.364 15.191 270.486 15.2681 273.7 15.5107L273.701 15.5107L279.82 15.9954L279.822 16.4937L274.37 16.9784L274.368 16.9785C267.907 17.522 264.901 18.1839 259.595 20.2338C259.595 20.2339 259.594 20.234 259.594 20.2341L255.597 21.8088L255.508 21.8439L255.418 21.8104L251.845 20.478C251.845 20.478 251.844 20.4779 251.844 20.4778C245.743 18.2428 242.495 17.4614 236.525 17.0393L236.525 17.0393L236.521 17.0391L230.705 16.5544Z" fill="#C9A48A" stroke="#C9A48A" stroke-width="0.5"/>
<path d="M258.421 98.275L258.421 98.2752L258.413 98.2663C257.548 97.3442 256.341 96.8307 255.263 96.8307C254.344 96.8307 253.187 97.3684 252.247 98.1305C251.782 98.5082 251.382 98.9314 251.1 99.3523C250.816 99.7768 250.666 100.179 250.666 100.519C250.666 101.144 250.964 101.714 251.484 102.196C252.005 102.679 252.739 103.062 253.575 103.3C255.253 103.778 257.258 103.651 258.633 102.678L258.633 102.678L258.635 102.676C259.464 102.104 259.826 101.435 259.8 100.725C259.773 99.9987 259.338 99.1623 258.421 98.275ZM249.556 103.464C248.707 102.426 248.312 101.333 248.418 100.215C248.524 99.1014 249.123 98.0052 250.179 96.9492C250.944 96.1843 251.536 95.7128 252.294 95.4439C253.043 95.1781 253.931 95.119 255.263 95.119C256.595 95.119 257.483 95.1781 258.232 95.4439C258.99 95.7128 259.582 96.1843 260.347 96.9492C261.403 98.0052 262.003 99.1014 262.108 100.215C262.214 101.333 261.819 102.426 260.97 103.464C260.436 104.123 259.97 104.529 259.129 104.752C258.319 104.966 257.164 105.01 255.263 105.01C253.363 105.01 252.207 104.966 251.397 104.752C250.556 104.529 250.09 104.123 249.556 103.464Z" fill="#C9A48A" stroke="#C9A48A" stroke-width="0.5"/>
<path d="M255.429 177.888C255.429 177.888 255.429 177.887 255.427 177.885C255.429 177.887 255.429 177.888 255.429 177.888ZM255.141 177.883C255.141 177.883 255.142 177.883 255.143 177.881C255.142 177.882 255.141 177.883 255.141 177.883ZM250.169 143.027L250.169 143.026C249.169 136.24 248.26 130.015 247.609 125.455C247.283 123.175 247.022 121.312 246.846 120.002C246.758 119.348 246.691 118.831 246.648 118.469C246.626 118.289 246.61 118.146 246.601 118.043C246.596 117.991 246.593 117.948 246.591 117.913C246.59 117.896 246.59 117.879 246.59 117.863L246.59 117.862C246.59 117.855 246.591 117.836 246.594 117.813C246.599 117.769 246.606 117.724 246.619 117.682C246.631 117.641 246.655 117.58 246.704 117.528C246.764 117.466 246.852 117.427 246.951 117.438C247.033 117.448 247.093 117.49 247.127 117.517C247.195 117.574 247.252 117.656 247.299 117.735C247.35 117.819 247.404 117.924 247.46 118.045C247.685 118.526 247.98 119.332 248.306 120.337C248.96 122.351 249.75 125.206 250.357 127.97C251.147 131.433 252.284 137.968 253.223 144.011C253.693 147.034 254.113 149.937 254.417 152.274C254.719 154.604 254.907 156.39 254.907 157.167C254.907 157.633 254.966 158.065 255.05 158.373C255.064 158.423 255.077 158.468 255.091 158.509C255.111 158.444 255.131 158.369 255.153 158.285C255.255 157.884 255.377 157.298 255.509 156.569C255.773 155.113 256.076 153.104 256.348 150.896L256.348 150.894C257.288 143.586 258.834 134.84 260.244 128.185C260.949 124.859 261.621 122.049 262.167 120.201C262.439 119.282 262.684 118.583 262.893 118.178C262.945 118.075 262.999 117.985 263.055 117.911C263.106 117.843 263.176 117.767 263.268 117.723C263.317 117.699 263.378 117.682 263.447 117.687C263.517 117.691 263.579 117.718 263.628 117.754C263.718 117.821 263.768 117.921 263.798 118.002L263.798 118.002L263.801 118.01C263.818 118.063 263.819 118.123 263.82 118.151C263.82 118.191 263.819 118.24 263.816 118.296C263.811 118.408 263.798 118.559 263.781 118.746C263.745 119.12 263.685 119.647 263.604 120.31C263.442 121.635 263.194 123.507 262.88 125.787C262.251 130.347 261.357 136.543 260.357 143.269C258.358 156.779 256.542 170.155 256.3 173.058C256.209 174.516 256.072 175.811 255.927 176.729C255.854 177.187 255.778 177.56 255.703 177.814C255.666 177.938 255.624 178.052 255.573 178.136C255.549 178.176 255.509 178.232 255.447 178.273C255.37 178.323 255.26 178.346 255.151 178.292C255.075 178.254 255.029 178.191 255.006 178.154C254.978 178.111 254.955 178.062 254.935 178.012C254.895 177.913 254.857 177.785 254.821 177.637C254.747 177.339 254.672 176.931 254.599 176.447C254.454 175.477 254.317 174.183 254.226 172.814L254.226 172.814C254.045 170.04 252.23 156.664 250.169 143.027Z" fill="#C9A48A" stroke="#C9A48A" stroke-width="0.5"/>
</g>
<defs>
<filter id="filter0_di_145_324" x="270.053" y="43" width="254.777" height="262.81" filterUnits="userSpaceOnUse" color-interpolation-filters="sRGB">
<feFlood flood-opacity="0" result="BackgroundImageFix"/>
<feColorMatrix in="SourceAlpha" type="matrix" values="0 0 0 0 0 0 0 0 0 0 0 0 0 0 0 0 0 0 127 0" result="hardAlpha"/>
<feOffset dx="4" dy="4"/>
<feGaussianBlur stdDeviation="2"/>
<feComposite in2="hardAlpha" operator="out"/>
<feColorMatrix type="matrix" values="0 0 0 0 0 0 0 0 0 0 0 0 0 0 0 0 0 0 0.28 0"/>
<feBlend mode="normal" in2="BackgroundImageFix" result="effect1_dropShadow_145_324"/>
<feBlend mode="normal" in="SourceGraphic" in2="effect1_dropShadow_145_324" result="shape"/>
<feColorMatrix in="SourceAlpha" type="matrix" values="0 0 0 0 0 0 0 0 0 0 0 0 0 0 0 0 0 0 127 0" result="hardAlpha"/>
<feOffset dy="4"/>
<feGaussianBlur stdDeviation="2.5"/>
<feComposite in2="hardAlpha" operator="arithmetic" k2="-1" k3="1"/>
<feColorMatrix type="matrix" values="0 0 0 0 0.54902 0 0 0 0 0.411765 0 0 0 0 0.317647 0 0 0 1 0"/>
<feBlend mode="normal" in2="shape" result="effect2_innerShadow_145_324"/>
</filter>
<filter id="filter1_di_145_324" x="0" y="43" width="256.777" height="262.81" filterUnits="userSpaceOnUse" color-interpolation-filters="sRGB">
<feFlood flood-opacity="0" result="BackgroundImageFix"/>
<feColorMatrix in="SourceAlpha" type="matrix" values="0 0 0 0 0 0 0 0 0 0 0 0 0 0 0 0 0 0 127 0" result="hardAlpha"/>
<feOffset dx="-4" dy="4"/>
<feGaussianBlur stdDeviation="2"/>
<feComposite in2="hardAlpha" operator="out"/>
<feColorMatrix type="matrix" values="0 0 0 0 0 0 0 0 0 0 0 0 0 0 0 0 0 0 0.28 0"/>
<feBlend mode="normal" in2="BackgroundImageFix" result="effect1_dropShadow_145_324"/>
<feBlend mode="normal" in="SourceGraphic" in2="effect1_dropShadow_145_324" result="shape"/>
<feColorMatrix in="SourceAlpha" type="matrix" values="0 0 0 0 0 0 0 0 0 0 0 0 0 0 0 0 0 0 127 0" result="hardAlpha"/>
<feOffset dx="2" dy="4"/>
<feGaussianBlur stdDeviation="2"/>
<feComposite in2="hardAlpha" operator="arithmetic" k2="-1" k3="1"/>
<feColorMatrix type="matrix" values="0 0 0 0 0.54902 0 0 0 0 0.411765 0 0 0 0 0.317647 0 0 0 1 0"/>
<feBlend mode="normal" in2="shape" result="effect2_innerShadow_145_324"/>
</filter>
<filter id="filter2_d_145_324" x="36.7914" y="161.121" width="459.702" height="49.5078" filterUnits="userSpaceOnUse" color-interpolation-filters="sRGB">
<feFlood flood-opacity="0" result="BackgroundImageFix"/>
<feColorMatrix in="SourceAlpha" type="matrix" values="0 0 0 0 0 0 0 0 0 0 0 0 0 0 0 0 0 0 127 0" result="hardAlpha"/>
<feOffset dy="4"/>
<feGaussianBlur stdDeviation="2"/>
<feComposite in2="hardAlpha" operator="out"/>
<feColorMatrix type="matrix" values="0 0 0 0 0 0 0 0 0 0 0 0 0 0 0 0 0 0 0.25 0"/>
<feBlend mode="normal" in2="BackgroundImageFix" result="effect1_dropShadow_145_324"/>
<feBlend mode="normal" in="SourceGraphic" in2="effect1_dropShadow_145_324" result="shape"/>
</filter>
<filter id="filter3_di_145_324" x="150.014" y="0.5" width="210.524" height="210" filterUnits="userSpaceOnUse" color-interpolation-filters="sRGB">
<feFlood flood-opacity="0" result="BackgroundImageFix"/>
<feColorMatrix in="SourceAlpha" type="matrix" values="0 0 0 0 0 0 0 0 0 0 0 0 0 0 0 0 0 0 127 0" result="hardAlpha"/>
<feOffset dy="4"/>
<feGaussianBlur stdDeviation="2"/>
<feComposite in2="hardAlpha" operator="out"/>
<feColorMatrix type="matrix" values="0 0 0 0 0 0 0 0 0 0 0 0 0 0 0 0 0 0 0.25 0"/>
<feBlend mode="normal" in2="BackgroundImageFix" result="effect1_dropShadow_145_324"/>
<feBlend mode="normal" in="SourceGraphic" in2="effect1_dropShadow_145_324" result="shape"/>
<feColorMatrix in="SourceAlpha" type="matrix" values="0 0 0 0 0 0 0 0 0 0 0 0 0 0 0 0 0 0 127 0" result="hardAlpha"/>
<feOffset dy="2"/>
<feGaussianBlur stdDeviation="2"/>
<feComposite in2="hardAlpha" operator="arithmetic" k2="-1" k3="1"/>
<feColorMatrix type="matrix" values="0 0 0 0 0.54902 0 0 0 0 0.411765 0 0 0 0 0.317647 0 0 0 1 0"/>
<feBlend mode="normal" in2="shape" result="effect2_innerShadow_145_324"/>
</filter>
<linearGradient id="paint0_linear_145_324" x1="266" y1="149" x2="266" y2="224" gradientUnits="userSpaceOnUse">
<stop stop-color="#C9A48A"/>
<stop offset="1" stop-color="#C9A48A" stop-opacity="0"/>
</linearGradient>
</defs>
</svg>
