<svg width="4633" height="2712" viewBox="0 0 4633 2712" fill="none" xmlns="http://www.w3.org/2000/svg">
<g filter="url(#filter0_dd_145_357)">
<path fill-rule="evenodd" clip-rule="evenodd" d="M2385.59 1996.05V2702L3048.66 1996.05H2687.48L2483.27 2213.58V1996.05H2385.59ZM3343.33 1297.43H3704.83L4207.48 762.267V1297.43H4306.72V864.61C4306.72 729.187 4325.85 618.588 4364.09 532.788C4401.31 446.99 4488.14 407.193 4624.58 413.395V390.137H4195.08L3343.33 1297.43ZM4306.72 1996.05H4207.48V2452.37C4207.48 2506.12 4203.36 2545.91 4195.08 2571.76C4186.82 2597.6 4174.92 2615.18 4159.42 2624.48C4143.92 2633.78 4105.15 2643.08 4043.13 2652.38V2674.1H4481.93V2652.38C4403.38 2652.38 4354.79 2638.43 4336.18 2610.52C4316.54 2582.61 4306.72 2515.94 4306.72 2410.5V1996.05Z" fill="#C9A48A"/>
</g>
<g filter="url(#filter1_dd_145_357)">
<path fill-rule="evenodd" clip-rule="evenodd" d="M2149.31 1996.05V2213.58L1945.1 1996.05H1583.92L2246.99 2702V1996.05H2149.31ZM1297.76 1306.5L437.502 390.137H8V413.395C144.448 407.193 231.279 446.99 268.492 532.788C306.739 618.588 325.862 729.187 325.862 864.61V1306.5H425.098V762.267L936.271 1306.5H1297.76ZM425.098 1996.05V2452.37C425.098 2506.12 429.233 2545.91 437.502 2571.76C445.772 2597.6 457.659 2615.18 473.165 2624.48C488.671 2633.78 527.434 2643.08 589.457 2652.38V2674.1H150.65V2652.38C229.212 2652.38 277.796 2638.43 296.402 2610.52C316.043 2582.61 325.862 2515.94 325.862 2410.5V1996.05H425.098Z" fill="#C9A48A"/>
</g>
<g filter="url(#filter2_d_145_357)">
<path d="M403.014 1467.3V1471.02C398.218 1470.53 392.842 1471.27 386.889 1473.26C381.099 1475.24 377.626 1478.14 376.468 1481.94C375.476 1485.74 374.981 1494.76 374.981 1508.98V1789.57C374.981 1804.78 375.559 1814.13 376.717 1817.6C378.04 1820.91 380.438 1823.73 383.911 1826.04C387.55 1828.19 393.918 1829.26 403.014 1829.26V1832.74H305.515V1829.26C317.755 1829.26 325.362 1826.95 328.339 1822.32C331.317 1817.52 332.805 1806.77 332.805 1790.07V1512.21C332.805 1494.84 331.151 1483.51 327.843 1478.22C324.536 1472.76 317.093 1470.36 305.515 1471.02V1467.3H403.014ZM846.014 1485.66L859.66 1524.36H856.185C820.789 1489.13 779.109 1471.52 731.145 1471.52C681.363 1471.52 641.09 1486.32 610.326 1515.93C579.729 1545.53 564.43 1581.34 564.43 1623.35C564.43 1649.32 571.211 1679.17 584.773 1712.91C598.502 1746.65 620.085 1774.43 649.525 1796.26C678.964 1817.93 714.606 1828.76 756.451 1828.76C783.905 1828.76 810.782 1824.38 837.079 1815.61C863.543 1806.69 883.222 1794.77 896.124 1779.89L899.354 1780.88L873.795 1820.08C832.448 1829.02 805.572 1834.31 793.168 1835.96C780.928 1837.62 764.472 1838.44 743.798 1838.44C667.222 1838.44 612.394 1820.74 579.316 1785.35C546.403 1749.79 529.946 1707.28 529.946 1657.84C529.946 1624.42 538.382 1592.34 555.251 1561.57C572.286 1530.64 596.764 1506.34 628.685 1488.64C660.606 1470.77 697.075 1461.84 738.092 1461.84C758.601 1461.84 776.298 1463.75 791.183 1467.55C806.234 1471.19 818.721 1474.99 828.644 1478.96L845.016 1485.16C845.515 1485.33 845.842 1485.5 846.014 1485.66ZM1209.62 1461.84C1260.89 1461.84 1302.82 1477.48 1335.4 1508.73C1367.98 1539.82 1384.28 1578.69 1384.28 1625.34C1384.28 1685.37 1365.42 1735.9 1327.71 1776.92C1290 1817.93 1239.97 1838.44 1177.61 1838.44C1127 1838.44 1085.58 1821.9 1053.32 1788.82C1021.07 1755.74 1004.94 1716.05 1004.94 1669.74C1004.94 1638.48 1012.72 1606.39 1028.26 1573.49C1043.81 1540.57 1067.21 1513.78 1098.48 1493.1C1129.73 1472.27 1166.78 1461.84 1209.62 1461.84ZM1208.13 1819.09C1233.27 1819.09 1258.08 1812.39 1282.56 1798.99C1307.04 1785.43 1326.3 1766.83 1340.36 1743.18C1354.42 1719.52 1361.45 1695.21 1361.45 1670.24C1361.45 1634.85 1351.94 1602.67 1332.92 1573.73C1314.06 1544.79 1289.5 1522.13 1259.23 1505.76C1229.14 1489.38 1201.27 1481.2 1175.63 1481.2C1139.41 1481.2 1106.5 1494.84 1076.89 1522.13C1047.45 1549.41 1032.74 1583.32 1032.74 1623.85C1032.74 1675.61 1050.76 1721.09 1086.82 1760.3C1122.87 1799.49 1163.31 1819.09 1208.13 1819.09ZM1812.38 1467.3H1883.09V1471.02C1872.34 1471.35 1864.9 1473.66 1860.76 1477.97C1856.62 1482.1 1854.56 1490.95 1854.56 1504.51V1837.2L1563.06 1526.84V1797.26C1563.06 1805.86 1563.72 1812.23 1565.04 1816.36C1566.36 1820.5 1568.27 1823.31 1570.74 1824.8C1573.23 1826.28 1579.43 1827.77 1589.35 1829.26V1832.74H1519.14V1829.26C1531.71 1829.26 1539.49 1827.03 1542.46 1822.56C1545.61 1818.1 1547.18 1807.43 1547.18 1790.56V1543.22C1547.18 1521.55 1544.11 1503.85 1538 1490.12C1532.05 1476.4 1518.15 1470.03 1496.32 1471.02V1467.3H1565.04L1838.93 1759.05V1501.04C1838.93 1487.15 1836.45 1478.71 1831.49 1475.73C1826.53 1472.59 1820.16 1471.02 1812.38 1471.02V1467.3ZM2585.16 1467.3V1471.02C2580.36 1470.53 2574.99 1471.27 2569.03 1473.26C2563.24 1475.24 2559.77 1478.14 2558.61 1481.94C2557.62 1485.74 2557.13 1494.76 2557.13 1508.98V1789.57C2557.13 1804.78 2557.71 1814.13 2558.86 1817.6C2560.18 1820.91 2562.58 1823.73 2566.05 1826.04C2569.69 1828.19 2576.06 1829.26 2585.16 1829.26V1832.74H2487.66V1829.26C2499.9 1829.26 2507.51 1826.95 2510.48 1822.32C2513.46 1817.52 2514.95 1806.77 2514.95 1790.07V1512.21C2514.95 1494.84 2513.29 1483.51 2509.99 1478.22C2506.68 1472.76 2499.24 1470.36 2487.66 1471.02V1467.3H2585.16ZM3047.75 1467.3H3105.31V1471.02C3085.96 1472.01 3076.29 1482.18 3076.29 1501.54C3076.29 1505.67 3076.78 1511.38 3077.78 1518.66L3115.98 1795.52C3118.3 1809.42 3120.85 1818.35 3123.67 1822.32C3126.64 1826.12 3132.69 1828.43 3141.78 1829.26V1832.74H3059.67V1829.26C3070.41 1829.6 3075.79 1824.3 3075.79 1813.38C3075.79 1810.91 3075.29 1806.02 3074.3 1798.75L3037.08 1530.32L2906.1 1832.74H2903.61L2771.88 1530.82L2734.92 1800.74C2734.26 1804.86 2733.92 1809.58 2733.92 1814.87C2733.92 1824.47 2739.46 1829.26 2750.54 1829.26V1832.74H2694.73V1829.26C2703.16 1829.26 2708.53 1828.19 2710.85 1826.04C2713.33 1823.89 2715.23 1820.58 2716.56 1816.11C2717.88 1811.49 2718.87 1806.35 2719.53 1800.74L2761.21 1505.51C2754.43 1489.13 2747.65 1479.29 2740.87 1475.99C2734.08 1472.68 2727.55 1471.02 2721.27 1471.02V1467.3H2790.24L2918.75 1766.25L3047.75 1467.3ZM3447.09 1664.53H3340.41L3285.08 1802.71C3281.28 1812.64 3279.38 1818.76 3279.38 1821.08C3279.38 1826.53 3283.43 1829.26 3291.53 1829.26V1832.74H3237.21V1829.26C3244.48 1829.26 3250.6 1827.53 3255.56 1824.05C3260.52 1820.41 3265.99 1811.15 3271.94 1796.26L3404.41 1461.84H3410.62L3541.11 1784.86C3541.11 1786.51 3544.42 1794.37 3551.04 1808.42C3557.82 1822.32 3568.07 1829.26 3581.8 1829.26V1832.74H3496.46V1829.26C3504.23 1829.26 3508.11 1826.2 3508.11 1820.08C3508.11 1815.95 3506.22 1809.34 3502.41 1800.24C3501.75 1799.57 3501.17 1798.5 3500.68 1797.01C3500.34 1795.35 3500.09 1794.53 3499.93 1794.53L3447.09 1664.53ZM3343.89 1654.36H3442.62L3393.25 1529.82L3343.89 1654.36ZM4034.22 1829.26V1832.74H3886.86C3858.58 1832.74 3833.77 1829.68 3812.43 1823.55C3791.26 1817.44 3769.6 1805.86 3747.43 1788.82C3725.44 1771.62 3707.57 1750.29 3693.85 1724.81C3680.28 1699.35 3673.51 1673.3 3673.51 1646.67C3673.51 1617.56 3682.02 1588.54 3699.05 1559.59C3716.26 1530.64 3740.65 1507.16 3772.24 1489.13C3803.83 1470.94 3839.64 1461.84 3879.66 1461.84C3915.55 1461.84 3953.51 1469.78 3993.54 1485.66L4008.67 1527.84H4005.19C3992.46 1511.63 3975.01 1498.23 3952.85 1487.65C3930.85 1476.89 3906.29 1471.52 3879.17 1471.52C3832.03 1471.52 3793.41 1489.3 3763.31 1524.85C3733.21 1560.25 3718.15 1604.24 3718.15 1656.84C3718.15 1678.68 3720.64 1698.19 3725.6 1715.39C3730.57 1732.43 3739.82 1749.29 3753.38 1766C3767.11 1782.54 3781.75 1794.77 3797.3 1802.71C3813.01 1810.49 3830.54 1815.95 3849.89 1819.09C3869.25 1822.07 3884.62 1823.39 3896.04 1823.06L3915.64 1822.56C3937.8 1821.74 3951.61 1819.67 3957.07 1816.36C3962.69 1813.06 3965.5 1804.62 3965.5 1791.05V1735.74C3965.5 1724.99 3963.27 1717.79 3958.8 1714.15C3954.34 1710.34 3947.97 1708.69 3939.7 1709.19V1705.71H4034.22V1709.19C4023.64 1709.19 4016.53 1711.26 4012.89 1715.39C4009.41 1719.52 4007.68 1727.46 4007.68 1739.2V1796.76C4007.68 1808.34 4009.17 1816.69 4012.14 1821.82C4015.28 1826.78 4020.91 1829.26 4029.01 1829.26H4034.22ZM4153.96 1471.52V1467.3H4383.69V1517.66H4379.97C4375.01 1498.98 4370.79 1487.97 4367.31 1484.67C4364.01 1481.36 4355.74 1479.71 4342.51 1479.71H4221.94V1643.69H4333.83C4344.9 1643.69 4351.93 1642.7 4354.91 1640.72C4357.89 1638.57 4359.46 1635.51 4359.63 1631.53H4363.35V1666.02H4359.63C4358.79 1661.22 4356.82 1658 4353.67 1656.35C4350.69 1654.69 4345.07 1653.86 4336.8 1653.86H4221.94V1766.75C4221.94 1783.78 4223.51 1796.1 4226.65 1803.71C4229.79 1811.15 4234.76 1815.87 4241.54 1817.85C4248.49 1819.67 4258.9 1820.58 4272.79 1820.58H4337.3C4357.8 1820.58 4370.87 1819.92 4376.5 1818.59C4382.28 1817.1 4387.17 1814.29 4391.13 1810.16C4395.1 1805.86 4398.16 1796.6 4400.31 1782.37H4403.79V1832.74H4153.96V1829.26C4162.39 1828.76 4168.76 1827.19 4173.06 1824.55C4177.53 1821.74 4179.76 1814.63 4179.76 1803.21V1507.99C4179.76 1494.59 4178.61 1485.16 4176.29 1479.71C4173.97 1474.25 4166.53 1471.52 4153.96 1471.52Z" fill="url(#paint0_linear_145_357)"/>
</g>
<g filter="url(#filter3_dd_145_357)">
<path d="M2078.26 16.5643C1937.53 25.3593 1851.78 34.1542 1803.41 43.499C1776.47 48.9959 1736.9 50.645 1672.59 49.5456C1589.58 47.8965 1579.13 48.446 1567.59 57.7908C1560.44 63.2876 1553.3 73.7318 1551.1 80.3281C1549.45 88.5734 1535.71 100.117 1510.98 113.31C1425.77 159.484 1359.81 256.778 1341.67 362.318C1328.48 438.175 1346.61 575.048 1377.95 639.91C1424.68 735.007 1557.7 825.155 1702.26 859.786C1725.9 865.283 1747.89 871.879 1751.74 874.078C1773.18 887.271 1863.87 1114.29 1874.87 1182.45C1880.92 1220.38 1908.95 1261.06 1940.83 1277.55C1966.67 1290.74 1972.71 1291.29 2051.87 1290.74L2134.87 1290.19L2139.27 1342.96C2141.47 1372.09 2141.47 1445.2 2139.82 1505.67C2136.52 1631.55 2123.33 1718.4 2098.04 1788.21C2089.24 1812.39 2083.2 1832.73 2084.85 1832.73C2086.49 1832.73 2124.97 1805.25 2170.05 1771.72C2227.22 1728.84 2253.6 1711.8 2258.55 1715.65C2347.6 1783.26 2415.22 1832.73 2417.96 1832.73C2419.61 1832.73 2415.22 1816.24 2407.51 1795.91C2370.14 1696.41 2353.09 1515.56 2365.19 1339.11L2368.49 1288L2429.51 1291.84C2491.62 1295.69 2536.69 1288.54 2576.82 1268.21C2599.36 1257.21 2618.59 1219.29 2636.19 1151.67C2669.17 1026.89 2736.23 877.377 2762.62 869.681C2770.31 867.482 2799.45 859.236 2828.03 851.54C2925.32 825.155 3002.28 782.28 3066.04 719.066C3108.37 676.74 3130.91 637.712 3146.85 579.445C3180.93 453.567 3168.29 320.542 3113.87 231.493C3089.68 191.915 3023.72 128.701 2986.34 109.462C2962.7 96.8186 2953.36 88.5734 2949.51 75.9306C2946.21 66.5858 2937.96 56.1417 2931.37 53.3933C2924.23 50.0951 2882.44 48.4462 2828.58 49.5456C2765.37 51.1947 2726.34 48.9958 2699.4 44.0486C2649.38 33.6045 2569.67 25.9088 2413.56 16.0145C2267.34 6.66979 2228.32 6.66986 2078.26 16.5643ZM2240.41 58.8903C2240.41 77.5797 2238.21 95.719 2236.02 99.5668C2233.27 103.964 2212.38 104.514 2152.46 99.5668C2099.14 95.719 2053.51 95.719 2015.04 99.0179C1961.72 103.964 1955.13 103.415 1927.09 92.421C1910.6 85.825 1877.06 75.9306 1852.88 70.4338C1811.1 61.089 1810 60.5393 1828.14 56.6914C1852.33 51.1945 2032.63 35.8033 2133.22 30.8561C2175.54 28.6574 2216.77 26.4587 2225.57 25.9089C2240.41 24.8096 2240.41 25.3593 2240.41 58.8903ZM2397.07 32.5051C2481.72 36.353 2646.63 50.6449 2674.67 56.6914C2692.8 60.5393 2692.26 61.089 2649.93 70.4338C2625.74 75.9306 2592.21 85.825 2575.72 92.421C2547.69 103.415 2541.09 103.964 2487.77 99.0179C2449.29 95.719 2403.67 95.719 2350.35 99.5668C2306.38 102.866 2269.54 104.514 2267.9 103.415C2266.8 101.766 2264.6 83.0765 2263.5 62.1884L2261.3 23.7102L2293.18 26.4586C2311.32 28.1076 2358.05 30.8561 2397.07 32.5051ZM1722.05 73.7319C1775.93 80.8778 1827.04 91.8711 1894.66 110.012L1947.42 124.853L1962.27 210.604C1980.96 317.794 1985.36 359.57 1978.21 359.57C1958.42 359.57 1881.46 334.284 1848.48 317.244C1817.15 300.753 1794.06 281.514 1740.2 227.095C1702.26 188.617 1650.59 142.443 1624.76 123.753C1598.92 105.064 1578.04 86.9244 1578.04 83.0765C1578.04 78.6791 1588.48 76.4802 1609.37 77.03C1648.94 78.1293 1716.01 108.362 1750.64 141.343C1764.38 154.536 1772.08 159.484 1768.22 152.887C1760.53 136.946 1709.41 91.8711 1685.78 79.2287C1662.69 66.5858 1665.44 66.5858 1722.05 73.7319ZM2808.79 85.2753C2778.56 104.514 2742.83 136.946 2734.03 153.436C2730.74 159.483 2739.53 153.986 2753.82 140.793C2791.2 106.713 2853.86 78.1293 2893.44 77.03C2914.33 76.4802 2924.77 78.6791 2924.77 83.0765C2924.77 86.3746 2903.88 105.064 2878.05 123.753C2852.21 142.443 2800.54 189.167 2762.62 227.645C2705.99 284.812 2686.76 301.303 2653.23 317.794C2620.25 334.834 2543.84 359.57 2525.15 359.57C2518 359.57 2519.65 341.43 2537.79 230.393L2554.83 125.952L2605.4 111.11C2665.32 93.5206 2778.01 72.0828 2822.53 68.7846C2833.52 68.2349 2830.77 71.533 2808.79 85.2753ZM1549.45 137.495C1512.62 204.558 1519.22 273.268 1565.39 305.151L1583.54 317.244L1565.94 298.555C1546.15 277.666 1536.81 256.228 1536.81 233.691C1536.81 216.101 1552.2 168.828 1559.35 163.88C1562.1 162.232 1561.54 167.728 1558.79 175.424C1542.85 217.75 1558.79 266.672 1601.13 305.151C1654.44 352.973 1722.61 355.722 1768.78 311.747C1776.47 304.051 1785.82 299.653 1789.12 301.853C1797.37 306.8 1791.87 314.496 1770.97 327.138C1748.99 340.331 1764.38 340.881 1790.77 327.688C1806.16 319.442 1812.2 318.892 1819.35 323.84C1832.54 333.734 1830.35 336.483 1805.06 343.629C1738.55 361.768 1613.21 358.47 1557.15 337.583C1521.97 324.39 1495.04 297.455 1490.08 269.97C1486.24 250.182 1493.93 213.352 1507.68 186.418C1521.97 158.934 1561 101.216 1565.39 101.216C1567.59 101.216 1560.44 117.707 1549.45 137.495ZM2963.25 131.449C2996.78 182.021 3012.17 221.048 3012.72 256.228C3012.72 284.812 3011.07 289.209 2994.03 306.8C2957.75 344.179 2871.46 362.318 2769.76 354.073C2721.39 349.675 2674.67 339.781 2674.67 333.734C2674.67 332.085 2678.51 327.688 2683.46 323.84C2690.61 318.892 2696.65 319.442 2712.05 327.688C2738.43 340.881 2753.82 340.331 2731.83 327.138C2710.95 314.496 2705.45 306.8 2713.14 301.853C2716.44 299.653 2726.89 305.151 2736.78 313.396C2788.45 357.371 2856.06 351.874 2908.28 300.203C2944.56 264.474 2958.3 215.002 2944.01 174.325C2939.07 160.033 2939.07 159.483 2946.76 169.927C2956.65 182.57 2966 213.352 2966 234.241C2966 256.228 2956.11 277.666 2936.86 298.555C2925.32 310.648 2923.13 315.045 2930.27 311.197C2958.86 296.355 2976.99 260.076 2976.99 217.2C2976.99 189.716 2973.69 177.623 2955.55 142.993C2943.46 119.906 2935.77 101.216 2938.52 101.216C2940.71 101.216 2952.26 114.958 2963.25 131.449ZM2206.33 130.349C2242.61 135.847 2260.2 135.847 2297.03 130.349C2364.09 119.906 2523.5 114.408 2528.45 122.104C2530.65 125.952 2525.7 157.284 2518 191.915C2510.31 226.545 2502.62 278.766 2500.41 307.899L2497.12 360.669L2480.08 357.371C2300.32 319.992 2202.48 319.992 2022.18 357.371L2004.05 360.669V333.185C2004.05 295.257 1994.7 228.194 1981.51 174.325C1975.46 149.039 1972.17 125.952 1974.36 122.654C1979.31 114.408 2137.62 119.906 2206.33 130.349ZM1487.89 175.974C1465.9 219.399 1458.2 254.579 1464.8 283.713C1469.75 304.601 1468.64 307.899 1453.26 327.138C1438.41 345.827 1436.22 352.973 1436.22 380.458C1436.22 398.048 1438.41 416.737 1441.72 422.234C1446.11 429.93 1447.76 422.784 1449.96 390.352C1452.16 356.821 1455.45 345.827 1464.8 335.383L1477.45 322.191L1508.23 343.629C1559.35 378.259 1647.84 393.651 1729.2 382.657C1751.74 379.358 1770.97 377.71 1772.62 378.808C1773.72 379.908 1766.58 390.352 1756.68 401.346C1735.8 425.532 1723.7 451.917 1723.7 474.454V490.396L1674.78 488.746C1620.36 485.998 1604.42 481.051 1557.15 450.819C1539.56 439.275 1523.62 431.029 1522.52 432.678C1521.42 433.778 1528.56 446.97 1538.46 461.812C1563.19 498.091 1607.17 524.476 1641.8 524.476H1667.09L1695.12 566.802L1723.15 609.129L1702.26 618.473C1677.53 629.467 1658.29 654.203 1653.9 681.138C1652.24 691.582 1650.05 700.376 1649.5 700.376C1648.94 700.376 1629.71 689.382 1607.72 676.19C1585.19 663.547 1550 643.209 1529.12 631.666C1463.7 595.936 1435.66 559.657 1415.88 484.349L1405.43 444.771L1408.74 477.752C1412.58 517.88 1427.97 564.054 1444.47 587.14C1456.01 602.532 1456.56 608.579 1454.35 648.156L1451.61 692.132L1430.72 663.547C1402.14 624.52 1391.14 596.485 1377.4 529.974C1367.51 483.8 1365.86 459.613 1368.05 409.041C1370.8 335.383 1382.9 291.959 1414.78 239.188C1433.47 207.856 1497.23 136.946 1502.18 141.343C1502.73 142.443 1496.68 157.834 1487.89 175.974ZM1649.5 161.682L1678.08 183.669L1664.88 210.054C1654.44 229.843 1651.69 241.937 1653.9 262.275C1656.09 288.111 1662.69 301.853 1667.09 290.309C1674.23 270.52 1705.57 224.896 1712.16 224.896C1716.55 224.896 1730.85 238.089 1744.04 254.579C1767.68 283.163 1768.22 284.262 1758.33 294.707C1721.51 335.933 1657.74 328.238 1612.11 277.666C1589.03 251.831 1584.08 236.439 1587.38 202.909C1590.13 181.471 1609.92 139.695 1617.61 139.695C1619.81 139.695 1634.11 149.589 1649.5 161.682ZM2904.44 167.728C2914.88 186.967 2917.08 197.961 2915.42 223.797C2913.23 251.831 2910.48 257.878 2891.25 277.666C2842.32 328.787 2781.31 335.933 2744.47 294.707C2735.13 284.262 2735.68 283.163 2756.57 256.228C2768.66 240.837 2781.31 227.095 2784.6 224.896C2793.39 219.399 2806.04 232.042 2821.43 262.824C2839.02 297.455 2839.02 298.005 2845.06 288.111C2854.41 273.818 2851.12 233.691 2839.02 210.604C2832.98 198.511 2828.58 186.418 2829.68 183.669C2832.43 175.974 2880.25 140.244 2886.29 141.893C2889.04 142.443 2897.29 153.986 2904.44 167.728ZM3061.64 199.611C3110.02 257.878 3136.41 337.582 3136.41 427.731C3136.41 526.675 3107.82 625.069 3066.04 672.892L3049.01 692.132L3048.45 647.057C3048.45 606.38 3050.1 599.784 3064.95 575.598C3074.29 560.755 3085.28 531.622 3089.68 510.734C3100.68 457.415 3099.02 435.976 3087.48 483.25C3075.93 531.622 3051.75 575.597 3025.36 598.134C3014.37 608.029 2978.09 630.016 2945.66 648.156C2913.23 665.747 2879.7 684.436 2871.46 690.482C2852.21 703.675 2850.56 703.125 2850.56 684.436C2850.56 662.448 2829.68 633.314 2803.29 620.122L2780.76 609.129L2808.24 566.802C2835.17 524.476 2835.17 524.476 2859.36 524.476C2885.75 524.476 2905.54 517.33 2931.92 497.541C2950.06 484.349 2985.79 437.626 2981.39 433.228C2979.74 432.128 2958.3 443.123 2933.02 458.513C2907.73 473.356 2881.9 485.998 2875.85 486.548C2869.25 487.098 2845.06 487.647 2821.98 488.746L2779.1 489.846V472.806C2779.1 451.367 2762.62 416.188 2743.37 396.399C2735.13 387.604 2729.63 379.908 2730.74 378.808C2731.83 377.71 2752.17 379.358 2776.35 382.657C2862.11 393.101 2954.46 376.06 3001.18 340.881L3025.36 322.191L3037.46 334.834C3047.35 345.277 3050.65 356.821 3052.85 386.505C3055.6 428.83 3061.64 433.228 3067.14 396.949C3071.54 367.266 3063.84 339.781 3045.7 321.092C3033.61 308.449 3032.51 305.151 3038.01 285.362C3045.7 257.877 3037.46 216.65 3014.92 174.325C3006.13 157.834 2998.98 142.993 2998.98 141.343C2998.98 135.847 3040.76 174.874 3061.64 199.611ZM1944.13 382.657L1974.91 388.703L1954.57 434.877C1943.03 460.163 1932.04 481.051 1929.29 481.051C1918.29 481.051 1847.39 421.684 1827.04 395.849L1805.06 368.365L1828.14 356.821L1850.68 345.277L1882.02 360.669C1899.06 368.914 1927.09 378.809 1944.13 382.657ZM2690.05 378.259C2681.26 394.201 2626.84 446.421 2596.06 468.408C2572.42 484.898 2569.67 485.998 2566.38 476.654C2564.73 471.156 2555.38 449.169 2545.48 427.731L2527.9 388.703L2558.68 382.107C2575.72 378.808 2603.21 368.914 2619.69 360.669L2649.93 345.827L2673.01 356.272C2693.9 365.616 2695.55 368.364 2690.05 378.259ZM2240.41 438.725V522.827L2198.08 526.676C2174.45 528.324 2134.32 533.821 2108.49 538.218C2027.68 552.511 2016.14 550.311 1972.17 514.582C1945.78 493.144 1945.78 494.793 1973.81 433.228L1991.4 394.2L2067.81 379.358C2149.16 363.967 2200.83 355.722 2225.57 354.623L2240.41 354.073V438.725ZM2320.11 359.57C2341.55 362.868 2392.68 371.663 2435 379.358L2511.41 394.2L2529 433.228C2557.58 495.343 2557.58 492.045 2525.7 518.979C2491.07 548.113 2470.73 551.411 2398.17 538.768C2369.59 533.821 2327.26 528.324 2304.17 526.126L2262.4 522.827V438.725C2262.4 342.529 2256.35 350.775 2320.11 359.57ZM1856.18 455.765C1886.41 478.302 1913.9 496.992 1917.19 496.992C1921.04 496.992 1916.09 505.237 1906.75 514.582C1886.96 536.02 1877.62 552.511 1877.62 567.901C1877.62 577.246 1871.57 575.048 1831.99 550.311C1807.26 534.37 1776.47 516.781 1763.28 511.284C1741.84 501.389 1740.2 499.741 1740.2 478.302C1740.2 455.765 1752.84 428.83 1774.83 405.194C1785.82 393.101 1786.37 393.101 1793.51 403.545C1797.37 409.042 1825.95 432.678 1856.18 455.765ZM2747.22 430.48C2757.66 447.52 2762.62 462.361 2762.62 477.203C2762.62 499.191 2762.07 500.29 2726.34 518.43C2706.55 528.874 2675.76 546.464 2658.17 558.007L2626.29 578.346L2622.99 558.007C2620.8 544.265 2613.1 530.522 2601 518.979L2582.87 500.839L2621.9 474.454C2643.34 459.613 2673.57 435.976 2688.41 421.684C2719.74 391.452 2722.49 392.001 2747.22 430.48ZM1974.36 538.768L2006.8 564.054L2103.54 560.206C2156.85 558.557 2209.08 558.557 2220.07 560.206L2240.41 564.054V634.964V705.324L2220.07 711.371C2173.9 724.013 2096.39 729.51 2061.76 722.364C2032.08 716.317 2025.48 711.92 1993.05 678.389C1973.26 658.051 1943.03 629.467 1925.99 615.175C1891.36 587.14 1887.51 575.048 1902.35 546.464C1910.05 531.622 1930.38 513.483 1938.63 513.483C1940.83 513.483 1956.77 525.026 1974.36 538.768ZM2580.12 522.278C2586.71 526.675 2596.06 537.669 2600.46 546.464C2615.85 575.598 2611.45 587.14 2574.62 618.473C2555.38 633.864 2525.15 662.449 2507.01 681.138C2477.33 711.92 2470.73 716.317 2441.6 722.364C2407.51 729.51 2356.95 726.762 2298.13 714.669L2265.15 708.072L2263.5 636.063L2261.85 564.054L2282.73 560.206C2293.73 558.007 2345.4 558.557 2397.07 560.206C2491.62 564.603 2503.16 562.955 2521.85 544.815C2531.75 535.47 2561.43 514.032 2564.73 513.483C2566.38 513.483 2573.52 517.33 2580.12 522.278ZM1757.24 552.511C1786.91 567.352 1818.25 633.314 1872.12 791.076C1940.83 992.807 1971.61 1043.93 2050.76 1087.36C2089.8 1108.8 2119.48 1132.43 2119.48 1141.78C2119.48 1145.08 2104.09 1145.62 2081 1143.43C1985.9 1134.08 1951.27 1109.35 1935.88 1041.74C1903.46 899.914 1810 686.084 1719.3 547.013C1710.51 534.37 1711.06 534.37 1723.7 538.218C1731.4 540.417 1746.24 547.013 1757.24 552.511ZM2788.45 539.318C2786.8 542.066 2775.26 560.755 2762.62 582.194C2723.03 647.057 2654.88 785.029 2625.74 859.236C2610.35 897.714 2588.36 965.325 2576.27 1008.75C2557.03 1079.11 2552.08 1090.11 2535.04 1105.49C2513.06 1125.83 2476.78 1137.93 2421.81 1143.43C2363.55 1148.93 2371.24 1136.83 2456.44 1085.16C2536.69 1036.78 2561.43 996.11 2628.49 797.122C2651.03 730.609 2681.81 650.355 2697.2 619.023C2723.59 564.053 2725.78 561.855 2753.27 548.663C2782.95 534.92 2792.3 532.722 2788.45 539.318ZM1857.83 613.525C1875.97 625.619 1901.8 644.858 1914.44 655.302L1937.53 673.992V732.258C1936.98 764.691 1939.73 803.168 1943.58 818.559C1953.48 863.084 1982.61 915.306 2017.78 952.133L2050.76 987.318V910.906C2050.76 869.131 2054.07 817.46 2057.91 796.022L2065.06 756.994L2110.14 753.696C2134.87 752.047 2173.9 745.451 2196.44 738.854C2218.98 731.709 2243.71 726.762 2251.4 726.762C2259.1 726.762 2283.84 731.709 2306.38 738.854C2328.91 745.451 2367.94 752.047 2392.68 753.696L2437.2 756.994L2444.89 793.274C2448.74 813.613 2452.04 864.184 2452.04 907.612V985.667L2478.43 959.827C2513.6 925.749 2535.04 890.569 2552.08 842.196C2564.18 807.566 2565.83 793.274 2565.83 737.756L2565.27 672.892L2596.61 649.256C2633.44 621.221 2677.96 590.439 2682.36 590.439C2683.46 590.439 2674.11 613.526 2660.92 641.01C2648.28 669.045 2620.8 737.756 2600.46 793.824C2536.69 970.823 2504.26 1024.14 2438.85 1057.68C2399.82 1077.47 2372.89 1097.25 2360.8 1115.94C2343.75 1142.33 2336.61 1229.73 2336.61 1412.22C2336.61 1596.37 2342.65 1654.63 2369.03 1741.49C2376.18 1764.57 2381.13 1783.26 2380.03 1783.26C2378.38 1783.26 2349.25 1761.82 2314.61 1735.99L2251.4 1688.17L2188.74 1735.99C2154.11 1761.82 2124.43 1783.26 2122.78 1783.26C2121.13 1783.26 2122.78 1774.47 2127.18 1764.03C2139.82 1733.79 2156.31 1649.13 2164 1577.68C2171.15 1501.83 2167.85 1245.67 2157.96 1175.85C2148.62 1109.89 2137.07 1096.15 2050.76 1049.98C1996.34 1020.3 1963.36 963.129 1899.6 785.578C1877.62 725.113 1850.13 656.401 1838.58 632.765C1826.5 609.678 1818.8 590.439 1820.45 590.439C1822.64 590.439 1839.14 600.883 1857.83 613.525ZM1484.59 628.367C1486.24 631.666 1515.37 651.454 1549.45 672.343C1582.98 693.78 1623.66 721.815 1639.61 734.457C1666.53 756.995 1729.2 829.553 1729.2 838.898C1729.2 844.944 1644.55 813.063 1589.03 785.578C1514.83 749.848 1484.04 724.563 1476.89 696.529C1465.9 653.653 1471.39 607.479 1484.59 628.367ZM3030.32 662.997C3028.66 684.986 3025.91 707.523 3023.72 712.469C3018.22 726.212 2953.36 767.989 2898.94 793.274C2847.27 817.461 2773.61 844.944 2773.61 839.998C2773.61 837.799 2782.41 824.606 2792.85 810.314C2824.18 767.439 2883 716.317 2941.26 680.038C2972.05 661.349 3002.82 641.01 3009.97 634.964C3017.67 628.917 3025.92 623.97 3028.66 623.42C3031.41 623.42 3031.96 641.01 3030.32 662.997ZM1764.93 683.886C1781.97 714.119 1801.76 752.597 1809.45 769.087L1823.2 799.32L1811.66 815.811C1805.06 825.155 1797.91 839.448 1795.71 847.144C1791.87 860.886 1790.77 860.336 1765.48 824.606C1751.18 804.268 1724.8 771.836 1706.66 753.147C1685.22 730.06 1675.34 715.219 1676.98 708.072C1678.08 702.575 1680.28 691.032 1682.48 682.786C1685.78 665.197 1716.01 628.917 1726.45 628.917C1730.85 628.917 1747.89 653.653 1764.93 683.886ZM2796.7 643.758C2813.74 662.448 2820.33 675.641 2825.28 699.827C2828.03 716.317 2825.83 721.265 2792.85 756.445C2773.06 777.883 2747.22 809.765 2735.13 827.904L2713.69 860.336L2704.9 839.448C2699.95 828.454 2692.26 814.712 2687.3 809.215C2678.51 799.87 2679.61 796.022 2701.6 753.696C2747.77 664.647 2769.21 628.917 2775.81 628.917C2779.66 628.917 2789 635.514 2796.7 643.758ZM2009.55 738.854L2029.33 749.299L2024.38 792.174C2022.18 815.811 2021.09 858.687 2022.74 887.271L2026.03 939.494L2012.84 923C1994.15 900.464 1967.21 845.494 1960.62 815.811C1957.32 802.069 1955.13 767.439 1955.13 738.854V686.634L1972.17 707.523C1981.51 719.066 1998 732.808 2009.55 738.854ZM2539.99 826.255C2531.19 855.938 2508.66 899.364 2489.42 924.098C2480.08 936.192 2479.52 933.443 2478.97 841.646L2478.43 746L2494.37 739.404C2503.16 735.556 2518 722.913 2527.9 711.371L2545.48 689.932L2547.14 742.702C2548.23 778.982 2546.04 804.818 2539.99 826.255ZM1865.52 897.165C1880.37 935.647 1896.86 982.364 1902.35 1000.51L1911.69 1034.03L1897.4 1048.33L1883.66 1062.07L1868.82 1023.05C1860.58 1001.05 1842.98 961.478 1829.24 934.541C1810 894.966 1805.6 881.224 1808.35 866.383C1811.66 844.395 1826.5 819.659 1833.64 824.057C1836.39 825.705 1850.68 858.687 1865.52 897.165ZM2694.45 863.084C2697.2 879.025 2692.8 892.768 2667.52 946.635C2651.03 981.82 2634.54 1020.84 2630.69 1032.94C2620.8 1064.27 2620.8 1063.72 2604.86 1048.33L2590.56 1033.49L2602.65 995.012C2618.05 946.09 2639.48 888.37 2657.07 848.792L2670.26 818.559L2680.71 831.202C2686.21 838.348 2692.26 852.64 2694.45 863.084ZM1950.17 1117.59C1958.97 1126.39 1976.01 1137.38 1987.55 1142.87C2006.8 1151.67 2008.44 1153.87 2003.49 1165.96C1996.9 1183 1996.9 1220.38 2003.49 1243.47C2007.89 1258.31 2007.34 1261.06 1999.09 1261.06C1983.71 1261.06 1941.93 1237.42 1930.94 1222.03C1925.44 1214.33 1915 1182.45 1907.3 1151.67C1895.21 1098.9 1894.66 1094.51 1902.9 1075.26L1911.69 1054.93L1922.69 1078.01C1928.73 1091.2 1940.83 1108.8 1950.17 1117.59ZM2604.86 1084.06C2607.61 1098.35 2592.21 1177.5 2580.67 1206.64C2572.98 1226.43 2549.33 1247.31 2526.79 1255.01C2497.66 1264.9 2492.72 1263.25 2498.77 1246.77C2505.91 1229.18 2505.91 1173.1 2498.77 1162.12C2494.91 1156.07 2500.41 1150.57 2522.4 1138.48C2554.29 1121.43 2572.42 1102.2 2581.77 1075.26C2586.17 1061.53 2589.46 1058.78 2594.96 1063.17C2598.81 1066.47 2603.21 1075.82 2604.86 1084.06ZM2123.33 1164.31C2123.87 1164.87 2126.08 1187.95 2128.83 1215.98L2133.77 1266.56H2083.2C2051.87 1266.56 2030.98 1264.36 2028.23 1260.51C2022.74 1251.17 2018.34 1186.85 2022.74 1170.91C2026.03 1157.16 2026.03 1157.16 2074.41 1160.47C2100.79 1162.12 2122.78 1163.76 2123.33 1164.31ZM2480.08 1168.71C2485.58 1186.3 2483.92 1234.12 2477.33 1251.71C2471.83 1266 2470.73 1266.56 2421.81 1266.56H2372.34V1247.87C2372.34 1237.98 2373.99 1214.33 2375.63 1196.2L2379.49 1162.66L2415.76 1160.47C2435.55 1159.37 2457.54 1158.27 2464.14 1157.72C2472.37 1157.16 2477.33 1160.47 2480.08 1168.71Z" fill="#C9A48A"/>
<mask id="mask0_145_357" style="mask-type:luminance" maskUnits="userSpaceOnUse" x="1327" y="-1" width="1853" height="1844">
<path d="M3179.12 0H1328.24V1841.81H3179.12V0Z" fill="white" stroke="#C9A48A"/>
<path d="M2078.26 16.5643C1937.53 25.3593 1851.78 34.1542 1803.41 43.499C1776.47 48.9959 1736.89 50.645 1672.59 49.5456C1589.58 47.8965 1579.13 48.446 1567.59 57.7908C1560.44 63.2876 1553.3 73.7318 1551.1 80.3281C1549.45 88.5734 1535.71 100.117 1510.98 113.31C1425.77 159.484 1359.81 256.778 1341.67 362.318C1328.48 438.175 1346.61 575.048 1377.95 639.91C1424.68 735.007 1557.7 825.155 1702.26 859.786C1725.9 865.283 1747.89 871.879 1751.74 874.078C1773.18 887.271 1863.87 1114.29 1874.87 1182.45C1880.92 1220.38 1908.95 1261.06 1940.83 1277.55C1966.67 1290.74 1972.71 1291.29 2051.87 1290.74L2134.87 1290.19L2139.27 1342.96C2141.47 1372.09 2141.47 1445.2 2139.82 1505.67C2136.52 1631.55 2123.33 1718.4 2098.04 1788.21C2089.24 1812.39 2083.2 1832.73 2084.85 1832.73C2086.49 1832.73 2124.97 1805.25 2170.05 1771.72C2227.21 1728.84 2253.6 1711.8 2258.55 1715.65C2347.6 1783.26 2415.22 1832.73 2417.96 1832.73C2419.61 1832.73 2415.22 1816.24 2407.51 1795.91C2370.14 1696.41 2353.09 1515.56 2365.19 1339.11L2368.49 1288L2429.51 1291.84C2491.62 1295.69 2536.69 1288.54 2576.82 1268.21C2599.36 1257.21 2618.59 1219.29 2636.19 1151.67C2669.17 1026.89 2736.23 877.377 2762.62 869.681C2770.31 867.482 2799.45 859.236 2828.02 851.54C2925.32 825.155 3002.28 782.28 3066.04 719.066C3108.37 676.74 3130.91 637.712 3146.85 579.445C3180.93 453.567 3168.29 320.542 3113.87 231.493C3089.68 191.915 3023.72 128.701 2986.34 109.462C2962.7 96.8186 2953.36 88.5734 2949.51 75.9306C2946.21 66.5858 2937.96 56.1417 2931.37 53.3933C2924.23 50.0951 2882.44 48.4462 2828.58 49.5456C2765.37 51.1947 2726.34 48.9958 2699.4 44.0486C2649.38 33.6045 2569.67 25.9088 2413.56 16.0145C2267.34 6.66979 2228.32 6.66986 2078.26 16.5643ZM2240.41 58.8903C2240.41 77.5797 2238.21 95.719 2236.02 99.5668C2233.27 103.964 2212.38 104.514 2152.46 99.5668C2099.14 95.719 2053.51 95.719 2015.04 99.0179C1961.72 103.964 1955.13 103.415 1927.09 92.421C1910.6 85.825 1877.06 75.9306 1852.88 70.4338C1811.1 61.089 1810 60.5393 1828.14 56.6914C1852.33 51.1945 2032.63 35.8033 2133.22 30.8561C2175.54 28.6574 2216.77 26.4587 2225.57 25.9089C2240.41 24.8096 2240.41 25.3593 2240.41 58.8903ZM2397.07 32.5051C2481.72 36.353 2646.63 50.6449 2674.67 56.6914C2692.8 60.5393 2692.26 61.089 2649.93 70.4338C2625.74 75.9306 2592.21 85.825 2575.72 92.421C2547.69 103.415 2541.09 103.964 2487.77 99.0179C2449.29 95.719 2403.67 95.719 2350.35 99.5668C2306.38 102.866 2269.54 104.514 2267.9 103.415C2266.8 101.766 2264.6 83.0765 2263.5 62.1884L2261.3 23.7102L2293.18 26.4586C2311.32 28.1076 2358.05 30.8561 2397.07 32.5051ZM1722.05 73.7319C1775.93 80.8778 1827.04 91.8711 1894.66 110.012L1947.42 124.853L1962.27 210.604C1980.96 317.794 1985.36 359.57 1978.21 359.57C1958.42 359.57 1881.46 334.284 1848.48 317.244C1817.15 300.753 1794.06 281.514 1740.2 227.095C1702.26 188.617 1650.59 142.443 1624.76 123.753C1598.92 105.064 1578.04 86.9244 1578.04 83.0765C1578.04 78.6791 1588.48 76.4802 1609.37 77.03C1648.94 78.1293 1716.01 108.362 1750.64 141.343C1764.38 154.536 1772.08 159.484 1768.22 152.887C1760.53 136.946 1709.41 91.8711 1685.78 79.2287C1662.69 66.5858 1665.44 66.5858 1722.05 73.7319ZM2808.79 85.2753C2778.56 104.514 2742.83 136.946 2734.03 153.436C2730.74 159.483 2739.53 153.986 2753.82 140.793C2791.2 106.713 2853.86 78.1293 2893.44 77.03C2914.33 76.4802 2924.77 78.6791 2924.77 83.0765C2924.77 86.3746 2903.88 105.064 2878.05 123.753C2852.21 142.443 2800.54 189.167 2762.62 227.645C2705.99 284.812 2686.76 301.303 2653.23 317.794C2620.25 334.834 2543.84 359.57 2525.15 359.57C2518 359.57 2519.65 341.43 2537.79 230.393L2554.83 125.952L2605.4 111.11C2665.32 93.5206 2778.01 72.0828 2822.53 68.7846C2833.52 68.2349 2830.77 71.533 2808.79 85.2753ZM1549.45 137.495C1512.62 204.558 1519.22 273.268 1565.39 305.151L1583.54 317.244L1565.94 298.555C1546.15 277.666 1536.81 256.228 1536.81 233.691C1536.81 216.101 1552.2 168.828 1559.35 163.88C1562.1 162.232 1561.54 167.728 1558.79 175.424C1542.85 217.75 1558.79 266.672 1601.13 305.151C1654.44 352.973 1722.61 355.722 1768.78 311.747C1776.47 304.051 1785.82 299.653 1789.12 301.853C1797.37 306.8 1791.87 314.496 1770.97 327.138C1748.99 340.331 1764.38 340.881 1790.77 327.688C1806.16 319.442 1812.2 318.892 1819.35 323.84C1832.54 333.734 1830.35 336.483 1805.06 343.629C1738.55 361.768 1613.21 358.47 1557.15 337.583C1521.97 324.39 1495.04 297.455 1490.08 269.97C1486.24 250.182 1493.93 213.352 1507.68 186.418C1521.97 158.934 1561 101.216 1565.39 101.216C1567.59 101.216 1560.44 117.707 1549.45 137.495ZM2963.25 131.449C2996.78 182.021 3012.17 221.048 3012.72 256.228C3012.72 284.812 3011.07 289.209 2994.03 306.8C2957.75 344.179 2871.46 362.318 2769.76 354.073C2721.39 349.675 2674.67 339.781 2674.67 333.734C2674.67 332.085 2678.51 327.688 2683.46 323.84C2690.61 318.892 2696.65 319.442 2712.05 327.688C2738.43 340.881 2753.82 340.331 2731.83 327.138C2710.95 314.496 2705.45 306.8 2713.14 301.853C2716.44 299.653 2726.89 305.151 2736.78 313.396C2788.45 357.371 2856.06 351.874 2908.28 300.203C2944.56 264.474 2958.3 215.002 2944.01 174.325C2939.07 160.033 2939.07 159.483 2946.76 169.927C2956.65 182.57 2966 213.352 2966 234.241C2966 256.228 2956.11 277.666 2936.86 298.555C2925.32 310.648 2923.13 315.045 2930.27 311.197C2958.86 296.355 2976.99 260.076 2976.99 217.2C2976.99 189.716 2973.69 177.623 2955.55 142.993C2943.46 119.906 2935.77 101.216 2938.52 101.216C2940.71 101.216 2952.26 114.958 2963.25 131.449ZM2206.33 130.349C2242.61 135.847 2260.19 135.847 2297.03 130.349C2364.09 119.906 2523.5 114.408 2528.45 122.104C2530.65 125.952 2525.7 157.284 2518 191.915C2510.31 226.545 2502.62 278.766 2500.41 307.899L2497.12 360.669L2480.08 357.371C2300.32 319.992 2202.48 319.992 2022.18 357.371L2004.05 360.669V333.185C2004.05 295.257 1994.7 228.194 1981.51 174.325C1975.46 149.039 1972.17 125.952 1974.36 122.654C1979.31 114.408 2137.62 119.906 2206.33 130.349ZM1487.89 175.974C1465.9 219.399 1458.2 254.579 1464.8 283.713C1469.75 304.601 1468.64 307.899 1453.26 327.138C1438.41 345.827 1436.22 352.973 1436.22 380.458C1436.22 398.048 1438.41 416.737 1441.72 422.234C1446.11 429.93 1447.76 422.784 1449.96 390.352C1452.16 356.821 1455.45 345.827 1464.8 335.383L1477.45 322.191L1508.23 343.629C1559.35 378.259 1647.84 393.651 1729.2 382.657C1751.74 379.358 1770.97 377.71 1772.62 378.808C1773.72 379.908 1766.58 390.352 1756.68 401.346C1735.8 425.532 1723.7 451.917 1723.7 474.454V490.396L1674.78 488.746C1620.36 485.998 1604.42 481.051 1557.15 450.818C1539.56 439.275 1523.62 431.029 1522.52 432.678C1521.42 433.778 1528.56 446.97 1538.46 461.812C1563.19 498.091 1607.17 524.476 1641.8 524.476H1667.09L1695.12 566.802L1723.15 609.129L1702.26 618.473C1677.53 629.467 1658.29 654.203 1653.9 681.138C1652.24 691.582 1650.05 700.376 1649.5 700.376C1648.94 700.376 1629.71 689.382 1607.72 676.19C1585.19 663.547 1550 643.209 1529.12 631.666C1463.7 595.936 1435.66 559.657 1415.88 484.349L1405.43 444.771L1408.74 477.752C1412.58 517.88 1427.97 564.054 1444.47 587.14C1456.01 602.532 1456.56 608.579 1454.35 648.156L1451.61 692.132L1430.72 663.547C1402.14 624.52 1391.14 596.485 1377.4 529.974C1367.51 483.8 1365.86 459.613 1368.05 409.041C1370.8 335.383 1382.9 291.959 1414.78 239.188C1433.47 207.856 1497.23 136.946 1502.18 141.343C1502.73 142.443 1496.68 157.834 1487.89 175.974ZM1649.5 161.682L1678.08 183.669L1664.88 210.054C1654.44 229.843 1651.69 241.937 1653.9 262.275C1656.09 288.111 1662.69 301.853 1667.09 290.309C1674.23 270.52 1705.57 224.896 1712.16 224.896C1716.55 224.896 1730.85 238.089 1744.04 254.579C1767.68 283.163 1768.22 284.262 1758.33 294.707C1721.51 335.933 1657.74 328.238 1612.11 277.666C1589.03 251.831 1584.08 236.439 1587.38 202.909C1590.13 181.471 1609.92 139.695 1617.61 139.695C1619.81 139.695 1634.11 149.589 1649.5 161.682ZM2904.44 167.728C2914.88 186.967 2917.08 197.961 2915.42 223.797C2913.23 251.831 2910.48 257.878 2891.25 277.666C2842.32 328.787 2781.31 335.933 2744.47 294.707C2735.13 284.262 2735.68 283.163 2756.57 256.228C2768.66 240.837 2781.31 227.095 2784.6 224.896C2793.39 219.399 2806.04 232.042 2821.43 262.824C2839.02 297.455 2839.02 298.005 2845.06 288.111C2854.41 273.818 2851.12 233.691 2839.02 210.604C2832.98 198.511 2828.58 186.418 2829.68 183.669C2832.43 175.974 2880.25 140.244 2886.29 141.893C2889.04 142.443 2897.29 153.986 2904.44 167.728ZM3061.64 199.611C3110.02 257.878 3136.41 337.582 3136.41 427.731C3136.41 526.675 3107.82 625.069 3066.04 672.892L3049.01 692.132L3048.45 647.057C3048.45 606.38 3050.1 599.783 3064.95 575.598C3074.29 560.755 3085.28 531.622 3089.68 510.734C3100.68 457.415 3099.02 435.976 3087.48 483.25C3075.93 531.622 3051.75 575.597 3025.36 598.134C3014.37 608.029 2978.09 630.016 2945.66 648.156C2913.23 665.747 2879.7 684.436 2871.46 690.482C2852.21 703.675 2850.56 703.125 2850.56 684.436C2850.56 662.448 2829.68 633.314 2803.29 620.122L2780.76 609.129L2808.24 566.802C2835.17 524.476 2835.17 524.476 2859.36 524.476C2885.75 524.476 2905.54 517.33 2931.92 497.541C2950.06 484.349 2985.79 437.626 2981.39 433.228C2979.74 432.128 2958.3 443.123 2933.02 458.513C2907.73 473.356 2881.9 485.998 2875.85 486.548C2869.25 487.098 2845.06 487.647 2821.98 488.746L2779.1 489.846V472.806C2779.1 451.367 2762.62 416.188 2743.37 396.399C2735.13 387.604 2729.63 379.908 2730.74 378.808C2731.83 377.71 2752.17 379.358 2776.35 382.657C2862.11 393.101 2954.46 376.06 3001.18 340.881L3025.36 322.191L3037.46 334.834C3047.35 345.277 3050.65 356.821 3052.85 386.505C3055.6 428.83 3061.64 433.228 3067.14 396.949C3071.54 367.266 3063.84 339.781 3045.7 321.092C3033.61 308.449 3032.51 305.151 3038.01 285.362C3045.7 257.877 3037.46 216.65 3014.92 174.325C3006.13 157.834 2998.98 142.993 2998.98 141.343C2998.98 135.847 3040.76 174.874 3061.64 199.611ZM1944.13 382.657L1974.91 388.703L1954.57 434.877C1943.03 460.163 1932.04 481.051 1929.29 481.051C1918.29 481.051 1847.39 421.684 1827.04 395.849L1805.06 368.364L1828.14 356.821L1850.68 345.277L1882.02 360.669C1899.06 368.914 1927.09 378.809 1944.13 382.657ZM2690.05 378.259C2681.26 394.201 2626.84 446.421 2596.06 468.408C2572.42 484.898 2569.67 485.998 2566.38 476.654C2564.73 471.156 2555.38 449.169 2545.48 427.731L2527.9 388.703L2558.68 382.107C2575.72 378.808 2603.21 368.914 2619.69 360.669L2649.93 345.827L2673.01 356.272C2693.9 365.616 2695.55 368.364 2690.05 378.259ZM2240.41 438.725V522.827L2198.08 526.676C2174.45 528.324 2134.32 533.821 2108.49 538.218C2027.68 552.511 2016.14 550.311 1972.17 514.582C1945.78 493.144 1945.78 494.793 1973.81 433.228L1991.4 394.2L2067.81 379.358C2149.16 363.967 2200.83 355.722 2225.57 354.623L2240.41 354.073V438.725ZM2320.11 359.57C2341.55 362.868 2392.68 371.663 2435 379.358L2511.41 394.2L2529 433.228C2557.58 495.343 2557.58 492.045 2525.7 518.979C2491.07 548.113 2470.73 551.411 2398.17 538.768C2369.59 533.821 2327.26 528.324 2304.17 526.126L2262.4 522.827V438.725C2262.4 342.529 2256.35 350.775 2320.11 359.57ZM1856.18 455.765C1886.41 478.302 1913.9 496.992 1917.19 496.992C1921.04 496.992 1916.09 505.237 1906.75 514.582C1886.96 536.02 1877.62 552.511 1877.62 567.901C1877.62 577.246 1871.57 575.048 1831.99 550.311C1807.26 534.37 1776.47 516.781 1763.28 511.284C1741.84 501.389 1740.2 499.741 1740.2 478.302C1740.2 455.765 1752.84 428.83 1774.83 405.194C1785.82 393.101 1786.37 393.101 1793.51 403.545C1797.37 409.042 1825.95 432.678 1856.18 455.765ZM2747.22 430.48C2757.66 447.52 2762.62 462.361 2762.62 477.203C2762.62 499.191 2762.06 500.29 2726.34 518.43C2706.55 528.874 2675.76 546.464 2658.17 558.007L2626.29 578.346L2622.99 558.007C2620.8 544.265 2613.1 530.522 2601 518.979L2582.87 500.839L2621.9 474.454C2643.34 459.613 2673.57 435.976 2688.41 421.684C2719.74 391.452 2722.49 392.001 2747.22 430.48ZM1974.36 538.768L2006.8 564.054L2103.54 560.206C2156.85 558.557 2209.08 558.557 2220.07 560.206L2240.41 564.054V634.964V705.324L2220.07 711.371C2173.9 724.013 2096.39 729.51 2061.76 722.364C2032.08 716.317 2025.48 711.92 1993.05 678.389C1973.26 658.051 1943.03 629.467 1925.99 615.175C1891.36 587.14 1887.51 575.048 1902.35 546.464C1910.05 531.622 1930.38 513.483 1938.63 513.483C1940.83 513.483 1956.77 525.026 1974.36 538.768ZM2580.12 522.278C2586.71 526.675 2596.06 537.669 2600.46 546.464C2615.85 575.598 2611.45 587.14 2574.62 618.473C2555.38 633.864 2525.15 662.449 2507.01 681.138C2477.33 711.92 2470.73 716.317 2441.6 722.364C2407.51 729.51 2356.95 726.762 2298.13 714.669L2265.15 708.072L2263.5 636.063L2261.85 564.054L2282.73 560.206C2293.73 558.007 2345.4 558.557 2397.07 560.206C2491.62 564.603 2503.16 562.955 2521.85 544.815C2531.75 535.47 2561.43 514.032 2564.73 513.483C2566.38 513.483 2573.52 517.33 2580.12 522.278ZM1757.24 552.511C1786.91 567.352 1818.25 633.314 1872.12 791.076C1940.83 992.807 1971.61 1043.93 2050.76 1087.36C2089.8 1108.8 2119.48 1132.43 2119.48 1141.78C2119.48 1145.08 2104.09 1145.62 2081 1143.43C1985.9 1134.08 1951.27 1109.35 1935.88 1041.74C1903.46 899.914 1810 686.084 1719.3 547.013C1710.51 534.37 1711.06 534.37 1723.7 538.218C1731.4 540.417 1746.24 547.013 1757.24 552.511ZM2788.45 539.318C2786.8 542.066 2775.26 560.755 2762.62 582.194C2723.03 647.057 2654.88 785.029 2625.74 859.236C2610.35 897.714 2588.36 965.325 2576.27 1008.75C2557.03 1079.11 2552.08 1090.11 2535.04 1105.49C2513.06 1125.83 2476.78 1137.93 2421.81 1143.43C2363.55 1148.93 2371.24 1136.83 2456.44 1085.16C2536.69 1036.78 2561.43 996.11 2628.49 797.122C2651.03 730.609 2681.81 650.355 2697.2 619.023C2723.59 564.053 2725.78 561.855 2753.27 548.663C2782.95 534.92 2792.3 532.722 2788.45 539.318ZM1857.83 613.525C1875.97 625.619 1901.8 644.858 1914.44 655.302L1937.53 673.992V732.258C1936.98 764.691 1939.73 803.168 1943.58 818.559C1953.48 863.084 1982.61 915.306 2017.78 952.133L2050.76 987.318V910.906C2050.76 869.131 2054.07 817.46 2057.91 796.022L2065.06 756.994L2110.14 753.696C2134.87 752.047 2173.9 745.451 2196.44 738.854C2218.98 731.709 2243.71 726.762 2251.4 726.762C2259.1 726.762 2283.84 731.709 2306.38 738.854C2328.91 745.451 2367.94 752.047 2392.68 753.696L2437.2 756.994L2444.89 793.274C2448.74 813.613 2452.04 864.184 2452.04 907.612V985.667L2478.43 959.827C2513.6 925.749 2535.04 890.569 2552.08 842.196C2564.18 807.566 2565.83 793.274 2565.83 737.756L2565.27 672.892L2596.61 649.256C2633.44 621.221 2677.96 590.439 2682.36 590.439C2683.46 590.439 2674.11 613.526 2660.92 641.01C2648.28 669.045 2620.8 737.756 2600.46 793.824C2536.69 970.823 2504.26 1024.14 2438.85 1057.68C2399.82 1077.47 2372.89 1097.25 2360.8 1115.95C2343.75 1142.33 2336.61 1229.73 2336.61 1412.22C2336.61 1596.37 2342.65 1654.63 2369.03 1741.49C2376.18 1764.57 2381.13 1783.26 2380.03 1783.26C2378.38 1783.26 2349.25 1761.82 2314.61 1735.99L2251.4 1688.17L2188.74 1735.99C2154.11 1761.82 2124.43 1783.26 2122.78 1783.26C2121.12 1783.26 2122.78 1774.47 2127.18 1764.03C2139.82 1733.79 2156.31 1649.13 2164 1577.68C2171.15 1501.83 2167.85 1245.67 2157.96 1175.85C2148.62 1109.89 2137.07 1096.15 2050.76 1049.98C1996.34 1020.3 1963.36 963.129 1899.6 785.578C1877.62 725.113 1850.13 656.401 1838.58 632.765C1826.5 609.678 1818.8 590.439 1820.45 590.439C1822.64 590.439 1839.14 600.883 1857.83 613.525ZM1484.59 628.367C1486.24 631.666 1515.37 651.454 1549.45 672.343C1582.98 693.78 1623.66 721.815 1639.61 734.457C1666.53 756.995 1729.2 829.553 1729.2 838.898C1729.2 844.944 1644.55 813.063 1589.03 785.578C1514.83 749.848 1484.04 724.563 1476.89 696.529C1465.9 653.653 1471.39 607.479 1484.59 628.367ZM3030.32 662.997C3028.66 684.986 3025.91 707.523 3023.72 712.469C3018.22 726.212 2953.36 767.989 2898.94 793.274C2847.27 817.461 2773.61 844.944 2773.61 839.998C2773.61 837.799 2782.41 824.606 2792.85 810.314C2824.18 767.439 2883 716.317 2941.26 680.038C2972.05 661.349 3002.82 641.01 3009.97 634.964C3017.67 628.917 3025.92 623.97 3028.66 623.42C3031.41 623.42 3031.96 641.01 3030.32 662.997ZM1764.93 683.886C1781.97 714.119 1801.76 752.597 1809.45 769.087L1823.2 799.32L1811.66 815.811C1805.06 825.155 1797.91 839.448 1795.71 847.144C1791.87 860.886 1790.77 860.336 1765.48 824.606C1751.18 804.268 1724.8 771.836 1706.66 753.147C1685.22 730.06 1675.34 715.219 1676.98 708.072C1678.08 702.575 1680.28 691.032 1682.48 682.786C1685.78 665.197 1716.01 628.917 1726.45 628.917C1730.85 628.917 1747.89 653.653 1764.93 683.886ZM2796.7 643.758C2813.74 662.448 2820.33 675.641 2825.28 699.827C2828.03 716.317 2825.83 721.265 2792.85 756.445C2773.06 777.883 2747.22 809.765 2735.13 827.905L2713.69 860.336L2704.9 839.448C2699.95 828.454 2692.26 814.712 2687.3 809.215C2678.51 799.87 2679.61 796.022 2701.6 753.696C2747.77 664.647 2769.21 628.917 2775.81 628.917C2779.66 628.917 2789 635.514 2796.7 643.758ZM2009.55 738.854L2029.33 749.299L2024.38 792.174C2022.18 815.811 2021.09 858.687 2022.74 887.271L2026.03 939.494L2012.84 923C1994.15 900.464 1967.21 845.494 1960.62 815.811C1957.32 802.069 1955.13 767.439 1955.13 738.854V686.634L1972.17 707.523C1981.51 719.066 1998 732.808 2009.55 738.854ZM2539.99 826.255C2531.19 855.938 2508.66 899.364 2489.42 924.098C2480.08 936.192 2479.52 933.443 2478.97 841.646L2478.43 746L2494.37 739.404C2503.16 735.556 2518 722.913 2527.9 711.371L2545.48 689.932L2547.14 742.702C2548.23 778.982 2546.04 804.817 2539.99 826.255ZM1865.52 897.165C1880.37 935.647 1896.86 982.364 1902.35 1000.51L1911.69 1034.03L1897.4 1048.33L1883.66 1062.07L1868.82 1023.05C1860.58 1001.05 1842.98 961.478 1829.24 934.541C1810 894.966 1805.6 881.224 1808.35 866.383C1811.66 844.395 1826.5 819.659 1833.64 824.057C1836.39 825.705 1850.68 858.687 1865.52 897.165ZM2694.45 863.084C2697.2 879.025 2692.8 892.768 2667.52 946.635C2651.03 981.82 2634.54 1020.84 2630.69 1032.94C2620.8 1064.27 2620.8 1063.72 2604.86 1048.33L2590.56 1033.49L2602.65 995.012C2618.05 946.09 2639.48 888.37 2657.07 848.792L2670.26 818.559L2680.71 831.202C2686.21 838.348 2692.26 852.64 2694.45 863.084ZM1950.17 1117.59C1958.97 1126.39 1976.01 1137.38 1987.55 1142.87C2006.8 1151.67 2008.44 1153.87 2003.49 1165.96C1996.9 1183 1996.9 1220.38 2003.49 1243.47C2007.89 1258.31 2007.34 1261.06 1999.09 1261.06C1983.71 1261.06 1941.93 1237.42 1930.94 1222.03C1925.44 1214.33 1915 1182.45 1907.3 1151.67C1895.21 1098.9 1894.66 1094.51 1902.9 1075.26L1911.69 1054.93L1922.69 1078.01C1928.73 1091.2 1940.83 1108.8 1950.17 1117.59ZM2604.86 1084.06C2607.61 1098.35 2592.21 1177.5 2580.67 1206.64C2572.98 1226.43 2549.33 1247.31 2526.79 1255.01C2497.66 1264.9 2492.72 1263.25 2498.77 1246.77C2505.91 1229.18 2505.91 1173.1 2498.77 1162.12C2494.91 1156.07 2500.41 1150.57 2522.4 1138.48C2554.29 1121.43 2572.42 1102.2 2581.77 1075.26C2586.17 1061.53 2589.46 1058.78 2594.96 1063.17C2598.81 1066.47 2603.21 1075.82 2604.86 1084.06ZM2123.33 1164.31C2123.87 1164.87 2126.08 1187.95 2128.83 1215.98L2133.77 1266.56H2083.2C2051.87 1266.56 2030.98 1264.36 2028.23 1260.51C2022.74 1251.17 2018.34 1186.85 2022.74 1170.91C2026.03 1157.16 2026.03 1157.16 2074.41 1160.47C2100.79 1162.12 2122.78 1163.76 2123.33 1164.31ZM2480.08 1168.71C2485.58 1186.3 2483.92 1234.12 2477.33 1251.71C2471.83 1266 2470.73 1266.56 2421.81 1266.56H2372.34V1247.87C2372.34 1237.98 2373.99 1214.33 2375.63 1196.2L2379.49 1162.66L2415.76 1160.47C2435.55 1159.37 2457.54 1158.27 2464.14 1157.72C2472.37 1157.16 2477.33 1160.47 2480.08 1168.71Z" stroke="#C9A48A"/>
</mask>
<g mask="url(#mask0_145_357)">
<path d="M2078.26 16.5643C1937.53 25.3593 1851.78 34.1542 1803.41 43.499C1776.47 48.9959 1736.89 50.645 1672.59 49.5456C1589.58 47.8965 1579.13 48.446 1567.59 57.7908C1560.44 63.2876 1553.3 73.7318 1551.1 80.3281C1549.45 88.5734 1535.71 100.117 1510.98 113.31C1425.77 159.484 1359.81 256.778 1341.67 362.318C1328.48 438.175 1346.61 575.048 1377.95 639.91C1424.68 735.007 1557.7 825.155 1702.26 859.786C1725.9 865.283 1747.89 871.879 1751.74 874.078C1773.18 887.271 1863.87 1114.29 1874.87 1182.45C1880.92 1220.38 1908.95 1261.06 1940.83 1277.55C1966.67 1290.74 1972.71 1291.29 2051.87 1290.74L2134.87 1290.19L2139.27 1342.96C2141.47 1372.09 2141.47 1445.2 2139.82 1505.67C2136.52 1631.55 2123.33 1718.4 2098.04 1788.21C2089.24 1812.39 2083.2 1832.73 2084.85 1832.73C2086.49 1832.73 2124.97 1805.25 2170.05 1771.72C2227.21 1728.84 2253.6 1711.8 2258.55 1715.65C2347.6 1783.26 2415.22 1832.73 2417.96 1832.73C2419.61 1832.73 2415.22 1816.24 2407.51 1795.91C2370.14 1696.41 2353.09 1515.56 2365.19 1339.11L2368.49 1288L2429.51 1291.84C2491.62 1295.69 2536.69 1288.54 2576.82 1268.21C2599.36 1257.21 2618.59 1219.29 2636.19 1151.67C2669.17 1026.89 2736.23 877.377 2762.62 869.681C2770.31 867.482 2799.45 859.236 2828.02 851.54C2925.32 825.155 3002.28 782.28 3066.04 719.066C3108.37 676.74 3130.91 637.712 3146.85 579.445C3180.93 453.567 3168.29 320.542 3113.87 231.493C3089.68 191.915 3023.72 128.701 2986.34 109.462C2962.7 96.8186 2953.36 88.5734 2949.51 75.9306C2946.21 66.5858 2937.96 56.1417 2931.37 53.3933C2924.23 50.0951 2882.44 48.4462 2828.58 49.5456C2765.37 51.1947 2726.34 48.9958 2699.4 44.0486C2649.38 33.6045 2569.67 25.9088 2413.56 16.0145C2267.34 6.66979 2228.32 6.66986 2078.26 16.5643ZM2240.41 58.8903C2240.41 77.5797 2238.21 95.719 2236.02 99.5668C2233.27 103.964 2212.38 104.514 2152.46 99.5668C2099.14 95.719 2053.51 95.719 2015.04 99.0179C1961.72 103.964 1955.13 103.415 1927.09 92.421C1910.6 85.825 1877.06 75.9306 1852.88 70.4338C1811.1 61.089 1810 60.5393 1828.14 56.6914C1852.33 51.1945 2032.63 35.8033 2133.22 30.8561C2175.54 28.6574 2216.77 26.4587 2225.57 25.9089C2240.41 24.8096 2240.41 25.3593 2240.41 58.8903ZM2397.07 32.5051C2481.72 36.353 2646.63 50.6449 2674.67 56.6914C2692.8 60.5393 2692.26 61.089 2649.93 70.4338C2625.74 75.9306 2592.21 85.825 2575.72 92.421C2547.69 103.415 2541.09 103.964 2487.77 99.0179C2449.29 95.719 2403.67 95.719 2350.35 99.5668C2306.38 102.866 2269.54 104.514 2267.9 103.415C2266.8 101.766 2264.6 83.0765 2263.5 62.1884L2261.3 23.7102L2293.18 26.4586C2311.32 28.1076 2358.05 30.8561 2397.07 32.5051ZM1722.05 73.7319C1775.93 80.8778 1827.04 91.8711 1894.66 110.012L1947.42 124.853L1962.27 210.604C1980.96 317.794 1985.36 359.57 1978.21 359.57C1958.42 359.57 1881.46 334.284 1848.48 317.244C1817.15 300.753 1794.06 281.514 1740.2 227.095C1702.26 188.617 1650.59 142.443 1624.76 123.753C1598.92 105.064 1578.04 86.9244 1578.04 83.0765C1578.04 78.6791 1588.48 76.4802 1609.37 77.03C1648.94 78.1293 1716.01 108.362 1750.64 141.343C1764.38 154.536 1772.08 159.484 1768.22 152.887C1760.53 136.946 1709.41 91.8711 1685.78 79.2287C1662.69 66.5858 1665.44 66.5858 1722.05 73.7319ZM2808.79 85.2753C2778.56 104.514 2742.83 136.946 2734.03 153.436C2730.74 159.483 2739.53 153.986 2753.82 140.793C2791.2 106.713 2853.86 78.1293 2893.44 77.03C2914.33 76.4802 2924.77 78.6791 2924.77 83.0765C2924.77 86.3746 2903.88 105.064 2878.05 123.753C2852.21 142.443 2800.54 189.167 2762.62 227.645C2705.99 284.812 2686.76 301.303 2653.23 317.794C2620.25 334.834 2543.84 359.57 2525.15 359.57C2518 359.57 2519.65 341.43 2537.79 230.393L2554.83 125.952L2605.4 111.11C2665.32 93.5206 2778.01 72.0828 2822.53 68.7846C2833.52 68.2349 2830.77 71.533 2808.79 85.2753ZM1549.45 137.495C1512.62 204.558 1519.22 273.268 1565.39 305.151L1583.54 317.244L1565.94 298.555C1546.15 277.666 1536.81 256.228 1536.81 233.691C1536.81 216.101 1552.2 168.828 1559.35 163.88C1562.1 162.232 1561.54 167.728 1558.79 175.424C1542.85 217.75 1558.79 266.672 1601.13 305.151C1654.44 352.973 1722.61 355.722 1768.78 311.747C1776.47 304.051 1785.82 299.653 1789.12 301.853C1797.37 306.8 1791.87 314.496 1770.97 327.138C1748.99 340.331 1764.38 340.881 1790.77 327.688C1806.16 319.442 1812.2 318.892 1819.35 323.84C1832.54 333.734 1830.35 336.483 1805.06 343.629C1738.55 361.768 1613.21 358.47 1557.15 337.583C1521.97 324.39 1495.04 297.455 1490.08 269.97C1486.24 250.182 1493.93 213.352 1507.68 186.418C1521.97 158.934 1561 101.216 1565.39 101.216C1567.59 101.216 1560.44 117.707 1549.45 137.495ZM2963.25 131.449C2996.78 182.021 3012.17 221.048 3012.72 256.228C3012.72 284.812 3011.07 289.209 2994.03 306.8C2957.75 344.179 2871.46 362.318 2769.76 354.073C2721.39 349.675 2674.67 339.781 2674.67 333.734C2674.67 332.085 2678.51 327.688 2683.46 323.84C2690.61 318.892 2696.65 319.442 2712.05 327.688C2738.43 340.881 2753.82 340.331 2731.83 327.138C2710.95 314.496 2705.45 306.8 2713.14 301.853C2716.44 299.653 2726.89 305.151 2736.78 313.396C2788.45 357.371 2856.06 351.874 2908.28 300.203C2944.56 264.474 2958.3 215.002 2944.01 174.325C2939.07 160.033 2939.07 159.483 2946.76 169.927C2956.65 182.57 2966 213.352 2966 234.241C2966 256.228 2956.11 277.666 2936.86 298.555C2925.32 310.648 2923.13 315.045 2930.27 311.197C2958.86 296.355 2976.99 260.076 2976.99 217.2C2976.99 189.716 2973.69 177.623 2955.55 142.993C2943.46 119.906 2935.77 101.216 2938.52 101.216C2940.71 101.216 2952.26 114.958 2963.25 131.449ZM2206.33 130.349C2242.61 135.847 2260.19 135.847 2297.03 130.349C2364.09 119.906 2523.5 114.408 2528.45 122.104C2530.65 125.952 2525.7 157.284 2518 191.915C2510.31 226.545 2502.62 278.766 2500.41 307.899L2497.12 360.669L2480.08 357.371C2300.32 319.992 2202.48 319.992 2022.18 357.371L2004.05 360.669V333.185C2004.05 295.257 1994.7 228.194 1981.51 174.325C1975.46 149.039 1972.17 125.952 1974.36 122.654C1979.31 114.408 2137.62 119.906 2206.33 130.349ZM1487.89 175.974C1465.9 219.399 1458.2 254.579 1464.8 283.713C1469.75 304.601 1468.64 307.899 1453.26 327.138C1438.41 345.827 1436.22 352.973 1436.22 380.458C1436.22 398.048 1438.41 416.737 1441.72 422.234C1446.11 429.93 1447.76 422.784 1449.96 390.352C1452.16 356.821 1455.45 345.827 1464.8 335.383L1477.45 322.191L1508.23 343.629C1559.35 378.259 1647.84 393.651 1729.2 382.657C1751.74 379.358 1770.97 377.71 1772.62 378.808C1773.72 379.908 1766.58 390.352 1756.68 401.346C1735.8 425.532 1723.7 451.917 1723.7 474.454V490.396L1674.78 488.746C1620.36 485.998 1604.42 481.051 1557.15 450.818C1539.56 439.275 1523.62 431.029 1522.52 432.678C1521.42 433.778 1528.56 446.97 1538.46 461.812C1563.19 498.091 1607.17 524.476 1641.8 524.476H1667.09L1695.12 566.802L1723.15 609.129L1702.26 618.473C1677.53 629.467 1658.29 654.203 1653.9 681.138C1652.24 691.582 1650.05 700.376 1649.5 700.376C1648.94 700.376 1629.71 689.382 1607.72 676.19C1585.19 663.547 1550 643.209 1529.12 631.666C1463.7 595.936 1435.66 559.657 1415.88 484.349L1405.43 444.771L1408.74 477.752C1412.58 517.88 1427.97 564.054 1444.47 587.14C1456.01 602.532 1456.56 608.579 1454.35 648.156L1451.61 692.132L1430.72 663.547C1402.14 624.52 1391.14 596.485 1377.4 529.974C1367.51 483.8 1365.86 459.613 1368.05 409.041C1370.8 335.383 1382.9 291.959 1414.78 239.188C1433.47 207.856 1497.23 136.946 1502.18 141.343C1502.73 142.443 1496.68 157.834 1487.89 175.974ZM1649.5 161.682L1678.08 183.669L1664.88 210.054C1654.44 229.843 1651.69 241.937 1653.9 262.275C1656.09 288.111 1662.69 301.853 1667.09 290.309C1674.23 270.52 1705.57 224.896 1712.16 224.896C1716.55 224.896 1730.85 238.089 1744.04 254.579C1767.68 283.163 1768.22 284.262 1758.33 294.707C1721.51 335.933 1657.74 328.238 1612.11 277.666C1589.03 251.831 1584.08 236.439 1587.38 202.909C1590.13 181.471 1609.92 139.695 1617.61 139.695C1619.81 139.695 1634.11 149.589 1649.5 161.682ZM2904.44 167.728C2914.88 186.967 2917.08 197.961 2915.42 223.797C2913.23 251.831 2910.48 257.878 2891.25 277.666C2842.32 328.787 2781.31 335.933 2744.47 294.707C2735.13 284.262 2735.68 283.163 2756.57 256.228C2768.66 240.837 2781.31 227.095 2784.6 224.896C2793.39 219.399 2806.04 232.042 2821.43 262.824C2839.02 297.455 2839.02 298.005 2845.06 288.111C2854.41 273.818 2851.12 233.691 2839.02 210.604C2832.98 198.511 2828.58 186.418 2829.68 183.669C2832.43 175.974 2880.25 140.244 2886.29 141.893C2889.04 142.443 2897.29 153.986 2904.44 167.728ZM3061.64 199.611C3110.02 257.878 3136.41 337.582 3136.41 427.731C3136.41 526.675 3107.82 625.069 3066.04 672.892L3049.01 692.132L3048.45 647.057C3048.45 606.38 3050.1 599.783 3064.95 575.598C3074.29 560.755 3085.28 531.622 3089.68 510.734C3100.68 457.415 3099.02 435.976 3087.48 483.25C3075.93 531.622 3051.75 575.597 3025.36 598.134C3014.37 608.029 2978.09 630.016 2945.66 648.156C2913.23 665.747 2879.7 684.436 2871.46 690.482C2852.21 703.675 2850.56 703.125 2850.56 684.436C2850.56 662.448 2829.68 633.314 2803.29 620.122L2780.76 609.129L2808.24 566.802C2835.17 524.476 2835.17 524.476 2859.36 524.476C2885.75 524.476 2905.54 517.33 2931.92 497.541C2950.06 484.349 2985.79 437.626 2981.39 433.228C2979.74 432.128 2958.3 443.123 2933.02 458.513C2907.73 473.356 2881.9 485.998 2875.85 486.548C2869.25 487.098 2845.06 487.647 2821.98 488.746L2779.1 489.846V472.806C2779.1 451.367 2762.62 416.188 2743.37 396.399C2735.13 387.604 2729.63 379.908 2730.74 378.808C2731.83 377.71 2752.17 379.358 2776.35 382.657C2862.11 393.101 2954.46 376.06 3001.18 340.881L3025.36 322.191L3037.46 334.834C3047.35 345.277 3050.65 356.821 3052.85 386.505C3055.6 428.83 3061.64 433.228 3067.14 396.949C3071.54 367.266 3063.84 339.781 3045.7 321.092C3033.61 308.449 3032.51 305.151 3038.01 285.362C3045.7 257.877 3037.46 216.65 3014.92 174.325C3006.13 157.834 2998.98 142.993 2998.98 141.343C2998.98 135.847 3040.76 174.874 3061.64 199.611ZM1944.13 382.657L1974.91 388.703L1954.57 434.877C1943.03 460.163 1932.04 481.051 1929.29 481.051C1918.29 481.051 1847.39 421.684 1827.04 395.849L1805.06 368.364L1828.14 356.821L1850.68 345.277L1882.02 360.669C1899.06 368.914 1927.09 378.809 1944.13 382.657ZM2690.05 378.259C2681.26 394.201 2626.84 446.421 2596.06 468.408C2572.42 484.898 2569.67 485.998 2566.38 476.654C2564.73 471.156 2555.38 449.169 2545.48 427.731L2527.9 388.703L2558.68 382.107C2575.72 378.808 2603.21 368.914 2619.69 360.669L2649.93 345.827L2673.01 356.272C2693.9 365.616 2695.55 368.364 2690.05 378.259ZM2240.41 438.725V522.827L2198.08 526.676C2174.45 528.324 2134.32 533.821 2108.49 538.218C2027.68 552.511 2016.14 550.311 1972.17 514.582C1945.78 493.144 1945.78 494.793 1973.81 433.228L1991.4 394.2L2067.81 379.358C2149.16 363.967 2200.83 355.722 2225.57 354.623L2240.41 354.073V438.725ZM2320.11 359.57C2341.55 362.868 2392.68 371.663 2435 379.358L2511.41 394.2L2529 433.228C2557.58 495.343 2557.58 492.045 2525.7 518.979C2491.07 548.113 2470.73 551.411 2398.17 538.768C2369.59 533.821 2327.26 528.324 2304.17 526.126L2262.4 522.827V438.725C2262.4 342.529 2256.35 350.775 2320.11 359.57ZM1856.18 455.765C1886.41 478.302 1913.9 496.992 1917.19 496.992C1921.04 496.992 1916.09 505.237 1906.75 514.582C1886.96 536.02 1877.62 552.511 1877.62 567.901C1877.62 577.246 1871.57 575.048 1831.99 550.311C1807.26 534.37 1776.47 516.781 1763.28 511.284C1741.84 501.389 1740.2 499.741 1740.2 478.302C1740.2 455.765 1752.84 428.83 1774.83 405.194C1785.82 393.101 1786.37 393.101 1793.51 403.545C1797.37 409.042 1825.95 432.678 1856.18 455.765ZM2747.22 430.48C2757.66 447.52 2762.62 462.361 2762.62 477.203C2762.62 499.191 2762.06 500.29 2726.34 518.43C2706.55 528.874 2675.76 546.464 2658.17 558.007L2626.29 578.346L2622.99 558.007C2620.8 544.265 2613.1 530.522 2601 518.979L2582.87 500.839L2621.9 474.454C2643.34 459.613 2673.57 435.976 2688.41 421.684C2719.74 391.452 2722.49 392.001 2747.22 430.48ZM1974.36 538.768L2006.8 564.054L2103.54 560.206C2156.85 558.557 2209.08 558.557 2220.07 560.206L2240.41 564.054V634.964V705.324L2220.07 711.371C2173.9 724.013 2096.39 729.51 2061.76 722.364C2032.08 716.317 2025.48 711.92 1993.05 678.389C1973.26 658.051 1943.03 629.467 1925.99 615.175C1891.36 587.14 1887.51 575.048 1902.35 546.464C1910.05 531.622 1930.38 513.483 1938.63 513.483C1940.83 513.483 1956.77 525.026 1974.36 538.768ZM2580.12 522.278C2586.71 526.675 2596.06 537.669 2600.46 546.464C2615.85 575.598 2611.45 587.14 2574.62 618.473C2555.38 633.864 2525.15 662.449 2507.01 681.138C2477.33 711.92 2470.73 716.317 2441.6 722.364C2407.51 729.51 2356.95 726.762 2298.13 714.669L2265.15 708.072L2263.5 636.063L2261.85 564.054L2282.73 560.206C2293.73 558.007 2345.4 558.557 2397.07 560.206C2491.62 564.603 2503.16 562.955 2521.85 544.815C2531.75 535.47 2561.43 514.032 2564.73 513.483C2566.38 513.483 2573.52 517.33 2580.12 522.278ZM1757.24 552.511C1786.91 567.352 1818.25 633.314 1872.12 791.076C1940.83 992.807 1971.61 1043.93 2050.76 1087.36C2089.8 1108.8 2119.48 1132.43 2119.48 1141.78C2119.48 1145.08 2104.09 1145.62 2081 1143.43C1985.9 1134.08 1951.27 1109.35 1935.88 1041.74C1903.46 899.914 1810 686.084 1719.3 547.013C1710.51 534.37 1711.06 534.37 1723.7 538.218C1731.4 540.417 1746.24 547.013 1757.24 552.511ZM2788.45 539.318C2786.8 542.066 2775.26 560.755 2762.62 582.194C2723.03 647.057 2654.88 785.029 2625.74 859.236C2610.35 897.714 2588.36 965.325 2576.27 1008.75C2557.03 1079.11 2552.08 1090.11 2535.04 1105.49C2513.06 1125.83 2476.78 1137.93 2421.81 1143.43C2363.55 1148.93 2371.24 1136.83 2456.44 1085.16C2536.69 1036.78 2561.43 996.11 2628.49 797.122C2651.03 730.609 2681.81 650.355 2697.2 619.023C2723.59 564.053 2725.78 561.855 2753.27 548.663C2782.95 534.92 2792.3 532.722 2788.45 539.318ZM1857.83 613.525C1875.97 625.619 1901.8 644.858 1914.44 655.302L1937.53 673.992V732.258C1936.98 764.691 1939.73 803.168 1943.58 818.559C1953.48 863.084 1982.61 915.306 2017.78 952.133L2050.76 987.318V910.906C2050.76 869.131 2054.07 817.46 2057.91 796.022L2065.06 756.994L2110.14 753.696C2134.87 752.047 2173.9 745.451 2196.44 738.854C2218.98 731.709 2243.71 726.762 2251.4 726.762C2259.1 726.762 2283.84 731.709 2306.38 738.854C2328.91 745.451 2367.94 752.047 2392.68 753.696L2437.2 756.994L2444.89 793.274C2448.74 813.613 2452.04 864.184 2452.04 907.612V985.667L2478.43 959.827C2513.6 925.749 2535.04 890.569 2552.08 842.196C2564.18 807.566 2565.83 793.274 2565.83 737.756L2565.27 672.892L2596.61 649.256C2633.44 621.221 2677.96 590.439 2682.36 590.439C2683.46 590.439 2674.11 613.526 2660.92 641.01C2648.28 669.045 2620.8 737.756 2600.46 793.824C2536.69 970.823 2504.26 1024.14 2438.85 1057.68C2399.82 1077.47 2372.89 1097.25 2360.8 1115.95C2343.75 1142.33 2336.61 1229.73 2336.61 1412.22C2336.61 1596.37 2342.65 1654.63 2369.03 1741.49C2376.18 1764.57 2381.13 1783.26 2380.03 1783.26C2378.38 1783.26 2349.25 1761.82 2314.61 1735.99L2251.4 1688.17L2188.74 1735.99C2154.11 1761.82 2124.43 1783.26 2122.78 1783.26C2121.12 1783.26 2122.78 1774.47 2127.18 1764.03C2139.82 1733.79 2156.31 1649.13 2164 1577.68C2171.15 1501.83 2167.85 1245.67 2157.96 1175.85C2148.62 1109.89 2137.07 1096.15 2050.76 1049.98C1996.34 1020.3 1963.36 963.129 1899.6 785.578C1877.62 725.113 1850.13 656.401 1838.58 632.765C1826.5 609.678 1818.8 590.439 1820.45 590.439C1822.64 590.439 1839.14 600.883 1857.83 613.525ZM1484.59 628.367C1486.24 631.666 1515.37 651.454 1549.45 672.343C1582.98 693.78 1623.66 721.815 1639.61 734.457C1666.53 756.995 1729.2 829.553 1729.2 838.898C1729.2 844.944 1644.55 813.063 1589.03 785.578C1514.83 749.848 1484.04 724.563 1476.89 696.529C1465.9 653.653 1471.39 607.479 1484.59 628.367ZM3030.32 662.997C3028.66 684.986 3025.91 707.523 3023.72 712.469C3018.22 726.212 2953.36 767.989 2898.94 793.274C2847.27 817.461 2773.61 844.944 2773.61 839.998C2773.61 837.799 2782.41 824.606 2792.85 810.314C2824.18 767.439 2883 716.317 2941.26 680.038C2972.05 661.349 3002.82 641.01 3009.97 634.964C3017.67 628.917 3025.92 623.97 3028.66 623.42C3031.41 623.42 3031.96 641.01 3030.32 662.997ZM1764.93 683.886C1781.97 714.119 1801.76 752.597 1809.45 769.087L1823.2 799.32L1811.66 815.811C1805.06 825.155 1797.91 839.448 1795.71 847.144C1791.87 860.886 1790.77 860.336 1765.48 824.606C1751.18 804.268 1724.8 771.836 1706.66 753.147C1685.22 730.06 1675.34 715.219 1676.98 708.072C1678.08 702.575 1680.28 691.032 1682.48 682.786C1685.78 665.197 1716.01 628.917 1726.45 628.917C1730.85 628.917 1747.89 653.653 1764.93 683.886ZM2796.7 643.758C2813.74 662.448 2820.33 675.641 2825.28 699.827C2828.03 716.317 2825.83 721.265 2792.85 756.445C2773.06 777.883 2747.22 809.765 2735.13 827.905L2713.69 860.336L2704.9 839.448C2699.95 828.454 2692.26 814.712 2687.3 809.215C2678.51 799.87 2679.61 796.022 2701.6 753.696C2747.77 664.647 2769.21 628.917 2775.81 628.917C2779.66 628.917 2789 635.514 2796.7 643.758ZM2009.55 738.854L2029.33 749.299L2024.38 792.174C2022.18 815.811 2021.09 858.687 2022.74 887.271L2026.03 939.494L2012.84 923C1994.15 900.464 1967.21 845.494 1960.62 815.811C1957.32 802.069 1955.13 767.439 1955.13 738.854V686.634L1972.17 707.523C1981.51 719.066 1998 732.808 2009.55 738.854ZM2539.99 826.255C2531.19 855.938 2508.66 899.364 2489.42 924.098C2480.08 936.192 2479.52 933.443 2478.97 841.646L2478.43 746L2494.37 739.404C2503.16 735.556 2518 722.913 2527.9 711.371L2545.48 689.932L2547.14 742.702C2548.23 778.982 2546.04 804.817 2539.99 826.255ZM1865.52 897.165C1880.37 935.647 1896.86 982.364 1902.35 1000.51L1911.69 1034.03L1897.4 1048.33L1883.66 1062.07L1868.82 1023.05C1860.58 1001.05 1842.98 961.478 1829.24 934.541C1810 894.966 1805.6 881.224 1808.35 866.383C1811.66 844.395 1826.5 819.659 1833.64 824.057C1836.39 825.705 1850.68 858.687 1865.52 897.165ZM2694.45 863.084C2697.2 879.025 2692.8 892.768 2667.52 946.635C2651.03 981.82 2634.54 1020.84 2630.69 1032.94C2620.8 1064.27 2620.8 1063.72 2604.86 1048.33L2590.56 1033.49L2602.65 995.012C2618.05 946.09 2639.48 888.37 2657.07 848.792L2670.26 818.559L2680.71 831.202C2686.21 838.348 2692.26 852.64 2694.45 863.084ZM1950.17 1117.59C1958.97 1126.39 1976.01 1137.38 1987.55 1142.87C2006.8 1151.67 2008.44 1153.87 2003.49 1165.96C1996.9 1183 1996.9 1220.38 2003.49 1243.47C2007.89 1258.31 2007.34 1261.06 1999.09 1261.06C1983.71 1261.06 1941.93 1237.42 1930.94 1222.03C1925.44 1214.33 1915 1182.45 1907.3 1151.67C1895.21 1098.9 1894.66 1094.51 1902.9 1075.26L1911.69 1054.93L1922.69 1078.01C1928.73 1091.2 1940.83 1108.8 1950.17 1117.59ZM2604.86 1084.06C2607.61 1098.35 2592.21 1177.5 2580.67 1206.64C2572.98 1226.43 2549.33 1247.31 2526.79 1255.01C2497.66 1264.9 2492.72 1263.25 2498.77 1246.77C2505.91 1229.18 2505.91 1173.1 2498.77 1162.12C2494.91 1156.07 2500.41 1150.57 2522.4 1138.48C2554.29 1121.43 2572.42 1102.2 2581.77 1075.26C2586.17 1061.53 2589.46 1058.78 2594.96 1063.17C2598.81 1066.47 2603.21 1075.82 2604.86 1084.06ZM2123.33 1164.31C2123.87 1164.87 2126.08 1187.95 2128.83 1215.98L2133.77 1266.56H2083.2C2051.87 1266.56 2030.98 1264.36 2028.23 1260.51C2022.74 1251.17 2018.34 1186.85 2022.74 1170.91C2026.03 1157.16 2026.03 1157.16 2074.41 1160.47C2100.79 1162.12 2122.78 1163.76 2123.33 1164.31ZM2480.08 1168.71C2485.58 1186.3 2483.92 1234.12 2477.33 1251.71C2471.83 1266 2470.73 1266.56 2421.81 1266.56H2372.34V1247.87C2372.34 1237.98 2373.99 1214.33 2375.63 1196.2L2379.49 1162.66L2415.76 1160.47C2435.55 1159.37 2457.54 1158.27 2464.14 1157.72C2472.37 1157.16 2477.33 1160.47 2480.08 1168.71Z" stroke="#C9A48A"/>
</g>
<path d="M2028.59 150.201L2028.55 145.684L2061.52 142.387C2110.65 136.869 2179.11 140.713 2217.94 151.804C2233.64 156.211 2242.43 158.318 2251.21 158.384C2260.01 158.45 2268.93 156.474 2284.92 152.341L2284.93 152.338C2313.25 145.187 2332.1 141.163 2351.18 139.497C2370.27 137.831 2389.52 138.531 2418.68 140.732L2474.21 145.129L2474.23 149.65L2424.76 154.048L2424.74 154.049C2366.12 158.98 2338.85 164.986 2290.71 183.584C2290.71 183.585 2290.7 183.586 2290.7 183.587L2254.43 197.874L2253.63 198.193L2252.81 197.889L2220.39 185.8C2220.39 185.8 2220.38 185.799 2220.38 185.798C2165.03 165.52 2135.56 158.43 2081.39 154.601L2081.36 154.599L2028.59 150.201Z" fill="#C9A48A" stroke="#C9A48A" stroke-width="0.5"/>
<path d="M2280.06 891.645L2279.98 891.566C2272.13 883.2 2261.18 878.541 2251.4 878.541C2243.06 878.541 2232.57 883.419 2224.04 890.334C2219.82 893.761 2216.19 897.6 2213.63 901.419C2211.06 905.271 2209.69 908.92 2209.69 912.005C2209.69 917.675 2212.4 922.847 2217.12 927.22C2221.84 931.602 2228.5 935.077 2236.09 937.236C2251.31 941.573 2269.5 940.421 2281.98 931.593L2282 931.575C2289.52 926.385 2292.8 920.315 2292.57 913.874C2292.32 907.284 2288.38 899.695 2280.06 891.645ZM2199.62 938.724C2191.92 929.307 2188.34 919.39 2189.3 909.246C2190.26 899.143 2195.7 889.197 2205.28 879.616C2212.22 872.676 2217.59 868.398 2224.47 865.959C2231.26 863.547 2239.32 863.011 2251.4 863.011C2263.49 863.011 2271.54 863.547 2278.34 865.959C2285.22 868.398 2290.59 872.676 2297.53 879.616C2307.11 889.197 2312.55 899.143 2313.51 909.246C2314.47 919.39 2310.89 929.307 2303.18 938.724C2298.34 944.703 2294.11 948.387 2286.48 950.41C2279.13 952.352 2268.65 952.751 2251.4 952.751C2234.16 952.751 2223.68 952.352 2216.33 950.41C2208.7 948.387 2204.47 944.703 2199.62 938.724Z" fill="#C9A48A" stroke="#C9A48A" stroke-width="0.5"/>
<path d="M2250.3 1613.93C2250.3 1613.93 2250.31 1613.93 2250.32 1613.91C2250.31 1613.92 2250.3 1613.93 2250.3 1613.93ZM2205.19 1297.68C2196.11 1236.11 2187.87 1179.62 2181.96 1138.25C2179 1117.56 2176.63 1100.66 2175.04 1088.77C2174.24 1082.84 2173.63 1078.15 2173.24 1074.87C2173.04 1073.23 2172.9 1071.94 2172.81 1071C2172.77 1070.53 2172.74 1070.14 2172.72 1069.82C2172.71 1069.67 2172.71 1069.51 2172.71 1069.37C2172.71 1069.3 2172.72 1069.12 2172.75 1068.91C2172.8 1068.52 2172.86 1068.11 2172.98 1067.73C2173.09 1067.35 2173.3 1066.8 2173.75 1066.33C2174.29 1065.77 2175.09 1065.41 2175.99 1065.51C2176.73 1065.6 2177.28 1065.98 2177.59 1066.23C2178.2 1066.75 2178.72 1067.49 2179.15 1068.21C2179.61 1068.97 2180.1 1069.92 2180.61 1071.02C2182.65 1075.38 2185.33 1082.7 2188.28 1091.81C2194.22 1110.09 2201.38 1135.99 2206.89 1161.07C2214.06 1192.49 2224.38 1251.78 2232.9 1306.61C2237.16 1334.03 2240.97 1360.37 2243.73 1381.58C2246.47 1402.72 2248.17 1418.92 2248.17 1425.97C2248.17 1430.2 2248.71 1434.12 2249.47 1436.91C2249.6 1437.37 2249.72 1437.77 2249.84 1438.15C2250.02 1437.56 2250.21 1436.88 2250.41 1436.11C2251.33 1432.48 2252.44 1427.16 2253.64 1420.55C2256.03 1407.33 2258.78 1389.11 2261.25 1369.07V1369.06C2269.78 1302.75 2283.8 1223.4 2296.6 1163.02C2302.99 1132.84 2309.09 1107.35 2314.04 1090.58C2316.51 1082.24 2318.73 1075.9 2320.63 1072.23C2321.1 1071.29 2321.59 1070.47 2322.1 1069.8C2322.56 1069.19 2323.2 1068.5 2324.03 1068.1C2324.48 1067.88 2325.03 1067.73 2325.66 1067.77C2326.29 1067.81 2326.85 1068.05 2327.3 1068.38C2328.12 1068.99 2328.57 1069.89 2328.84 1070.63L2328.87 1070.7C2329.02 1071.18 2329.03 1071.73 2329.04 1071.98C2329.04 1072.34 2329.03 1072.79 2329 1073.3C2328.96 1074.31 2328.84 1075.68 2328.69 1077.38C2328.36 1080.77 2327.82 1085.55 2327.08 1091.57C2325.61 1103.59 2323.36 1120.58 2320.51 1141.26C2314.81 1182.63 2306.69 1238.85 2297.62 1299.88C2279.48 1422.45 2263.01 1543.81 2260.81 1570.15C2259.99 1583.38 2258.74 1595.13 2257.43 1603.46C2256.77 1607.61 2256.08 1611 2255.4 1613.3C2255.06 1614.42 2254.68 1615.46 2254.22 1616.22C2254 1616.58 2253.64 1617.09 2253.07 1617.46C2252.37 1617.92 2251.38 1618.13 2250.39 1617.64C2249.7 1617.29 2249.28 1616.72 2249.07 1616.38C2248.82 1615.99 2248.61 1615.55 2248.43 1615.1C2248.06 1614.2 2247.72 1613.04 2247.39 1611.69C2246.72 1608.99 2246.04 1605.29 2245.38 1600.9C2244.06 1592.1 2242.82 1580.36 2242 1567.94C2240.35 1542.77 2223.89 1421.41 2205.19 1297.68Z" fill="#C9A48A"/>
<path d="M2252.91 1613.97C2252.91 1613.97 2252.91 1613.96 2252.89 1613.94M2250.3 1613.93C2250.3 1613.93 2250.31 1613.93 2250.32 1613.91C2250.31 1613.92 2250.3 1613.93 2250.3 1613.93ZM2205.19 1297.68C2196.11 1236.11 2187.87 1179.62 2181.96 1138.25C2179 1117.56 2176.63 1100.66 2175.04 1088.77C2174.24 1082.84 2173.63 1078.15 2173.24 1074.87C2173.04 1073.23 2172.9 1071.94 2172.81 1071C2172.77 1070.53 2172.74 1070.14 2172.72 1069.82C2172.71 1069.67 2172.71 1069.51 2172.71 1069.37C2172.71 1069.3 2172.72 1069.12 2172.75 1068.91C2172.8 1068.52 2172.86 1068.11 2172.98 1067.73C2173.09 1067.35 2173.3 1066.8 2173.75 1066.33C2174.29 1065.77 2175.09 1065.41 2175.99 1065.51C2176.73 1065.6 2177.28 1065.98 2177.59 1066.23C2178.2 1066.75 2178.72 1067.49 2179.15 1068.21C2179.61 1068.97 2180.1 1069.92 2180.61 1071.02C2182.65 1075.38 2185.33 1082.7 2188.28 1091.81C2194.22 1110.09 2201.38 1135.99 2206.89 1161.07C2214.06 1192.49 2224.38 1251.78 2232.9 1306.61C2237.16 1334.03 2240.97 1360.37 2243.73 1381.58C2246.47 1402.72 2248.17 1418.92 2248.17 1425.97C2248.17 1430.2 2248.71 1434.12 2249.47 1436.91C2249.6 1437.37 2249.72 1437.77 2249.84 1438.15C2250.02 1437.56 2250.21 1436.88 2250.41 1436.11C2251.33 1432.48 2252.44 1427.16 2253.64 1420.55C2256.03 1407.33 2258.78 1389.11 2261.25 1369.07V1369.06C2269.78 1302.75 2283.8 1223.4 2296.6 1163.02C2302.99 1132.84 2309.09 1107.35 2314.04 1090.58C2316.51 1082.24 2318.73 1075.9 2320.63 1072.23C2321.1 1071.29 2321.59 1070.47 2322.1 1069.8C2322.56 1069.19 2323.2 1068.5 2324.03 1068.1C2324.48 1067.88 2325.03 1067.73 2325.66 1067.77C2326.29 1067.81 2326.85 1068.05 2327.3 1068.38C2328.12 1068.99 2328.57 1069.89 2328.84 1070.63L2328.87 1070.7C2329.02 1071.18 2329.03 1071.73 2329.04 1071.98C2329.04 1072.34 2329.03 1072.79 2329 1073.3C2328.96 1074.31 2328.84 1075.68 2328.69 1077.38C2328.36 1080.77 2327.82 1085.55 2327.08 1091.57C2325.61 1103.59 2323.36 1120.58 2320.51 1141.26C2314.81 1182.63 2306.69 1238.85 2297.62 1299.88C2279.48 1422.45 2263.01 1543.81 2260.81 1570.15C2259.99 1583.38 2258.74 1595.13 2257.43 1603.46C2256.77 1607.61 2256.08 1611 2255.4 1613.3C2255.06 1614.42 2254.68 1615.46 2254.22 1616.22C2254 1616.58 2253.64 1617.09 2253.07 1617.46C2252.37 1617.92 2251.38 1618.13 2250.39 1617.64C2249.7 1617.29 2249.28 1616.72 2249.07 1616.38C2248.82 1615.99 2248.61 1615.55 2248.43 1615.1C2248.06 1614.2 2247.72 1613.04 2247.39 1611.69C2246.72 1608.99 2246.04 1605.29 2245.38 1600.9C2244.06 1592.1 2242.82 1580.36 2242 1567.94C2240.35 1542.77 2223.89 1421.41 2205.19 1297.68Z" stroke="#C9A48A" stroke-width="0.5"/>
</g>
<defs>
<filter id="filter0_dd_145_357" x="2380.59" y="389.137" width="2251.99" height="2321.87" filterUnits="userSpaceOnUse" color-interpolation-filters="sRGB">
<feFlood flood-opacity="0" result="BackgroundImageFix"/>
<feColorMatrix in="SourceAlpha" type="matrix" values="0 0 0 0 0 0 0 0 0 0 0 0 0 0 0 0 0 0 127 0" result="hardAlpha"/>
<feOffset dx="4" dy="4"/>
<feGaussianBlur stdDeviation="2"/>
<feComposite in2="hardAlpha" operator="out"/>
<feColorMatrix type="matrix" values="0 0 0 0 0 0 0 0 0 0 0 0 0 0 0 0 0 0 0.28 0"/>
<feBlend mode="normal" in2="BackgroundImageFix" result="effect1_dropShadow_145_357"/>
<feColorMatrix in="SourceAlpha" type="matrix" values="0 0 0 0 0 0 0 0 0 0 0 0 0 0 0 0 0 0 127 0" result="hardAlpha"/>
<feOffset dy="4"/>
<feGaussianBlur stdDeviation="2.5"/>
<feComposite in2="hardAlpha" operator="out"/>
<feColorMatrix type="matrix" values="0 0 0 0 0.54902 0 0 0 0 0.411765 0 0 0 0 0.317647 0 0 0 1 0"/>
<feBlend mode="normal" in2="effect1_dropShadow_145_357" result="effect2_dropShadow_145_357"/>
<feBlend mode="normal" in="SourceGraphic" in2="effect2_dropShadow_145_357" result="shape"/>
</filter>
<filter id="filter1_dd_145_357" x="0" y="390.137" width="2252.99" height="2319.87" filterUnits="userSpaceOnUse" color-interpolation-filters="sRGB">
<feFlood flood-opacity="0" result="BackgroundImageFix"/>
<feColorMatrix in="SourceAlpha" type="matrix" values="0 0 0 0 0 0 0 0 0 0 0 0 0 0 0 0 0 0 127 0" result="hardAlpha"/>
<feOffset dx="-4" dy="4"/>
<feGaussianBlur stdDeviation="2"/>
<feComposite in2="hardAlpha" operator="out"/>
<feColorMatrix type="matrix" values="0 0 0 0 0 0 0 0 0 0 0 0 0 0 0 0 0 0 0.28 0"/>
<feBlend mode="normal" in2="BackgroundImageFix" result="effect1_dropShadow_145_357"/>
<feColorMatrix in="SourceAlpha" type="matrix" values="0 0 0 0 0 0 0 0 0 0 0 0 0 0 0 0 0 0 127 0" result="hardAlpha"/>
<feOffset dx="2" dy="4"/>
<feGaussianBlur stdDeviation="2"/>
<feComposite in2="hardAlpha" operator="out"/>
<feColorMatrix type="matrix" values="0 0 0 0 0.54902 0 0 0 0 0.411765 0 0 0 0 0.317647 0 0 0 1 0"/>
<feBlend mode="normal" in2="effect1_dropShadow_145_357" result="effect2_dropShadow_145_357"/>
<feBlend mode="normal" in="SourceGraphic" in2="effect2_dropShadow_145_357" result="shape"/>
</filter>
<filter id="filter2_d_145_357" x="301.515" y="1461.84" width="4106.27" height="384.6" filterUnits="userSpaceOnUse" color-interpolation-filters="sRGB">
<feFlood flood-opacity="0" result="BackgroundImageFix"/>
<feColorMatrix in="SourceAlpha" type="matrix" values="0 0 0 0 0 0 0 0 0 0 0 0 0 0 0 0 0 0 127 0" result="hardAlpha"/>
<feOffset dy="4"/>
<feGaussianBlur stdDeviation="2"/>
<feComposite in2="hardAlpha" operator="out"/>
<feColorMatrix type="matrix" values="0 0 0 0 0 0 0 0 0 0 0 0 0 0 0 0 0 0 0.25 0"/>
<feBlend mode="normal" in2="BackgroundImageFix" result="effect1_dropShadow_145_357"/>
<feBlend mode="normal" in="SourceGraphic" in2="effect1_dropShadow_145_357" result="shape"/>
</filter>
<filter id="filter3_dd_145_357" x="1332.82" y="6.57324" width="1837.42" height="1834.66" filterUnits="userSpaceOnUse" color-interpolation-filters="sRGB">
<feFlood flood-opacity="0" result="BackgroundImageFix"/>
<feColorMatrix in="SourceAlpha" type="matrix" values="0 0 0 0 0 0 0 0 0 0 0 0 0 0 0 0 0 0 127 0" result="hardAlpha"/>
<feOffset dy="4"/>
<feGaussianBlur stdDeviation="2"/>
<feComposite in2="hardAlpha" operator="out"/>
<feColorMatrix type="matrix" values="0 0 0 0 0 0 0 0 0 0 0 0 0 0 0 0 0 0 0.25 0"/>
<feBlend mode="normal" in2="BackgroundImageFix" result="effect1_dropShadow_145_357"/>
<feColorMatrix in="SourceAlpha" type="matrix" values="0 0 0 0 0 0 0 0 0 0 0 0 0 0 0 0 0 0 127 0" result="hardAlpha"/>
<feOffset dy="2"/>
<feGaussianBlur stdDeviation="2"/>
<feComposite in2="hardAlpha" operator="out"/>
<feColorMatrix type="matrix" values="0 0 0 0 0.54902 0 0 0 0 0.411765 0 0 0 0 0.317647 0 0 0 1 0"/>
<feBlend mode="normal" in2="effect1_dropShadow_145_357" result="effect2_dropShadow_145_357"/>
<feBlend mode="normal" in="SourceGraphic" in2="effect2_dropShadow_145_357" result="shape"/>
</filter>
<linearGradient id="paint0_linear_145_357" x1="2348.82" y1="1351.87" x2="2348.82" y2="2032.34" gradientUnits="userSpaceOnUse">
<stop stop-color="#C9A48A"/>
<stop offset="1" stop-color="#C9A48A" stop-opacity="0"/>
</linearGradient>
</defs>
</svg>
