<svg width="576" height="76" viewBox="0 0 576 76" fill="none" xmlns="http://www.w3.org/2000/svg">
<g opacity="0.8" filter="url(#filter0_di_137_123)">
<path fill-rule="evenodd" clip-rule="evenodd" d="M58.5352 8.70605C52.7637 3.16895 45.3369 0.400391 36.2549 0.400391C28.667 0.400391 22.1045 2.24609 16.5674 5.9375C11.0303 9.59961 6.88477 14.3457 4.13086 20.1758C1.37695 26.0059 0 31.6895 0 37.2266C0 40.575 0.475947 43.7282 1.42784 46.6862C4.12123 46.8403 6.97111 47.0028 9.88565 47.1682C6.57647 41.7212 4.92188 35.6973 4.92188 29.0967C4.92188 21.9189 7.5293 15.9131 12.7441 11.0791C17.9883 6.24512 23.8184 3.82812 30.2344 3.82812C34.7754 3.82812 39.7119 5.27832 45.0439 8.17871C50.4053 11.0791 54.7559 15.0928 58.0957 20.2197C61.4648 25.3467 63.1494 31.0449 63.1494 37.3145C63.1494 41.4576 62.0573 45.4979 59.8731 49.4354C60.622 49.4597 61.37 49.4836 62.1172 49.507C65.5007 43.6448 67.1924 36.9292 67.1924 29.3604C67.1924 21.0986 64.3066 14.2139 58.5352 8.70605ZM57.0058 56.3914C56.1992 56.3284 55.4021 56.2651 54.6137 56.2015C52.9994 57.7007 51.1864 59.0075 49.1748 60.1221C44.8389 62.4951 40.4443 63.6816 35.9912 63.6816C28.0518 63.6816 20.8887 60.21 14.502 53.2666C14.0092 52.7309 13.5355 52.1886 13.0808 51.6397C9.64433 51.1502 6.13311 50.6097 2.75944 50.0594C4.16166 53.0323 6.09829 55.7859 8.56934 58.3203C14.2822 64.1797 21.6211 67.1094 30.5859 67.1094C41.539 67.1094 50.3456 63.5367 57.0058 56.3914ZM79.8486 57.9664C80.8178 58.0252 81.7529 58.081 82.6611 58.1339V59.8145C82.6611 61.3379 82.7783 62.4658 83.0127 63.1982C83.2471 63.9307 83.584 64.4287 84.0234 64.6924C84.4629 64.9561 85.5615 65.2197 87.3193 65.4834V66.0986H74.8828V65.4834C77.1094 65.4834 78.4863 65.0879 79.0137 64.2969C79.5703 63.5059 79.8486 61.6162 79.8486 58.6279V57.9664ZM82.6611 50.0412C81.7264 50.022 80.7889 50.0021 79.8486 49.9813V14.8145C79.8486 10.9766 79.3066 7.8418 78.2227 5.41016C77.168 2.97852 74.707 1.85059 70.8398 2.02637V1.36719H83.0127L128.954 50.3048C125.675 50.3456 122.283 50.3715 118.793 50.3827L82.6611 11.9141V50.0412ZM126.967 59.086L134.297 66.8896V59.0894C131.69 59.0893 129.253 59.0883 126.967 59.086ZM150.469 59.0958V60.8691C150.469 62.8906 150.073 64.1504 149.282 64.6484C148.521 65.1172 147.393 65.3955 145.898 65.4834V66.0986H190.151V57.9544C189.898 57.9707 189.648 57.9868 189.4 58.0026C189.03 60.0588 188.533 61.4244 187.91 62.0996C187.207 62.832 186.343 63.3301 185.317 63.5938C184.321 63.8281 182.007 63.9453 178.374 63.9453H166.948C164.487 63.9453 162.642 63.7842 161.411 63.4619C160.21 63.1104 159.331 62.2754 158.774 60.957C158.564 60.4475 158.393 59.8186 158.262 59.0704C155.907 59.084 153.331 59.0919 150.469 59.0958ZM157.939 49.3549C156.421 49.4472 154.933 49.532 153.484 49.6087C152.501 49.6574 151.496 49.7038 150.469 49.7478V8.57422C150.469 6.20117 150.264 4.53125 149.854 3.56445C149.443 2.59766 148.125 2.11426 145.898 2.11426V1.36719H186.592V10.2881H185.933C185.054 6.97754 184.307 5.0293 183.691 4.44336C183.105 3.85742 181.641 3.56445 179.297 3.56445H157.939V32.6123H177.759C179.722 32.6123 180.967 32.4365 181.494 32.085C182.021 31.7041 182.3 31.1621 182.329 30.459H182.988V36.5674H182.329C182.183 35.7178 181.831 35.1465 181.274 34.8535C180.747 34.5605 179.751 34.4141 178.286 34.4141H157.939V49.3549ZM221.529 55.6118C222.258 57.607 223.297 59.1836 224.648 60.3418C227.52 62.8027 231.987 64.0332 238.052 64.0332C243.56 64.0332 247.734 62.7295 250.576 60.1221C253.096 57.834 254.51 55.1398 254.818 52.0395C255.922 51.898 257.026 51.754 258.132 51.6076C258.057 52.0037 257.97 52.3956 257.871 52.7832C257.461 54.3652 256.802 55.9033 255.894 57.3975C254.985 58.8623 253.887 60.21 252.598 61.4404C251.338 62.6416 250.049 63.5645 248.73 64.209C247.412 64.8242 245.332 65.293 242.49 65.6152C239.648 65.9375 237.773 66.0986 236.865 66.0986H219.595V55.7799C220.243 55.7242 220.887 55.6682 221.529 55.6118ZM254.262 36.4436C250.889 37.1401 247.526 37.8218 244.242 38.4746C242.768 37.8782 241.041 37.2424 239.062 36.5674C234.111 34.8389 230.625 33.3301 228.604 32.041C226.611 30.7227 224.941 28.7598 223.594 26.1523C222.246 23.5156 221.572 20.835 221.572 18.1104C221.572 13.1006 223.286 8.89648 226.714 5.49805C230.171 2.09961 234.697 0.400391 240.293 0.400391C242.461 0.400391 244.805 0.649414 247.324 1.14746C249.844 1.64551 251.25 1.96777 251.543 2.11426C251.66 2.17285 251.777 2.20215 251.895 2.20215L254.971 10.2881L254.443 10.376C254.443 10.3467 253.623 9.48242 251.982 7.7832C250.371 6.08398 248.511 4.78027 246.401 3.87207C244.321 2.93457 241.963 2.46582 239.326 2.46582C234.902 2.46582 231.387 3.74023 228.779 6.28906C226.201 8.80859 224.912 11.8555 224.912 15.4297C224.912 17.8027 225.513 19.8828 226.714 21.6699C227.944 23.4277 230.493 25.0684 234.36 26.5918C241.011 28.8184 245.552 30.5029 247.983 31.6455C250.156 32.6284 252.249 34.2277 254.262 36.4436ZM268.594 50.1551V60.8691C268.594 62.8906 268.198 64.1504 267.407 64.6484C266.646 65.1172 265.518 65.3955 264.023 65.4834V66.0986H308.276V57.1777H307.661C307.28 59.6973 306.738 61.3379 306.035 62.0996C305.332 62.832 304.468 63.3301 303.442 63.5938C302.446 63.8281 300.132 63.9453 296.499 63.9453H285.073C282.612 63.9453 280.767 63.7842 279.536 63.4619C278.335 63.1104 277.456 62.2754 276.899 60.957C276.343 59.6094 276.064 57.4268 276.064 54.4092V49.0479C273.732 49.4044 271.267 49.768 268.594 50.1551ZM276.064 31.7565C273.651 32.2986 271.149 32.8509 268.594 33.4068V8.57422C268.594 6.20117 268.389 4.53125 267.979 3.56445C267.568 2.59766 266.25 2.11426 264.023 2.11426V1.36719H304.717V10.2881H304.058C303.179 6.97754 302.432 5.0293 301.816 4.44336C301.23 3.85742 299.766 3.56445 297.422 3.56445H276.064V31.7565ZM317.461 40.612V59.3311C317.461 61.7627 317.197 63.374 316.67 64.165C316.172 64.9561 314.883 65.3955 312.803 65.4834V66.0986H329.546V65.4834C327.524 65.4834 326.25 65.0586 325.723 64.209C325.195 63.3301 324.932 61.8945 324.932 59.9023V38.7938C322.274 39.4454 319.792 40.0496 317.461 40.612ZM336.556 35.9241L342.422 44.9609C342.422 45.0195 342.451 45.0781 342.51 45.1367C349.189 55.0977 353.877 61.1914 356.572 63.418C359.268 65.6152 362.49 66.7139 366.24 66.7139C371.865 66.7139 376.436 65.2783 379.951 62.4072L379.688 61.5283C376.875 63.1982 374.385 64.0332 372.217 64.0332C370.02 64.0332 367.749 63.3887 365.405 62.0996C363.062 60.7812 359.736 57.1484 355.43 51.2012C351.152 45.2539 348.516 41.4014 347.52 39.6436L343.913 34.0957C343.088 34.3006 342.254 34.5077 341.414 34.7171C339.741 35.1333 338.123 35.5354 336.556 35.9241ZM354.272 14.887C354.176 12.3669 353.625 10.2187 352.617 8.44238C351.504 6.4502 349.849 4.88281 347.651 3.74023C345.483 2.56836 343.359 1.87988 341.279 1.6748C339.199 1.46973 335.83 1.36719 331.172 1.36719H312.803V2.02637C315.029 2.05566 316.362 2.62695 316.802 3.74023C317.241 4.82422 317.461 6.20117 317.461 7.87109V21.7771C320.017 21.1978 322.494 20.6554 324.932 20.1411V3.08105H330.249C336.636 3.08105 341.089 4.86816 343.608 8.44238C345.353 10.8682 346.5 13.3969 347.051 16.0284C349.17 15.6822 351.349 15.3375 353.611 14.9895C353.831 14.9552 354.051 14.9211 354.272 14.887ZM379.386 25.683L396.123 67.1094H396.958L416.4 18.5918C415.414 18.7459 414.427 18.903 413.438 19.0634L399.111 54.8486L386.728 24.093C384.339 24.5983 381.896 25.1276 379.386 25.683ZM381.567 11.2755C378.99 11.5632 376.444 11.8613 373.927 12.1702L373.096 10.1123C371.455 6.09863 370.107 3.75488 369.053 3.08105C367.998 2.37793 366.914 2.02637 365.801 2.02637V1.36719H380.742V2.02637C379.424 1.93848 378.765 2.45117 378.765 3.56445C378.765 4.00391 378.853 4.47266 379.028 4.9707L381.567 11.2755ZM417.845 8.05646C418.791 7.99155 419.743 7.92761 420.699 7.86462L421.172 6.68457C421.201 6.59668 421.611 5.89355 422.402 4.5752C423.193 3.25684 423.955 2.50977 424.688 2.33398C425.449 2.12891 426.167 2.02637 426.841 2.02637V1.36719H417.129V2.02637C418.682 1.93848 419.458 2.39258 419.458 3.38867C419.458 3.79883 419.326 4.34082 419.062 5.01465L417.845 8.05646ZM435.234 16.0003V58.54C435.234 61.499 434.971 63.4033 434.443 64.2529C433.916 65.0732 432.568 65.4834 430.4 65.4834V66.0986H447.671V65.4834C446.06 65.4834 444.932 65.293 444.287 64.9121C443.672 64.502 443.247 64.0039 443.013 63.418C442.808 62.8027 442.705 61.1475 442.705 58.4521V15.143C440.165 15.4209 437.68 15.7057 435.234 16.0003ZM442.732 6.62254C440.175 6.74448 437.654 6.87178 435.167 7.00457C435.049 5.21237 434.779 3.97777 434.355 3.30078C433.77 2.33398 432.451 1.90918 430.4 2.02637V1.36719H447.671V2.02637C446.821 1.93848 445.869 2.07031 444.814 2.42188C443.789 2.77344 443.174 3.28613 442.969 3.95996C442.849 4.41907 442.77 5.3066 442.732 6.62254ZM461.655 13.2704C460.454 14.7545 459.381 16.3531 458.438 18.0664C455.449 23.5156 453.955 29.1992 453.955 35.1172C453.955 43.877 456.87 51.4062 462.7 57.7051C468.56 63.9746 478.271 67.1094 491.836 67.1094C495.498 67.1094 498.413 66.9629 500.581 66.6699C502.778 66.377 507.539 65.4395 514.863 63.8574L519.39 56.9141L518.818 56.7383C516.533 59.375 513.047 61.4844 508.359 63.0664C503.701 64.6191 498.94 65.3955 494.077 65.3955C486.665 65.3955 480.352 63.4766 475.137 59.6387C469.922 55.7715 466.099 50.8496 463.667 44.873C461.265 38.8965 460.063 33.6084 460.063 29.0088C460.063 22.9104 461.884 17.5498 465.524 12.9271C464.258 13.038 462.969 13.1524 461.655 13.2704ZM474.452 5.48025C473.185 5.50832 471.935 5.53796 470.703 5.56917C470.948 5.42598 471.195 5.28509 471.445 5.14648C477.1 1.98242 483.56 0.400391 490.825 0.400391C494.458 0.400391 497.593 0.737305 500.229 1.41113C502.896 2.05566 505.107 2.72949 506.865 3.43262L509.766 4.53125C509.854 4.56055 509.912 4.58984 509.941 4.61914L510.111 5.09935C507.722 5.10138 505.336 5.10773 502.962 5.11841C498.864 3.11564 494.408 2.11426 489.595 2.11426C483.826 2.11426 478.779 3.23625 474.452 5.48025ZM510.324 10.132C510.803 10.5622 511.276 11.0098 511.743 11.4746H512.358L511.869 10.086C511.351 10.1009 510.836 10.1162 510.324 10.132ZM528.223 9.76395V60.8691C528.223 62.8906 527.827 64.1504 527.036 64.6484C526.274 65.1172 525.146 65.3955 523.652 65.4834V66.0986H567.905V57.1777H567.29C566.909 59.6973 566.367 61.3379 565.664 62.0996C564.961 62.832 564.097 63.3301 563.071 63.5938C562.075 63.8281 559.761 63.9453 556.128 63.9453H544.702C542.241 63.9453 540.396 63.7842 539.165 63.4619C537.964 63.1104 537.085 62.2754 536.528 60.957C535.972 59.6094 535.693 57.4268 535.693 54.4092V34.4141H556.04C557.505 34.4141 558.501 34.5605 559.028 34.8535C559.585 35.1465 559.937 35.7178 560.083 36.5674H560.742V30.459H560.083C560.054 31.1621 559.775 31.7041 559.248 32.085C558.721 32.4365 557.476 32.6123 555.513 32.6123H535.693V9.69368C533.107 9.71183 530.622 9.73508 528.223 9.76395ZM562.255 5.82007C561.964 5.13893 561.694 4.68002 561.445 4.44336C560.859 3.85742 559.395 3.56445 557.051 3.56445H535.693V5.24505C533.164 5.21333 530.602 5.18673 528.017 5.16529C527.917 4.5063 527.781 3.97269 527.607 3.56445C527.197 2.59766 525.879 2.11426 523.652 2.11426V1.36719H564.346V5.89153C563.657 5.86716 562.961 5.84334 562.255 5.82007ZM563.516 9.65728C563.572 9.86175 563.629 10.072 563.687 10.2881H564.346V9.65948C564.068 9.65873 563.792 9.65799 563.516 9.65728ZM134.297 50.2232C133.384 50.2398 132.461 50.2552 131.528 50.2693V7.34375C131.528 4.88281 131.089 3.38867 130.21 2.86133C129.331 2.30469 128.203 2.02637 126.826 2.02637V1.36719H139.351V2.02637C137.446 2.08496 136.128 2.49512 135.396 3.25684C134.663 3.98926 134.297 5.55664 134.297 7.95898V50.2232Z" fill="#C9A48A"/>
</g>
<defs>
<filter id="filter0_di_137_123" x="0" y="0.400391" width="575.905" height="74.709" filterUnits="userSpaceOnUse" color-interpolation-filters="sRGB">
<feFlood flood-opacity="0" result="BackgroundImageFix"/>
<feColorMatrix in="SourceAlpha" type="matrix" values="0 0 0 0 0 0 0 0 0 0 0 0 0 0 0 0 0 0 127 0" result="hardAlpha"/>
<feOffset dx="4" dy="4"/>
<feGaussianBlur stdDeviation="2"/>
<feComposite in2="hardAlpha" operator="out"/>
<feColorMatrix type="matrix" values="0 0 0 0 0 0 0 0 0 0 0 0 0 0 0 0 0 0 0.28 0"/>
<feBlend mode="normal" in2="BackgroundImageFix" result="effect1_dropShadow_137_123"/>
<feBlend mode="normal" in="SourceGraphic" in2="effect1_dropShadow_137_123" result="shape"/>
<feColorMatrix in="SourceAlpha" type="matrix" values="0 0 0 0 0 0 0 0 0 0 0 0 0 0 0 0 0 0 127 0" result="hardAlpha"/>
<feOffset dy="2"/>
<feGaussianBlur stdDeviation="2.5"/>
<feComposite in2="hardAlpha" operator="arithmetic" k2="-1" k3="1"/>
<feColorMatrix type="matrix" values="0 0 0 0 0.54902 0 0 0 0 0.411765 0 0 0 0 0.317647 0 0 0 1 0"/>
<feBlend mode="normal" in2="shape" result="effect2_innerShadow_137_123"/>
</filter>
</defs>
</svg>
