<svg width="396" height="167" viewBox="0 0 396 167" fill="none" xmlns="http://www.w3.org/2000/svg">
<g opacity="0.8" filter="url(#filter0_di_137_127)">
<path fill-rule="evenodd" clip-rule="evenodd" d="M153.784 9.32715C147.371 3.1748 139.119 0.0986328 129.028 0.0986328C120.597 0.0986328 113.306 2.14941 107.153 6.25098C101.001 10.32 96.3949 15.5934 93.335 22.0713C90.2751 28.5492 88.7451 34.8643 88.7451 41.0166C88.7451 50.1312 91.9189 57.9437 98.2666 64.4541C104.614 70.9645 112.769 74.2197 122.729 74.2197C135.002 74.2197 144.849 70.1833 152.271 62.1104C159.692 54.0374 163.403 44.0928 163.403 32.2764C163.403 23.0967 160.197 15.4469 153.784 9.32715ZM143.384 66.4561C138.566 69.0928 133.683 70.4111 128.735 70.4111C119.914 70.4111 111.955 66.5537 104.858 58.8389C97.762 51.124 94.2139 42.1722 94.2139 31.9834C94.2139 24.0081 97.111 17.335 102.905 11.9639C108.732 6.59277 115.21 3.90723 122.339 3.90723C127.384 3.90723 132.869 5.51855 138.794 8.74121C144.751 11.9639 149.585 16.4235 153.296 22.1201C157.039 27.8167 158.911 34.1481 158.911 41.1143C158.911 46.0296 157.528 50.8148 154.761 55.4697C151.994 60.1247 148.201 63.7868 143.384 66.4561ZM243.579 1.17285H229.663V1.90527C231.193 1.90527 232.446 2.21452 233.423 2.83301C234.399 3.41895 234.888 5.0791 234.888 7.81348V43.7867C235.905 43.3422 236.93 42.9084 237.964 42.485V8.49707C237.964 5.8278 238.371 4.08626 239.185 3.27246C239.998 2.42611 241.463 1.97038 243.579 1.90527V1.17285ZM237.964 72.8145C237.758 72.9803 237.551 73.1472 237.344 73.3152L237.964 73.9756V72.8145ZM222.117 86.3766C222.57 85.9708 223.019 85.5695 223.465 85.1729H230.737V85.9053C229.989 85.9053 229.191 86.0192 228.345 86.2471C227.531 86.4424 226.685 87.2725 225.806 88.7373C224.927 90.2021 224.471 90.9834 224.438 91.0811L197.534 158.22H196.606L181.661 121.226C183.865 119.768 186.064 118.173 188.511 116.244L199.927 144.597L222.095 89.2256C222.388 88.4769 222.534 87.8747 222.534 87.4189C222.534 86.9743 222.395 86.6269 222.117 86.3766ZM217.889 52.6027C218.946 51.9728 220.028 51.3439 221.144 50.71C222.525 49.9175 223.917 49.1492 225.321 48.4046L180.981 1.17285H167.456V1.90527C171.753 1.70996 174.487 2.96322 175.659 5.66504C176.864 8.36686 177.466 11.8499 177.466 16.1143V64.7959C177.466 68.1162 177.157 70.2158 176.538 71.0947C175.952 71.9736 174.422 72.4131 171.948 72.4131V73.0967H185.767V72.4131C183.813 72.1201 182.593 71.8271 182.104 71.5342C181.616 71.2412 181.242 70.6878 180.981 69.874C180.721 69.0602 180.591 67.807 180.591 66.1143V12.8916L217.889 52.6027ZM177.825 85.1729C175.293 87.3179 172.54 89.5742 169.692 91.8445C168.456 89.2244 167.402 87.6352 166.528 87.0771C165.356 86.2959 164.152 85.9053 162.915 85.9053V85.1729H177.825ZM148.997 107.293C149.747 105.281 150.122 103.213 150.122 101.091C150.122 97.9007 149.504 95.2152 148.267 93.0342C147.03 90.8206 145.19 89.0791 142.749 87.8096C140.34 86.5075 137.98 85.7425 135.669 85.5146C133.358 85.2868 129.614 85.1729 124.438 85.1729H104.028V85.9053C106.502 85.9378 107.983 86.5726 108.472 87.8096C108.96 89.014 109.204 90.5439 109.204 92.3994V124.853C113.436 123.754 117.919 122.366 122.273 120.817H117.505V87.0771H123.413C130.509 87.0771 135.457 89.0628 138.257 93.0342C141.089 96.973 142.505 101.156 142.505 105.583C142.505 108.11 142.064 110.367 141.183 112.354C143.37 111.066 146.04 109.329 148.997 107.293ZM63.208 127.483V121.892H85.8154C87.443 121.892 88.5498 122.054 89.1357 122.38C89.7542 122.705 90.1449 123.34 90.3076 124.284H91.04V117.497H90.3076C90.2751 118.278 89.9658 118.881 89.3799 119.304C88.7939 119.694 87.4105 119.89 85.2295 119.89H63.208V87.6143H86.9385C89.5426 87.6143 91.1702 87.9398 91.8213 88.5908C92.5049 89.2419 93.335 91.4066 94.3115 95.085H95.0439V85.1729H49.8291V86.0029C52.3031 86.0029 53.7679 86.54 54.2236 87.6143C54.6794 88.6885 54.9072 90.5439 54.9072 93.1807V126.809C57.7113 127.075 60.4828 127.3 63.208 127.483ZM54.9072 143.656C55.5769 143.819 56.2586 143.982 56.953 144.147C59.3286 144.694 61.3426 145.141 63.2274 145.505C63.3039 148.143 63.6067 150.103 64.1357 151.384C64.7542 152.849 65.7308 153.776 67.0654 154.167C68.4326 154.525 70.4834 154.704 73.2178 154.704H85.9131C89.9495 154.704 92.5212 154.574 93.6279 154.313C94.7673 154.021 95.7275 153.467 96.5088 152.653C97.29 151.807 97.8923 149.984 98.3154 147.185H98.999V157.097H49.8291V156.413C51.4893 156.315 52.7425 156.006 53.5889 155.485C54.4678 154.932 54.9072 153.532 54.9072 151.286V143.656ZM39.7255 124.994C37.2623 122.088 34.6894 120.029 32.0068 118.815C29.305 117.546 24.2594 115.674 16.8701 113.2C12.5732 111.507 9.74121 109.685 8.37402 107.731C7.03939 105.746 6.37207 103.435 6.37207 100.798C6.37207 96.8265 7.80436 93.4411 10.6689 90.6416C13.5661 87.8096 17.4723 86.3936 22.3877 86.3936C25.3174 86.3936 27.9378 86.9144 30.249 87.9561C32.5928 88.9652 34.6598 90.4137 36.4502 92.3018C38.2731 94.1898 39.1846 95.1501 39.1846 95.1826L39.7705 95.085L36.3525 86.1006C36.2223 86.1006 36.0921 86.068 35.9619 86.0029C35.6364 85.8402 34.0739 85.4821 31.2744 84.9287C28.4749 84.3753 25.8708 84.0986 23.4619 84.0986C17.2445 84.0986 12.2152 85.9867 8.37402 89.7627C4.56543 93.5387 2.66113 98.21 2.66113 103.776C2.66113 106.804 3.40983 109.782 4.90723 112.712C6.40462 115.609 8.26009 117.79 10.4736 119.255C10.6848 119.39 10.9103 119.526 11.1502 119.665C13.8889 120.244 16.9776 120.895 20.1058 121.546C26.5802 122.901 33.1741 124.052 39.7255 124.994ZM39.6604 139.371C40.8638 139.77 42.0948 140.16 43.3629 140.545C43.2634 141.139 43.1401 141.724 42.9932 142.302C42.5374 144.06 41.805 145.769 40.7959 147.429C39.7868 149.056 38.5661 150.554 37.1338 151.921C35.7341 153.256 34.3018 154.281 32.8369 154.997C31.3721 155.681 29.0609 156.201 25.9033 156.56C22.7458 156.918 20.6624 157.097 19.6533 157.097H0.463867V136.198H1.19629C1.26139 143.132 2.889 147.966 6.0791 150.7C9.26921 153.435 14.2334 154.802 20.9717 154.802C27.0915 154.802 31.7301 153.353 34.8877 150.456C38.0778 147.559 39.6729 144.076 39.6729 140.007C39.6729 139.792 39.6687 139.58 39.6604 139.371ZM109.204 146.911C112.395 146.757 114.903 146.491 117.505 146.046V150.212C117.505 152.425 117.798 154.021 118.384 154.997C118.97 155.941 120.386 156.413 122.632 156.413V157.097H104.028V156.413C106.34 156.315 107.772 155.827 108.325 154.948C108.911 154.069 109.204 152.279 109.204 149.577V146.911ZM141.277 140.006C146.479 147.442 150.273 152.146 152.661 154.118C155.656 156.56 159.237 157.78 163.403 157.78C169.653 157.78 174.731 156.185 178.638 152.995L178.345 152.019C175.22 153.874 172.453 154.802 170.044 154.802C167.603 154.802 165.08 154.086 162.476 152.653C159.871 151.188 156.177 147.152 151.392 140.544C150.576 139.41 149.815 138.345 149.107 137.348C146.567 138.28 143.969 139.161 141.277 140.006ZM255.933 59.9962C258.7 58.3164 261.442 56.7995 264.233 55.3971V60.1084C264.233 63.4613 264.543 65.8864 265.161 67.3838C265.78 68.8486 266.756 69.7764 268.091 70.167C269.458 70.5251 271.509 70.7041 274.243 70.7041H286.938C290.975 70.7041 293.547 70.5739 294.653 70.3135C295.793 70.0205 296.753 69.4671 297.534 68.6533C298.315 67.807 298.918 65.984 299.341 63.1846H300.024V73.0967H250.854V72.4131C252.515 72.3154 253.768 72.0062 254.614 71.4854C255.493 70.932 255.933 69.5322 255.933 67.2861V59.9962ZM264.233 34.3555C261.394 34.9916 258.63 35.6769 255.933 36.414V9.18066C255.933 6.54395 255.705 4.68848 255.249 3.61426C254.793 2.54004 253.328 2.00293 250.854 2.00293V1.17285H296.069V11.085H295.337C294.36 7.40658 293.53 5.24186 292.847 4.59082C292.196 3.93978 290.568 3.61426 287.964 3.61426H264.233V34.3555ZM253.882 85.9053V85.1729H234.692V85.9053C236.971 85.7751 238.436 86.2471 239.087 87.3213C239.738 88.363 240.063 90.5928 240.063 94.0107V148.698C240.063 151.986 239.771 154.102 239.185 155.046C238.599 155.957 237.101 156.413 234.692 156.413V157.097H253.882V156.413C252.091 156.413 250.838 156.201 250.122 155.778C249.438 155.323 248.966 154.769 248.706 154.118C248.478 153.435 248.364 151.595 248.364 148.601V93.376C248.364 90.5765 248.462 88.8024 248.657 88.0537C248.885 87.305 249.569 86.7354 250.708 86.3447C251.88 85.9541 252.938 85.8076 253.882 85.9053ZM325.757 96.4033L323.071 88.7861C323.039 88.7536 322.974 88.721 322.876 88.6885L319.653 87.4678C317.7 86.6865 315.243 85.9378 312.28 85.2217C309.351 84.473 305.868 84.0986 301.831 84.0986C293.758 84.0986 286.58 85.8564 280.298 89.3721C274.015 92.8551 269.198 97.6403 265.845 103.728C262.524 109.782 260.864 116.097 260.864 122.673C260.864 132.406 264.103 140.772 270.581 147.771C277.091 154.737 287.882 158.22 302.954 158.22C307.023 158.22 310.262 158.057 312.671 157.731C315.112 157.406 320.402 156.364 328.54 154.606L333.569 146.892L332.935 146.696C330.396 149.626 326.522 151.97 321.313 153.728C316.138 155.453 310.848 156.315 305.444 156.315C297.209 156.315 290.194 154.183 284.399 149.919C278.605 145.622 274.357 140.153 271.655 133.513C268.986 126.872 267.651 120.996 267.651 115.886C267.651 107.618 270.662 100.57 276.685 94.7432C282.739 88.9163 290.666 86.0029 300.464 86.0029C309.904 86.0029 318.107 89.4697 325.073 96.4033H325.757ZM338.306 85.1729V86.0029C340.78 86.0029 342.244 86.54 342.7 87.6143C343.156 88.6885 343.384 90.5439 343.384 93.1807V151.286C343.384 153.532 342.944 154.932 342.065 155.485C341.219 156.006 339.966 156.315 338.306 156.413V157.097H387.476V147.185H386.792C386.369 149.984 385.767 151.807 384.985 152.653C384.204 153.467 383.244 154.021 382.104 154.313C380.998 154.574 378.426 154.704 374.39 154.704H361.694C358.96 154.704 356.909 154.525 355.542 154.167C354.207 153.776 353.231 152.849 352.612 151.384C351.994 149.886 351.685 147.461 351.685 144.108V121.892H374.292C375.92 121.892 377.026 122.054 377.612 122.38C378.231 122.705 378.621 123.34 378.784 124.284H379.517V117.497H378.784C378.752 118.278 378.442 118.881 377.856 119.304C377.271 119.694 375.887 119.89 373.706 119.89H351.685V87.6143H375.415C378.019 87.6143 379.647 87.9398 380.298 88.5908C380.981 89.2419 381.812 91.4066 382.788 95.085H383.521V85.1729H338.306Z" fill="#C9A48A"/>
</g>
<defs>
<filter id="filter0_di_137_127" x="0.463867" y="0.0986328" width="395.012" height="166.121" filterUnits="userSpaceOnUse" color-interpolation-filters="sRGB">
<feFlood flood-opacity="0" result="BackgroundImageFix"/>
<feColorMatrix in="SourceAlpha" type="matrix" values="0 0 0 0 0 0 0 0 0 0 0 0 0 0 0 0 0 0 127 0" result="hardAlpha"/>
<feOffset dx="4" dy="4"/>
<feGaussianBlur stdDeviation="2"/>
<feComposite in2="hardAlpha" operator="out"/>
<feColorMatrix type="matrix" values="0 0 0 0 0 0 0 0 0 0 0 0 0 0 0 0 0 0 0.28 0"/>
<feBlend mode="normal" in2="BackgroundImageFix" result="effect1_dropShadow_137_127"/>
<feBlend mode="normal" in="SourceGraphic" in2="effect1_dropShadow_137_127" result="shape"/>
<feColorMatrix in="SourceAlpha" type="matrix" values="0 0 0 0 0 0 0 0 0 0 0 0 0 0 0 0 0 0 127 0" result="hardAlpha"/>
<feOffset dy="2"/>
<feGaussianBlur stdDeviation="2.5"/>
<feComposite in2="hardAlpha" operator="arithmetic" k2="-1" k3="1"/>
<feColorMatrix type="matrix" values="0 0 0 0 0.54902 0 0 0 0 0.411765 0 0 0 0 0.317647 0 0 0 1 0"/>
<feBlend mode="normal" in2="shape" result="effect2_innerShadow_137_127"/>
</filter>
</defs>
</svg>
