<svg width="188" height="110" viewBox="0 0 188 110" fill="none" xmlns="http://www.w3.org/2000/svg">
<g opacity="0.8" filter="url(#filter0_di_133_154)">
<path fill-rule="evenodd" clip-rule="evenodd" d="M0.478516 0.306641V1.33203C3.39518 1.33203 5.30924 1.92448 6.2207 3.10938C7.13216 4.2487 7.58789 6.5957 7.58789 10.1504V24.7912C10.8162 23.2966 14.2506 22.0799 18.7847 20.7749C18.9287 20.7345 19.0701 20.6951 19.209 20.6565V3.72461H26.3867C33.5872 3.72461 38.9421 4.72721 42.4512 6.73242C45.9603 8.73763 48.6719 11.6771 50.5859 15.5508C51.4004 17.1418 52.0456 18.8312 52.5215 20.6189C52.6942 20.6694 52.8711 20.7214 53.0525 20.7749C57.4282 22.0666 61.19 23.4246 64.7315 25.0273C64.6518 19.764 63.5825 15.5114 61.5234 12.2695C59.4271 8.85156 56.0547 6.00326 51.4062 3.72461C46.8034 1.44596 39.3978 0.306641 29.1895 0.306641H0.478516ZM60.6865 40.0742C60.3844 39.8539 60.0993 39.6529 59.8332 39.4731C57.8814 38.1301 55.3556 36.7541 52.6507 35.5062C51.7045 38.8729 49.9909 41.7686 47.5098 44.1934C43.5449 48.1126 38.3724 50.0723 31.9922 50.0723V51.0293C42.0638 51.2116 50.0391 49.1608 55.918 44.877C57.8128 43.4962 59.4024 41.8953 60.6865 40.0742ZM19.209 31.0494C15.4278 31.4428 11.5071 32.0273 7.58789 32.7947V93.5488C7.58789 97.8783 5.2181 100.043 0.478516 100.043V101H27.0703V100.043C24.0169 100.043 21.9434 99.5872 20.8496 98.6758C19.7559 97.7188 19.209 94.8021 19.209 89.9258V31.0494ZM81.9629 59.8965C82.0489 59.9939 82.1334 60.0904 82.2166 60.1859C86.8868 65.5496 90.2317 69.0873 93.584 72.0254V91.3613C93.584 94.4603 93.9941 96.6934 94.8145 98.0605C95.6348 99.3822 97.6172 100.043 100.762 100.043V101H74.7168V100.043C77.9525 99.9062 79.9577 99.2227 80.7324 97.9922C81.5527 96.7617 81.9629 94.2552 81.9629 90.4727V59.8965ZM126.956 77.2048C125.078 74.5228 123.069 71.5854 120.928 68.3926C120.837 68.3014 120.791 68.2103 120.791 68.1191L110.674 52.5332L101.719 52.8066H98.0054C97.4918 52.2373 96.9682 51.6543 96.4341 51.0571C96.1764 50.7694 95.9231 50.4867 95.6741 50.209H104.111C112.406 50.209 118.558 48.2493 122.568 44.3301C126.579 40.4108 128.584 35.2611 128.584 28.8809C128.584 22.6829 126.602 16.8268 122.637 11.3125C118.717 5.7526 111.79 2.97266 101.855 2.97266H93.584V47.8833C87.9846 41.67 84.7993 38.3018 81.9629 35.8162V10.4238C81.9629 7.82617 81.6211 5.68424 80.9375 3.99805C80.2539 2.26628 78.1803 1.3776 74.7168 1.33203V0.306641H103.291C110.537 0.306641 115.778 0.466146 119.014 0.785156C122.249 1.10417 125.553 2.17513 128.926 3.99805C132.344 5.77539 134.919 8.21354 136.65 11.3125C138.382 14.3659 139.248 18.1257 139.248 22.5918C139.248 27.696 137.699 32.5723 134.6 37.2207C131.546 41.8236 127.217 45.7201 121.611 48.9102L128.721 59.8477C130.27 62.582 134.372 68.5749 141.025 77.8262C142.457 79.8036 143.82 81.6166 145.112 83.2651C140.569 82.561 136.671 81.2894 131.358 79.1359C129.811 78.5029 128.353 77.8669 126.956 77.2048ZM136.106 89.5653C138.856 92.9924 141.089 95.414 142.803 96.8301C146.995 100.248 152.008 101.957 157.842 101.957C166.592 101.957 173.701 99.724 179.17 95.2578L178.76 93.8906C174.385 96.4883 170.511 97.7871 167.139 97.7871C163.721 97.7871 160.189 96.7845 156.543 94.7793C154.925 93.8694 153.007 92.2507 150.788 89.9233C145.844 90.0952 140.647 89.979 136.106 89.5653Z" fill="#C9A48A"/>
</g>
<defs>
<filter id="filter0_di_133_154" x="0.478516" y="0.306641" width="186.691" height="109.65" filterUnits="userSpaceOnUse" color-interpolation-filters="sRGB">
<feFlood flood-opacity="0" result="BackgroundImageFix"/>
<feColorMatrix in="SourceAlpha" type="matrix" values="0 0 0 0 0 0 0 0 0 0 0 0 0 0 0 0 0 0 127 0" result="hardAlpha"/>
<feOffset dx="4" dy="4"/>
<feGaussianBlur stdDeviation="2"/>
<feComposite in2="hardAlpha" operator="out"/>
<feColorMatrix type="matrix" values="0 0 0 0 0 0 0 0 0 0 0 0 0 0 0 0 0 0 0.28 0"/>
<feBlend mode="normal" in2="BackgroundImageFix" result="effect1_dropShadow_133_154"/>
<feBlend mode="normal" in="SourceGraphic" in2="effect1_dropShadow_133_154" result="shape"/>
<feColorMatrix in="SourceAlpha" type="matrix" values="0 0 0 0 0 0 0 0 0 0 0 0 0 0 0 0 0 0 127 0" result="hardAlpha"/>
<feOffset dy="2"/>
<feGaussianBlur stdDeviation="2.5"/>
<feComposite in2="hardAlpha" operator="arithmetic" k2="-1" k3="1"/>
<feColorMatrix type="matrix" values="0 0 0 0 0.54902 0 0 0 0 0.411765 0 0 0 0 0.317647 0 0 0 1 0"/>
<feBlend mode="normal" in2="shape" result="effect2_innerShadow_133_154"/>
</filter>
</defs>
</svg>
