<svg width="317" height="85" viewBox="0 0 317 85" fill="none" xmlns="http://www.w3.org/2000/svg">
<g opacity="0.8" filter="url(#filter0_di_137_131)">
<path fill-rule="evenodd" clip-rule="evenodd" d="M57.0869 9.37598L60.5049 0.68457H59.8213C59.4307 1.85645 58.8122 2.57259 57.9658 2.83301C57.152 3.06087 55.8011 3.1748 53.9131 3.1748H6.11035C4.22233 3.1748 2.98535 3.06087 2.39941 2.83301C1.84603 2.57259 1.27637 1.85645 0.69043 0.68457H0.00683594L3.4248 9.37598H4.1084C3.84798 8.49707 3.71777 7.84603 3.71777 7.42285C3.71777 6.5765 3.99447 6.05566 4.54785 5.86035C5.10124 5.63249 6.28939 5.51855 8.1123 5.51855H26.1299V51.4615C28.9677 51.482 31.7389 51.4895 34.4307 51.484V5.51855H53.2295C54.4014 5.51855 55.2477 5.63249 55.7686 5.86035C56.3219 6.05566 56.5986 6.52767 56.5986 7.27637C56.5986 8.15527 56.5335 8.85514 56.4033 9.37598H57.0869ZM34.4307 58.0723C31.2278 58.0585 28.5277 58.036 26.1299 58.0001V68.1162C26.1299 70.5902 25.8206 72.2178 25.2021 72.999C24.5837 73.7803 23.0537 74.2523 20.6123 74.415V75.0986H40.0947V74.415C38.5322 74.415 37.3929 74.3011 36.6768 74.0732C35.9932 73.8128 35.4398 73.2269 35.0166 72.3154C34.626 71.3714 34.4307 69.6299 34.4307 67.0908V58.0723ZM63.4252 58.0773C67.5347 58.052 70.6932 58.0007 73.5992 57.9066C74.3717 58.9038 75.199 59.8818 76.0811 60.8408C83.1774 68.5557 91.1364 72.4131 99.958 72.4131C104.906 72.4131 109.789 71.0947 114.606 68.458C119.424 65.7887 123.216 62.1266 125.983 57.4717C126.819 56.0664 127.528 54.6494 128.111 53.2204C129.051 53.0975 129.989 52.9722 130.928 52.8443C129.116 56.9362 126.637 60.6922 123.493 64.1123C116.071 72.1852 106.224 76.2217 93.9521 76.2217C83.9912 76.2217 75.8369 72.9665 69.4893 66.4561C66.9667 63.8688 64.9453 61.0759 63.4252 58.0773ZM134.294 40.2293C134.515 38.3014 134.626 36.3177 134.626 34.2783C134.626 25.0986 131.42 17.4489 125.007 11.3291C118.594 5.17676 110.342 2.10059 100.251 2.10059C91.82 2.10059 84.5283 4.15137 78.376 8.25293C72.2236 12.3219 67.6175 17.5954 64.5576 24.0732C61.4977 30.5511 59.9678 36.8662 59.9678 43.0186C59.9678 45.7454 60.2518 48.3557 60.82 50.8495C63.3921 50.6978 66.1228 50.5089 68.9356 50.2904C66.6029 45.262 65.4365 39.827 65.4365 33.9854C65.4365 26.0101 68.3337 19.3369 74.1279 13.9658C79.9548 8.59473 86.4326 5.90918 93.5615 5.90918C98.6071 5.90918 104.092 7.52051 110.017 10.7432C115.974 13.9658 120.808 18.4255 124.519 24.1221C127.91 29.2828 129.765 34.9646 130.084 41.1673C131.486 40.8584 132.892 40.545 134.294 40.2293ZM162.751 47.3383V68.1162C162.751 70.5902 162.442 72.2178 161.823 72.999C161.205 73.7803 159.675 74.2523 157.233 74.415V75.0986H176.716V74.415C175.153 74.415 174.014 74.3011 173.298 74.0732C172.614 73.8128 172.061 73.2269 171.638 72.3154C171.247 71.3714 171.052 69.6299 171.052 67.0908V45.324C167.945 46.108 165.24 46.7655 162.751 47.3383ZM171.052 30.9934C168.459 31.6572 165.716 32.3819 162.751 33.1833V5.51855H144.733C142.91 5.51855 141.722 5.63249 141.169 5.86035C140.616 6.05566 140.339 6.5765 140.339 7.42285C140.339 7.84603 140.469 8.49707 140.729 9.37598H140.046L136.628 0.68457H137.312C137.897 1.85645 138.467 2.57259 139.021 2.83301C139.606 3.06087 140.843 3.1748 142.731 3.1748H190.534C192.422 3.1748 193.773 3.06087 194.587 2.83301C195.433 2.57259 196.052 1.85645 196.442 0.68457H197.126L193.708 9.37598H193.024C193.155 8.85514 193.22 8.15527 193.22 7.27637C193.22 6.52767 192.943 6.05566 192.39 5.86035C191.869 5.63249 191.022 5.51855 189.851 5.51855H171.052V30.9934ZM209.1 35.3525L196.198 67.9209C195.026 70.8506 193.952 72.6735 192.976 73.3896C191.999 74.0732 190.795 74.415 189.362 74.415V75.0986H200.056V74.415C198.461 74.415 197.663 73.8779 197.663 72.8037C197.663 72.348 198.037 71.1436 198.786 69.1904L209.675 41.9932H230.671L241.071 67.5791C241.104 67.5791 241.153 67.7419 241.218 68.0674C241.315 68.3604 241.429 68.5719 241.56 68.7021C242.308 70.4925 242.683 71.7946 242.683 72.6084C242.683 73.8128 241.918 74.415 240.388 74.415V75.0986H257.185V74.415C254.483 74.415 252.465 73.0479 251.13 70.3135C249.828 67.5465 249.177 66.0003 249.177 65.6748L234.543 29.4526C231.876 29.993 229.146 30.5767 226.312 31.2116L229.792 39.9912H210.358L212.541 34.4866C211.414 34.7675 210.268 35.056 209.1 35.3525ZM217.382 22.2743C216.283 22.4154 215.193 22.5595 214.109 22.7068L222.272 2.10059H223.493L231.016 20.7207C228.125 21.0106 225.295 21.3179 222.519 21.6435L220.075 15.4795L217.382 22.2743ZM264.313 24.7485V68.7998C264.313 70.8506 263.972 72.2992 263.288 73.1455C262.637 73.9919 261.188 74.415 258.942 74.415V75.0986H308.503V57.8135H307.819C307.591 63.5752 306.485 67.4977 304.499 69.5811C302.546 71.6644 299.453 72.7061 295.222 72.7061H286.433C281.387 72.7061 277.823 71.8271 275.739 70.0693C273.656 68.279 272.614 65.2191 272.614 60.8896V23.8331C269.737 24.1311 266.982 24.4338 264.313 24.7485ZM272.614 17.8759C269.788 17.9973 267.022 18.1275 264.313 18.2669V9.91309C264.313 7.82975 264.053 6.33236 263.532 5.4209C263.011 4.47689 261.449 3.97233 258.845 3.90723V3.1748H278.132V3.90723C276.341 3.90723 275.088 4.13509 274.372 4.59082C273.656 5.04655 273.184 5.58366 272.956 6.20215C272.728 6.82064 272.614 8.22038 272.614 10.4014V17.8759Z" fill="#C9A48A"/>
</g>
<defs>
<filter id="filter0_di_137_131" x="0.00683594" y="0.68457" width="316.496" height="83.5371" filterUnits="userSpaceOnUse" color-interpolation-filters="sRGB">
<feFlood flood-opacity="0" result="BackgroundImageFix"/>
<feColorMatrix in="SourceAlpha" type="matrix" values="0 0 0 0 0 0 0 0 0 0 0 0 0 0 0 0 0 0 127 0" result="hardAlpha"/>
<feOffset dx="4" dy="4"/>
<feGaussianBlur stdDeviation="2"/>
<feComposite in2="hardAlpha" operator="out"/>
<feColorMatrix type="matrix" values="0 0 0 0 0 0 0 0 0 0 0 0 0 0 0 0 0 0 0.28 0"/>
<feBlend mode="normal" in2="BackgroundImageFix" result="effect1_dropShadow_137_131"/>
<feBlend mode="normal" in="SourceGraphic" in2="effect1_dropShadow_137_131" result="shape"/>
<feColorMatrix in="SourceAlpha" type="matrix" values="0 0 0 0 0 0 0 0 0 0 0 0 0 0 0 0 0 0 127 0" result="hardAlpha"/>
<feOffset dy="2"/>
<feGaussianBlur stdDeviation="2.5"/>
<feComposite in2="hardAlpha" operator="arithmetic" k2="-1" k3="1"/>
<feColorMatrix type="matrix" values="0 0 0 0 0.54902 0 0 0 0 0.411765 0 0 0 0 0.317647 0 0 0 1 0"/>
<feBlend mode="normal" in2="shape" result="effect2_innerShadow_137_131"/>
</filter>
</defs>
</svg>
