<svg width="510" height="255" viewBox="0 0 510 255" fill="none" xmlns="http://www.w3.org/2000/svg">
<path fill-rule="evenodd" clip-rule="evenodd" d="M262.053 177V254.809L335.135 177H295.327L272.819 200.976V177H262.053ZM367.613 100H407.457L462.858 41.0154V100H473.796V52.2954C473.796 37.3694 475.904 25.1794 480.119 15.7227C484.221 6.2663 493.791 1.8799 508.83 2.5635V0H461.491L367.613 100ZM473.796 177H462.858V227.295C462.858 233.219 462.403 237.605 461.491 240.454C460.58 243.302 459.269 245.239 457.561 246.264C455.852 247.29 451.579 248.315 444.743 249.34V251.733H493.107V249.34C484.449 249.34 479.094 247.802 477.043 244.726C474.878 241.65 473.796 234.301 473.796 222.68V177Z" fill="#C9A48A"/>
<path fill-rule="evenodd" clip-rule="evenodd" d="M236.011 177V200.976L213.503 177H173.695L246.777 254.809V177H236.011ZM142.155 101L47.3388 0H0V2.5635C15.039 1.8799 24.6093 6.2663 28.7109 15.7227C32.9264 25.1794 35.0341 37.3694 35.0341 52.2954V101H45.9716V41.0154L102.312 101H142.155ZM45.9716 177V227.295C45.9716 233.219 46.4274 237.605 47.3388 240.454C48.2503 243.302 49.5605 245.239 51.2695 246.264C52.9785 247.29 57.2509 248.315 64.0869 249.34V251.733H15.7226V249.34C24.3815 249.34 29.7363 247.802 31.7871 244.726C33.9518 241.65 35.0341 234.301 35.0341 222.68V177H45.9716Z" fill="#C9A48A"/>
<path d="M43.5375 118.723V119.133C43.0089 119.078 42.4164 119.16 41.7602 119.379C41.1221 119.598 40.7393 119.917 40.6117 120.336C40.5023 120.755 40.4477 121.749 40.4477 123.316V154.242C40.4477 155.919 40.5115 156.949 40.6391 157.332C40.7849 157.697 41.0492 158.007 41.432 158.262C41.8331 158.499 42.5349 158.617 43.5375 158.617V159H32.7914V158.617C34.1404 158.617 34.9789 158.362 35.307 157.852C35.6352 157.323 35.7992 156.138 35.7992 154.297V123.672C35.7992 121.758 35.6169 120.509 35.2523 119.926C34.8878 119.324 34.0675 119.06 32.7914 119.133V118.723H43.5375ZM92.3636 120.746L93.8675 125.012H93.4847C89.5837 121.129 84.9899 119.188 79.7034 119.188C74.2165 119.188 69.7777 120.819 66.387 124.082C63.0146 127.345 61.3284 131.292 61.3284 135.922C61.3284 138.784 62.0758 142.074 63.5706 145.793C65.0837 149.512 67.4626 152.574 70.7074 154.98C73.9521 157.368 77.8805 158.562 82.4925 158.562C85.5185 158.562 88.4808 158.079 91.3792 157.113C94.2959 156.129 96.4652 154.816 97.887 153.176L98.2425 153.285L95.4261 157.605C90.8688 158.59 87.9066 159.173 86.5394 159.355C85.1904 159.538 83.3766 159.629 81.098 159.629C72.6579 159.629 66.6149 157.678 62.9691 153.777C59.3415 149.858 57.5277 145.173 57.5277 139.723C57.5277 136.04 58.4574 132.504 60.3167 129.113C62.1943 125.704 64.8922 123.025 68.4105 121.074C71.9287 119.105 75.9482 118.121 80.4691 118.121C82.7295 118.121 84.68 118.331 86.3206 118.75C87.9795 119.151 89.3558 119.57 90.4495 120.008L92.2542 120.691C92.3089 120.71 92.3454 120.728 92.3636 120.746ZM132.44 118.121C138.091 118.121 142.712 119.844 146.303 123.289C149.894 126.716 151.69 131 151.69 136.141C151.69 142.758 149.612 148.327 145.455 152.848C141.299 157.368 135.785 159.629 128.912 159.629C123.334 159.629 118.768 157.806 115.213 154.16C111.658 150.514 109.881 146.139 109.881 141.035C109.881 137.59 110.738 134.053 112.451 130.426C114.165 126.798 116.744 123.845 120.19 121.566C123.635 119.27 127.718 118.121 132.44 118.121ZM132.276 157.496C135.046 157.496 137.781 156.758 140.479 155.281C143.177 153.786 145.3 151.736 146.85 149.129C148.399 146.522 149.174 143.842 149.174 141.09C149.174 137.189 148.126 133.643 146.03 130.453C143.951 127.263 141.244 124.766 137.908 122.961C134.591 121.156 131.519 120.254 128.694 120.254C124.701 120.254 121.074 121.758 117.811 124.766C114.566 127.773 112.944 131.51 112.944 135.977C112.944 141.682 114.931 146.695 118.905 151.016C122.878 155.336 127.336 157.496 132.276 157.496ZM198.875 118.723H206.668V119.133C205.483 119.169 204.663 119.424 204.207 119.898C203.751 120.354 203.524 121.329 203.524 122.824V159.492L171.395 125.285V155.09C171.395 156.038 171.468 156.74 171.613 157.195C171.759 157.651 171.969 157.961 172.242 158.125C172.516 158.289 173.199 158.453 174.293 158.617V159H166.555V158.617C167.94 158.617 168.797 158.371 169.125 157.879C169.472 157.387 169.645 156.211 169.645 154.352V127.09C169.645 124.702 169.307 122.751 168.633 121.238C167.977 119.725 166.445 119.023 164.039 119.133V118.723H171.613L201.801 150.879V122.441C201.801 120.91 201.528 119.98 200.981 119.652C200.434 119.306 199.732 119.133 198.875 119.133V118.723ZM284.049 118.723V119.133C283.52 119.078 282.928 119.16 282.271 119.379C281.633 119.598 281.251 119.917 281.123 120.336C281.014 120.755 280.959 121.749 280.959 123.316V154.242C280.959 155.919 281.023 156.949 281.15 157.332C281.296 157.697 281.56 158.007 281.943 158.262C282.344 158.499 283.046 158.617 284.049 158.617V159H273.303V158.617C274.652 158.617 275.49 158.362 275.818 157.852C276.146 157.323 276.31 156.138 276.31 154.297V123.672C276.31 121.758 276.128 120.509 275.764 119.926C275.399 119.324 274.579 119.06 273.303 119.133V118.723H284.049ZM335.035 118.723H341.379V119.133C339.246 119.242 338.18 120.363 338.18 122.496C338.18 122.952 338.234 123.581 338.344 124.383L342.555 154.898C342.81 156.43 343.092 157.414 343.402 157.852C343.73 158.271 344.396 158.526 345.398 158.617V159H336.348V158.617C337.532 158.654 338.125 158.07 338.125 156.867C338.125 156.594 338.07 156.056 337.961 155.254L333.859 125.668L319.422 159H319.148L304.629 125.723L300.555 155.473C300.482 155.928 300.445 156.448 300.445 157.031C300.445 158.089 301.056 158.617 302.277 158.617V159H296.125V158.617C297.055 158.617 297.647 158.499 297.902 158.262C298.176 158.025 298.385 157.66 298.531 157.168C298.677 156.658 298.786 156.092 298.859 155.473L303.453 122.934C302.706 121.129 301.958 120.044 301.211 119.68C300.463 119.315 299.743 119.133 299.051 119.133V118.723H306.652L320.816 151.672L335.035 118.723ZM379.049 140.461H367.291L361.193 155.691C360.774 156.785 360.564 157.46 360.564 157.715C360.564 158.316 361.011 158.617 361.904 158.617V159H355.916V158.617C356.718 158.617 357.392 158.426 357.939 158.043C358.486 157.642 359.088 156.621 359.744 154.98L374.345 118.121H375.029L389.412 153.723C389.412 153.905 389.776 154.771 390.506 156.32C391.253 157.852 392.383 158.617 393.896 158.617V159H384.49V158.617C385.347 158.617 385.775 158.28 385.775 157.605C385.775 157.15 385.566 156.421 385.146 155.418C385.073 155.345 385.01 155.227 384.955 155.062C384.918 154.88 384.891 154.789 384.873 154.789L379.049 140.461ZM367.674 139.34H378.556L373.115 125.613L367.674 139.34ZM443.761 158.617V159H427.519C424.402 159 421.668 158.663 419.316 157.988C416.983 157.314 414.595 156.038 412.152 154.16C409.728 152.264 407.759 149.913 406.246 147.105C404.751 144.298 404.004 141.427 404.004 138.492C404.004 135.284 404.942 132.085 406.82 128.895C408.716 125.704 411.405 123.116 414.886 121.129C418.368 119.124 422.315 118.121 426.726 118.121C430.682 118.121 434.866 118.996 439.277 120.746L440.945 125.395H440.562C439.159 123.608 437.235 122.132 434.793 120.965C432.368 119.78 429.661 119.188 426.672 119.188C421.476 119.188 417.22 121.147 413.902 125.066C410.584 128.967 408.925 133.816 408.925 139.613C408.925 142.02 409.199 144.171 409.746 146.066C410.293 147.944 411.313 149.803 412.808 151.645C414.321 153.467 415.935 154.816 417.648 155.691C419.38 156.548 421.312 157.15 423.445 157.496C425.578 157.824 427.273 157.97 428.531 157.934L430.691 157.879C433.134 157.788 434.656 157.56 435.258 157.195C435.877 156.831 436.187 155.901 436.187 154.406V148.309C436.187 147.124 435.941 146.331 435.449 145.93C434.957 145.51 434.255 145.328 433.343 145.383V145H443.761V145.383C442.595 145.383 441.811 145.611 441.41 146.066C441.027 146.522 440.836 147.397 440.836 148.691V155.035C440.836 156.311 441 157.232 441.328 157.797C441.674 158.344 442.294 158.617 443.187 158.617H443.761ZM456.959 119.188V118.723H482.279V124.273H481.869C481.322 122.214 480.857 121.001 480.474 120.637C480.11 120.272 479.198 120.09 477.74 120.09H464.451V138.164H476.783C478.004 138.164 478.779 138.055 479.107 137.836C479.435 137.599 479.608 137.262 479.627 136.824H480.037V140.625H479.627C479.535 140.096 479.317 139.741 478.97 139.559C478.642 139.376 478.022 139.285 477.111 139.285H464.451V151.727C464.451 153.604 464.624 154.962 464.97 155.801C465.317 156.621 465.864 157.141 466.611 157.359C467.377 157.56 468.525 157.66 470.056 157.66H477.166C479.426 157.66 480.866 157.587 481.486 157.441C482.124 157.277 482.662 156.967 483.099 156.512C483.537 156.038 483.874 155.017 484.111 153.449H484.494V159H456.959V158.617C457.888 158.562 458.59 158.389 459.064 158.098C459.556 157.788 459.802 157.004 459.802 155.746V123.207C459.802 121.73 459.675 120.691 459.42 120.09C459.164 119.488 458.344 119.188 456.959 119.188Z" fill="url(#paint0_linear_141_157)"/>
<defs>
<linearGradient id="paint0_linear_141_157" x1="258" y1="106" x2="258" y2="181" gradientUnits="userSpaceOnUse">
<stop stop-color="#C9A48A"/>
<stop offset="1" stop-color="#C9A48A" stop-opacity="0"/>
</linearGradient>
</defs>
</svg>
