<svg width="203" height="203" viewBox="0 0 203 203" fill="none" xmlns="http://www.w3.org/2000/svg">
<mask id="path-1-outside-1_141_152" maskUnits="userSpaceOnUse" x="-0.485596" y="0" width="204" height="203" fill="black">
<rect fill="white" x="-0.485596" width="204" height="203"/>
<path d="M82.1787 1.82564C66.6688 2.79501 57.2175 3.76437 51.886 4.79433C48.9173 5.40018 44.5551 5.58194 37.4666 5.46077C28.3182 5.27901 27.1671 5.33958 25.8948 6.36954C25.1072 6.97539 24.3196 8.12652 24.0772 8.85355C23.8955 9.76233 22.3809 11.0346 19.6545 12.4887C10.2638 17.5779 2.9935 28.3015 0.994182 39.9339C-0.459869 48.2947 1.53945 63.3805 4.99282 70.5295C10.1426 81.0108 24.8043 90.9468 40.7382 94.7637C43.3434 95.3696 45.7668 96.0966 46.1909 96.339C48.5538 97.793 58.5504 122.815 59.7621 130.327C60.4285 134.508 63.5184 138.991 67.0323 140.809C69.8799 142.263 70.5463 142.323 79.2706 142.263L88.419 142.202L88.9037 148.018C89.146 151.229 89.146 159.287 88.9643 165.952C88.6008 179.826 87.1467 189.398 84.3598 197.093C83.3904 199.758 82.724 202 82.9057 202C83.0875 202 87.3285 198.971 92.2965 195.275C98.5974 190.549 101.505 188.671 102.051 189.095C111.866 196.547 119.318 202 119.621 202C119.802 202 119.318 200.182 118.469 197.941C114.35 186.975 112.471 167.042 113.804 147.594L114.168 141.96L120.893 142.384C127.739 142.808 132.707 142.02 137.13 139.779C139.614 138.567 141.734 134.387 143.673 126.935C147.308 113.182 154.699 96.7025 157.608 95.8543C158.456 95.6119 161.667 94.7031 164.817 93.8549C175.541 90.9468 184.023 86.2212 191.051 79.2539C195.716 74.5888 198.2 70.2872 199.957 63.8651C203.713 49.9911 202.32 35.3294 196.322 25.5146C193.656 21.1524 186.386 14.1851 182.266 12.0646C179.661 10.6711 178.631 9.76233 178.207 8.36887C177.843 7.33891 176.934 6.18778 176.207 5.88486C175.42 5.52134 170.815 5.3396 164.878 5.46077C157.911 5.64253 153.609 5.40017 150.64 4.8549C145.127 3.70378 136.342 2.85558 119.136 1.76505C103.02 0.735092 98.7185 0.7351 82.1787 1.82564ZM100.051 6.49072C100.051 8.55063 99.8091 10.5499 99.5667 10.974C99.2638 11.4587 96.9616 11.5193 90.3577 10.974C84.481 10.5499 79.4524 10.5499 75.2114 10.9135C69.3346 11.4587 68.6076 11.3981 65.5177 10.1864C63.7001 9.45941 60.0044 8.36887 57.3387 7.76302C52.7342 6.73306 52.613 6.67247 54.6123 6.24837C57.2781 5.64251 77.1501 3.94613 88.2373 3.40086C92.9023 3.15852 97.4462 2.91618 98.4156 2.85559C100.051 2.73442 100.051 2.79501 100.051 6.49072ZM117.318 3.58261C126.648 4.00671 144.824 5.58193 147.914 6.24837C149.913 6.67247 149.853 6.73306 145.188 7.76302C142.522 8.36887 138.826 9.45941 137.009 10.1864C133.919 11.3981 133.192 11.4587 127.315 10.9135C123.074 10.5499 118.045 10.5499 112.169 10.974C107.322 11.3376 103.262 11.5193 103.081 11.3981C102.96 11.2164 102.717 9.15648 102.596 6.85423L102.354 2.61325L105.868 2.91617C107.867 3.09792 113.017 3.40085 117.318 3.58261ZM42.9193 8.12653C48.8567 8.91414 54.4911 10.1258 61.9432 12.1252L67.7594 13.761L69.3952 23.2123C71.4551 35.0265 71.9398 39.631 71.1521 39.631C68.9711 39.631 60.4891 36.844 56.854 34.9659C53.4006 33.1483 50.856 31.0278 44.9186 25.0299C40.7382 20.7889 35.0432 15.6997 32.1957 13.6398C29.3482 11.5799 27.0459 9.58058 27.0459 9.15648C27.0459 8.6718 28.1971 8.42945 30.4993 8.49004C34.8615 8.61121 42.2529 11.9434 46.0698 15.5785C47.5844 17.0326 48.4326 17.5779 48.0085 16.8508C47.1603 15.0939 41.5259 10.1258 38.9207 8.73238C36.3761 7.33891 36.679 7.33891 42.9193 8.12653ZM162.697 9.39882C159.365 11.5193 155.427 15.0938 154.457 16.9114C154.094 17.5778 155.063 16.972 156.638 15.5179C160.758 11.7616 167.665 8.61121 172.027 8.49004C174.329 8.42945 175.48 8.6718 175.48 9.15648C175.48 9.51999 173.178 11.5799 170.331 13.6398C167.483 15.6997 161.788 20.8495 157.608 25.0905C151.367 31.3913 149.247 33.2089 145.551 35.0265C141.916 36.9046 133.495 39.631 131.435 39.631C130.647 39.631 130.829 37.6316 132.828 25.3934L134.706 13.8821L140.28 12.2463C146.884 10.3076 159.304 7.94477 164.211 7.58125C165.423 7.52067 165.12 7.88418 162.697 9.39882ZM23.8955 15.1544C19.8363 22.5459 20.5633 30.119 25.6525 33.633L27.6518 34.9659L25.7131 32.906C23.532 30.6037 22.502 28.2409 22.502 25.7569C22.502 23.8182 24.1984 18.6078 24.986 18.0625C25.289 17.8808 25.2284 18.4866 24.9254 19.3348C23.1685 23.9999 24.9254 29.392 29.5905 33.633C35.4673 38.9039 42.9799 39.2069 48.0691 34.36C48.9173 33.5118 49.9472 33.0271 50.3107 33.2695C51.2195 33.8148 50.6137 34.663 48.3114 36.0564C45.888 37.5105 47.5844 37.5711 50.4925 36.117C52.1889 35.2082 52.8553 35.1476 53.6429 35.6929C55.097 36.7834 54.8547 37.0864 52.0677 37.874C44.7369 39.8733 30.9234 39.5098 24.7437 37.2076C20.8662 35.7535 17.8975 32.7848 17.3523 29.7555C16.9282 27.5745 17.7764 23.5152 19.291 20.5465C20.8662 17.5173 25.1678 11.1558 25.6525 11.1558C25.8948 11.1558 25.1072 12.9734 23.8955 15.1544ZM179.721 14.488C183.417 20.0619 185.113 24.3634 185.174 28.2409C185.174 31.3913 184.992 31.876 183.114 33.8148C179.115 37.9346 169.604 39.9339 158.395 39.0251C153.064 38.5404 147.914 37.4499 147.914 36.7834C147.914 36.6017 148.338 36.117 148.883 35.6929C149.671 35.1476 150.337 35.2082 152.034 36.117C154.942 37.5711 156.638 37.5105 154.215 36.0564C151.913 34.663 151.307 33.8148 152.155 33.2695C152.518 33.0271 153.67 33.633 154.76 34.5418C160.455 39.3886 167.907 38.7828 173.663 33.0877C177.661 29.1497 179.176 23.697 177.601 19.2137C177.056 17.6384 177.056 17.5778 177.904 18.729C178.994 20.1224 180.024 23.5152 180.024 25.8175C180.024 28.2409 178.934 30.6037 176.813 32.906C175.541 34.2389 175.299 34.7235 176.086 34.2994C179.237 32.6636 181.236 28.665 181.236 23.9393C181.236 20.9101 180.872 19.5772 178.873 15.7603C177.54 13.2157 176.692 11.1558 176.995 11.1558C177.237 11.1558 178.51 12.6704 179.721 14.488ZM96.2951 14.3668C100.294 14.9727 102.232 14.9727 106.292 14.3668C113.683 13.2157 131.253 12.6098 131.798 13.458C132.041 13.8821 131.495 17.3355 130.647 21.1524C129.799 24.9693 128.951 30.7249 128.708 33.9359L128.345 39.7521L126.467 39.3886C106.655 35.2688 95.871 35.2688 75.999 39.3886L73.9997 39.7521V36.7229C73.9997 32.5425 72.9697 25.151 71.5157 19.2137C70.8492 16.4267 70.4857 13.8821 70.7281 13.5186C71.2733 12.6098 88.7219 13.2157 96.2951 14.3668ZM17.1099 19.3954C14.6865 24.1817 13.8383 28.0591 14.5653 31.2702C15.1106 33.5724 14.9894 33.9359 13.293 36.0564C11.6572 38.1163 11.4149 38.9039 11.4149 41.9332C11.4149 43.8719 11.6572 45.9318 12.0207 46.5377C12.5054 47.3859 12.6872 46.5983 12.9295 43.0237C13.1719 39.328 13.5354 38.1163 14.5653 36.9652L15.9588 35.5112L19.3516 37.874C24.986 41.6909 34.7403 43.3873 43.7069 42.1756C46.1909 41.812 48.3114 41.6303 48.4932 41.7514C48.6144 41.8726 47.8267 43.0237 46.7362 44.2355C44.434 46.9012 43.1011 49.8093 43.1011 52.2933V54.0503L37.709 53.8685C31.711 53.5656 29.954 53.0204 24.7437 49.6882C22.8049 48.4159 21.048 47.5071 20.9268 47.6888C20.8056 47.81 21.5932 49.264 22.6838 50.8999C25.4101 54.8985 30.257 57.8066 34.0738 57.8066H36.8608L39.9506 62.4717L43.0405 67.1368L40.7382 68.1667C38.0119 69.3784 35.8914 72.1048 35.4067 75.0735C35.225 76.2246 34.9826 77.1939 34.922 77.1939C34.8615 77.1939 32.741 75.9822 30.3175 74.5282C27.8335 73.1347 23.9561 70.8931 21.6538 69.6208C14.4442 65.6827 11.3543 61.6841 9.17322 53.3839L8.0221 49.0217L8.38561 52.6568C8.80971 57.0796 10.5061 62.1688 12.3237 64.7133C13.596 66.4097 13.6565 67.0762 13.4142 71.4383L13.1113 76.2852L10.809 73.1347C7.65858 68.8332 6.44687 65.7433 4.93224 58.4125C3.8417 53.3233 3.65994 50.6575 3.90228 45.0836C4.20521 36.9652 5.53809 32.179 9.05205 26.3627C11.112 22.9094 18.1399 15.0939 18.6851 15.5785C18.7457 15.6997 18.0793 17.3961 17.1099 19.3954ZM34.922 17.8202L38.0725 20.2436L36.6184 23.1517C35.4673 25.3328 35.1644 26.6657 35.4067 28.9073C35.6491 31.7549 36.3761 33.2695 36.8608 31.9972C37.6484 29.8161 41.1018 24.7875 41.8288 24.7875C42.3135 24.7875 43.8887 26.2416 45.3427 28.0591C47.9479 31.2096 48.0085 31.3307 46.918 32.4819C42.8587 37.0258 35.8308 36.1776 30.8022 30.6037C28.2576 27.7562 27.7124 26.0598 28.0759 22.3641C28.3788 20.0013 30.5599 15.3968 31.4081 15.3968C31.6504 15.3968 33.2256 16.4873 34.922 17.8202ZM173.239 18.4866C174.39 20.6071 174.632 21.8188 174.45 24.6664C174.208 27.7562 173.905 28.4227 171.785 30.6037C166.392 36.2382 159.668 37.0258 155.608 32.4819C154.578 31.3307 154.639 31.2096 156.941 28.2409C158.274 26.5445 159.668 25.0299 160.031 24.7875C161 24.1817 162.394 25.5751 164.09 28.9679C166.029 32.7848 166.029 32.8454 166.695 31.7549C167.725 30.1796 167.362 25.7569 166.029 23.2123C165.363 21.8794 164.878 20.5465 164.999 20.2436C165.302 19.3954 170.573 15.4574 171.239 15.6391C171.542 15.6997 172.451 16.972 173.239 18.4866ZM190.566 22.0006C195.898 28.4227 198.806 37.2075 198.806 47.1436C198.806 58.0489 195.655 68.8937 191.051 74.1647L189.173 76.2852L189.112 71.3172C189.112 66.8338 189.294 66.1068 190.93 63.4411C191.96 61.8052 193.171 58.5942 193.656 56.292C194.868 50.4152 194.686 48.0523 193.414 53.2627C192.141 58.5942 189.476 63.441 186.567 65.925C185.356 67.0156 181.357 69.439 177.783 71.4383C174.208 73.3771 170.512 75.437 169.604 76.1034C167.483 77.5575 167.301 77.4969 167.301 75.437C167.301 73.0136 164.999 69.8025 162.091 68.3485L159.607 67.1368L162.636 62.4717C165.605 57.8066 165.605 57.8066 168.271 57.8066C171.179 57.8066 173.36 57.019 176.268 54.8379C178.267 53.3839 182.205 48.2341 181.721 47.7494C181.539 47.6282 179.176 48.84 176.389 50.5363C173.602 52.1722 170.755 53.5656 170.088 53.6262C169.361 53.6868 166.695 53.7474 164.151 53.8685L159.425 53.9897V52.1116C159.425 49.7487 157.608 45.8713 155.487 43.6902C154.578 42.7208 153.972 41.8726 154.094 41.7514C154.215 41.6303 156.456 41.812 159.122 42.1756C168.574 43.3267 178.752 41.4485 183.902 37.5711L186.567 35.5112L187.9 36.9046C188.991 38.0557 189.354 39.328 189.597 42.5997C189.9 47.2647 190.566 47.7494 191.172 43.7508C191.657 40.4792 190.808 37.4499 188.809 35.39C187.476 33.9965 187.355 33.633 187.961 31.4519C188.809 28.4226 187.9 23.8787 185.416 19.2137C184.447 17.3961 183.659 15.7603 183.659 15.5785C183.659 14.9727 188.264 19.2742 190.566 22.0006ZM67.3959 42.1756L70.7886 42.842L68.547 47.9312C67.2747 50.7181 66.063 53.0204 65.76 53.0204C64.5483 53.0204 56.7328 46.4771 54.4911 43.6296L52.0677 40.6003L54.6123 39.328L57.0963 38.0557L60.5497 39.7521C62.4278 40.6609 65.5177 41.7515 67.3959 42.1756ZM149.61 41.6909C148.641 43.4479 142.643 49.2035 139.25 51.6269C136.645 53.4444 136.342 53.5656 135.979 52.5357C135.797 51.9298 134.767 49.5064 133.676 47.1436L131.738 42.842L135.13 42.115C137.009 41.7514 140.038 40.6609 141.855 39.7521L145.188 38.1163L147.732 39.2675C150.034 40.2974 150.216 40.6003 149.61 41.6909ZM100.051 48.3553V57.6248L95.3863 58.049C92.7812 58.2307 88.3584 58.8366 85.5109 59.3212C76.6048 60.8965 75.3325 60.6541 70.4857 56.7161C67.5776 54.3532 67.5776 54.535 70.6675 47.7494L72.6062 43.4478L81.0276 41.812C89.9942 40.1156 95.6893 39.2069 98.4156 39.0857L100.051 39.0251V48.3553ZM108.836 39.631C111.199 39.9945 116.834 40.9638 121.499 41.812L129.92 43.4478L131.859 47.7494C135.009 54.5956 135.009 54.2321 131.495 57.2007C127.678 60.4118 125.437 60.7753 117.439 59.3818C114.289 58.8366 109.624 58.2307 107.079 57.9884L102.475 57.6248V48.3553C102.475 37.7528 101.808 38.6616 108.836 39.631ZM57.7022 50.2334C61.0344 52.7174 64.0636 54.7773 64.4272 54.7773C64.8513 54.7773 64.306 55.6861 63.276 56.7161C61.095 59.0789 60.065 60.8965 60.065 62.5928C60.065 63.6228 59.3986 63.3805 55.0364 60.6541C52.3101 58.8971 48.9173 56.9584 47.4632 56.3526C45.1004 55.262 44.9186 55.0803 44.9186 52.7174C44.9186 50.2334 46.3121 47.2647 48.7355 44.6596C49.9472 43.3267 50.0078 43.3267 50.7954 44.4778C51.2195 45.0837 54.37 47.6888 57.7022 50.2334ZM155.911 47.4465C157.062 49.3246 157.608 50.9604 157.608 52.5963C157.608 55.0197 157.547 55.1408 153.609 57.1402C151.428 58.2913 148.035 60.23 146.096 61.5023L142.582 63.744L142.219 61.5023C141.977 59.9877 141.128 58.473 139.795 57.2007L137.796 55.2014L142.098 52.2933C144.461 50.6575 147.793 48.0523 149.429 46.4771C152.882 43.1449 153.185 43.2055 155.911 47.4465ZM70.7281 59.3818L74.3026 62.1688L84.9656 61.7447C90.8424 61.5629 96.598 61.5629 97.8098 61.7447L100.051 62.1688V69.9843V77.7392L97.8098 78.4057C92.7206 79.7991 84.178 80.405 80.3611 79.6174C77.0895 78.9509 76.3625 78.4662 72.788 74.7705C70.6069 72.5289 67.2747 69.3784 65.3965 67.8032C61.5796 64.7133 61.1555 63.3805 62.7914 60.23C63.6396 58.5942 65.8812 56.5949 66.79 56.5949C67.0323 56.5949 68.7893 57.8672 70.7281 59.3818ZM137.493 57.5643C138.22 58.0489 139.25 59.2607 139.735 60.23C141.431 63.4411 140.947 64.7133 136.887 68.1667C134.767 69.8631 131.435 73.0136 129.435 75.0735C126.164 78.4662 125.437 78.9509 122.226 79.6174C118.469 80.405 112.896 80.1021 106.413 78.7692L102.778 78.0421L102.596 70.1055L102.414 62.1688L104.716 61.7447C105.928 61.5023 111.623 61.5629 117.318 61.7447C127.739 62.2293 129.011 62.0476 131.071 60.0483C132.162 59.0183 135.433 56.6555 135.797 56.5949C135.979 56.5949 136.766 57.019 137.493 57.5643ZM46.7968 60.8965C50.0684 62.5323 53.5218 69.8025 59.4592 87.1906C67.0323 109.425 70.4251 115.06 79.1494 119.846C83.451 122.209 86.7226 124.814 86.7226 125.844C86.7226 126.208 85.0262 126.268 82.4816 126.026C72.0003 124.996 68.1835 122.27 66.4871 114.818C62.9125 99.1865 52.613 75.6187 42.6164 60.2906C41.647 58.8971 41.7076 58.8971 43.1011 59.3212C43.9493 59.5636 45.5851 60.2906 46.7968 60.8965ZM160.455 59.4424C160.273 59.7453 159.001 61.8052 157.608 64.1681C153.245 71.3172 145.733 86.5241 142.522 94.7031C140.825 98.9441 138.402 106.396 137.069 111.182C134.949 118.937 134.403 120.149 132.525 121.845C130.102 124.087 126.103 125.42 120.045 126.026C113.623 126.632 114.471 125.299 123.862 119.604C132.707 114.272 135.433 109.789 142.825 87.857C145.309 80.5261 148.702 71.6807 150.398 68.2273C153.306 62.1687 153.548 61.9264 156.578 60.4724C159.849 58.9577 160.879 58.7154 160.455 59.4424ZM57.8839 67.6214C59.8833 68.9543 62.7308 71.0748 64.1242 72.2259L66.6688 74.2859V80.7079C66.6082 84.2825 66.9112 88.5234 67.3353 90.2198C68.4258 95.1272 71.6368 100.883 75.5143 104.942L79.1494 108.82V100.398C79.1494 95.7937 79.5129 90.0986 79.937 87.7358L80.7247 83.4342L85.6927 83.0707C88.419 82.889 92.7206 82.162 95.2046 81.4349C97.6886 80.6473 100.415 80.1021 101.263 80.1021C102.111 80.1021 104.838 80.6473 107.322 81.4349C109.806 82.162 114.107 82.889 116.834 83.0707L121.741 83.4342L122.589 87.4329C123.013 89.6746 123.377 95.2484 123.377 100.035V108.638L126.285 105.79C130.162 102.034 132.525 98.1565 134.403 92.825C135.736 89.0081 135.918 87.4329 135.918 81.3138L135.857 74.1647L139.311 71.5595C143.37 68.4696 148.277 65.0769 148.762 65.0769C148.883 65.0769 147.853 67.6215 146.399 70.6507C145.006 73.7406 141.977 81.3138 139.735 87.4935C132.707 107.002 129.132 112.879 121.923 116.575C117.621 118.756 114.653 120.937 113.32 122.997C111.441 125.905 110.654 135.538 110.654 155.652C110.654 175.948 111.32 182.37 114.228 191.943C115.016 194.487 115.561 196.547 115.44 196.547C115.258 196.547 112.047 194.184 108.23 191.337L101.263 186.066L94.3564 191.337C90.5395 194.184 87.2679 196.547 87.0861 196.547C86.9044 196.547 87.0861 195.578 87.5708 194.427C88.9643 191.095 90.7818 181.764 91.63 173.888C92.4176 165.528 92.0541 137.295 90.9636 129.6C89.9336 122.33 88.6613 120.815 79.1494 115.726C73.1515 112.455 69.5163 106.154 62.4884 86.5847C60.065 79.9203 57.0357 72.3471 55.7634 69.7419C54.4306 67.1974 53.5824 65.0769 53.7641 65.0769C54.0065 65.0769 55.824 66.228 57.8839 67.6214ZM16.7464 69.2572C16.9282 69.6208 20.1392 71.8018 23.8955 74.1041C27.5912 76.4669 32.0745 79.5568 33.8315 80.9502C36.8002 83.4343 43.7069 91.4315 43.7069 92.4615C43.7069 93.1279 34.3768 89.614 28.2576 86.5847C20.0786 82.6466 16.6858 79.8597 15.8982 76.7699C14.6865 72.0442 15.2924 66.955 16.7464 69.2572ZM187.113 73.0741C186.931 75.4976 186.628 77.9816 186.386 78.5268C185.78 80.0415 178.631 84.646 172.633 87.4329C166.938 90.0987 158.819 93.1279 158.819 92.5827C158.819 92.3403 159.789 90.8863 160.94 89.311C164.393 84.5854 170.876 78.9509 177.298 74.9523C180.691 72.8924 184.083 70.6507 184.871 69.9843C185.719 69.3178 186.628 68.7726 186.931 68.712C187.234 68.712 187.294 70.6507 187.113 73.0741ZM47.645 75.3764C49.5231 78.7086 51.7042 82.9496 52.5524 84.7671L54.067 88.0993L52.7948 89.9169C52.0677 90.9468 51.2801 92.5221 51.0378 93.3703C50.6137 94.8849 50.4925 94.8243 47.7056 90.8863C46.1303 88.6446 43.2222 85.0701 41.2229 83.0102C38.8601 80.4656 37.7696 78.8298 37.9513 78.0421C38.0725 77.4363 38.3148 76.164 38.5572 75.2552C38.9207 73.3165 42.2529 69.3178 43.404 69.3178C43.8887 69.3178 45.7668 72.0442 47.645 75.3764ZM161.364 70.9536C163.242 73.0135 163.969 74.4676 164.514 77.1334C164.817 78.9509 164.575 79.4962 160.94 83.3737C158.759 85.7365 155.911 89.2505 154.578 91.2498L152.215 94.8243L151.246 92.5221C150.701 91.3104 149.853 89.7957 149.307 89.1899C148.338 88.1599 148.459 87.7358 150.883 83.0707C155.972 73.2559 158.335 69.3178 159.062 69.3178C159.486 69.3178 160.516 70.0449 161.364 70.9536ZM74.6055 81.4349L76.7866 82.5861L76.2413 87.3117C75.999 89.9169 75.8778 94.6426 76.0596 97.793L76.4231 103.549L74.969 101.731C72.9091 99.2471 69.9404 93.1885 69.2134 89.9169C68.8499 88.4023 68.6076 84.5854 68.6076 81.4349V75.6793L70.4857 77.9816C71.5157 79.2539 73.3332 80.7685 74.6055 81.4349ZM133.07 91.068C132.101 94.3396 129.617 99.1259 127.497 101.852C126.467 103.185 126.406 102.882 126.345 92.7644L126.285 82.2225L128.042 81.4955C129.011 81.0714 130.647 79.6779 131.738 78.4057L133.676 76.0428L133.858 81.859C133.979 85.8577 133.737 88.7052 133.07 91.068ZM58.7321 98.8835C60.3679 103.125 62.1855 108.274 62.7914 110.274L63.8213 113.969L62.2461 115.545L60.7314 117.059L59.0956 112.758C58.1869 110.334 56.2481 105.972 54.7335 103.003C52.613 98.6412 52.1283 97.1266 52.4312 95.4908C52.7947 93.0673 54.4306 90.341 55.2182 90.8257C55.5211 91.0074 57.0963 94.6426 58.7321 98.8835ZM150.095 95.1272C150.398 96.8842 149.913 98.3989 147.126 104.336C145.309 108.214 143.491 112.515 143.067 113.848C141.977 117.302 141.977 117.241 140.22 115.545L138.644 113.909L139.977 109.668C141.674 104.276 144.036 97.9142 145.975 93.552L147.429 90.2198L148.58 91.6133C149.186 92.4009 149.853 93.9761 150.095 95.1272ZM68.0623 123.178C69.0317 124.148 70.9098 125.359 72.1821 125.965C74.3026 126.935 74.4843 127.177 73.9391 128.51C73.2121 130.388 73.2121 134.508 73.9391 137.052C74.4238 138.688 74.3632 138.991 73.4544 138.991C71.758 138.991 67.1535 136.386 65.9418 134.69C65.3359 133.841 64.1848 130.327 63.3366 126.935C62.0037 121.118 61.9432 120.634 62.8519 118.513L63.8213 116.272L65.033 118.816C65.6995 120.27 67.0323 122.209 68.0623 123.178ZM140.22 119.483C140.523 121.058 138.826 129.782 137.554 132.993C136.706 135.174 134.1 137.476 131.616 138.325C128.405 139.415 127.86 139.233 128.527 137.416C129.314 135.477 129.314 129.297 128.527 128.086C128.102 127.419 128.708 126.813 131.132 125.481C134.646 123.602 136.645 121.482 137.675 118.513C138.16 116.999 138.523 116.696 139.129 117.18C139.553 117.544 140.038 118.574 140.22 119.483ZM87.1467 128.328C87.2073 128.389 87.4496 130.933 87.7526 134.023L88.2978 139.597H82.724C79.2706 139.597 76.9684 139.355 76.6654 138.931C76.0596 137.901 75.5749 130.812 76.0596 129.055C76.4231 127.54 76.4231 127.54 81.7546 127.904C84.6627 128.086 87.0861 128.267 87.1467 128.328ZM126.467 128.813C127.073 130.751 126.891 136.022 126.164 137.961C125.558 139.536 125.437 139.597 120.045 139.597H114.592V137.537C114.592 136.447 114.774 133.841 114.955 131.842L115.38 128.146L119.378 127.904C121.559 127.783 123.983 127.662 124.71 127.601C125.618 127.54 126.164 127.904 126.467 128.813Z"/>
</mask>
<path d="M82.1787 1.82564C66.6688 2.79501 57.2175 3.76437 51.886 4.79433C48.9173 5.40018 44.5551 5.58194 37.4666 5.46077C28.3182 5.27901 27.1671 5.33958 25.8948 6.36954C25.1072 6.97539 24.3196 8.12652 24.0772 8.85355C23.8955 9.76233 22.3809 11.0346 19.6545 12.4887C10.2638 17.5779 2.9935 28.3015 0.994182 39.9339C-0.459869 48.2947 1.53945 63.3805 4.99282 70.5295C10.1426 81.0108 24.8043 90.9468 40.7382 94.7637C43.3434 95.3696 45.7668 96.0966 46.1909 96.339C48.5538 97.793 58.5504 122.815 59.7621 130.327C60.4285 134.508 63.5184 138.991 67.0323 140.809C69.8799 142.263 70.5463 142.323 79.2706 142.263L88.419 142.202L88.9037 148.018C89.146 151.229 89.146 159.287 88.9643 165.952C88.6008 179.826 87.1467 189.398 84.3598 197.093C83.3904 199.758 82.724 202 82.9057 202C83.0875 202 87.3285 198.971 92.2965 195.275C98.5974 190.549 101.505 188.671 102.051 189.095C111.866 196.547 119.318 202 119.621 202C119.802 202 119.318 200.182 118.469 197.941C114.35 186.975 112.471 167.042 113.804 147.594L114.168 141.96L120.893 142.384C127.739 142.808 132.707 142.02 137.13 139.779C139.614 138.567 141.734 134.387 143.673 126.935C147.308 113.182 154.699 96.7025 157.608 95.8543C158.456 95.6119 161.667 94.7031 164.817 93.8549C175.541 90.9468 184.023 86.2212 191.051 79.2539C195.716 74.5888 198.2 70.2872 199.957 63.8651C203.713 49.9911 202.32 35.3294 196.322 25.5146C193.656 21.1524 186.386 14.1851 182.266 12.0646C179.661 10.6711 178.631 9.76233 178.207 8.36887C177.843 7.33891 176.934 6.18778 176.207 5.88486C175.42 5.52134 170.815 5.3396 164.878 5.46077C157.911 5.64253 153.609 5.40017 150.64 4.8549C145.127 3.70378 136.342 2.85558 119.136 1.76505C103.02 0.735092 98.7185 0.7351 82.1787 1.82564ZM100.051 6.49072C100.051 8.55063 99.8091 10.5499 99.5667 10.974C99.2638 11.4587 96.9616 11.5193 90.3577 10.974C84.481 10.5499 79.4524 10.5499 75.2114 10.9135C69.3346 11.4587 68.6076 11.3981 65.5177 10.1864C63.7001 9.45941 60.0044 8.36887 57.3387 7.76302C52.7342 6.73306 52.613 6.67247 54.6123 6.24837C57.2781 5.64251 77.1501 3.94613 88.2373 3.40086C92.9023 3.15852 97.4462 2.91618 98.4156 2.85559C100.051 2.73442 100.051 2.79501 100.051 6.49072ZM117.318 3.58261C126.648 4.00671 144.824 5.58193 147.914 6.24837C149.913 6.67247 149.853 6.73306 145.188 7.76302C142.522 8.36887 138.826 9.45941 137.009 10.1864C133.919 11.3981 133.192 11.4587 127.315 10.9135C123.074 10.5499 118.045 10.5499 112.169 10.974C107.322 11.3376 103.262 11.5193 103.081 11.3981C102.96 11.2164 102.717 9.15648 102.596 6.85423L102.354 2.61325L105.868 2.91617C107.867 3.09792 113.017 3.40085 117.318 3.58261ZM42.9193 8.12653C48.8567 8.91414 54.4911 10.1258 61.9432 12.1252L67.7594 13.761L69.3952 23.2123C71.4551 35.0265 71.9398 39.631 71.1521 39.631C68.9711 39.631 60.4891 36.844 56.854 34.9659C53.4006 33.1483 50.856 31.0278 44.9186 25.0299C40.7382 20.7889 35.0432 15.6997 32.1957 13.6398C29.3482 11.5799 27.0459 9.58058 27.0459 9.15648C27.0459 8.6718 28.1971 8.42945 30.4993 8.49004C34.8615 8.61121 42.2529 11.9434 46.0698 15.5785C47.5844 17.0326 48.4326 17.5779 48.0085 16.8508C47.1603 15.0939 41.5259 10.1258 38.9207 8.73238C36.3761 7.33891 36.679 7.33891 42.9193 8.12653ZM162.697 9.39882C159.365 11.5193 155.427 15.0938 154.457 16.9114C154.094 17.5778 155.063 16.972 156.638 15.5179C160.758 11.7616 167.665 8.61121 172.027 8.49004C174.329 8.42945 175.48 8.6718 175.48 9.15648C175.48 9.51999 173.178 11.5799 170.331 13.6398C167.483 15.6997 161.788 20.8495 157.608 25.0905C151.367 31.3913 149.247 33.2089 145.551 35.0265C141.916 36.9046 133.495 39.631 131.435 39.631C130.647 39.631 130.829 37.6316 132.828 25.3934L134.706 13.8821L140.28 12.2463C146.884 10.3076 159.304 7.94477 164.211 7.58125C165.423 7.52067 165.12 7.88418 162.697 9.39882ZM23.8955 15.1544C19.8363 22.5459 20.5633 30.119 25.6525 33.633L27.6518 34.9659L25.7131 32.906C23.532 30.6037 22.502 28.2409 22.502 25.7569C22.502 23.8182 24.1984 18.6078 24.986 18.0625C25.289 17.8808 25.2284 18.4866 24.9254 19.3348C23.1685 23.9999 24.9254 29.392 29.5905 33.633C35.4673 38.9039 42.9799 39.2069 48.0691 34.36C48.9173 33.5118 49.9472 33.0271 50.3107 33.2695C51.2195 33.8148 50.6137 34.663 48.3114 36.0564C45.888 37.5105 47.5844 37.5711 50.4925 36.117C52.1889 35.2082 52.8553 35.1476 53.6429 35.6929C55.097 36.7834 54.8547 37.0864 52.0677 37.874C44.7369 39.8733 30.9234 39.5098 24.7437 37.2076C20.8662 35.7535 17.8975 32.7848 17.3523 29.7555C16.9282 27.5745 17.7764 23.5152 19.291 20.5465C20.8662 17.5173 25.1678 11.1558 25.6525 11.1558C25.8948 11.1558 25.1072 12.9734 23.8955 15.1544ZM179.721 14.488C183.417 20.0619 185.113 24.3634 185.174 28.2409C185.174 31.3913 184.992 31.876 183.114 33.8148C179.115 37.9346 169.604 39.9339 158.395 39.0251C153.064 38.5404 147.914 37.4499 147.914 36.7834C147.914 36.6017 148.338 36.117 148.883 35.6929C149.671 35.1476 150.337 35.2082 152.034 36.117C154.942 37.5711 156.638 37.5105 154.215 36.0564C151.913 34.663 151.307 33.8148 152.155 33.2695C152.518 33.0271 153.67 33.633 154.76 34.5418C160.455 39.3886 167.907 38.7828 173.663 33.0877C177.661 29.1497 179.176 23.697 177.601 19.2137C177.056 17.6384 177.056 17.5778 177.904 18.729C178.994 20.1224 180.024 23.5152 180.024 25.8175C180.024 28.2409 178.934 30.6037 176.813 32.906C175.541 34.2389 175.299 34.7235 176.086 34.2994C179.237 32.6636 181.236 28.665 181.236 23.9393C181.236 20.9101 180.872 19.5772 178.873 15.7603C177.54 13.2157 176.692 11.1558 176.995 11.1558C177.237 11.1558 178.51 12.6704 179.721 14.488ZM96.2951 14.3668C100.294 14.9727 102.232 14.9727 106.292 14.3668C113.683 13.2157 131.253 12.6098 131.798 13.458C132.041 13.8821 131.495 17.3355 130.647 21.1524C129.799 24.9693 128.951 30.7249 128.708 33.9359L128.345 39.7521L126.467 39.3886C106.655 35.2688 95.871 35.2688 75.999 39.3886L73.9997 39.7521V36.7229C73.9997 32.5425 72.9697 25.151 71.5157 19.2137C70.8492 16.4267 70.4857 13.8821 70.7281 13.5186C71.2733 12.6098 88.7219 13.2157 96.2951 14.3668ZM17.1099 19.3954C14.6865 24.1817 13.8383 28.0591 14.5653 31.2702C15.1106 33.5724 14.9894 33.9359 13.293 36.0564C11.6572 38.1163 11.4149 38.9039 11.4149 41.9332C11.4149 43.8719 11.6572 45.9318 12.0207 46.5377C12.5054 47.3859 12.6872 46.5983 12.9295 43.0237C13.1719 39.328 13.5354 38.1163 14.5653 36.9652L15.9588 35.5112L19.3516 37.874C24.986 41.6909 34.7403 43.3873 43.7069 42.1756C46.1909 41.812 48.3114 41.6303 48.4932 41.7514C48.6144 41.8726 47.8267 43.0237 46.7362 44.2355C44.434 46.9012 43.1011 49.8093 43.1011 52.2933V54.0503L37.709 53.8685C31.711 53.5656 29.954 53.0204 24.7437 49.6882C22.8049 48.4159 21.048 47.5071 20.9268 47.6888C20.8056 47.81 21.5932 49.264 22.6838 50.8999C25.4101 54.8985 30.257 57.8066 34.0738 57.8066H36.8608L39.9506 62.4717L43.0405 67.1368L40.7382 68.1667C38.0119 69.3784 35.8914 72.1048 35.4067 75.0735C35.225 76.2246 34.9826 77.1939 34.922 77.1939C34.8615 77.1939 32.741 75.9822 30.3175 74.5282C27.8335 73.1347 23.9561 70.8931 21.6538 69.6208C14.4442 65.6827 11.3543 61.6841 9.17322 53.3839L8.0221 49.0217L8.38561 52.6568C8.80971 57.0796 10.5061 62.1688 12.3237 64.7133C13.596 66.4097 13.6565 67.0762 13.4142 71.4383L13.1113 76.2852L10.809 73.1347C7.65858 68.8332 6.44687 65.7433 4.93224 58.4125C3.8417 53.3233 3.65994 50.6575 3.90228 45.0836C4.20521 36.9652 5.53809 32.179 9.05205 26.3627C11.112 22.9094 18.1399 15.0939 18.6851 15.5785C18.7457 15.6997 18.0793 17.3961 17.1099 19.3954ZM34.922 17.8202L38.0725 20.2436L36.6184 23.1517C35.4673 25.3328 35.1644 26.6657 35.4067 28.9073C35.6491 31.7549 36.3761 33.2695 36.8608 31.9972C37.6484 29.8161 41.1018 24.7875 41.8288 24.7875C42.3135 24.7875 43.8887 26.2416 45.3427 28.0591C47.9479 31.2096 48.0085 31.3307 46.918 32.4819C42.8587 37.0258 35.8308 36.1776 30.8022 30.6037C28.2576 27.7562 27.7124 26.0598 28.0759 22.3641C28.3788 20.0013 30.5599 15.3968 31.4081 15.3968C31.6504 15.3968 33.2256 16.4873 34.922 17.8202ZM173.239 18.4866C174.39 20.6071 174.632 21.8188 174.45 24.6664C174.208 27.7562 173.905 28.4227 171.785 30.6037C166.392 36.2382 159.668 37.0258 155.608 32.4819C154.578 31.3307 154.639 31.2096 156.941 28.2409C158.274 26.5445 159.668 25.0299 160.031 24.7875C161 24.1817 162.394 25.5751 164.09 28.9679C166.029 32.7848 166.029 32.8454 166.695 31.7549C167.725 30.1796 167.362 25.7569 166.029 23.2123C165.363 21.8794 164.878 20.5465 164.999 20.2436C165.302 19.3954 170.573 15.4574 171.239 15.6391C171.542 15.6997 172.451 16.972 173.239 18.4866ZM190.566 22.0006C195.898 28.4227 198.806 37.2075 198.806 47.1436C198.806 58.0489 195.655 68.8937 191.051 74.1647L189.173 76.2852L189.112 71.3172C189.112 66.8338 189.294 66.1068 190.93 63.4411C191.96 61.8052 193.171 58.5942 193.656 56.292C194.868 50.4152 194.686 48.0523 193.414 53.2627C192.141 58.5942 189.476 63.441 186.567 65.925C185.356 67.0156 181.357 69.439 177.783 71.4383C174.208 73.3771 170.512 75.437 169.604 76.1034C167.483 77.5575 167.301 77.4969 167.301 75.437C167.301 73.0136 164.999 69.8025 162.091 68.3485L159.607 67.1368L162.636 62.4717C165.605 57.8066 165.605 57.8066 168.271 57.8066C171.179 57.8066 173.36 57.019 176.268 54.8379C178.267 53.3839 182.205 48.2341 181.721 47.7494C181.539 47.6282 179.176 48.84 176.389 50.5363C173.602 52.1722 170.755 53.5656 170.088 53.6262C169.361 53.6868 166.695 53.7474 164.151 53.8685L159.425 53.9897V52.1116C159.425 49.7487 157.608 45.8713 155.487 43.6902C154.578 42.7208 153.972 41.8726 154.094 41.7514C154.215 41.6303 156.456 41.812 159.122 42.1756C168.574 43.3267 178.752 41.4485 183.902 37.5711L186.567 35.5112L187.9 36.9046C188.991 38.0557 189.354 39.328 189.597 42.5997C189.9 47.2647 190.566 47.7494 191.172 43.7508C191.657 40.4792 190.808 37.4499 188.809 35.39C187.476 33.9965 187.355 33.633 187.961 31.4519C188.809 28.4226 187.9 23.8787 185.416 19.2137C184.447 17.3961 183.659 15.7603 183.659 15.5785C183.659 14.9727 188.264 19.2742 190.566 22.0006ZM67.3959 42.1756L70.7886 42.842L68.547 47.9312C67.2747 50.7181 66.063 53.0204 65.76 53.0204C64.5483 53.0204 56.7328 46.4771 54.4911 43.6296L52.0677 40.6003L54.6123 39.328L57.0963 38.0557L60.5497 39.7521C62.4278 40.6609 65.5177 41.7515 67.3959 42.1756ZM149.61 41.6909C148.641 43.4479 142.643 49.2035 139.25 51.6269C136.645 53.4444 136.342 53.5656 135.979 52.5357C135.797 51.9298 134.767 49.5064 133.676 47.1436L131.738 42.842L135.13 42.115C137.009 41.7514 140.038 40.6609 141.855 39.7521L145.188 38.1163L147.732 39.2675C150.034 40.2974 150.216 40.6003 149.61 41.6909ZM100.051 48.3553V57.6248L95.3863 58.049C92.7812 58.2307 88.3584 58.8366 85.5109 59.3212C76.6048 60.8965 75.3325 60.6541 70.4857 56.7161C67.5776 54.3532 67.5776 54.535 70.6675 47.7494L72.6062 43.4478L81.0276 41.812C89.9942 40.1156 95.6893 39.2069 98.4156 39.0857L100.051 39.0251V48.3553ZM108.836 39.631C111.199 39.9945 116.834 40.9638 121.499 41.812L129.92 43.4478L131.859 47.7494C135.009 54.5956 135.009 54.2321 131.495 57.2007C127.678 60.4118 125.437 60.7753 117.439 59.3818C114.289 58.8366 109.624 58.2307 107.079 57.9884L102.475 57.6248V48.3553C102.475 37.7528 101.808 38.6616 108.836 39.631ZM57.7022 50.2334C61.0344 52.7174 64.0636 54.7773 64.4272 54.7773C64.8513 54.7773 64.306 55.6861 63.276 56.7161C61.095 59.0789 60.065 60.8965 60.065 62.5928C60.065 63.6228 59.3986 63.3805 55.0364 60.6541C52.3101 58.8971 48.9173 56.9584 47.4632 56.3526C45.1004 55.262 44.9186 55.0803 44.9186 52.7174C44.9186 50.2334 46.3121 47.2647 48.7355 44.6596C49.9472 43.3267 50.0078 43.3267 50.7954 44.4778C51.2195 45.0837 54.37 47.6888 57.7022 50.2334ZM155.911 47.4465C157.062 49.3246 157.608 50.9604 157.608 52.5963C157.608 55.0197 157.547 55.1408 153.609 57.1402C151.428 58.2913 148.035 60.23 146.096 61.5023L142.582 63.744L142.219 61.5023C141.977 59.9877 141.128 58.473 139.795 57.2007L137.796 55.2014L142.098 52.2933C144.461 50.6575 147.793 48.0523 149.429 46.4771C152.882 43.1449 153.185 43.2055 155.911 47.4465ZM70.7281 59.3818L74.3026 62.1688L84.9656 61.7447C90.8424 61.5629 96.598 61.5629 97.8098 61.7447L100.051 62.1688V69.9843V77.7392L97.8098 78.4057C92.7206 79.7991 84.178 80.405 80.3611 79.6174C77.0895 78.9509 76.3625 78.4662 72.788 74.7705C70.6069 72.5289 67.2747 69.3784 65.3965 67.8032C61.5796 64.7133 61.1555 63.3805 62.7914 60.23C63.6396 58.5942 65.8812 56.5949 66.79 56.5949C67.0323 56.5949 68.7893 57.8672 70.7281 59.3818ZM137.493 57.5643C138.22 58.0489 139.25 59.2607 139.735 60.23C141.431 63.4411 140.947 64.7133 136.887 68.1667C134.767 69.8631 131.435 73.0136 129.435 75.0735C126.164 78.4662 125.437 78.9509 122.226 79.6174C118.469 80.405 112.896 80.1021 106.413 78.7692L102.778 78.0421L102.596 70.1055L102.414 62.1688L104.716 61.7447C105.928 61.5023 111.623 61.5629 117.318 61.7447C127.739 62.2293 129.011 62.0476 131.071 60.0483C132.162 59.0183 135.433 56.6555 135.797 56.5949C135.979 56.5949 136.766 57.019 137.493 57.5643ZM46.7968 60.8965C50.0684 62.5323 53.5218 69.8025 59.4592 87.1906C67.0323 109.425 70.4251 115.06 79.1494 119.846C83.451 122.209 86.7226 124.814 86.7226 125.844C86.7226 126.208 85.0262 126.268 82.4816 126.026C72.0003 124.996 68.1835 122.27 66.4871 114.818C62.9125 99.1865 52.613 75.6187 42.6164 60.2906C41.647 58.8971 41.7076 58.8971 43.1011 59.3212C43.9493 59.5636 45.5851 60.2906 46.7968 60.8965ZM160.455 59.4424C160.273 59.7453 159.001 61.8052 157.608 64.1681C153.245 71.3172 145.733 86.5241 142.522 94.7031C140.825 98.9441 138.402 106.396 137.069 111.182C134.949 118.937 134.403 120.149 132.525 121.845C130.102 124.087 126.103 125.42 120.045 126.026C113.623 126.632 114.471 125.299 123.862 119.604C132.707 114.272 135.433 109.789 142.825 87.857C145.309 80.5261 148.702 71.6807 150.398 68.2273C153.306 62.1687 153.548 61.9264 156.578 60.4724C159.849 58.9577 160.879 58.7154 160.455 59.4424ZM57.8839 67.6214C59.8833 68.9543 62.7308 71.0748 64.1242 72.2259L66.6688 74.2859V80.7079C66.6082 84.2825 66.9112 88.5234 67.3353 90.2198C68.4258 95.1272 71.6368 100.883 75.5143 104.942L79.1494 108.82V100.398C79.1494 95.7937 79.5129 90.0986 79.937 87.7358L80.7247 83.4342L85.6927 83.0707C88.419 82.889 92.7206 82.162 95.2046 81.4349C97.6886 80.6473 100.415 80.1021 101.263 80.1021C102.111 80.1021 104.838 80.6473 107.322 81.4349C109.806 82.162 114.107 82.889 116.834 83.0707L121.741 83.4342L122.589 87.4329C123.013 89.6746 123.377 95.2484 123.377 100.035V108.638L126.285 105.79C130.162 102.034 132.525 98.1565 134.403 92.825C135.736 89.0081 135.918 87.4329 135.918 81.3138L135.857 74.1647L139.311 71.5595C143.37 68.4696 148.277 65.0769 148.762 65.0769C148.883 65.0769 147.853 67.6215 146.399 70.6507C145.006 73.7406 141.977 81.3138 139.735 87.4935C132.707 107.002 129.132 112.879 121.923 116.575C117.621 118.756 114.653 120.937 113.32 122.997C111.441 125.905 110.654 135.538 110.654 155.652C110.654 175.948 111.32 182.37 114.228 191.943C115.016 194.487 115.561 196.547 115.44 196.547C115.258 196.547 112.047 194.184 108.23 191.337L101.263 186.066L94.3564 191.337C90.5395 194.184 87.2679 196.547 87.0861 196.547C86.9044 196.547 87.0861 195.578 87.5708 194.427C88.9643 191.095 90.7818 181.764 91.63 173.888C92.4176 165.528 92.0541 137.295 90.9636 129.6C89.9336 122.33 88.6613 120.815 79.1494 115.726C73.1515 112.455 69.5163 106.154 62.4884 86.5847C60.065 79.9203 57.0357 72.3471 55.7634 69.7419C54.4306 67.1974 53.5824 65.0769 53.7641 65.0769C54.0065 65.0769 55.824 66.228 57.8839 67.6214ZM16.7464 69.2572C16.9282 69.6208 20.1392 71.8018 23.8955 74.1041C27.5912 76.4669 32.0745 79.5568 33.8315 80.9502C36.8002 83.4343 43.7069 91.4315 43.7069 92.4615C43.7069 93.1279 34.3768 89.614 28.2576 86.5847C20.0786 82.6466 16.6858 79.8597 15.8982 76.7699C14.6865 72.0442 15.2924 66.955 16.7464 69.2572ZM187.113 73.0741C186.931 75.4976 186.628 77.9816 186.386 78.5268C185.78 80.0415 178.631 84.646 172.633 87.4329C166.938 90.0987 158.819 93.1279 158.819 92.5827C158.819 92.3403 159.789 90.8863 160.94 89.311C164.393 84.5854 170.876 78.9509 177.298 74.9523C180.691 72.8924 184.083 70.6507 184.871 69.9843C185.719 69.3178 186.628 68.7726 186.931 68.712C187.234 68.712 187.294 70.6507 187.113 73.0741ZM47.645 75.3764C49.5231 78.7086 51.7042 82.9496 52.5524 84.7671L54.067 88.0993L52.7948 89.9169C52.0677 90.9468 51.2801 92.5221 51.0378 93.3703C50.6137 94.8849 50.4925 94.8243 47.7056 90.8863C46.1303 88.6446 43.2222 85.0701 41.2229 83.0102C38.8601 80.4656 37.7696 78.8298 37.9513 78.0421C38.0725 77.4363 38.3148 76.164 38.5572 75.2552C38.9207 73.3165 42.2529 69.3178 43.404 69.3178C43.8887 69.3178 45.7668 72.0442 47.645 75.3764ZM161.364 70.9536C163.242 73.0135 163.969 74.4676 164.514 77.1334C164.817 78.9509 164.575 79.4962 160.94 83.3737C158.759 85.7365 155.911 89.2505 154.578 91.2498L152.215 94.8243L151.246 92.5221C150.701 91.3104 149.853 89.7957 149.307 89.1899C148.338 88.1599 148.459 87.7358 150.883 83.0707C155.972 73.2559 158.335 69.3178 159.062 69.3178C159.486 69.3178 160.516 70.0449 161.364 70.9536ZM74.6055 81.4349L76.7866 82.5861L76.2413 87.3117C75.999 89.9169 75.8778 94.6426 76.0596 97.793L76.4231 103.549L74.969 101.731C72.9091 99.2471 69.9404 93.1885 69.2134 89.9169C68.8499 88.4023 68.6076 84.5854 68.6076 81.4349V75.6793L70.4857 77.9816C71.5157 79.2539 73.3332 80.7685 74.6055 81.4349ZM133.07 91.068C132.101 94.3396 129.617 99.1259 127.497 101.852C126.467 103.185 126.406 102.882 126.345 92.7644L126.285 82.2225L128.042 81.4955C129.011 81.0714 130.647 79.6779 131.738 78.4057L133.676 76.0428L133.858 81.859C133.979 85.8577 133.737 88.7052 133.07 91.068ZM58.7321 98.8835C60.3679 103.125 62.1855 108.274 62.7914 110.274L63.8213 113.969L62.2461 115.545L60.7314 117.059L59.0956 112.758C58.1869 110.334 56.2481 105.972 54.7335 103.003C52.613 98.6412 52.1283 97.1266 52.4312 95.4908C52.7947 93.0673 54.4306 90.341 55.2182 90.8257C55.5211 91.0074 57.0963 94.6426 58.7321 98.8835ZM150.095 95.1272C150.398 96.8842 149.913 98.3989 147.126 104.336C145.309 108.214 143.491 112.515 143.067 113.848C141.977 117.302 141.977 117.241 140.22 115.545L138.644 113.909L139.977 109.668C141.674 104.276 144.036 97.9142 145.975 93.552L147.429 90.2198L148.58 91.6133C149.186 92.4009 149.853 93.9761 150.095 95.1272ZM68.0623 123.178C69.0317 124.148 70.9098 125.359 72.1821 125.965C74.3026 126.935 74.4843 127.177 73.9391 128.51C73.2121 130.388 73.2121 134.508 73.9391 137.052C74.4238 138.688 74.3632 138.991 73.4544 138.991C71.758 138.991 67.1535 136.386 65.9418 134.69C65.3359 133.841 64.1848 130.327 63.3366 126.935C62.0037 121.118 61.9432 120.634 62.8519 118.513L63.8213 116.272L65.033 118.816C65.6995 120.27 67.0323 122.209 68.0623 123.178ZM140.22 119.483C140.523 121.058 138.826 129.782 137.554 132.993C136.706 135.174 134.1 137.476 131.616 138.325C128.405 139.415 127.86 139.233 128.527 137.416C129.314 135.477 129.314 129.297 128.527 128.086C128.102 127.419 128.708 126.813 131.132 125.481C134.646 123.602 136.645 121.482 137.675 118.513C138.16 116.999 138.523 116.696 139.129 117.18C139.553 117.544 140.038 118.574 140.22 119.483ZM87.1467 128.328C87.2073 128.389 87.4496 130.933 87.7526 134.023L88.2978 139.597H82.724C79.2706 139.597 76.9684 139.355 76.6654 138.931C76.0596 137.901 75.5749 130.812 76.0596 129.055C76.4231 127.54 76.4231 127.54 81.7546 127.904C84.6627 128.086 87.0861 128.267 87.1467 128.328ZM126.467 128.813C127.073 130.751 126.891 136.022 126.164 137.961C125.558 139.536 125.437 139.597 120.045 139.597H114.592V137.537C114.592 136.447 114.774 133.841 114.955 131.842L115.38 128.146L119.378 127.904C121.559 127.783 123.983 127.662 124.71 127.601C125.618 127.54 126.164 127.904 126.467 128.813Z" fill="#C9A48A"/>
<path d="M82.1787 1.82564C66.6688 2.79501 57.2175 3.76437 51.886 4.79433C48.9173 5.40018 44.5551 5.58194 37.4666 5.46077C28.3182 5.27901 27.1671 5.33958 25.8948 6.36954C25.1072 6.97539 24.3196 8.12652 24.0772 8.85355C23.8955 9.76233 22.3809 11.0346 19.6545 12.4887C10.2638 17.5779 2.9935 28.3015 0.994182 39.9339C-0.459869 48.2947 1.53945 63.3805 4.99282 70.5295C10.1426 81.0108 24.8043 90.9468 40.7382 94.7637C43.3434 95.3696 45.7668 96.0966 46.1909 96.339C48.5538 97.793 58.5504 122.815 59.7621 130.327C60.4285 134.508 63.5184 138.991 67.0323 140.809C69.8799 142.263 70.5463 142.323 79.2706 142.263L88.419 142.202L88.9037 148.018C89.146 151.229 89.146 159.287 88.9643 165.952C88.6008 179.826 87.1467 189.398 84.3598 197.093C83.3904 199.758 82.724 202 82.9057 202C83.0875 202 87.3285 198.971 92.2965 195.275C98.5974 190.549 101.505 188.671 102.051 189.095C111.866 196.547 119.318 202 119.621 202C119.802 202 119.318 200.182 118.469 197.941C114.35 186.975 112.471 167.042 113.804 147.594L114.168 141.96L120.893 142.384C127.739 142.808 132.707 142.02 137.13 139.779C139.614 138.567 141.734 134.387 143.673 126.935C147.308 113.182 154.699 96.7025 157.608 95.8543C158.456 95.6119 161.667 94.7031 164.817 93.8549C175.541 90.9468 184.023 86.2212 191.051 79.2539C195.716 74.5888 198.2 70.2872 199.957 63.8651C203.713 49.9911 202.32 35.3294 196.322 25.5146C193.656 21.1524 186.386 14.1851 182.266 12.0646C179.661 10.6711 178.631 9.76233 178.207 8.36887C177.843 7.33891 176.934 6.18778 176.207 5.88486C175.42 5.52134 170.815 5.3396 164.878 5.46077C157.911 5.64253 153.609 5.40017 150.64 4.8549C145.127 3.70378 136.342 2.85558 119.136 1.76505C103.02 0.735092 98.7185 0.7351 82.1787 1.82564ZM100.051 6.49072C100.051 8.55063 99.8091 10.5499 99.5667 10.974C99.2638 11.4587 96.9616 11.5193 90.3577 10.974C84.481 10.5499 79.4524 10.5499 75.2114 10.9135C69.3346 11.4587 68.6076 11.3981 65.5177 10.1864C63.7001 9.45941 60.0044 8.36887 57.3387 7.76302C52.7342 6.73306 52.613 6.67247 54.6123 6.24837C57.2781 5.64251 77.1501 3.94613 88.2373 3.40086C92.9023 3.15852 97.4462 2.91618 98.4156 2.85559C100.051 2.73442 100.051 2.79501 100.051 6.49072ZM117.318 3.58261C126.648 4.00671 144.824 5.58193 147.914 6.24837C149.913 6.67247 149.853 6.73306 145.188 7.76302C142.522 8.36887 138.826 9.45941 137.009 10.1864C133.919 11.3981 133.192 11.4587 127.315 10.9135C123.074 10.5499 118.045 10.5499 112.169 10.974C107.322 11.3376 103.262 11.5193 103.081 11.3981C102.96 11.2164 102.717 9.15648 102.596 6.85423L102.354 2.61325L105.868 2.91617C107.867 3.09792 113.017 3.40085 117.318 3.58261ZM42.9193 8.12653C48.8567 8.91414 54.4911 10.1258 61.9432 12.1252L67.7594 13.761L69.3952 23.2123C71.4551 35.0265 71.9398 39.631 71.1521 39.631C68.9711 39.631 60.4891 36.844 56.854 34.9659C53.4006 33.1483 50.856 31.0278 44.9186 25.0299C40.7382 20.7889 35.0432 15.6997 32.1957 13.6398C29.3482 11.5799 27.0459 9.58058 27.0459 9.15648C27.0459 8.6718 28.1971 8.42945 30.4993 8.49004C34.8615 8.61121 42.2529 11.9434 46.0698 15.5785C47.5844 17.0326 48.4326 17.5779 48.0085 16.8508C47.1603 15.0939 41.5259 10.1258 38.9207 8.73238C36.3761 7.33891 36.679 7.33891 42.9193 8.12653ZM162.697 9.39882C159.365 11.5193 155.427 15.0938 154.457 16.9114C154.094 17.5778 155.063 16.972 156.638 15.5179C160.758 11.7616 167.665 8.61121 172.027 8.49004C174.329 8.42945 175.48 8.6718 175.48 9.15648C175.48 9.51999 173.178 11.5799 170.331 13.6398C167.483 15.6997 161.788 20.8495 157.608 25.0905C151.367 31.3913 149.247 33.2089 145.551 35.0265C141.916 36.9046 133.495 39.631 131.435 39.631C130.647 39.631 130.829 37.6316 132.828 25.3934L134.706 13.8821L140.28 12.2463C146.884 10.3076 159.304 7.94477 164.211 7.58125C165.423 7.52067 165.12 7.88418 162.697 9.39882ZM23.8955 15.1544C19.8363 22.5459 20.5633 30.119 25.6525 33.633L27.6518 34.9659L25.7131 32.906C23.532 30.6037 22.502 28.2409 22.502 25.7569C22.502 23.8182 24.1984 18.6078 24.986 18.0625C25.289 17.8808 25.2284 18.4866 24.9254 19.3348C23.1685 23.9999 24.9254 29.392 29.5905 33.633C35.4673 38.9039 42.9799 39.2069 48.0691 34.36C48.9173 33.5118 49.9472 33.0271 50.3107 33.2695C51.2195 33.8148 50.6137 34.663 48.3114 36.0564C45.888 37.5105 47.5844 37.5711 50.4925 36.117C52.1889 35.2082 52.8553 35.1476 53.6429 35.6929C55.097 36.7834 54.8547 37.0864 52.0677 37.874C44.7369 39.8733 30.9234 39.5098 24.7437 37.2076C20.8662 35.7535 17.8975 32.7848 17.3523 29.7555C16.9282 27.5745 17.7764 23.5152 19.291 20.5465C20.8662 17.5173 25.1678 11.1558 25.6525 11.1558C25.8948 11.1558 25.1072 12.9734 23.8955 15.1544ZM179.721 14.488C183.417 20.0619 185.113 24.3634 185.174 28.2409C185.174 31.3913 184.992 31.876 183.114 33.8148C179.115 37.9346 169.604 39.9339 158.395 39.0251C153.064 38.5404 147.914 37.4499 147.914 36.7834C147.914 36.6017 148.338 36.117 148.883 35.6929C149.671 35.1476 150.337 35.2082 152.034 36.117C154.942 37.5711 156.638 37.5105 154.215 36.0564C151.913 34.663 151.307 33.8148 152.155 33.2695C152.518 33.0271 153.67 33.633 154.76 34.5418C160.455 39.3886 167.907 38.7828 173.663 33.0877C177.661 29.1497 179.176 23.697 177.601 19.2137C177.056 17.6384 177.056 17.5778 177.904 18.729C178.994 20.1224 180.024 23.5152 180.024 25.8175C180.024 28.2409 178.934 30.6037 176.813 32.906C175.541 34.2389 175.299 34.7235 176.086 34.2994C179.237 32.6636 181.236 28.665 181.236 23.9393C181.236 20.9101 180.872 19.5772 178.873 15.7603C177.54 13.2157 176.692 11.1558 176.995 11.1558C177.237 11.1558 178.51 12.6704 179.721 14.488ZM96.2951 14.3668C100.294 14.9727 102.232 14.9727 106.292 14.3668C113.683 13.2157 131.253 12.6098 131.798 13.458C132.041 13.8821 131.495 17.3355 130.647 21.1524C129.799 24.9693 128.951 30.7249 128.708 33.9359L128.345 39.7521L126.467 39.3886C106.655 35.2688 95.871 35.2688 75.999 39.3886L73.9997 39.7521V36.7229C73.9997 32.5425 72.9697 25.151 71.5157 19.2137C70.8492 16.4267 70.4857 13.8821 70.7281 13.5186C71.2733 12.6098 88.7219 13.2157 96.2951 14.3668ZM17.1099 19.3954C14.6865 24.1817 13.8383 28.0591 14.5653 31.2702C15.1106 33.5724 14.9894 33.9359 13.293 36.0564C11.6572 38.1163 11.4149 38.9039 11.4149 41.9332C11.4149 43.8719 11.6572 45.9318 12.0207 46.5377C12.5054 47.3859 12.6872 46.5983 12.9295 43.0237C13.1719 39.328 13.5354 38.1163 14.5653 36.9652L15.9588 35.5112L19.3516 37.874C24.986 41.6909 34.7403 43.3873 43.7069 42.1756C46.1909 41.812 48.3114 41.6303 48.4932 41.7514C48.6144 41.8726 47.8267 43.0237 46.7362 44.2355C44.434 46.9012 43.1011 49.8093 43.1011 52.2933V54.0503L37.709 53.8685C31.711 53.5656 29.954 53.0204 24.7437 49.6882C22.8049 48.4159 21.048 47.5071 20.9268 47.6888C20.8056 47.81 21.5932 49.264 22.6838 50.8999C25.4101 54.8985 30.257 57.8066 34.0738 57.8066H36.8608L39.9506 62.4717L43.0405 67.1368L40.7382 68.1667C38.0119 69.3784 35.8914 72.1048 35.4067 75.0735C35.225 76.2246 34.9826 77.1939 34.922 77.1939C34.8615 77.1939 32.741 75.9822 30.3175 74.5282C27.8335 73.1347 23.9561 70.8931 21.6538 69.6208C14.4442 65.6827 11.3543 61.6841 9.17322 53.3839L8.0221 49.0217L8.38561 52.6568C8.80971 57.0796 10.5061 62.1688 12.3237 64.7133C13.596 66.4097 13.6565 67.0762 13.4142 71.4383L13.1113 76.2852L10.809 73.1347C7.65858 68.8332 6.44687 65.7433 4.93224 58.4125C3.8417 53.3233 3.65994 50.6575 3.90228 45.0836C4.20521 36.9652 5.53809 32.179 9.05205 26.3627C11.112 22.9094 18.1399 15.0939 18.6851 15.5785C18.7457 15.6997 18.0793 17.3961 17.1099 19.3954ZM34.922 17.8202L38.0725 20.2436L36.6184 23.1517C35.4673 25.3328 35.1644 26.6657 35.4067 28.9073C35.6491 31.7549 36.3761 33.2695 36.8608 31.9972C37.6484 29.8161 41.1018 24.7875 41.8288 24.7875C42.3135 24.7875 43.8887 26.2416 45.3427 28.0591C47.9479 31.2096 48.0085 31.3307 46.918 32.4819C42.8587 37.0258 35.8308 36.1776 30.8022 30.6037C28.2576 27.7562 27.7124 26.0598 28.0759 22.3641C28.3788 20.0013 30.5599 15.3968 31.4081 15.3968C31.6504 15.3968 33.2256 16.4873 34.922 17.8202ZM173.239 18.4866C174.39 20.6071 174.632 21.8188 174.45 24.6664C174.208 27.7562 173.905 28.4227 171.785 30.6037C166.392 36.2382 159.668 37.0258 155.608 32.4819C154.578 31.3307 154.639 31.2096 156.941 28.2409C158.274 26.5445 159.668 25.0299 160.031 24.7875C161 24.1817 162.394 25.5751 164.09 28.9679C166.029 32.7848 166.029 32.8454 166.695 31.7549C167.725 30.1796 167.362 25.7569 166.029 23.2123C165.363 21.8794 164.878 20.5465 164.999 20.2436C165.302 19.3954 170.573 15.4574 171.239 15.6391C171.542 15.6997 172.451 16.972 173.239 18.4866ZM190.566 22.0006C195.898 28.4227 198.806 37.2075 198.806 47.1436C198.806 58.0489 195.655 68.8937 191.051 74.1647L189.173 76.2852L189.112 71.3172C189.112 66.8338 189.294 66.1068 190.93 63.4411C191.96 61.8052 193.171 58.5942 193.656 56.292C194.868 50.4152 194.686 48.0523 193.414 53.2627C192.141 58.5942 189.476 63.441 186.567 65.925C185.356 67.0156 181.357 69.439 177.783 71.4383C174.208 73.3771 170.512 75.437 169.604 76.1034C167.483 77.5575 167.301 77.4969 167.301 75.437C167.301 73.0136 164.999 69.8025 162.091 68.3485L159.607 67.1368L162.636 62.4717C165.605 57.8066 165.605 57.8066 168.271 57.8066C171.179 57.8066 173.36 57.019 176.268 54.8379C178.267 53.3839 182.205 48.2341 181.721 47.7494C181.539 47.6282 179.176 48.84 176.389 50.5363C173.602 52.1722 170.755 53.5656 170.088 53.6262C169.361 53.6868 166.695 53.7474 164.151 53.8685L159.425 53.9897V52.1116C159.425 49.7487 157.608 45.8713 155.487 43.6902C154.578 42.7208 153.972 41.8726 154.094 41.7514C154.215 41.6303 156.456 41.812 159.122 42.1756C168.574 43.3267 178.752 41.4485 183.902 37.5711L186.567 35.5112L187.9 36.9046C188.991 38.0557 189.354 39.328 189.597 42.5997C189.9 47.2647 190.566 47.7494 191.172 43.7508C191.657 40.4792 190.808 37.4499 188.809 35.39C187.476 33.9965 187.355 33.633 187.961 31.4519C188.809 28.4226 187.9 23.8787 185.416 19.2137C184.447 17.3961 183.659 15.7603 183.659 15.5785C183.659 14.9727 188.264 19.2742 190.566 22.0006ZM67.3959 42.1756L70.7886 42.842L68.547 47.9312C67.2747 50.7181 66.063 53.0204 65.76 53.0204C64.5483 53.0204 56.7328 46.4771 54.4911 43.6296L52.0677 40.6003L54.6123 39.328L57.0963 38.0557L60.5497 39.7521C62.4278 40.6609 65.5177 41.7515 67.3959 42.1756ZM149.61 41.6909C148.641 43.4479 142.643 49.2035 139.25 51.6269C136.645 53.4444 136.342 53.5656 135.979 52.5357C135.797 51.9298 134.767 49.5064 133.676 47.1436L131.738 42.842L135.13 42.115C137.009 41.7514 140.038 40.6609 141.855 39.7521L145.188 38.1163L147.732 39.2675C150.034 40.2974 150.216 40.6003 149.61 41.6909ZM100.051 48.3553V57.6248L95.3863 58.049C92.7812 58.2307 88.3584 58.8366 85.5109 59.3212C76.6048 60.8965 75.3325 60.6541 70.4857 56.7161C67.5776 54.3532 67.5776 54.535 70.6675 47.7494L72.6062 43.4478L81.0276 41.812C89.9942 40.1156 95.6893 39.2069 98.4156 39.0857L100.051 39.0251V48.3553ZM108.836 39.631C111.199 39.9945 116.834 40.9638 121.499 41.812L129.92 43.4478L131.859 47.7494C135.009 54.5956 135.009 54.2321 131.495 57.2007C127.678 60.4118 125.437 60.7753 117.439 59.3818C114.289 58.8366 109.624 58.2307 107.079 57.9884L102.475 57.6248V48.3553C102.475 37.7528 101.808 38.6616 108.836 39.631ZM57.7022 50.2334C61.0344 52.7174 64.0636 54.7773 64.4272 54.7773C64.8513 54.7773 64.306 55.6861 63.276 56.7161C61.095 59.0789 60.065 60.8965 60.065 62.5928C60.065 63.6228 59.3986 63.3805 55.0364 60.6541C52.3101 58.8971 48.9173 56.9584 47.4632 56.3526C45.1004 55.262 44.9186 55.0803 44.9186 52.7174C44.9186 50.2334 46.3121 47.2647 48.7355 44.6596C49.9472 43.3267 50.0078 43.3267 50.7954 44.4778C51.2195 45.0837 54.37 47.6888 57.7022 50.2334ZM155.911 47.4465C157.062 49.3246 157.608 50.9604 157.608 52.5963C157.608 55.0197 157.547 55.1408 153.609 57.1402C151.428 58.2913 148.035 60.23 146.096 61.5023L142.582 63.744L142.219 61.5023C141.977 59.9877 141.128 58.473 139.795 57.2007L137.796 55.2014L142.098 52.2933C144.461 50.6575 147.793 48.0523 149.429 46.4771C152.882 43.1449 153.185 43.2055 155.911 47.4465ZM70.7281 59.3818L74.3026 62.1688L84.9656 61.7447C90.8424 61.5629 96.598 61.5629 97.8098 61.7447L100.051 62.1688V69.9843V77.7392L97.8098 78.4057C92.7206 79.7991 84.178 80.405 80.3611 79.6174C77.0895 78.9509 76.3625 78.4662 72.788 74.7705C70.6069 72.5289 67.2747 69.3784 65.3965 67.8032C61.5796 64.7133 61.1555 63.3805 62.7914 60.23C63.6396 58.5942 65.8812 56.5949 66.79 56.5949C67.0323 56.5949 68.7893 57.8672 70.7281 59.3818ZM137.493 57.5643C138.22 58.0489 139.25 59.2607 139.735 60.23C141.431 63.4411 140.947 64.7133 136.887 68.1667C134.767 69.8631 131.435 73.0136 129.435 75.0735C126.164 78.4662 125.437 78.9509 122.226 79.6174C118.469 80.405 112.896 80.1021 106.413 78.7692L102.778 78.0421L102.596 70.1055L102.414 62.1688L104.716 61.7447C105.928 61.5023 111.623 61.5629 117.318 61.7447C127.739 62.2293 129.011 62.0476 131.071 60.0483C132.162 59.0183 135.433 56.6555 135.797 56.5949C135.979 56.5949 136.766 57.019 137.493 57.5643ZM46.7968 60.8965C50.0684 62.5323 53.5218 69.8025 59.4592 87.1906C67.0323 109.425 70.4251 115.06 79.1494 119.846C83.451 122.209 86.7226 124.814 86.7226 125.844C86.7226 126.208 85.0262 126.268 82.4816 126.026C72.0003 124.996 68.1835 122.27 66.4871 114.818C62.9125 99.1865 52.613 75.6187 42.6164 60.2906C41.647 58.8971 41.7076 58.8971 43.1011 59.3212C43.9493 59.5636 45.5851 60.2906 46.7968 60.8965ZM160.455 59.4424C160.273 59.7453 159.001 61.8052 157.608 64.1681C153.245 71.3172 145.733 86.5241 142.522 94.7031C140.825 98.9441 138.402 106.396 137.069 111.182C134.949 118.937 134.403 120.149 132.525 121.845C130.102 124.087 126.103 125.42 120.045 126.026C113.623 126.632 114.471 125.299 123.862 119.604C132.707 114.272 135.433 109.789 142.825 87.857C145.309 80.5261 148.702 71.6807 150.398 68.2273C153.306 62.1687 153.548 61.9264 156.578 60.4724C159.849 58.9577 160.879 58.7154 160.455 59.4424ZM57.8839 67.6214C59.8833 68.9543 62.7308 71.0748 64.1242 72.2259L66.6688 74.2859V80.7079C66.6082 84.2825 66.9112 88.5234 67.3353 90.2198C68.4258 95.1272 71.6368 100.883 75.5143 104.942L79.1494 108.82V100.398C79.1494 95.7937 79.5129 90.0986 79.937 87.7358L80.7247 83.4342L85.6927 83.0707C88.419 82.889 92.7206 82.162 95.2046 81.4349C97.6886 80.6473 100.415 80.1021 101.263 80.1021C102.111 80.1021 104.838 80.6473 107.322 81.4349C109.806 82.162 114.107 82.889 116.834 83.0707L121.741 83.4342L122.589 87.4329C123.013 89.6746 123.377 95.2484 123.377 100.035V108.638L126.285 105.79C130.162 102.034 132.525 98.1565 134.403 92.825C135.736 89.0081 135.918 87.4329 135.918 81.3138L135.857 74.1647L139.311 71.5595C143.37 68.4696 148.277 65.0769 148.762 65.0769C148.883 65.0769 147.853 67.6215 146.399 70.6507C145.006 73.7406 141.977 81.3138 139.735 87.4935C132.707 107.002 129.132 112.879 121.923 116.575C117.621 118.756 114.653 120.937 113.32 122.997C111.441 125.905 110.654 135.538 110.654 155.652C110.654 175.948 111.32 182.37 114.228 191.943C115.016 194.487 115.561 196.547 115.44 196.547C115.258 196.547 112.047 194.184 108.23 191.337L101.263 186.066L94.3564 191.337C90.5395 194.184 87.2679 196.547 87.0861 196.547C86.9044 196.547 87.0861 195.578 87.5708 194.427C88.9643 191.095 90.7818 181.764 91.63 173.888C92.4176 165.528 92.0541 137.295 90.9636 129.6C89.9336 122.33 88.6613 120.815 79.1494 115.726C73.1515 112.455 69.5163 106.154 62.4884 86.5847C60.065 79.9203 57.0357 72.3471 55.7634 69.7419C54.4306 67.1974 53.5824 65.0769 53.7641 65.0769C54.0065 65.0769 55.824 66.228 57.8839 67.6214ZM16.7464 69.2572C16.9282 69.6208 20.1392 71.8018 23.8955 74.1041C27.5912 76.4669 32.0745 79.5568 33.8315 80.9502C36.8002 83.4343 43.7069 91.4315 43.7069 92.4615C43.7069 93.1279 34.3768 89.614 28.2576 86.5847C20.0786 82.6466 16.6858 79.8597 15.8982 76.7699C14.6865 72.0442 15.2924 66.955 16.7464 69.2572ZM187.113 73.0741C186.931 75.4976 186.628 77.9816 186.386 78.5268C185.78 80.0415 178.631 84.646 172.633 87.4329C166.938 90.0987 158.819 93.1279 158.819 92.5827C158.819 92.3403 159.789 90.8863 160.94 89.311C164.393 84.5854 170.876 78.9509 177.298 74.9523C180.691 72.8924 184.083 70.6507 184.871 69.9843C185.719 69.3178 186.628 68.7726 186.931 68.712C187.234 68.712 187.294 70.6507 187.113 73.0741ZM47.645 75.3764C49.5231 78.7086 51.7042 82.9496 52.5524 84.7671L54.067 88.0993L52.7948 89.9169C52.0677 90.9468 51.2801 92.5221 51.0378 93.3703C50.6137 94.8849 50.4925 94.8243 47.7056 90.8863C46.1303 88.6446 43.2222 85.0701 41.2229 83.0102C38.8601 80.4656 37.7696 78.8298 37.9513 78.0421C38.0725 77.4363 38.3148 76.164 38.5572 75.2552C38.9207 73.3165 42.2529 69.3178 43.404 69.3178C43.8887 69.3178 45.7668 72.0442 47.645 75.3764ZM161.364 70.9536C163.242 73.0135 163.969 74.4676 164.514 77.1334C164.817 78.9509 164.575 79.4962 160.94 83.3737C158.759 85.7365 155.911 89.2505 154.578 91.2498L152.215 94.8243L151.246 92.5221C150.701 91.3104 149.853 89.7957 149.307 89.1899C148.338 88.1599 148.459 87.7358 150.883 83.0707C155.972 73.2559 158.335 69.3178 159.062 69.3178C159.486 69.3178 160.516 70.0449 161.364 70.9536ZM74.6055 81.4349L76.7866 82.5861L76.2413 87.3117C75.999 89.9169 75.8778 94.6426 76.0596 97.793L76.4231 103.549L74.969 101.731C72.9091 99.2471 69.9404 93.1885 69.2134 89.9169C68.8499 88.4023 68.6076 84.5854 68.6076 81.4349V75.6793L70.4857 77.9816C71.5157 79.2539 73.3332 80.7685 74.6055 81.4349ZM133.07 91.068C132.101 94.3396 129.617 99.1259 127.497 101.852C126.467 103.185 126.406 102.882 126.345 92.7644L126.285 82.2225L128.042 81.4955C129.011 81.0714 130.647 79.6779 131.738 78.4057L133.676 76.0428L133.858 81.859C133.979 85.8577 133.737 88.7052 133.07 91.068ZM58.7321 98.8835C60.3679 103.125 62.1855 108.274 62.7914 110.274L63.8213 113.969L62.2461 115.545L60.7314 117.059L59.0956 112.758C58.1869 110.334 56.2481 105.972 54.7335 103.003C52.613 98.6412 52.1283 97.1266 52.4312 95.4908C52.7947 93.0673 54.4306 90.341 55.2182 90.8257C55.5211 91.0074 57.0963 94.6426 58.7321 98.8835ZM150.095 95.1272C150.398 96.8842 149.913 98.3989 147.126 104.336C145.309 108.214 143.491 112.515 143.067 113.848C141.977 117.302 141.977 117.241 140.22 115.545L138.644 113.909L139.977 109.668C141.674 104.276 144.036 97.9142 145.975 93.552L147.429 90.2198L148.58 91.6133C149.186 92.4009 149.853 93.9761 150.095 95.1272ZM68.0623 123.178C69.0317 124.148 70.9098 125.359 72.1821 125.965C74.3026 126.935 74.4843 127.177 73.9391 128.51C73.2121 130.388 73.2121 134.508 73.9391 137.052C74.4238 138.688 74.3632 138.991 73.4544 138.991C71.758 138.991 67.1535 136.386 65.9418 134.69C65.3359 133.841 64.1848 130.327 63.3366 126.935C62.0037 121.118 61.9432 120.634 62.8519 118.513L63.8213 116.272L65.033 118.816C65.6995 120.27 67.0323 122.209 68.0623 123.178ZM140.22 119.483C140.523 121.058 138.826 129.782 137.554 132.993C136.706 135.174 134.1 137.476 131.616 138.325C128.405 139.415 127.86 139.233 128.527 137.416C129.314 135.477 129.314 129.297 128.527 128.086C128.102 127.419 128.708 126.813 131.132 125.481C134.646 123.602 136.645 121.482 137.675 118.513C138.16 116.999 138.523 116.696 139.129 117.18C139.553 117.544 140.038 118.574 140.22 119.483ZM87.1467 128.328C87.2073 128.389 87.4496 130.933 87.7526 134.023L88.2978 139.597H82.724C79.2706 139.597 76.9684 139.355 76.6654 138.931C76.0596 137.901 75.5749 130.812 76.0596 129.055C76.4231 127.54 76.4231 127.54 81.7546 127.904C84.6627 128.086 87.0861 128.267 87.1467 128.328ZM126.467 128.813C127.073 130.751 126.891 136.022 126.164 137.961C125.558 139.536 125.437 139.597 120.045 139.597H114.592V137.537C114.592 136.447 114.774 133.841 114.955 131.842L115.38 128.146L119.378 127.904C121.559 127.783 123.983 127.662 124.71 127.601C125.618 127.54 126.164 127.904 126.467 128.813Z" stroke="#C9A48A" mask="url(#path-1-outside-1_141_152)"/>
<path d="M76.7052 16.5546L76.7011 16.0567L80.3347 15.6934C85.7502 15.0851 93.2954 15.5088 97.5749 16.7314C99.305 17.217 100.273 17.4492 101.242 17.4565C102.212 17.4638 103.195 17.246 104.957 16.7905L104.958 16.7901C108.08 16.002 110.157 15.5584 112.26 15.3748C114.364 15.1912 116.486 15.2684 119.7 15.5109L119.701 15.511L125.82 15.9957L125.822 16.4939L120.37 16.9786L120.368 16.9787C113.907 17.5222 110.901 18.1841 105.595 20.2341C105.595 20.2342 105.594 20.2343 105.594 20.2344L101.597 21.809L101.508 21.8441L101.418 21.8107L97.8449 20.4783C97.8446 20.4782 97.8444 20.4781 97.8442 20.478C91.7433 18.2431 88.4949 17.4617 82.5245 17.0395L82.5245 17.0396L82.5214 17.0393L76.7052 16.5546Z" fill="#C9A48A" stroke="#C9A48A" stroke-width="0.5"/>
<path d="M104.421 98.2755L104.421 98.2757L104.413 98.2668C103.548 97.3447 102.341 96.8312 101.263 96.8312C100.344 96.8312 99.1872 97.3688 98.2474 98.131C97.7818 98.5087 97.3818 98.9318 97.1002 99.3528C96.8164 99.7773 96.6663 100.179 96.6663 100.519C96.6663 101.145 96.9641 101.715 97.4836 102.196C98.0048 102.679 98.7394 103.062 99.5747 103.301C101.253 103.779 103.258 103.652 104.633 102.678L104.633 102.678L104.635 102.676C105.464 102.105 105.826 101.435 105.8 100.725C105.773 99.9992 105.338 99.1628 104.421 98.2755ZM95.5559 103.464C94.7071 102.426 94.3119 101.333 94.418 100.215C94.5237 99.1019 95.1229 98.0057 96.1789 96.9497C96.9438 96.1848 97.5363 95.7133 98.2941 95.4444C99.0433 95.1786 99.9309 95.1195 101.263 95.1195C102.595 95.1195 103.483 95.1786 104.232 95.4444C104.99 95.7133 105.582 96.1848 106.347 96.9497C107.403 98.0057 108.003 99.1019 108.108 100.215C108.214 101.333 107.819 102.426 106.97 103.464C106.436 104.124 105.97 104.529 105.129 104.752C104.319 104.966 103.164 105.01 101.263 105.01C99.3626 105.01 98.2073 104.966 97.3974 104.752C96.5558 104.529 96.09 104.124 95.5559 103.464Z" fill="#C9A48A" stroke="#C9A48A" stroke-width="0.5"/>
<path d="M101.429 177.888C101.429 177.888 101.429 177.887 101.427 177.885C101.429 177.887 101.429 177.888 101.429 177.888ZM101.141 177.883C101.141 177.883 101.142 177.883 101.143 177.881C101.142 177.883 101.141 177.883 101.141 177.883ZM96.1691 143.027L96.1689 143.026C95.1693 136.241 94.2604 130.015 93.609 125.455C93.2834 123.176 93.022 121.312 92.8458 120.003C92.7577 119.348 92.6907 118.831 92.6477 118.47C92.6262 118.289 92.6104 118.146 92.601 118.043C92.5963 117.992 92.5929 117.948 92.5913 117.914C92.5904 117.897 92.5899 117.879 92.5901 117.863L92.5901 117.862C92.5902 117.855 92.5905 117.836 92.5939 117.813C92.5986 117.769 92.6062 117.724 92.6188 117.682C92.6312 117.641 92.6546 117.58 92.7042 117.528C92.7636 117.466 92.8516 117.427 92.9509 117.439C93.0333 117.448 93.0933 117.49 93.1269 117.518C93.1946 117.574 93.2518 117.656 93.299 117.735C93.3498 117.819 93.4038 117.924 93.4602 118.045C93.6848 118.526 93.9802 119.332 94.3064 120.337C94.9601 122.352 95.7498 125.206 96.3573 127.971C97.147 131.433 98.284 137.968 99.223 144.012C99.6928 147.035 100.113 149.937 100.417 152.275C100.719 154.604 100.907 156.39 100.907 157.167C100.907 157.633 100.966 158.065 101.05 158.373C101.063 158.423 101.077 158.469 101.091 158.509C101.111 158.444 101.131 158.369 101.153 158.285C101.255 157.884 101.377 157.298 101.509 156.569C101.773 155.114 102.076 153.104 102.348 150.896L102.348 150.895C103.288 143.586 104.834 134.84 106.244 128.185C106.949 124.859 107.621 122.049 108.167 120.201C108.438 119.282 108.684 118.583 108.893 118.178C108.945 118.076 108.999 117.985 109.055 117.912C109.106 117.843 109.176 117.767 109.268 117.723C109.317 117.699 109.378 117.682 109.447 117.687C109.517 117.692 109.579 117.718 109.628 117.755C109.718 117.821 109.768 117.921 109.798 118.002L109.798 118.002L109.8 118.01C109.818 118.063 109.819 118.123 109.82 118.151C109.82 118.192 109.819 118.241 109.816 118.296C109.81 118.408 109.798 118.559 109.781 118.746C109.745 119.12 109.685 119.648 109.604 120.31C109.442 121.635 109.194 123.507 108.879 125.787C108.251 130.348 107.357 136.543 106.357 143.269C104.358 156.779 102.542 170.155 102.3 173.058C102.209 174.517 102.072 175.811 101.927 176.73C101.854 177.187 101.778 177.56 101.702 177.814C101.666 177.938 101.624 178.052 101.573 178.136C101.549 178.176 101.509 178.233 101.447 178.273C101.37 178.324 101.26 178.347 101.151 178.292C101.075 178.254 101.029 178.191 101.006 178.154C100.978 178.111 100.955 178.062 100.935 178.013C100.895 177.914 100.857 177.786 100.821 177.638C100.747 177.34 100.672 176.931 100.599 176.447C100.454 175.477 100.317 174.183 100.226 172.814L100.226 172.814C100.045 170.04 98.2297 156.664 96.1691 143.027Z" fill="#C9A48A" stroke="#C9A48A" stroke-width="0.5"/>
</svg>
