<svg width="5304" height="5304" viewBox="0 0 5304 5304" fill="none" xmlns="http://www.w3.org/2000/svg">
<rect width="5304" height="5304" fill="#1F1F1F"/>
<g filter="url(#filter0_dd_160_93)">
<path fill-rule="evenodd" clip-rule="evenodd" d="M2721.59 3297.05V4003L3384.66 3297.05H3023.48L2819.27 3514.58V3297.05H2721.59ZM3679.33 2598.43H4040.83L4543.48 2063.27V2598.43H4642.72V2165.61C4642.72 2030.19 4661.85 1919.59 4700.09 1833.79C4737.31 1747.99 4824.14 1708.19 4960.58 1714.4V1691.14H4531.08L3679.33 2598.43ZM4642.72 3297.05H4543.48V3753.37C4543.48 3807.12 4539.36 3846.91 4531.08 3872.76C4522.82 3898.6 4510.92 3916.18 4495.42 3925.48C4479.92 3934.78 4441.15 3944.08 4379.13 3953.38V3975.1H4817.93V3953.38C4739.38 3953.38 4690.79 3939.43 4672.18 3911.52C4652.54 3883.61 4642.72 3816.94 4642.72 3711.5V3297.05Z" fill="#C9A48A"/>
</g>
<g filter="url(#filter1_dd_160_93)">
<path fill-rule="evenodd" clip-rule="evenodd" d="M2485.31 3297.05V3514.58L2281.1 3297.05H1919.92L2582.99 4003V3297.05H2485.31ZM1633.76 2607.5L773.502 1691.14H344V1714.4C480.448 1708.19 567.279 1747.99 604.492 1833.79C642.739 1919.59 661.862 2030.19 661.862 2165.61V2607.5H761.098V2063.27L1272.27 2607.5H1633.76ZM761.098 3297.05V3753.37C761.098 3807.12 765.233 3846.91 773.502 3872.76C781.772 3898.6 793.659 3916.18 809.165 3925.48C824.671 3934.78 863.434 3944.08 925.457 3953.38V3975.1H486.65V3953.38C565.212 3953.38 613.796 3939.43 632.402 3911.52C652.043 3883.61 661.862 3816.94 661.862 3711.5V3297.05H761.098Z" fill="#C9A48A"/>
</g>
<g filter="url(#filter2_d_160_93)">
<path d="M739.014 2768.3V2772.02C734.218 2771.53 728.842 2772.27 722.889 2774.26C717.099 2776.24 713.626 2779.14 712.468 2782.94C711.476 2786.74 710.981 2795.76 710.981 2809.98V3090.57C710.981 3105.78 711.559 3115.13 712.717 3118.6C714.04 3121.91 716.438 3124.73 719.911 3127.04C723.55 3129.19 729.918 3130.26 739.014 3130.26V3133.74H641.515V3130.26C653.755 3130.26 661.362 3127.95 664.339 3123.32C667.317 3118.52 668.805 3107.77 668.805 3091.07V2813.21C668.805 2795.84 667.151 2784.51 663.843 2779.22C660.536 2773.76 653.093 2771.36 641.515 2772.02V2768.3H739.014ZM1182.01 2786.66L1195.66 2825.36H1192.18C1156.79 2790.13 1115.11 2772.52 1067.15 2772.52C1017.36 2772.52 977.09 2787.32 946.326 2816.93C915.729 2846.53 900.43 2882.34 900.43 2924.35C900.43 2950.32 907.211 2980.17 920.773 3013.91C934.502 3047.65 956.085 3075.43 985.525 3097.26C1014.96 3118.93 1050.61 3129.76 1092.45 3129.76C1119.91 3129.76 1146.78 3125.38 1173.08 3116.61C1199.54 3107.69 1219.22 3095.77 1232.12 3080.89L1235.35 3081.88L1209.8 3121.08C1168.45 3130.02 1141.57 3135.31 1129.17 3136.96C1116.93 3138.62 1100.47 3139.44 1079.8 3139.44C1003.22 3139.44 948.394 3121.74 915.316 3086.35C882.403 3050.79 865.946 3008.28 865.946 2958.84C865.946 2925.42 874.382 2893.34 891.251 2862.57C908.286 2831.64 932.764 2807.34 964.685 2789.64C996.606 2771.77 1033.07 2762.84 1074.09 2762.84C1094.6 2762.84 1112.3 2764.75 1127.18 2768.55C1142.23 2772.19 1154.72 2775.99 1164.64 2779.96L1181.02 2786.16C1181.52 2786.33 1181.84 2786.5 1182.01 2786.66ZM1545.62 2762.84C1596.89 2762.84 1638.82 2778.48 1671.4 2809.73C1703.98 2840.82 1720.28 2879.69 1720.28 2926.34C1720.28 2986.37 1701.42 3036.9 1663.71 3077.92C1626 3118.93 1575.97 3139.44 1513.61 3139.44C1463 3139.44 1421.58 3122.9 1389.32 3089.82C1357.07 3056.74 1340.94 3017.05 1340.94 2970.74C1340.94 2939.48 1348.72 2907.39 1364.26 2874.49C1379.81 2841.57 1403.21 2814.78 1434.48 2794.1C1465.73 2773.27 1502.78 2762.84 1545.62 2762.84ZM1544.13 3120.09C1569.27 3120.09 1594.08 3113.39 1618.56 3099.99C1643.04 3086.43 1662.3 3067.83 1676.36 3044.18C1690.42 3020.52 1697.45 2996.21 1697.45 2971.24C1697.45 2935.85 1687.94 2903.67 1668.92 2874.73C1650.06 2845.79 1625.5 2823.13 1595.23 2806.76C1565.14 2790.38 1537.27 2782.2 1511.63 2782.2C1475.41 2782.2 1442.5 2795.84 1412.89 2823.13C1383.45 2850.41 1368.74 2884.32 1368.74 2924.85C1368.74 2976.61 1386.76 3022.09 1422.82 3061.3C1458.87 3100.49 1499.31 3120.09 1544.13 3120.09ZM2148.38 2768.3H2219.09V2772.02C2208.34 2772.35 2200.9 2774.66 2196.76 2778.97C2192.62 2783.1 2190.56 2791.95 2190.56 2805.51V3138.2L1899.06 2827.84V3098.26C1899.06 3106.86 1899.72 3113.23 1901.04 3117.36C1902.36 3121.5 1904.27 3124.31 1906.74 3125.8C1909.23 3127.28 1915.43 3128.77 1925.35 3130.26V3133.74H1855.14V3130.26C1867.71 3130.26 1875.49 3128.03 1878.46 3123.56C1881.61 3119.1 1883.18 3108.43 1883.18 3091.56V2844.22C1883.18 2822.55 1880.11 2804.85 1874 2791.12C1868.05 2777.4 1854.15 2771.03 1832.32 2772.02V2768.3H1901.04L2174.93 3060.05V2802.04C2174.93 2788.15 2172.45 2779.71 2167.49 2776.73C2162.53 2773.59 2156.16 2772.02 2148.38 2772.02V2768.3ZM2921.16 2768.3V2772.02C2916.36 2771.53 2910.99 2772.27 2905.03 2774.26C2899.24 2776.24 2895.77 2779.14 2894.61 2782.94C2893.62 2786.74 2893.13 2795.76 2893.13 2809.98V3090.57C2893.13 3105.78 2893.71 3115.13 2894.86 3118.6C2896.18 3121.91 2898.58 3124.73 2902.05 3127.04C2905.69 3129.19 2912.06 3130.26 2921.16 3130.26V3133.74H2823.66V3130.26C2835.9 3130.26 2843.51 3127.95 2846.48 3123.32C2849.46 3118.52 2850.95 3107.77 2850.95 3091.07V2813.21C2850.95 2795.84 2849.29 2784.51 2845.99 2779.22C2842.68 2773.76 2835.24 2771.36 2823.66 2772.02V2768.3H2921.16ZM3383.75 2768.3H3441.31V2772.02C3421.96 2773.01 3412.29 2783.18 3412.29 2802.54C3412.29 2806.67 3412.78 2812.38 3413.78 2819.66L3451.98 3096.52C3454.3 3110.42 3456.85 3119.35 3459.67 3123.32C3462.64 3127.12 3468.69 3129.44 3477.78 3130.26V3133.74H3395.67V3130.26C3406.41 3130.6 3411.79 3125.3 3411.79 3114.38C3411.79 3111.91 3411.29 3107.02 3410.3 3099.75L3373.08 2831.32L3242.1 3133.74H3239.61L3107.88 2831.82L3070.92 3101.74C3070.26 3105.86 3069.92 3110.58 3069.92 3115.87C3069.92 3125.47 3075.46 3130.26 3086.54 3130.26V3133.74H3030.73V3130.26C3039.16 3130.26 3044.53 3129.19 3046.85 3127.04C3049.33 3124.89 3051.23 3121.58 3052.56 3117.11C3053.88 3112.49 3054.87 3107.35 3055.53 3101.74L3097.21 2806.51C3090.43 2790.13 3083.65 2780.29 3076.87 2776.99C3070.08 2773.68 3063.55 2772.02 3057.27 2772.02V2768.3H3126.24L3254.75 3067.25L3383.75 2768.3ZM3783.09 2965.53H3676.41L3621.08 3103.71C3617.28 3113.64 3615.38 3119.76 3615.38 3122.08C3615.38 3127.53 3619.43 3130.26 3627.53 3130.26V3133.74H3573.21V3130.26C3580.48 3130.26 3586.6 3128.53 3591.56 3125.05C3596.52 3121.41 3601.99 3112.15 3607.94 3097.26L3740.41 2762.84H3746.62L3877.11 3085.86C3877.11 3087.51 3880.42 3095.37 3887.04 3109.42C3893.82 3123.32 3904.07 3130.26 3917.8 3130.26V3133.74H3832.46V3130.26C3840.23 3130.26 3844.11 3127.2 3844.11 3121.08C3844.11 3116.95 3842.22 3110.34 3838.41 3101.24C3837.75 3100.57 3837.17 3099.5 3836.67 3098.01C3836.34 3096.35 3836.09 3095.53 3835.93 3095.53L3783.09 2965.53ZM3679.89 2955.36H3778.62L3729.25 2830.82L3679.89 2955.36ZM4370.22 3130.26V3133.74H4222.86C4194.58 3133.74 4169.77 3130.68 4148.43 3124.55C4127.26 3118.44 4105.6 3106.86 4083.43 3089.82C4061.44 3072.62 4043.57 3051.29 4029.85 3025.81C4016.28 3000.35 4009.51 2974.3 4009.51 2947.67C4009.51 2918.56 4018.02 2889.54 4035.06 2860.59C4052.26 2831.64 4076.65 2808.16 4108.24 2790.13C4139.83 2771.94 4175.64 2762.84 4215.66 2762.84C4251.55 2762.84 4289.51 2770.78 4329.54 2786.66L4344.67 2828.84H4341.19C4328.46 2812.63 4311.01 2799.23 4288.85 2788.65C4266.85 2777.89 4242.29 2772.52 4215.17 2772.52C4168.03 2772.52 4129.41 2790.3 4099.31 2825.85C4069.21 2861.25 4054.15 2905.24 4054.15 2957.84C4054.15 2979.68 4056.64 2999.19 4061.6 3016.39C4066.57 3033.43 4075.82 3050.29 4089.38 3067C4103.11 3083.53 4117.75 3095.77 4133.3 3103.71C4149.01 3111.49 4166.54 3116.95 4185.89 3120.09C4205.25 3123.07 4220.62 3124.39 4232.04 3124.06L4251.64 3123.56C4273.8 3122.74 4287.61 3120.67 4293.07 3117.36C4298.69 3114.06 4301.5 3105.62 4301.5 3092.05V3036.74C4301.5 3025.99 4299.27 3018.79 4294.8 3015.15C4290.34 3011.34 4283.97 3009.69 4275.7 3010.19V3006.71H4370.22V3010.19C4359.64 3010.19 4352.53 3012.26 4348.89 3016.39C4345.41 3020.52 4343.68 3028.46 4343.68 3040.2V3097.76C4343.68 3109.34 4345.17 3117.69 4348.14 3122.82C4351.28 3127.78 4356.91 3130.26 4365.01 3130.26H4370.22ZM4489.96 2772.52V2768.3H4719.69V2818.66H4715.97C4711.01 2799.98 4706.79 2788.97 4703.31 2785.67C4700.01 2782.36 4691.74 2780.71 4678.51 2780.71H4557.94V2944.69H4669.83C4680.9 2944.69 4687.93 2943.7 4690.91 2941.72C4693.89 2939.57 4695.46 2936.51 4695.63 2932.53H4699.35V2967.02H4695.63C4694.79 2962.22 4692.82 2959 4689.67 2957.35C4686.69 2955.69 4681.07 2954.86 4672.8 2954.86H4557.94V3067.75C4557.94 3084.78 4559.51 3097.1 4562.65 3104.71C4565.79 3112.15 4570.76 3116.87 4577.54 3118.85C4584.49 3120.67 4594.9 3121.58 4608.79 3121.58H4673.3C4693.8 3121.58 4706.87 3120.92 4712.5 3119.59C4718.28 3118.1 4723.17 3115.29 4727.13 3111.16C4731.1 3106.86 4734.16 3097.6 4736.31 3083.37H4739.79V3133.74H4489.96V3130.26C4498.39 3129.76 4504.76 3128.19 4509.06 3125.55C4513.53 3122.74 4515.76 3115.63 4515.76 3104.21V2808.99C4515.76 2795.59 4514.61 2786.16 4512.29 2780.71C4509.97 2775.25 4502.53 2772.52 4489.96 2772.52Z" fill="url(#paint0_linear_160_93)"/>
</g>
<g filter="url(#filter3_dd_160_93)">
<path d="M2414.26 1317.56C2273.53 1326.36 2187.78 1335.15 2139.41 1344.5C2112.47 1350 2072.9 1351.64 2008.59 1350.55C1925.58 1348.9 1915.13 1349.45 1903.59 1358.79C1896.44 1364.29 1889.3 1374.73 1887.1 1381.33C1885.45 1389.57 1871.71 1401.12 1846.98 1414.31C1761.77 1460.48 1695.81 1557.78 1677.67 1663.32C1664.48 1739.18 1682.61 1876.05 1713.95 1940.91C1760.68 2036.01 1893.7 2126.16 2038.26 2160.79C2061.9 2166.28 2083.89 2172.88 2087.74 2175.08C2109.18 2188.27 2199.87 2415.29 2210.87 2483.45C2216.92 2521.38 2244.95 2562.06 2276.83 2578.55C2302.67 2591.74 2308.71 2592.29 2387.87 2591.74L2470.87 2591.19L2475.27 2643.96C2477.47 2673.09 2477.47 2746.2 2475.82 2806.67C2472.52 2932.55 2459.33 3019.4 2434.04 3089.21C2425.24 3113.39 2419.2 3133.73 2420.85 3133.73C2422.49 3133.73 2460.97 3106.25 2506.05 3072.72C2563.22 3029.84 2589.6 3012.8 2594.55 3016.65C2683.6 3084.26 2751.22 3133.73 2753.96 3133.73C2755.61 3133.73 2751.22 3117.24 2743.51 3096.91C2706.14 2997.41 2689.09 2816.56 2701.19 2640.11L2704.49 2589L2765.51 2592.84C2827.62 2596.69 2872.69 2589.54 2912.82 2569.21C2935.36 2558.21 2954.59 2520.29 2972.19 2452.67C3005.17 2327.89 3072.23 2178.38 3098.62 2170.68C3106.31 2168.48 3135.45 2160.24 3164.03 2152.54C3261.32 2126.16 3338.28 2083.28 3402.04 2020.07C3444.37 1977.74 3466.91 1938.71 3482.85 1880.44C3516.93 1754.57 3504.29 1621.54 3449.87 1532.49C3425.68 1492.91 3359.72 1429.7 3322.34 1410.46C3298.7 1397.82 3289.36 1389.57 3285.51 1376.93C3282.21 1367.59 3273.96 1357.14 3267.37 1354.39C3260.23 1351.1 3218.44 1349.45 3164.58 1350.55C3101.37 1352.19 3062.34 1350 3035.4 1345.05C2985.38 1334.6 2905.67 1326.91 2749.56 1317.01C2603.34 1307.67 2564.32 1307.67 2414.26 1317.56ZM2576.41 1359.89C2576.41 1378.58 2574.21 1396.72 2572.02 1400.57C2569.27 1404.96 2548.38 1405.51 2488.46 1400.57C2435.14 1396.72 2389.51 1396.72 2351.04 1400.02C2297.72 1404.96 2291.13 1404.41 2263.09 1393.42C2246.6 1386.83 2213.06 1376.93 2188.88 1371.43C2147.1 1362.09 2146 1361.54 2164.14 1357.69C2188.33 1352.19 2368.63 1336.8 2469.22 1331.86C2511.54 1329.66 2552.77 1327.46 2561.57 1326.91C2576.41 1325.81 2576.41 1326.36 2576.41 1359.89ZM2733.07 1333.51C2817.72 1337.35 2982.63 1351.64 3010.67 1357.69C3028.8 1361.54 3028.26 1362.09 2985.93 1371.43C2961.74 1376.93 2928.21 1386.83 2911.72 1393.42C2883.69 1404.41 2877.09 1404.96 2823.77 1400.02C2785.29 1396.72 2739.67 1396.72 2686.35 1400.57C2642.38 1403.87 2605.54 1405.51 2603.9 1404.41C2602.8 1402.77 2600.6 1384.08 2599.5 1363.19L2597.3 1324.71L2629.18 1327.46C2647.32 1329.11 2694.05 1331.86 2733.07 1333.51ZM2058.05 1374.73C2111.93 1381.88 2163.04 1392.87 2230.66 1411.01L2283.42 1425.85L2298.27 1511.6C2316.96 1618.79 2321.36 1660.57 2314.21 1660.57C2294.42 1660.57 2217.46 1635.28 2184.48 1618.24C2153.15 1601.75 2130.06 1582.51 2076.2 1528.1C2038.26 1489.62 1986.59 1443.44 1960.76 1424.75C1934.92 1406.06 1914.04 1387.92 1914.04 1384.08C1914.04 1379.68 1924.48 1377.48 1945.37 1378.03C1984.94 1379.13 2052.01 1409.36 2086.64 1442.34C2100.38 1455.54 2108.08 1460.48 2104.22 1453.89C2096.53 1437.95 2045.41 1392.87 2021.78 1380.23C1998.69 1367.59 2001.44 1367.59 2058.05 1374.73ZM3144.79 1386.28C3114.56 1405.51 3078.83 1437.95 3070.03 1454.44C3066.74 1460.48 3075.53 1454.99 3089.82 1441.79C3127.2 1407.71 3189.86 1379.13 3229.44 1378.03C3250.33 1377.48 3260.77 1379.68 3260.77 1384.08C3260.77 1387.37 3239.88 1406.06 3214.05 1424.75C3188.21 1443.44 3136.54 1490.17 3098.62 1528.64C3041.99 1585.81 3022.76 1602.3 2989.23 1618.79C2956.25 1635.83 2879.84 1660.57 2861.15 1660.57C2854 1660.57 2855.65 1642.43 2873.79 1531.39L2890.83 1426.95L2941.4 1412.11C3001.32 1394.52 3114.01 1373.08 3158.53 1369.78C3169.52 1369.23 3166.77 1372.53 3144.79 1386.28ZM1885.45 1438.5C1848.62 1505.56 1855.22 1574.27 1901.39 1606.15L1919.54 1618.24L1901.94 1599.55C1882.15 1578.67 1872.81 1557.23 1872.81 1534.69C1872.81 1517.1 1888.2 1469.83 1895.35 1464.88C1898.1 1463.23 1897.54 1468.73 1894.79 1476.42C1878.85 1518.75 1894.79 1567.67 1937.13 1606.15C1990.44 1653.97 2058.61 1656.72 2104.78 1612.75C2112.47 1605.05 2121.82 1600.65 2125.12 1602.85C2133.37 1607.8 2127.87 1615.5 2106.97 1628.14C2084.99 1641.33 2100.38 1641.88 2126.77 1628.69C2142.16 1620.44 2148.2 1619.89 2155.35 1624.84C2168.54 1634.73 2166.35 1637.48 2141.06 1644.63C2074.55 1662.77 1949.21 1659.47 1893.15 1638.58C1857.97 1625.39 1831.04 1598.45 1826.08 1570.97C1822.24 1551.18 1829.93 1514.35 1843.68 1487.42C1857.97 1459.93 1897 1402.22 1901.39 1402.22C1903.59 1402.22 1896.44 1418.71 1885.45 1438.5ZM3299.25 1432.45C3332.78 1483.02 3348.17 1522.05 3348.72 1557.23C3348.72 1585.81 3347.07 1590.21 3330.03 1607.8C3293.75 1645.18 3207.46 1663.32 3105.76 1655.07C3057.39 1650.68 3010.67 1640.78 3010.67 1634.73C3010.67 1633.09 3014.51 1628.69 3019.46 1624.84C3026.61 1619.89 3032.65 1620.44 3048.05 1628.69C3074.43 1641.88 3089.82 1641.33 3067.83 1628.14C3046.95 1615.5 3041.45 1607.8 3049.14 1602.85C3052.44 1600.65 3062.89 1606.15 3072.78 1614.4C3124.45 1658.37 3192.06 1652.87 3244.28 1601.2C3280.56 1565.47 3294.3 1516 3280.01 1475.33C3275.07 1461.03 3275.07 1460.48 3282.76 1470.93C3292.65 1483.57 3302 1514.35 3302 1535.24C3302 1557.23 3292.11 1578.67 3272.86 1599.55C3261.32 1611.65 3259.13 1616.04 3266.27 1612.2C3294.86 1597.36 3312.99 1561.08 3312.99 1518.2C3312.99 1490.72 3309.69 1478.62 3291.55 1443.99C3279.46 1420.91 3271.77 1402.22 3274.52 1402.22C3276.71 1402.22 3288.26 1415.96 3299.25 1432.45ZM2542.33 1431.35C2578.61 1436.85 2596.2 1436.85 2633.03 1431.35C2700.09 1420.91 2859.5 1415.41 2864.45 1423.1C2866.65 1426.95 2861.7 1458.28 2854 1492.91C2846.31 1527.55 2838.62 1579.77 2836.41 1608.9L2833.12 1661.67L2816.08 1658.37C2636.32 1620.99 2538.48 1620.99 2358.18 1658.37L2340.05 1661.67V1634.19C2340.05 1596.26 2330.7 1529.19 2317.51 1475.33C2311.46 1450.04 2308.17 1426.95 2310.36 1423.65C2315.31 1415.41 2473.62 1420.91 2542.33 1431.35ZM1823.89 1476.97C1801.9 1520.4 1794.2 1555.58 1800.8 1584.71C1805.75 1605.6 1804.64 1608.9 1789.26 1628.14C1774.41 1646.83 1772.22 1653.97 1772.22 1681.46C1772.22 1699.05 1774.41 1717.74 1777.72 1723.23C1782.11 1730.93 1783.76 1723.78 1785.96 1691.35C1788.16 1657.82 1791.45 1646.83 1800.8 1636.38L1813.45 1623.19L1844.23 1644.63C1895.35 1679.26 1983.84 1694.65 2065.2 1683.66C2087.74 1680.36 2106.97 1678.71 2108.62 1679.81C2109.72 1680.91 2102.58 1691.35 2092.68 1702.35C2071.8 1726.53 2059.7 1752.92 2059.7 1775.45V1791.4L2010.78 1789.75C1956.36 1787 1940.42 1782.05 1893.15 1751.82C1875.56 1740.27 1859.62 1732.03 1858.52 1733.68C1857.42 1734.78 1864.56 1747.97 1874.46 1762.81C1899.19 1799.09 1943.17 1825.48 1977.8 1825.48H2003.09L2031.12 1867.8L2059.15 1910.13L2038.26 1919.47C2013.53 1930.47 1994.29 1955.2 1989.9 1982.14C1988.24 1992.58 1986.05 2001.38 1985.5 2001.38C1984.94 2001.38 1965.71 1990.38 1943.72 1977.19C1921.19 1964.55 1886 1944.21 1865.12 1932.67C1799.7 1896.94 1771.66 1860.66 1751.88 1785.35L1741.43 1745.77L1744.74 1778.75C1748.58 1818.88 1763.97 1865.05 1780.47 1888.14C1792.01 1903.53 1792.56 1909.58 1790.35 1949.16L1787.61 1993.13L1766.72 1964.55C1738.14 1925.52 1727.14 1897.49 1713.4 1830.97C1703.51 1784.8 1701.86 1760.61 1704.05 1710.04C1706.8 1636.38 1718.9 1592.96 1750.78 1540.19C1769.47 1508.86 1833.23 1437.95 1838.18 1442.34C1838.73 1443.44 1832.68 1458.83 1823.89 1476.97ZM1985.5 1462.68L2014.08 1484.67L2000.88 1511.05C1990.44 1530.84 1987.69 1542.94 1989.9 1563.27C1992.09 1589.11 1998.69 1602.85 2003.09 1591.31C2010.23 1571.52 2041.57 1525.9 2048.16 1525.9C2052.55 1525.9 2066.85 1539.09 2080.04 1555.58C2103.68 1584.16 2104.22 1585.26 2094.33 1595.71C2057.51 1636.93 1993.74 1629.24 1948.11 1578.67C1925.03 1552.83 1920.08 1537.44 1923.38 1503.91C1926.13 1482.47 1945.92 1440.69 1953.61 1440.69C1955.81 1440.69 1970.11 1450.59 1985.5 1462.68ZM3240.44 1468.73C3250.88 1487.97 3253.08 1498.96 3251.42 1524.8C3249.23 1552.83 3246.48 1558.88 3227.25 1578.67C3178.32 1629.79 3117.31 1636.93 3080.47 1595.71C3071.13 1585.26 3071.68 1584.16 3092.57 1557.23C3104.66 1541.84 3117.31 1528.1 3120.6 1525.9C3129.39 1520.4 3142.04 1533.04 3157.43 1563.82C3175.02 1598.45 3175.02 1599 3181.06 1589.11C3190.41 1574.82 3187.12 1534.69 3175.02 1511.6C3168.98 1499.51 3164.58 1487.42 3165.68 1484.67C3168.43 1476.97 3216.25 1441.24 3222.29 1442.89C3225.04 1443.44 3233.29 1454.99 3240.44 1468.73ZM3397.64 1500.61C3446.02 1558.88 3472.41 1638.58 3472.41 1728.73C3472.41 1827.67 3443.82 1926.07 3402.04 1973.89L3385.01 1993.13L3384.45 1948.06C3384.45 1907.38 3386.1 1900.78 3400.95 1876.6C3410.29 1861.76 3421.28 1832.62 3425.68 1811.73C3436.68 1758.41 3435.02 1736.98 3423.48 1784.25C3411.93 1832.62 3387.75 1876.6 3361.36 1899.13C3350.37 1909.03 3314.09 1931.02 3281.66 1949.16C3249.23 1966.75 3215.7 1985.44 3207.46 1991.48C3188.21 2004.68 3186.56 2004.13 3186.56 1985.44C3186.56 1963.45 3165.68 1934.31 3139.29 1921.12L3116.76 1910.13L3144.24 1867.8C3171.17 1825.48 3171.17 1825.48 3195.36 1825.48C3221.75 1825.48 3241.54 1818.33 3267.92 1798.54C3286.06 1785.35 3321.79 1738.63 3317.39 1734.23C3315.74 1733.13 3294.3 1744.12 3269.02 1759.51C3243.73 1774.36 3217.9 1787 3211.85 1787.55C3205.25 1788.1 3181.06 1788.65 3157.98 1789.75L3115.1 1790.85V1773.81C3115.1 1752.37 3098.62 1717.19 3079.37 1697.4C3071.13 1688.6 3065.63 1680.91 3066.74 1679.81C3067.83 1678.71 3088.17 1680.36 3112.35 1683.66C3198.11 1694.1 3290.46 1677.06 3337.18 1641.88L3361.36 1623.19L3373.46 1635.83C3383.35 1646.28 3386.65 1657.82 3388.85 1687.5C3391.6 1729.83 3397.64 1734.23 3403.14 1697.95C3407.54 1668.27 3399.84 1640.78 3381.7 1622.09C3369.61 1609.45 3368.51 1606.15 3374.01 1586.36C3381.7 1558.88 3373.46 1517.65 3350.92 1475.33C3342.13 1458.83 3334.98 1443.99 3334.98 1442.34C3334.98 1436.85 3376.76 1475.87 3397.64 1500.61ZM2280.13 1683.66L2310.91 1689.7L2290.57 1735.88C2279.03 1761.16 2268.04 1782.05 2265.29 1782.05C2254.29 1782.05 2183.39 1722.68 2163.04 1696.85L2141.06 1669.36L2164.14 1657.82L2186.68 1646.28L2218.02 1661.67C2235.06 1669.91 2263.09 1679.81 2280.13 1683.66ZM3026.05 1679.26C3017.26 1695.2 2962.84 1747.42 2932.06 1769.41C2908.42 1785.9 2905.67 1787 2902.38 1777.65C2900.73 1772.16 2891.38 1750.17 2881.48 1728.73L2863.9 1689.7L2894.68 1683.11C2911.72 1679.81 2939.21 1669.91 2955.69 1661.67L2985.93 1646.83L3009.01 1657.27C3029.9 1666.62 3031.55 1669.36 3026.05 1679.26ZM2576.41 1739.73V1823.83L2534.08 1827.68C2510.45 1829.32 2470.32 1834.82 2444.49 1839.22C2363.68 1853.51 2352.14 1851.31 2308.17 1815.58C2281.78 1794.14 2281.78 1795.79 2309.81 1734.23L2327.4 1695.2L2403.81 1680.36C2485.16 1664.97 2536.83 1656.72 2561.57 1655.62L2576.41 1655.07V1739.73ZM2656.11 1660.57C2677.55 1663.87 2728.68 1672.66 2771 1680.36L2847.41 1695.2L2865 1734.23C2893.58 1796.34 2893.58 1793.05 2861.7 1819.98C2827.07 1849.11 2806.73 1852.41 2734.17 1839.77C2705.59 1834.82 2663.26 1829.32 2640.17 1827.13L2598.4 1823.83V1739.73C2598.4 1643.53 2592.35 1651.77 2656.11 1660.57ZM2192.18 1756.77C2222.41 1779.3 2249.9 1797.99 2253.19 1797.99C2257.04 1797.99 2252.09 1806.24 2242.75 1815.58C2222.96 1837.02 2213.62 1853.51 2213.62 1868.9C2213.62 1878.25 2207.57 1876.05 2167.99 1851.31C2143.26 1835.37 2112.47 1817.78 2099.28 1812.28C2077.84 1802.39 2076.2 1800.74 2076.2 1779.3C2076.2 1756.77 2088.84 1729.83 2110.83 1706.19C2121.82 1694.1 2122.37 1694.1 2129.51 1704.54C2133.37 1710.04 2161.95 1733.68 2192.18 1756.77ZM3083.22 1731.48C3093.66 1748.52 3098.62 1763.36 3098.62 1778.2C3098.62 1800.19 3098.06 1801.29 3062.34 1819.43C3042.55 1829.87 3011.76 1847.46 2994.17 1859.01L2962.29 1879.35L2958.99 1859.01C2956.8 1845.27 2949.1 1831.52 2937 1819.98L2918.87 1801.84L2957.9 1775.45C2979.34 1760.61 3009.57 1736.98 3024.41 1722.68C3055.74 1692.45 3058.49 1693 3083.22 1731.48ZM2310.36 1839.77L2342.8 1865.05L2439.54 1861.21C2492.85 1859.56 2545.08 1859.56 2556.07 1861.21L2576.41 1865.05V1935.96V2006.32L2556.07 2012.37C2509.9 2025.01 2432.39 2030.51 2397.76 2023.36C2368.08 2017.32 2361.48 2012.92 2329.05 1979.39C2309.26 1959.05 2279.03 1930.47 2261.99 1916.17C2227.36 1888.14 2223.51 1876.05 2238.35 1847.46C2246.05 1832.62 2266.38 1814.48 2274.63 1814.48C2276.83 1814.48 2292.77 1826.03 2310.36 1839.77ZM2916.12 1823.28C2922.71 1827.67 2932.06 1838.67 2936.46 1847.46C2951.85 1876.6 2947.45 1888.14 2910.62 1919.47C2891.38 1934.86 2861.15 1963.45 2843.01 1982.14C2813.33 2012.92 2806.73 2017.32 2777.6 2023.36C2743.51 2030.51 2692.95 2027.76 2634.13 2015.67L2601.15 2009.07L2599.5 1937.06L2597.85 1865.05L2618.73 1861.21C2629.73 1859.01 2681.4 1859.56 2733.07 1861.21C2827.62 1865.6 2839.16 1863.95 2857.85 1845.82C2867.75 1836.47 2897.43 1815.03 2900.73 1814.48C2902.38 1814.48 2909.52 1818.33 2916.12 1823.28ZM2093.24 1853.51C2122.91 1868.35 2154.25 1934.31 2208.12 2092.08C2276.83 2293.81 2307.61 2344.93 2386.76 2388.36C2425.8 2409.8 2455.48 2433.43 2455.48 2442.78C2455.48 2446.08 2440.09 2446.62 2417 2444.43C2321.9 2435.08 2287.27 2410.35 2271.88 2342.74C2239.46 2200.91 2146 1987.08 2055.3 1848.01C2046.51 1835.37 2047.06 1835.37 2059.7 1839.22C2067.4 1841.42 2082.24 1848.01 2093.24 1853.51ZM3124.45 1840.32C3122.8 1843.07 3111.26 1861.76 3098.62 1883.19C3059.03 1948.06 2990.88 2086.03 2961.74 2160.24C2946.35 2198.71 2924.36 2266.33 2912.27 2309.75C2893.03 2380.11 2888.08 2391.11 2871.04 2406.49C2849.06 2426.83 2812.78 2438.93 2757.81 2444.43C2699.55 2449.93 2707.24 2437.83 2792.44 2386.16C2872.69 2337.78 2897.43 2297.11 2964.49 2098.12C2987.03 2031.61 3017.81 1951.36 3033.2 1920.02C3059.59 1865.05 3061.78 1862.85 3089.27 1849.66C3118.95 1835.92 3128.3 1833.72 3124.45 1840.32ZM2193.83 1914.53C2211.97 1926.62 2237.8 1945.86 2250.44 1956.3L2273.53 1974.99V2033.26C2272.98 2065.69 2275.73 2104.17 2279.58 2119.56C2289.48 2164.08 2318.61 2216.31 2353.78 2253.13L2386.76 2288.32V2211.91C2386.76 2170.13 2390.07 2118.46 2393.91 2097.02L2401.06 2057.99L2446.14 2054.7C2470.87 2053.05 2509.9 2046.45 2532.44 2039.85C2554.98 2032.71 2579.71 2027.76 2587.4 2027.76C2595.1 2027.76 2619.84 2032.71 2642.38 2039.85C2664.91 2046.45 2703.94 2053.05 2728.68 2054.7L2773.2 2057.99L2780.89 2094.27C2784.74 2114.61 2788.04 2165.18 2788.04 2208.61V2286.67L2814.43 2260.83C2849.6 2226.75 2871.04 2191.57 2888.08 2143.2C2900.18 2108.57 2901.83 2094.27 2901.83 2038.76L2901.27 1973.89L2932.61 1950.26C2969.44 1922.22 3013.96 1891.44 3018.36 1891.44C3019.46 1891.44 3010.11 1914.53 2996.92 1942.01C2984.28 1970.04 2956.8 2038.76 2936.46 2094.82C2872.69 2271.82 2840.26 2325.14 2774.85 2358.68C2735.82 2378.47 2708.89 2398.25 2696.8 2416.95C2679.75 2443.33 2672.61 2530.73 2672.61 2713.22C2672.61 2897.37 2678.65 2955.63 2705.03 3042.49C2712.18 3065.57 2717.13 3084.26 2716.03 3084.26C2714.38 3084.26 2685.25 3062.82 2650.61 3036.99L2587.4 2989.17L2524.74 3036.99C2490.11 3062.82 2460.43 3084.26 2458.78 3084.26C2457.13 3084.26 2458.78 3075.47 2463.18 3065.03C2475.82 3034.79 2492.31 2950.13 2500 2878.68C2507.15 2802.83 2503.85 2546.67 2493.96 2476.85C2484.62 2410.89 2473.07 2397.15 2386.76 2350.98C2332.34 2321.3 2299.36 2264.13 2235.6 2086.58C2213.62 2026.11 2186.13 1957.4 2174.58 1933.76C2162.5 1910.68 2154.8 1891.44 2156.45 1891.44C2158.64 1891.44 2175.14 1901.88 2193.83 1914.53ZM1820.59 1929.37C1822.24 1932.67 1851.37 1952.45 1885.45 1973.34C1918.98 1994.78 1959.66 2022.81 1975.61 2035.46C2002.53 2057.99 2065.2 2130.55 2065.2 2139.9C2065.2 2145.94 1980.55 2114.06 1925.03 2086.58C1850.83 2050.85 1820.04 2025.56 1812.89 1997.53C1801.9 1954.65 1807.39 1908.48 1820.59 1929.37ZM3366.32 1964C3364.66 1985.99 3361.91 2008.52 3359.72 2013.47C3354.22 2027.21 3289.36 2068.99 3234.94 2094.27C3183.27 2118.46 3109.61 2145.94 3109.61 2141C3109.61 2138.8 3118.41 2125.61 3128.85 2111.31C3160.18 2068.44 3219 2017.32 3277.26 1981.04C3308.05 1962.35 3338.82 1942.01 3345.97 1935.96C3353.67 1929.92 3361.92 1924.97 3364.66 1924.42C3367.41 1924.42 3367.96 1942.01 3366.32 1964ZM2100.93 1984.89C2117.97 2015.12 2137.76 2053.6 2145.45 2070.09L2159.2 2100.32L2147.66 2116.81C2141.06 2126.16 2133.91 2140.45 2131.71 2148.14C2127.87 2161.89 2126.77 2161.34 2101.48 2125.61C2087.18 2105.27 2060.8 2072.84 2042.66 2054.15C2021.22 2031.06 2011.34 2016.22 2012.98 2009.07C2014.08 2003.58 2016.28 1992.03 2018.48 1983.79C2021.78 1966.2 2052.01 1929.92 2062.45 1929.92C2066.85 1929.92 2083.89 1954.65 2100.93 1984.89ZM3132.7 1944.76C3149.74 1963.45 3156.33 1976.64 3161.28 2000.83C3164.03 2017.32 3161.83 2022.26 3128.85 2057.45C3109.06 2078.88 3083.22 2110.76 3071.13 2128.9L3049.69 2161.34L3040.9 2140.45C3035.95 2129.45 3028.26 2115.71 3023.3 2110.22C3014.51 2100.87 3015.61 2097.02 3037.6 2054.7C3083.77 1965.65 3105.21 1929.92 3111.81 1929.92C3115.66 1929.92 3125 1936.51 3132.7 1944.76ZM2345.55 2039.85L2365.33 2050.3L2360.38 2093.17C2358.18 2116.81 2357.09 2159.69 2358.74 2188.27L2362.03 2240.49L2348.84 2224C2330.15 2201.46 2303.21 2146.49 2296.62 2116.81C2293.32 2103.07 2291.13 2068.44 2291.13 2039.85V1987.63L2308.17 2008.52C2317.51 2020.07 2334 2033.81 2345.55 2039.85ZM2875.99 2127.26C2867.19 2156.94 2844.66 2200.36 2825.42 2225.1C2816.08 2237.19 2815.52 2234.44 2814.97 2142.65L2814.43 2047L2830.37 2040.4C2839.16 2036.56 2854 2023.91 2863.9 2012.37L2881.48 1990.93L2883.14 2043.7C2884.23 2079.98 2882.04 2105.82 2875.99 2127.26ZM2201.52 2198.16C2216.37 2236.65 2232.86 2283.36 2238.35 2301.51L2247.69 2335.03L2233.4 2349.33L2219.66 2363.07L2204.82 2324.05C2196.58 2302.05 2178.98 2262.48 2165.24 2235.54C2146 2195.97 2141.6 2182.22 2144.35 2167.38C2147.66 2145.39 2162.5 2120.66 2169.64 2125.06C2172.39 2126.71 2186.68 2159.69 2201.52 2198.16ZM3030.45 2164.08C3033.2 2180.03 3028.8 2193.77 3003.52 2247.63C2987.03 2282.82 2970.54 2321.84 2966.69 2333.94C2956.8 2365.27 2956.8 2364.72 2940.86 2349.33L2926.56 2334.49L2938.65 2296.01C2954.05 2247.09 2975.48 2189.37 2993.07 2149.79L3006.26 2119.56L3016.71 2132.2C3022.21 2139.35 3028.26 2153.64 3030.45 2164.08ZM2286.17 2418.59C2294.97 2427.39 2312.01 2438.38 2323.55 2443.87C2342.8 2452.67 2344.44 2454.87 2339.49 2466.96C2332.9 2484 2332.9 2521.38 2339.49 2544.47C2343.89 2559.31 2343.34 2562.06 2335.09 2562.06C2319.71 2562.06 2277.93 2538.42 2266.94 2523.03C2261.44 2515.33 2251 2483.45 2243.3 2452.67C2231.21 2399.9 2230.66 2395.51 2238.9 2376.26L2247.69 2355.93L2258.69 2379.01C2264.73 2392.2 2276.83 2409.8 2286.17 2418.59ZM2940.86 2385.06C2943.61 2399.35 2928.21 2478.5 2916.67 2507.64C2908.98 2527.43 2885.33 2548.31 2862.79 2556.01C2833.66 2565.9 2828.72 2564.25 2834.77 2547.77C2841.91 2530.18 2841.91 2474.1 2834.77 2463.12C2830.91 2457.07 2836.41 2451.57 2858.4 2439.48C2890.29 2422.43 2908.42 2403.2 2917.77 2376.26C2922.17 2362.53 2925.46 2359.78 2930.96 2364.17C2934.81 2367.47 2939.21 2376.82 2940.86 2385.06ZM2459.33 2465.31C2459.87 2465.87 2462.08 2488.95 2464.83 2516.98L2469.77 2567.56H2419.2C2387.87 2567.56 2366.98 2565.36 2364.23 2561.51C2358.74 2552.17 2354.34 2487.85 2358.74 2471.91C2362.03 2458.16 2362.03 2458.16 2410.41 2461.47C2436.79 2463.12 2458.78 2464.76 2459.33 2465.31ZM2816.08 2469.71C2821.58 2487.3 2819.92 2535.12 2813.33 2552.71C2807.83 2567 2806.73 2567.56 2757.81 2567.56H2708.34V2548.87C2708.34 2538.98 2709.99 2515.33 2711.63 2497.2L2715.49 2463.66L2751.76 2461.47C2771.55 2460.37 2793.54 2459.27 2800.14 2458.72C2808.37 2458.16 2813.33 2461.47 2816.08 2469.71Z" fill="#C9A48A"/>
<mask id="mask0_160_93" style="mask-type:luminance" maskUnits="userSpaceOnUse" x="1663" y="1300" width="1853" height="1844">
<path d="M3515.12 1301H1664.24V3142.81H3515.12V1301Z" fill="white" stroke="#C9A48A"/>
<path d="M2414.26 1317.56C2273.53 1326.36 2187.78 1335.15 2139.41 1344.5C2112.47 1350 2072.89 1351.64 2008.59 1350.55C1925.58 1348.9 1915.13 1349.45 1903.59 1358.79C1896.44 1364.29 1889.3 1374.73 1887.1 1381.33C1885.45 1389.57 1871.71 1401.12 1846.98 1414.31C1761.77 1460.48 1695.81 1557.78 1677.67 1663.32C1664.48 1739.18 1682.61 1876.05 1713.95 1940.91C1760.68 2036.01 1893.7 2126.16 2038.26 2160.79C2061.9 2166.28 2083.89 2172.88 2087.74 2175.08C2109.18 2188.27 2199.87 2415.29 2210.87 2483.45C2216.92 2521.38 2244.95 2562.06 2276.83 2578.55C2302.67 2591.74 2308.71 2592.29 2387.87 2591.74L2470.87 2591.19L2475.27 2643.96C2477.47 2673.09 2477.47 2746.2 2475.82 2806.67C2472.52 2932.55 2459.33 3019.4 2434.04 3089.21C2425.24 3113.39 2419.2 3133.73 2420.85 3133.73C2422.49 3133.73 2460.97 3106.25 2506.05 3072.72C2563.21 3029.84 2589.6 3012.8 2594.55 3016.65C2683.6 3084.26 2751.22 3133.73 2753.96 3133.73C2755.61 3133.73 2751.22 3117.24 2743.51 3096.91C2706.14 2997.41 2689.09 2816.56 2701.19 2640.11L2704.49 2589L2765.51 2592.84C2827.62 2596.69 2872.69 2589.54 2912.82 2569.21C2935.36 2558.21 2954.59 2520.29 2972.19 2452.67C3005.17 2327.89 3072.23 2178.38 3098.62 2170.68C3106.31 2168.48 3135.45 2160.24 3164.02 2152.54C3261.32 2126.16 3338.28 2083.28 3402.04 2020.07C3444.37 1977.74 3466.91 1938.71 3482.85 1880.44C3516.93 1754.57 3504.29 1621.54 3449.87 1532.49C3425.68 1492.91 3359.72 1429.7 3322.34 1410.46C3298.7 1397.82 3289.36 1389.57 3285.51 1376.93C3282.21 1367.59 3273.96 1357.14 3267.37 1354.39C3260.23 1351.1 3218.44 1349.45 3164.58 1350.55C3101.37 1352.19 3062.34 1350 3035.4 1345.05C2985.38 1334.6 2905.67 1326.91 2749.56 1317.01C2603.34 1307.67 2564.32 1307.67 2414.26 1317.56ZM2576.41 1359.89C2576.41 1378.58 2574.21 1396.72 2572.02 1400.57C2569.27 1404.96 2548.38 1405.51 2488.46 1400.57C2435.14 1396.72 2389.51 1396.72 2351.04 1400.02C2297.72 1404.96 2291.13 1404.41 2263.09 1393.42C2246.6 1386.83 2213.06 1376.93 2188.88 1371.43C2147.1 1362.09 2146 1361.54 2164.14 1357.69C2188.33 1352.19 2368.63 1336.8 2469.22 1331.86C2511.54 1329.66 2552.77 1327.46 2561.57 1326.91C2576.41 1325.81 2576.41 1326.36 2576.41 1359.89ZM2733.07 1333.51C2817.72 1337.35 2982.63 1351.64 3010.67 1357.69C3028.8 1361.54 3028.26 1362.09 2985.93 1371.43C2961.74 1376.93 2928.21 1386.83 2911.72 1393.42C2883.69 1404.41 2877.09 1404.96 2823.77 1400.02C2785.29 1396.72 2739.67 1396.72 2686.35 1400.57C2642.38 1403.87 2605.54 1405.51 2603.9 1404.41C2602.8 1402.77 2600.6 1384.08 2599.5 1363.19L2597.3 1324.71L2629.18 1327.46C2647.32 1329.11 2694.05 1331.86 2733.07 1333.51ZM2058.05 1374.73C2111.93 1381.88 2163.04 1392.87 2230.66 1411.01L2283.42 1425.85L2298.27 1511.6C2316.96 1618.79 2321.36 1660.57 2314.21 1660.57C2294.42 1660.57 2217.46 1635.28 2184.48 1618.24C2153.15 1601.75 2130.06 1582.51 2076.2 1528.1C2038.26 1489.62 1986.59 1443.44 1960.76 1424.75C1934.92 1406.06 1914.04 1387.92 1914.04 1384.08C1914.04 1379.68 1924.48 1377.48 1945.37 1378.03C1984.94 1379.13 2052.01 1409.36 2086.64 1442.34C2100.38 1455.54 2108.08 1460.48 2104.22 1453.89C2096.53 1437.95 2045.41 1392.87 2021.78 1380.23C1998.69 1367.59 2001.44 1367.59 2058.05 1374.73ZM3144.79 1386.28C3114.56 1405.51 3078.83 1437.95 3070.03 1454.44C3066.74 1460.48 3075.53 1454.99 3089.82 1441.79C3127.2 1407.71 3189.86 1379.13 3229.44 1378.03C3250.33 1377.48 3260.77 1379.68 3260.77 1384.08C3260.77 1387.37 3239.88 1406.06 3214.05 1424.75C3188.21 1443.44 3136.54 1490.17 3098.62 1528.64C3041.99 1585.81 3022.76 1602.3 2989.23 1618.79C2956.25 1635.83 2879.84 1660.57 2861.15 1660.57C2854 1660.57 2855.65 1642.43 2873.79 1531.39L2890.83 1426.95L2941.4 1412.11C3001.32 1394.52 3114.01 1373.08 3158.53 1369.78C3169.52 1369.23 3166.77 1372.53 3144.79 1386.28ZM1885.45 1438.5C1848.62 1505.56 1855.22 1574.27 1901.39 1606.15L1919.54 1618.24L1901.94 1599.55C1882.15 1578.67 1872.81 1557.23 1872.81 1534.69C1872.81 1517.1 1888.2 1469.83 1895.35 1464.88C1898.1 1463.23 1897.54 1468.73 1894.79 1476.42C1878.85 1518.75 1894.79 1567.67 1937.13 1606.15C1990.44 1653.97 2058.61 1656.72 2104.78 1612.75C2112.47 1605.05 2121.82 1600.65 2125.12 1602.85C2133.37 1607.8 2127.87 1615.5 2106.97 1628.14C2084.99 1641.33 2100.38 1641.88 2126.77 1628.69C2142.16 1620.44 2148.2 1619.89 2155.35 1624.84C2168.54 1634.73 2166.35 1637.48 2141.06 1644.63C2074.55 1662.77 1949.21 1659.47 1893.15 1638.58C1857.97 1625.39 1831.04 1598.45 1826.08 1570.97C1822.24 1551.18 1829.93 1514.35 1843.68 1487.42C1857.97 1459.93 1897 1402.22 1901.39 1402.22C1903.59 1402.22 1896.44 1418.71 1885.45 1438.5ZM3299.25 1432.45C3332.78 1483.02 3348.17 1522.05 3348.72 1557.23C3348.72 1585.81 3347.07 1590.21 3330.03 1607.8C3293.75 1645.18 3207.46 1663.32 3105.76 1655.07C3057.39 1650.68 3010.67 1640.78 3010.67 1634.73C3010.67 1633.09 3014.51 1628.69 3019.46 1624.84C3026.61 1619.89 3032.65 1620.44 3048.05 1628.69C3074.43 1641.88 3089.82 1641.33 3067.83 1628.14C3046.95 1615.5 3041.45 1607.8 3049.14 1602.85C3052.44 1600.65 3062.89 1606.15 3072.78 1614.4C3124.45 1658.37 3192.06 1652.87 3244.28 1601.2C3280.56 1565.47 3294.3 1516 3280.01 1475.33C3275.07 1461.03 3275.07 1460.48 3282.76 1470.93C3292.65 1483.57 3302 1514.35 3302 1535.24C3302 1557.23 3292.11 1578.67 3272.86 1599.55C3261.32 1611.65 3259.13 1616.04 3266.27 1612.2C3294.86 1597.36 3312.99 1561.08 3312.99 1518.2C3312.99 1490.72 3309.69 1478.62 3291.55 1443.99C3279.46 1420.91 3271.77 1402.22 3274.52 1402.22C3276.71 1402.22 3288.26 1415.96 3299.25 1432.45ZM2542.33 1431.35C2578.61 1436.85 2596.19 1436.85 2633.03 1431.35C2700.09 1420.91 2859.5 1415.41 2864.45 1423.1C2866.65 1426.95 2861.7 1458.28 2854 1492.91C2846.31 1527.55 2838.62 1579.77 2836.41 1608.9L2833.12 1661.67L2816.08 1658.37C2636.32 1620.99 2538.48 1620.99 2358.18 1658.37L2340.05 1661.67V1634.19C2340.05 1596.26 2330.7 1529.19 2317.51 1475.33C2311.46 1450.04 2308.17 1426.95 2310.36 1423.65C2315.31 1415.41 2473.62 1420.91 2542.33 1431.35ZM1823.89 1476.97C1801.9 1520.4 1794.2 1555.58 1800.8 1584.71C1805.75 1605.6 1804.64 1608.9 1789.26 1628.14C1774.41 1646.83 1772.22 1653.97 1772.22 1681.46C1772.22 1699.05 1774.41 1717.74 1777.72 1723.23C1782.11 1730.93 1783.76 1723.78 1785.96 1691.35C1788.16 1657.82 1791.45 1646.83 1800.8 1636.38L1813.45 1623.19L1844.23 1644.63C1895.35 1679.26 1983.84 1694.65 2065.2 1683.66C2087.74 1680.36 2106.97 1678.71 2108.62 1679.81C2109.72 1680.91 2102.58 1691.35 2092.68 1702.35C2071.8 1726.53 2059.7 1752.92 2059.7 1775.45V1791.4L2010.78 1789.75C1956.36 1787 1940.42 1782.05 1893.15 1751.82C1875.56 1740.27 1859.62 1732.03 1858.52 1733.68C1857.42 1734.78 1864.56 1747.97 1874.46 1762.81C1899.19 1799.09 1943.17 1825.48 1977.8 1825.48H2003.09L2031.12 1867.8L2059.15 1910.13L2038.26 1919.47C2013.53 1930.47 1994.29 1955.2 1989.9 1982.14C1988.24 1992.58 1986.05 2001.38 1985.5 2001.38C1984.94 2001.38 1965.71 1990.38 1943.72 1977.19C1921.19 1964.55 1886 1944.21 1865.12 1932.67C1799.7 1896.94 1771.66 1860.66 1751.88 1785.35L1741.43 1745.77L1744.74 1778.75C1748.58 1818.88 1763.97 1865.05 1780.47 1888.14C1792.01 1903.53 1792.56 1909.58 1790.35 1949.16L1787.61 1993.13L1766.72 1964.55C1738.14 1925.52 1727.14 1897.49 1713.4 1830.97C1703.51 1784.8 1701.86 1760.61 1704.05 1710.04C1706.8 1636.38 1718.9 1592.96 1750.78 1540.19C1769.47 1508.86 1833.23 1437.95 1838.18 1442.34C1838.73 1443.44 1832.68 1458.83 1823.89 1476.97ZM1985.5 1462.68L2014.08 1484.67L2000.88 1511.05C1990.44 1530.84 1987.69 1542.94 1989.9 1563.27C1992.09 1589.11 1998.69 1602.85 2003.09 1591.31C2010.23 1571.52 2041.57 1525.9 2048.16 1525.9C2052.55 1525.9 2066.85 1539.09 2080.04 1555.58C2103.68 1584.16 2104.22 1585.26 2094.33 1595.71C2057.51 1636.93 1993.74 1629.24 1948.11 1578.67C1925.03 1552.83 1920.08 1537.44 1923.38 1503.91C1926.13 1482.47 1945.92 1440.69 1953.61 1440.69C1955.81 1440.69 1970.11 1450.59 1985.5 1462.68ZM3240.44 1468.73C3250.88 1487.97 3253.08 1498.96 3251.42 1524.8C3249.23 1552.83 3246.48 1558.88 3227.25 1578.67C3178.32 1629.79 3117.31 1636.93 3080.47 1595.71C3071.13 1585.26 3071.68 1584.16 3092.57 1557.23C3104.66 1541.84 3117.31 1528.1 3120.6 1525.9C3129.39 1520.4 3142.04 1533.04 3157.43 1563.82C3175.02 1598.45 3175.02 1599 3181.06 1589.11C3190.41 1574.82 3187.12 1534.69 3175.02 1511.6C3168.98 1499.51 3164.58 1487.42 3165.68 1484.67C3168.43 1476.97 3216.25 1441.24 3222.29 1442.89C3225.04 1443.44 3233.29 1454.99 3240.44 1468.73ZM3397.64 1500.61C3446.02 1558.88 3472.41 1638.58 3472.41 1728.73C3472.41 1827.67 3443.82 1926.07 3402.04 1973.89L3385.01 1993.13L3384.45 1948.06C3384.45 1907.38 3386.1 1900.78 3400.95 1876.6C3410.29 1861.76 3421.28 1832.62 3425.68 1811.73C3436.68 1758.41 3435.02 1736.98 3423.48 1784.25C3411.93 1832.62 3387.75 1876.6 3361.36 1899.13C3350.37 1909.03 3314.09 1931.02 3281.66 1949.16C3249.23 1966.75 3215.7 1985.44 3207.46 1991.48C3188.21 2004.68 3186.56 2004.13 3186.56 1985.44C3186.56 1963.45 3165.68 1934.31 3139.29 1921.12L3116.76 1910.13L3144.24 1867.8C3171.17 1825.48 3171.17 1825.48 3195.36 1825.48C3221.75 1825.48 3241.54 1818.33 3267.92 1798.54C3286.06 1785.35 3321.79 1738.63 3317.39 1734.23C3315.74 1733.13 3294.3 1744.12 3269.02 1759.51C3243.73 1774.36 3217.9 1787 3211.85 1787.55C3205.25 1788.1 3181.06 1788.65 3157.98 1789.75L3115.1 1790.85V1773.81C3115.1 1752.37 3098.62 1717.19 3079.37 1697.4C3071.13 1688.6 3065.63 1680.91 3066.74 1679.81C3067.83 1678.71 3088.17 1680.36 3112.35 1683.66C3198.11 1694.1 3290.46 1677.06 3337.18 1641.88L3361.36 1623.19L3373.46 1635.83C3383.35 1646.28 3386.65 1657.82 3388.85 1687.5C3391.6 1729.83 3397.64 1734.23 3403.14 1697.95C3407.54 1668.27 3399.84 1640.78 3381.7 1622.09C3369.61 1609.45 3368.51 1606.15 3374.01 1586.36C3381.7 1558.88 3373.46 1517.65 3350.92 1475.33C3342.13 1458.83 3334.98 1443.99 3334.98 1442.34C3334.98 1436.85 3376.76 1475.87 3397.64 1500.61ZM2280.13 1683.66L2310.91 1689.7L2290.57 1735.88C2279.03 1761.16 2268.04 1782.05 2265.29 1782.05C2254.29 1782.05 2183.39 1722.68 2163.04 1696.85L2141.06 1669.36L2164.14 1657.82L2186.68 1646.28L2218.02 1661.67C2235.06 1669.91 2263.09 1679.81 2280.13 1683.66ZM3026.05 1679.26C3017.26 1695.2 2962.84 1747.42 2932.06 1769.41C2908.42 1785.9 2905.67 1787 2902.38 1777.65C2900.73 1772.16 2891.38 1750.17 2881.48 1728.73L2863.9 1689.7L2894.68 1683.11C2911.72 1679.81 2939.21 1669.91 2955.69 1661.67L2985.93 1646.83L3009.01 1657.27C3029.9 1666.62 3031.55 1669.36 3026.05 1679.26ZM2576.41 1739.73V1823.83L2534.08 1827.68C2510.45 1829.32 2470.32 1834.82 2444.49 1839.22C2363.68 1853.51 2352.14 1851.31 2308.17 1815.58C2281.78 1794.14 2281.78 1795.79 2309.81 1734.23L2327.4 1695.2L2403.81 1680.36C2485.16 1664.97 2536.83 1656.72 2561.57 1655.62L2576.41 1655.07V1739.73ZM2656.11 1660.57C2677.55 1663.87 2728.68 1672.66 2771 1680.36L2847.41 1695.2L2865 1734.23C2893.58 1796.34 2893.58 1793.05 2861.7 1819.98C2827.07 1849.11 2806.73 1852.41 2734.17 1839.77C2705.59 1834.82 2663.26 1829.32 2640.17 1827.13L2598.4 1823.83V1739.73C2598.4 1643.53 2592.35 1651.77 2656.11 1660.57ZM2192.18 1756.77C2222.41 1779.3 2249.9 1797.99 2253.19 1797.99C2257.04 1797.99 2252.09 1806.24 2242.75 1815.58C2222.96 1837.02 2213.62 1853.51 2213.62 1868.9C2213.62 1878.25 2207.57 1876.05 2167.99 1851.31C2143.26 1835.37 2112.47 1817.78 2099.28 1812.28C2077.84 1802.39 2076.2 1800.74 2076.2 1779.3C2076.2 1756.77 2088.84 1729.83 2110.83 1706.19C2121.82 1694.1 2122.37 1694.1 2129.51 1704.54C2133.37 1710.04 2161.95 1733.68 2192.18 1756.77ZM3083.22 1731.48C3093.66 1748.52 3098.62 1763.36 3098.62 1778.2C3098.62 1800.19 3098.06 1801.29 3062.34 1819.43C3042.55 1829.87 3011.76 1847.46 2994.17 1859.01L2962.29 1879.35L2958.99 1859.01C2956.8 1845.27 2949.1 1831.52 2937 1819.98L2918.87 1801.84L2957.9 1775.45C2979.34 1760.61 3009.57 1736.98 3024.41 1722.68C3055.74 1692.45 3058.49 1693 3083.22 1731.48ZM2310.36 1839.77L2342.8 1865.05L2439.54 1861.21C2492.85 1859.56 2545.08 1859.56 2556.07 1861.21L2576.41 1865.05V1935.96V2006.32L2556.07 2012.37C2509.9 2025.01 2432.39 2030.51 2397.76 2023.36C2368.08 2017.32 2361.48 2012.92 2329.05 1979.39C2309.26 1959.05 2279.03 1930.47 2261.99 1916.17C2227.36 1888.14 2223.51 1876.05 2238.35 1847.46C2246.05 1832.62 2266.38 1814.48 2274.63 1814.48C2276.83 1814.48 2292.77 1826.03 2310.36 1839.77ZM2916.12 1823.28C2922.71 1827.67 2932.06 1838.67 2936.46 1847.46C2951.85 1876.6 2947.45 1888.14 2910.62 1919.47C2891.38 1934.86 2861.15 1963.45 2843.01 1982.14C2813.33 2012.92 2806.73 2017.32 2777.6 2023.36C2743.51 2030.51 2692.95 2027.76 2634.13 2015.67L2601.15 2009.07L2599.5 1937.06L2597.85 1865.05L2618.73 1861.21C2629.73 1859.01 2681.4 1859.56 2733.07 1861.21C2827.62 1865.6 2839.16 1863.95 2857.85 1845.82C2867.75 1836.47 2897.43 1815.03 2900.73 1814.48C2902.38 1814.48 2909.52 1818.33 2916.12 1823.28ZM2093.24 1853.51C2122.91 1868.35 2154.25 1934.31 2208.12 2092.08C2276.83 2293.81 2307.61 2344.93 2386.76 2388.36C2425.8 2409.8 2455.48 2433.43 2455.48 2442.78C2455.48 2446.08 2440.09 2446.62 2417 2444.43C2321.9 2435.08 2287.27 2410.35 2271.88 2342.74C2239.46 2200.91 2146 1987.08 2055.3 1848.01C2046.51 1835.37 2047.06 1835.37 2059.7 1839.22C2067.4 1841.42 2082.24 1848.01 2093.24 1853.51ZM3124.45 1840.32C3122.8 1843.07 3111.26 1861.76 3098.62 1883.19C3059.03 1948.06 2990.88 2086.03 2961.74 2160.24C2946.35 2198.71 2924.36 2266.33 2912.27 2309.75C2893.03 2380.11 2888.08 2391.11 2871.04 2406.49C2849.06 2426.83 2812.78 2438.93 2757.81 2444.43C2699.55 2449.93 2707.24 2437.83 2792.44 2386.16C2872.69 2337.78 2897.43 2297.11 2964.49 2098.12C2987.03 2031.61 3017.81 1951.36 3033.2 1920.02C3059.59 1865.05 3061.78 1862.85 3089.27 1849.66C3118.95 1835.92 3128.3 1833.72 3124.45 1840.32ZM2193.83 1914.53C2211.97 1926.62 2237.8 1945.86 2250.44 1956.3L2273.53 1974.99V2033.26C2272.98 2065.69 2275.73 2104.17 2279.58 2119.56C2289.48 2164.08 2318.61 2216.31 2353.78 2253.13L2386.76 2288.32V2211.91C2386.76 2170.13 2390.07 2118.46 2393.91 2097.02L2401.06 2057.99L2446.14 2054.7C2470.87 2053.05 2509.9 2046.45 2532.44 2039.85C2554.98 2032.71 2579.71 2027.76 2587.4 2027.76C2595.1 2027.76 2619.84 2032.71 2642.38 2039.85C2664.91 2046.45 2703.94 2053.05 2728.68 2054.7L2773.2 2057.99L2780.89 2094.27C2784.74 2114.61 2788.04 2165.18 2788.04 2208.61V2286.67L2814.43 2260.83C2849.6 2226.75 2871.04 2191.57 2888.08 2143.2C2900.18 2108.57 2901.83 2094.27 2901.83 2038.76L2901.27 1973.89L2932.61 1950.26C2969.44 1922.22 3013.96 1891.44 3018.36 1891.44C3019.46 1891.44 3010.11 1914.53 2996.92 1942.01C2984.28 1970.04 2956.8 2038.76 2936.46 2094.82C2872.69 2271.82 2840.26 2325.14 2774.85 2358.68C2735.82 2378.47 2708.89 2398.25 2696.8 2416.95C2679.75 2443.33 2672.61 2530.73 2672.61 2713.22C2672.61 2897.37 2678.65 2955.63 2705.03 3042.49C2712.18 3065.57 2717.13 3084.26 2716.03 3084.26C2714.38 3084.26 2685.25 3062.82 2650.61 3036.99L2587.4 2989.17L2524.74 3036.99C2490.11 3062.82 2460.43 3084.26 2458.78 3084.26C2457.12 3084.26 2458.78 3075.47 2463.18 3065.03C2475.82 3034.79 2492.31 2950.13 2500 2878.68C2507.15 2802.83 2503.85 2546.67 2493.96 2476.85C2484.62 2410.89 2473.07 2397.15 2386.76 2350.98C2332.34 2321.3 2299.36 2264.13 2235.6 2086.58C2213.62 2026.11 2186.13 1957.4 2174.58 1933.76C2162.5 1910.68 2154.8 1891.44 2156.45 1891.44C2158.64 1891.44 2175.14 1901.88 2193.83 1914.53ZM1820.59 1929.37C1822.24 1932.67 1851.37 1952.45 1885.45 1973.34C1918.98 1994.78 1959.66 2022.81 1975.61 2035.46C2002.53 2057.99 2065.2 2130.55 2065.2 2139.9C2065.2 2145.94 1980.55 2114.06 1925.03 2086.58C1850.83 2050.85 1820.04 2025.56 1812.89 1997.53C1801.9 1954.65 1807.39 1908.48 1820.59 1929.37ZM3366.32 1964C3364.66 1985.99 3361.91 2008.52 3359.72 2013.47C3354.22 2027.21 3289.36 2068.99 3234.94 2094.27C3183.27 2118.46 3109.61 2145.94 3109.61 2141C3109.61 2138.8 3118.41 2125.61 3128.85 2111.31C3160.18 2068.44 3219 2017.32 3277.26 1981.04C3308.05 1962.35 3338.82 1942.01 3345.97 1935.96C3353.67 1929.92 3361.92 1924.97 3364.66 1924.42C3367.41 1924.42 3367.96 1942.01 3366.32 1964ZM2100.93 1984.89C2117.97 2015.12 2137.76 2053.6 2145.45 2070.09L2159.2 2100.32L2147.66 2116.81C2141.06 2126.16 2133.91 2140.45 2131.71 2148.14C2127.87 2161.89 2126.77 2161.34 2101.48 2125.61C2087.18 2105.27 2060.8 2072.84 2042.66 2054.15C2021.22 2031.06 2011.34 2016.22 2012.98 2009.07C2014.08 2003.58 2016.28 1992.03 2018.48 1983.79C2021.78 1966.2 2052.01 1929.92 2062.45 1929.92C2066.85 1929.92 2083.89 1954.65 2100.93 1984.89ZM3132.7 1944.76C3149.74 1963.45 3156.33 1976.64 3161.28 2000.83C3164.03 2017.32 3161.83 2022.26 3128.85 2057.45C3109.06 2078.88 3083.22 2110.76 3071.13 2128.9L3049.69 2161.34L3040.9 2140.45C3035.95 2129.45 3028.26 2115.71 3023.3 2110.22C3014.51 2100.87 3015.61 2097.02 3037.6 2054.7C3083.77 1965.65 3105.21 1929.92 3111.81 1929.92C3115.66 1929.92 3125 1936.51 3132.7 1944.76ZM2345.55 2039.85L2365.33 2050.3L2360.38 2093.17C2358.18 2116.81 2357.09 2159.69 2358.74 2188.27L2362.03 2240.49L2348.84 2224C2330.15 2201.46 2303.21 2146.49 2296.62 2116.81C2293.32 2103.07 2291.13 2068.44 2291.13 2039.85V1987.63L2308.17 2008.52C2317.51 2020.07 2334 2033.81 2345.55 2039.85ZM2875.99 2127.26C2867.19 2156.94 2844.66 2200.36 2825.42 2225.1C2816.08 2237.19 2815.52 2234.44 2814.97 2142.65L2814.43 2047L2830.37 2040.4C2839.16 2036.56 2854 2023.91 2863.9 2012.37L2881.48 1990.93L2883.14 2043.7C2884.23 2079.98 2882.04 2105.82 2875.99 2127.26ZM2201.52 2198.16C2216.37 2236.65 2232.86 2283.36 2238.35 2301.51L2247.69 2335.03L2233.4 2349.33L2219.66 2363.07L2204.82 2324.05C2196.58 2302.05 2178.98 2262.48 2165.24 2235.54C2146 2195.97 2141.6 2182.22 2144.35 2167.38C2147.66 2145.39 2162.5 2120.66 2169.64 2125.06C2172.39 2126.71 2186.68 2159.69 2201.52 2198.16ZM3030.45 2164.08C3033.2 2180.03 3028.8 2193.77 3003.52 2247.63C2987.03 2282.82 2970.54 2321.84 2966.69 2333.94C2956.8 2365.27 2956.8 2364.72 2940.86 2349.33L2926.56 2334.49L2938.65 2296.01C2954.05 2247.09 2975.48 2189.37 2993.07 2149.79L3006.26 2119.56L3016.71 2132.2C3022.21 2139.35 3028.26 2153.64 3030.45 2164.08ZM2286.17 2418.59C2294.97 2427.39 2312.01 2438.38 2323.55 2443.87C2342.8 2452.67 2344.44 2454.87 2339.49 2466.96C2332.9 2484 2332.9 2521.38 2339.49 2544.47C2343.89 2559.31 2343.34 2562.06 2335.09 2562.06C2319.71 2562.06 2277.93 2538.42 2266.94 2523.03C2261.44 2515.33 2251 2483.45 2243.3 2452.67C2231.21 2399.9 2230.66 2395.51 2238.9 2376.26L2247.69 2355.93L2258.69 2379.01C2264.73 2392.2 2276.83 2409.8 2286.17 2418.59ZM2940.86 2385.06C2943.61 2399.35 2928.21 2478.5 2916.67 2507.64C2908.98 2527.43 2885.33 2548.31 2862.79 2556.01C2833.66 2565.9 2828.72 2564.25 2834.77 2547.77C2841.91 2530.18 2841.91 2474.1 2834.77 2463.12C2830.91 2457.07 2836.41 2451.57 2858.4 2439.48C2890.29 2422.43 2908.42 2403.2 2917.77 2376.26C2922.17 2362.53 2925.46 2359.78 2930.96 2364.17C2934.81 2367.47 2939.21 2376.82 2940.86 2385.06ZM2459.33 2465.31C2459.87 2465.87 2462.08 2488.95 2464.83 2516.98L2469.77 2567.56H2419.2C2387.87 2567.56 2366.98 2565.36 2364.23 2561.51C2358.74 2552.17 2354.34 2487.85 2358.74 2471.91C2362.03 2458.16 2362.03 2458.16 2410.41 2461.47C2436.79 2463.12 2458.78 2464.76 2459.33 2465.31ZM2816.08 2469.71C2821.58 2487.3 2819.92 2535.12 2813.33 2552.71C2807.83 2567 2806.73 2567.56 2757.81 2567.56H2708.34V2548.87C2708.34 2538.98 2709.99 2515.33 2711.63 2497.2L2715.49 2463.66L2751.76 2461.47C2771.55 2460.37 2793.54 2459.27 2800.14 2458.72C2808.37 2458.16 2813.33 2461.47 2816.08 2469.71Z" stroke="#C9A48A"/>
</mask>
<g mask="url(#mask0_160_93)">
<path d="M2414.26 1317.56C2273.53 1326.36 2187.78 1335.15 2139.41 1344.5C2112.47 1350 2072.89 1351.64 2008.59 1350.55C1925.58 1348.9 1915.13 1349.45 1903.59 1358.79C1896.44 1364.29 1889.3 1374.73 1887.1 1381.33C1885.45 1389.57 1871.71 1401.12 1846.98 1414.31C1761.77 1460.48 1695.81 1557.78 1677.67 1663.32C1664.48 1739.18 1682.61 1876.05 1713.95 1940.91C1760.68 2036.01 1893.7 2126.16 2038.26 2160.79C2061.9 2166.28 2083.89 2172.88 2087.74 2175.08C2109.18 2188.27 2199.87 2415.29 2210.87 2483.45C2216.92 2521.38 2244.95 2562.06 2276.83 2578.55C2302.67 2591.74 2308.71 2592.29 2387.87 2591.74L2470.87 2591.19L2475.27 2643.96C2477.47 2673.09 2477.47 2746.2 2475.82 2806.67C2472.52 2932.55 2459.33 3019.4 2434.04 3089.21C2425.24 3113.39 2419.2 3133.73 2420.85 3133.73C2422.49 3133.73 2460.97 3106.25 2506.05 3072.72C2563.21 3029.84 2589.6 3012.8 2594.55 3016.65C2683.6 3084.26 2751.22 3133.73 2753.96 3133.73C2755.61 3133.73 2751.22 3117.24 2743.51 3096.91C2706.14 2997.41 2689.09 2816.56 2701.19 2640.11L2704.49 2589L2765.51 2592.84C2827.62 2596.69 2872.69 2589.54 2912.82 2569.21C2935.36 2558.21 2954.59 2520.29 2972.19 2452.67C3005.17 2327.89 3072.23 2178.38 3098.62 2170.68C3106.31 2168.48 3135.45 2160.24 3164.02 2152.54C3261.32 2126.16 3338.28 2083.28 3402.04 2020.07C3444.37 1977.74 3466.91 1938.71 3482.85 1880.44C3516.93 1754.57 3504.29 1621.54 3449.87 1532.49C3425.68 1492.91 3359.72 1429.7 3322.34 1410.46C3298.7 1397.82 3289.36 1389.57 3285.51 1376.93C3282.21 1367.59 3273.96 1357.14 3267.37 1354.39C3260.23 1351.1 3218.44 1349.45 3164.58 1350.55C3101.37 1352.19 3062.34 1350 3035.4 1345.05C2985.38 1334.6 2905.67 1326.91 2749.56 1317.01C2603.34 1307.67 2564.32 1307.67 2414.26 1317.56ZM2576.41 1359.89C2576.41 1378.58 2574.21 1396.72 2572.02 1400.57C2569.27 1404.96 2548.38 1405.51 2488.46 1400.57C2435.14 1396.72 2389.51 1396.72 2351.04 1400.02C2297.72 1404.96 2291.13 1404.41 2263.09 1393.42C2246.6 1386.83 2213.06 1376.93 2188.88 1371.43C2147.1 1362.09 2146 1361.54 2164.14 1357.69C2188.33 1352.19 2368.63 1336.8 2469.22 1331.86C2511.54 1329.66 2552.77 1327.46 2561.57 1326.91C2576.41 1325.81 2576.41 1326.36 2576.41 1359.89ZM2733.07 1333.51C2817.72 1337.35 2982.63 1351.64 3010.67 1357.69C3028.8 1361.54 3028.26 1362.09 2985.93 1371.43C2961.74 1376.93 2928.21 1386.83 2911.72 1393.42C2883.69 1404.41 2877.09 1404.96 2823.77 1400.02C2785.29 1396.72 2739.67 1396.72 2686.35 1400.57C2642.38 1403.87 2605.54 1405.51 2603.9 1404.41C2602.8 1402.77 2600.6 1384.08 2599.5 1363.19L2597.3 1324.71L2629.18 1327.46C2647.32 1329.11 2694.05 1331.86 2733.07 1333.51ZM2058.05 1374.73C2111.93 1381.88 2163.04 1392.87 2230.66 1411.01L2283.42 1425.85L2298.27 1511.6C2316.96 1618.79 2321.36 1660.57 2314.21 1660.57C2294.42 1660.57 2217.46 1635.28 2184.48 1618.24C2153.15 1601.75 2130.06 1582.51 2076.2 1528.1C2038.26 1489.62 1986.59 1443.44 1960.76 1424.75C1934.92 1406.06 1914.04 1387.92 1914.04 1384.08C1914.04 1379.68 1924.48 1377.48 1945.37 1378.03C1984.94 1379.13 2052.01 1409.36 2086.64 1442.34C2100.38 1455.54 2108.08 1460.48 2104.22 1453.89C2096.53 1437.95 2045.41 1392.87 2021.78 1380.23C1998.69 1367.59 2001.44 1367.59 2058.05 1374.73ZM3144.79 1386.28C3114.56 1405.51 3078.83 1437.95 3070.03 1454.44C3066.74 1460.48 3075.53 1454.99 3089.82 1441.79C3127.2 1407.71 3189.86 1379.13 3229.44 1378.03C3250.33 1377.48 3260.77 1379.68 3260.77 1384.08C3260.77 1387.37 3239.88 1406.06 3214.05 1424.75C3188.21 1443.44 3136.54 1490.17 3098.62 1528.64C3041.99 1585.81 3022.76 1602.3 2989.23 1618.79C2956.25 1635.83 2879.84 1660.57 2861.15 1660.57C2854 1660.57 2855.65 1642.43 2873.79 1531.39L2890.83 1426.95L2941.4 1412.11C3001.32 1394.52 3114.01 1373.08 3158.53 1369.78C3169.52 1369.23 3166.77 1372.53 3144.79 1386.28ZM1885.45 1438.5C1848.62 1505.56 1855.22 1574.27 1901.39 1606.15L1919.54 1618.24L1901.94 1599.55C1882.15 1578.67 1872.81 1557.23 1872.81 1534.69C1872.81 1517.1 1888.2 1469.83 1895.35 1464.88C1898.1 1463.23 1897.54 1468.73 1894.79 1476.42C1878.85 1518.75 1894.79 1567.67 1937.13 1606.15C1990.44 1653.97 2058.61 1656.72 2104.78 1612.75C2112.47 1605.05 2121.82 1600.65 2125.12 1602.85C2133.37 1607.8 2127.87 1615.5 2106.97 1628.14C2084.99 1641.33 2100.38 1641.88 2126.77 1628.69C2142.16 1620.44 2148.2 1619.89 2155.35 1624.84C2168.54 1634.73 2166.35 1637.48 2141.06 1644.63C2074.55 1662.77 1949.21 1659.47 1893.15 1638.58C1857.97 1625.39 1831.04 1598.45 1826.08 1570.97C1822.24 1551.18 1829.93 1514.35 1843.68 1487.42C1857.97 1459.93 1897 1402.22 1901.39 1402.22C1903.59 1402.22 1896.44 1418.71 1885.45 1438.5ZM3299.25 1432.45C3332.78 1483.02 3348.17 1522.05 3348.72 1557.23C3348.72 1585.81 3347.07 1590.21 3330.03 1607.8C3293.75 1645.18 3207.46 1663.32 3105.76 1655.07C3057.39 1650.68 3010.67 1640.78 3010.67 1634.73C3010.67 1633.09 3014.51 1628.69 3019.46 1624.84C3026.61 1619.89 3032.65 1620.44 3048.05 1628.69C3074.43 1641.88 3089.82 1641.33 3067.83 1628.14C3046.95 1615.5 3041.45 1607.8 3049.14 1602.85C3052.44 1600.65 3062.89 1606.15 3072.78 1614.4C3124.45 1658.37 3192.06 1652.87 3244.28 1601.2C3280.56 1565.47 3294.3 1516 3280.01 1475.33C3275.07 1461.03 3275.07 1460.48 3282.76 1470.93C3292.65 1483.57 3302 1514.35 3302 1535.24C3302 1557.23 3292.11 1578.67 3272.86 1599.55C3261.32 1611.65 3259.13 1616.04 3266.27 1612.2C3294.86 1597.36 3312.99 1561.08 3312.99 1518.2C3312.99 1490.72 3309.69 1478.62 3291.55 1443.99C3279.46 1420.91 3271.77 1402.22 3274.52 1402.22C3276.71 1402.22 3288.26 1415.96 3299.25 1432.45ZM2542.33 1431.35C2578.61 1436.85 2596.19 1436.85 2633.03 1431.35C2700.09 1420.91 2859.5 1415.41 2864.45 1423.1C2866.65 1426.95 2861.7 1458.28 2854 1492.91C2846.31 1527.55 2838.62 1579.77 2836.41 1608.9L2833.12 1661.67L2816.08 1658.37C2636.32 1620.99 2538.48 1620.99 2358.18 1658.37L2340.05 1661.67V1634.19C2340.05 1596.26 2330.7 1529.19 2317.51 1475.33C2311.46 1450.04 2308.17 1426.95 2310.36 1423.65C2315.31 1415.41 2473.62 1420.91 2542.33 1431.35ZM1823.89 1476.97C1801.9 1520.4 1794.2 1555.58 1800.8 1584.71C1805.75 1605.6 1804.64 1608.9 1789.26 1628.14C1774.41 1646.83 1772.22 1653.97 1772.22 1681.46C1772.22 1699.05 1774.41 1717.74 1777.72 1723.23C1782.11 1730.93 1783.76 1723.78 1785.96 1691.35C1788.16 1657.82 1791.45 1646.83 1800.8 1636.38L1813.45 1623.19L1844.23 1644.63C1895.35 1679.26 1983.84 1694.65 2065.2 1683.66C2087.74 1680.36 2106.97 1678.71 2108.62 1679.81C2109.72 1680.91 2102.58 1691.35 2092.68 1702.35C2071.8 1726.53 2059.7 1752.92 2059.7 1775.45V1791.4L2010.78 1789.75C1956.36 1787 1940.42 1782.05 1893.15 1751.82C1875.56 1740.27 1859.62 1732.03 1858.52 1733.68C1857.42 1734.78 1864.56 1747.97 1874.46 1762.81C1899.19 1799.09 1943.17 1825.48 1977.8 1825.48H2003.09L2031.12 1867.8L2059.15 1910.13L2038.26 1919.47C2013.53 1930.47 1994.29 1955.2 1989.9 1982.14C1988.24 1992.58 1986.05 2001.38 1985.5 2001.38C1984.94 2001.38 1965.71 1990.38 1943.72 1977.19C1921.19 1964.55 1886 1944.21 1865.12 1932.67C1799.7 1896.94 1771.66 1860.66 1751.88 1785.35L1741.43 1745.77L1744.74 1778.75C1748.58 1818.88 1763.97 1865.05 1780.47 1888.14C1792.01 1903.53 1792.56 1909.58 1790.35 1949.16L1787.61 1993.13L1766.72 1964.55C1738.14 1925.52 1727.14 1897.49 1713.4 1830.97C1703.51 1784.8 1701.86 1760.61 1704.05 1710.04C1706.8 1636.38 1718.9 1592.96 1750.78 1540.19C1769.47 1508.86 1833.23 1437.95 1838.18 1442.34C1838.73 1443.44 1832.68 1458.83 1823.89 1476.97ZM1985.5 1462.68L2014.08 1484.67L2000.88 1511.05C1990.44 1530.84 1987.69 1542.94 1989.9 1563.27C1992.09 1589.11 1998.69 1602.85 2003.09 1591.31C2010.23 1571.52 2041.57 1525.9 2048.16 1525.9C2052.55 1525.9 2066.85 1539.09 2080.04 1555.58C2103.68 1584.16 2104.22 1585.26 2094.33 1595.71C2057.51 1636.93 1993.74 1629.24 1948.11 1578.67C1925.03 1552.83 1920.08 1537.44 1923.38 1503.91C1926.13 1482.47 1945.92 1440.69 1953.61 1440.69C1955.81 1440.69 1970.11 1450.59 1985.5 1462.68ZM3240.44 1468.73C3250.88 1487.97 3253.08 1498.96 3251.42 1524.8C3249.23 1552.83 3246.48 1558.88 3227.25 1578.67C3178.32 1629.79 3117.31 1636.93 3080.47 1595.71C3071.13 1585.26 3071.68 1584.16 3092.57 1557.23C3104.66 1541.84 3117.31 1528.1 3120.6 1525.9C3129.39 1520.4 3142.04 1533.04 3157.43 1563.82C3175.02 1598.45 3175.02 1599 3181.06 1589.11C3190.41 1574.82 3187.12 1534.69 3175.02 1511.6C3168.98 1499.51 3164.58 1487.42 3165.68 1484.67C3168.43 1476.97 3216.25 1441.24 3222.29 1442.89C3225.04 1443.44 3233.29 1454.99 3240.44 1468.73ZM3397.64 1500.61C3446.02 1558.88 3472.41 1638.58 3472.41 1728.73C3472.41 1827.67 3443.82 1926.07 3402.04 1973.89L3385.01 1993.13L3384.45 1948.06C3384.45 1907.38 3386.1 1900.78 3400.95 1876.6C3410.29 1861.76 3421.28 1832.62 3425.68 1811.73C3436.68 1758.41 3435.02 1736.98 3423.48 1784.25C3411.93 1832.62 3387.75 1876.6 3361.36 1899.13C3350.37 1909.03 3314.09 1931.02 3281.66 1949.16C3249.23 1966.75 3215.7 1985.44 3207.46 1991.48C3188.21 2004.68 3186.56 2004.13 3186.56 1985.44C3186.56 1963.45 3165.68 1934.31 3139.29 1921.12L3116.76 1910.13L3144.24 1867.8C3171.17 1825.48 3171.17 1825.48 3195.36 1825.48C3221.75 1825.48 3241.54 1818.33 3267.92 1798.54C3286.06 1785.35 3321.79 1738.63 3317.39 1734.23C3315.74 1733.13 3294.3 1744.12 3269.02 1759.51C3243.73 1774.36 3217.9 1787 3211.85 1787.55C3205.25 1788.1 3181.06 1788.65 3157.98 1789.75L3115.1 1790.85V1773.81C3115.1 1752.37 3098.62 1717.19 3079.37 1697.4C3071.13 1688.6 3065.63 1680.91 3066.74 1679.81C3067.83 1678.71 3088.17 1680.36 3112.35 1683.66C3198.11 1694.1 3290.46 1677.06 3337.18 1641.88L3361.36 1623.19L3373.46 1635.83C3383.35 1646.28 3386.65 1657.82 3388.85 1687.5C3391.6 1729.83 3397.64 1734.23 3403.14 1697.95C3407.54 1668.27 3399.84 1640.78 3381.7 1622.09C3369.61 1609.45 3368.51 1606.15 3374.01 1586.36C3381.7 1558.88 3373.46 1517.65 3350.92 1475.33C3342.13 1458.83 3334.98 1443.99 3334.98 1442.34C3334.98 1436.85 3376.76 1475.87 3397.64 1500.61ZM2280.13 1683.66L2310.91 1689.7L2290.57 1735.88C2279.03 1761.16 2268.04 1782.05 2265.29 1782.05C2254.29 1782.05 2183.39 1722.68 2163.04 1696.85L2141.06 1669.36L2164.14 1657.82L2186.68 1646.28L2218.02 1661.67C2235.06 1669.91 2263.09 1679.81 2280.13 1683.66ZM3026.05 1679.26C3017.26 1695.2 2962.84 1747.42 2932.06 1769.41C2908.42 1785.9 2905.67 1787 2902.38 1777.65C2900.73 1772.16 2891.38 1750.17 2881.48 1728.73L2863.9 1689.7L2894.68 1683.11C2911.72 1679.81 2939.21 1669.91 2955.69 1661.67L2985.93 1646.83L3009.01 1657.27C3029.9 1666.62 3031.55 1669.36 3026.05 1679.26ZM2576.41 1739.73V1823.83L2534.08 1827.68C2510.45 1829.32 2470.32 1834.82 2444.49 1839.22C2363.68 1853.51 2352.14 1851.31 2308.17 1815.58C2281.78 1794.14 2281.78 1795.79 2309.81 1734.23L2327.4 1695.2L2403.81 1680.36C2485.16 1664.97 2536.83 1656.72 2561.57 1655.62L2576.41 1655.07V1739.73ZM2656.11 1660.57C2677.55 1663.87 2728.68 1672.66 2771 1680.36L2847.41 1695.2L2865 1734.23C2893.58 1796.34 2893.58 1793.05 2861.7 1819.98C2827.07 1849.11 2806.73 1852.41 2734.17 1839.77C2705.59 1834.82 2663.26 1829.32 2640.17 1827.13L2598.4 1823.83V1739.73C2598.4 1643.53 2592.35 1651.77 2656.11 1660.57ZM2192.18 1756.77C2222.41 1779.3 2249.9 1797.99 2253.19 1797.99C2257.04 1797.99 2252.09 1806.24 2242.75 1815.58C2222.96 1837.02 2213.62 1853.51 2213.62 1868.9C2213.62 1878.25 2207.57 1876.05 2167.99 1851.31C2143.26 1835.37 2112.47 1817.78 2099.28 1812.28C2077.84 1802.39 2076.2 1800.74 2076.2 1779.3C2076.2 1756.77 2088.84 1729.83 2110.83 1706.19C2121.82 1694.1 2122.37 1694.1 2129.51 1704.54C2133.37 1710.04 2161.95 1733.68 2192.18 1756.77ZM3083.22 1731.48C3093.66 1748.52 3098.62 1763.36 3098.62 1778.2C3098.62 1800.19 3098.06 1801.29 3062.34 1819.43C3042.55 1829.87 3011.76 1847.46 2994.17 1859.01L2962.29 1879.35L2958.99 1859.01C2956.8 1845.27 2949.1 1831.52 2937 1819.98L2918.87 1801.84L2957.9 1775.45C2979.34 1760.61 3009.57 1736.98 3024.41 1722.68C3055.74 1692.45 3058.49 1693 3083.22 1731.48ZM2310.36 1839.77L2342.8 1865.05L2439.54 1861.21C2492.85 1859.56 2545.08 1859.56 2556.07 1861.21L2576.41 1865.05V1935.96V2006.32L2556.07 2012.37C2509.9 2025.01 2432.39 2030.51 2397.76 2023.36C2368.08 2017.32 2361.48 2012.92 2329.05 1979.39C2309.26 1959.05 2279.03 1930.47 2261.99 1916.17C2227.36 1888.14 2223.51 1876.05 2238.35 1847.46C2246.05 1832.62 2266.38 1814.48 2274.63 1814.48C2276.83 1814.48 2292.77 1826.03 2310.36 1839.77ZM2916.12 1823.28C2922.71 1827.67 2932.06 1838.67 2936.46 1847.46C2951.85 1876.6 2947.45 1888.14 2910.62 1919.47C2891.38 1934.86 2861.15 1963.45 2843.01 1982.14C2813.33 2012.92 2806.73 2017.32 2777.6 2023.36C2743.51 2030.51 2692.95 2027.76 2634.13 2015.67L2601.15 2009.07L2599.5 1937.06L2597.85 1865.05L2618.73 1861.21C2629.73 1859.01 2681.4 1859.56 2733.07 1861.21C2827.62 1865.6 2839.16 1863.95 2857.85 1845.82C2867.75 1836.47 2897.43 1815.03 2900.73 1814.48C2902.38 1814.48 2909.52 1818.33 2916.12 1823.28ZM2093.24 1853.51C2122.91 1868.35 2154.25 1934.31 2208.12 2092.08C2276.83 2293.81 2307.61 2344.93 2386.76 2388.36C2425.8 2409.8 2455.48 2433.43 2455.48 2442.78C2455.48 2446.08 2440.09 2446.62 2417 2444.43C2321.9 2435.08 2287.27 2410.35 2271.88 2342.74C2239.46 2200.91 2146 1987.08 2055.3 1848.01C2046.51 1835.37 2047.06 1835.37 2059.7 1839.22C2067.4 1841.42 2082.24 1848.01 2093.24 1853.51ZM3124.45 1840.32C3122.8 1843.07 3111.26 1861.76 3098.62 1883.19C3059.03 1948.06 2990.88 2086.03 2961.74 2160.24C2946.35 2198.71 2924.36 2266.33 2912.27 2309.75C2893.03 2380.11 2888.08 2391.11 2871.04 2406.49C2849.06 2426.83 2812.78 2438.93 2757.81 2444.43C2699.55 2449.93 2707.24 2437.83 2792.44 2386.16C2872.69 2337.78 2897.43 2297.11 2964.49 2098.12C2987.03 2031.61 3017.81 1951.36 3033.2 1920.02C3059.59 1865.05 3061.78 1862.85 3089.27 1849.66C3118.95 1835.92 3128.3 1833.72 3124.45 1840.32ZM2193.83 1914.53C2211.97 1926.62 2237.8 1945.86 2250.44 1956.3L2273.53 1974.99V2033.26C2272.98 2065.69 2275.73 2104.17 2279.58 2119.56C2289.48 2164.08 2318.61 2216.31 2353.78 2253.13L2386.76 2288.32V2211.91C2386.76 2170.13 2390.07 2118.46 2393.91 2097.02L2401.06 2057.99L2446.14 2054.7C2470.87 2053.05 2509.9 2046.45 2532.44 2039.85C2554.98 2032.71 2579.71 2027.76 2587.4 2027.76C2595.1 2027.76 2619.84 2032.71 2642.38 2039.85C2664.91 2046.45 2703.94 2053.05 2728.68 2054.7L2773.2 2057.99L2780.89 2094.27C2784.74 2114.61 2788.04 2165.18 2788.04 2208.61V2286.67L2814.43 2260.83C2849.6 2226.75 2871.04 2191.57 2888.08 2143.2C2900.18 2108.57 2901.83 2094.27 2901.83 2038.76L2901.27 1973.89L2932.61 1950.26C2969.44 1922.22 3013.96 1891.44 3018.36 1891.44C3019.46 1891.44 3010.11 1914.53 2996.92 1942.01C2984.28 1970.04 2956.8 2038.76 2936.46 2094.82C2872.69 2271.82 2840.26 2325.14 2774.85 2358.68C2735.82 2378.47 2708.89 2398.25 2696.8 2416.95C2679.75 2443.33 2672.61 2530.73 2672.61 2713.22C2672.61 2897.37 2678.65 2955.63 2705.03 3042.49C2712.18 3065.57 2717.13 3084.26 2716.03 3084.26C2714.38 3084.26 2685.25 3062.82 2650.61 3036.99L2587.4 2989.17L2524.74 3036.99C2490.11 3062.82 2460.43 3084.26 2458.78 3084.26C2457.12 3084.26 2458.78 3075.47 2463.18 3065.03C2475.82 3034.79 2492.31 2950.13 2500 2878.68C2507.15 2802.83 2503.85 2546.67 2493.96 2476.85C2484.62 2410.89 2473.07 2397.15 2386.76 2350.98C2332.34 2321.3 2299.36 2264.13 2235.6 2086.58C2213.62 2026.11 2186.13 1957.4 2174.58 1933.76C2162.5 1910.68 2154.8 1891.44 2156.45 1891.44C2158.64 1891.44 2175.14 1901.88 2193.83 1914.53ZM1820.59 1929.37C1822.24 1932.67 1851.37 1952.45 1885.45 1973.34C1918.98 1994.78 1959.66 2022.81 1975.61 2035.46C2002.53 2057.99 2065.2 2130.55 2065.2 2139.9C2065.2 2145.94 1980.55 2114.06 1925.03 2086.58C1850.83 2050.85 1820.04 2025.56 1812.89 1997.53C1801.9 1954.65 1807.39 1908.48 1820.59 1929.37ZM3366.32 1964C3364.66 1985.99 3361.91 2008.52 3359.72 2013.47C3354.22 2027.21 3289.36 2068.99 3234.94 2094.27C3183.27 2118.46 3109.61 2145.94 3109.61 2141C3109.61 2138.8 3118.41 2125.61 3128.85 2111.31C3160.18 2068.44 3219 2017.32 3277.26 1981.04C3308.05 1962.35 3338.82 1942.01 3345.97 1935.96C3353.67 1929.92 3361.92 1924.97 3364.66 1924.42C3367.41 1924.42 3367.96 1942.01 3366.32 1964ZM2100.93 1984.89C2117.97 2015.12 2137.76 2053.6 2145.45 2070.09L2159.2 2100.32L2147.66 2116.81C2141.06 2126.16 2133.91 2140.45 2131.71 2148.14C2127.87 2161.89 2126.77 2161.34 2101.48 2125.61C2087.18 2105.27 2060.8 2072.84 2042.66 2054.15C2021.22 2031.06 2011.34 2016.22 2012.98 2009.07C2014.08 2003.58 2016.28 1992.03 2018.48 1983.79C2021.78 1966.2 2052.01 1929.92 2062.45 1929.92C2066.85 1929.92 2083.89 1954.65 2100.93 1984.89ZM3132.7 1944.76C3149.74 1963.45 3156.33 1976.64 3161.28 2000.83C3164.03 2017.32 3161.83 2022.26 3128.85 2057.45C3109.06 2078.88 3083.22 2110.76 3071.13 2128.9L3049.69 2161.34L3040.9 2140.45C3035.95 2129.45 3028.26 2115.71 3023.3 2110.22C3014.51 2100.87 3015.61 2097.02 3037.6 2054.7C3083.77 1965.65 3105.21 1929.92 3111.81 1929.92C3115.66 1929.92 3125 1936.51 3132.7 1944.76ZM2345.55 2039.85L2365.33 2050.3L2360.38 2093.17C2358.18 2116.81 2357.09 2159.69 2358.74 2188.27L2362.03 2240.49L2348.84 2224C2330.15 2201.46 2303.21 2146.49 2296.62 2116.81C2293.32 2103.07 2291.13 2068.44 2291.13 2039.85V1987.63L2308.17 2008.52C2317.51 2020.07 2334 2033.81 2345.55 2039.85ZM2875.99 2127.26C2867.19 2156.94 2844.66 2200.36 2825.42 2225.1C2816.08 2237.19 2815.52 2234.44 2814.97 2142.65L2814.43 2047L2830.37 2040.4C2839.16 2036.56 2854 2023.91 2863.9 2012.37L2881.48 1990.93L2883.14 2043.7C2884.23 2079.98 2882.04 2105.82 2875.99 2127.26ZM2201.52 2198.16C2216.37 2236.65 2232.86 2283.36 2238.35 2301.51L2247.69 2335.03L2233.4 2349.33L2219.66 2363.07L2204.82 2324.05C2196.58 2302.05 2178.98 2262.48 2165.24 2235.54C2146 2195.97 2141.6 2182.22 2144.35 2167.38C2147.66 2145.39 2162.5 2120.66 2169.64 2125.06C2172.39 2126.71 2186.68 2159.69 2201.52 2198.16ZM3030.45 2164.08C3033.2 2180.03 3028.8 2193.77 3003.52 2247.63C2987.03 2282.82 2970.54 2321.84 2966.69 2333.94C2956.8 2365.27 2956.8 2364.72 2940.86 2349.33L2926.56 2334.49L2938.65 2296.01C2954.05 2247.09 2975.48 2189.37 2993.07 2149.79L3006.26 2119.56L3016.71 2132.2C3022.21 2139.35 3028.26 2153.64 3030.45 2164.08ZM2286.17 2418.59C2294.97 2427.39 2312.01 2438.38 2323.55 2443.87C2342.8 2452.67 2344.44 2454.87 2339.49 2466.96C2332.9 2484 2332.9 2521.38 2339.49 2544.47C2343.89 2559.31 2343.34 2562.06 2335.09 2562.06C2319.71 2562.06 2277.93 2538.42 2266.94 2523.03C2261.44 2515.33 2251 2483.45 2243.3 2452.67C2231.21 2399.9 2230.66 2395.51 2238.9 2376.26L2247.69 2355.93L2258.69 2379.01C2264.73 2392.2 2276.83 2409.8 2286.17 2418.59ZM2940.86 2385.06C2943.61 2399.35 2928.21 2478.5 2916.67 2507.64C2908.98 2527.43 2885.33 2548.31 2862.79 2556.01C2833.66 2565.9 2828.72 2564.25 2834.77 2547.77C2841.91 2530.18 2841.91 2474.1 2834.77 2463.12C2830.91 2457.07 2836.41 2451.57 2858.4 2439.48C2890.29 2422.43 2908.42 2403.2 2917.77 2376.26C2922.17 2362.53 2925.46 2359.78 2930.96 2364.17C2934.81 2367.47 2939.21 2376.82 2940.86 2385.06ZM2459.33 2465.31C2459.87 2465.87 2462.08 2488.95 2464.83 2516.98L2469.77 2567.56H2419.2C2387.87 2567.56 2366.98 2565.36 2364.23 2561.51C2358.74 2552.17 2354.34 2487.85 2358.74 2471.91C2362.03 2458.16 2362.03 2458.16 2410.41 2461.47C2436.79 2463.12 2458.78 2464.76 2459.33 2465.31ZM2816.08 2469.71C2821.58 2487.3 2819.92 2535.12 2813.33 2552.71C2807.83 2567 2806.73 2567.56 2757.81 2567.56H2708.34V2548.87C2708.34 2538.98 2709.99 2515.33 2711.63 2497.2L2715.49 2463.66L2751.76 2461.47C2771.55 2460.37 2793.54 2459.27 2800.14 2458.72C2808.37 2458.16 2813.33 2461.47 2816.08 2469.71Z" stroke="#C9A48A"/>
</g>
<path d="M2364.59 1451.2L2364.55 1446.68L2397.52 1443.39C2446.65 1437.87 2515.11 1441.71 2553.94 1452.8C2569.64 1457.21 2578.43 1459.32 2587.21 1459.38C2596.01 1459.45 2604.93 1457.47 2620.92 1453.34L2620.93 1453.34C2649.25 1446.19 2668.1 1442.16 2687.18 1440.5C2706.27 1438.83 2725.52 1439.53 2754.68 1441.73L2810.21 1446.13L2810.23 1450.65L2760.76 1455.05L2760.74 1455.05C2702.12 1459.98 2674.85 1465.99 2626.71 1484.58C2626.71 1484.59 2626.7 1484.59 2626.7 1484.59L2590.43 1498.87L2589.63 1499.19L2588.81 1498.89L2556.39 1486.8C2556.39 1486.8 2556.38 1486.8 2556.38 1486.8C2501.03 1466.52 2471.56 1459.43 2417.39 1455.6L2417.36 1455.6L2364.59 1451.2Z" fill="#C9A48A" stroke="#C9A48A" stroke-width="0.5"/>
<path d="M2616.06 2192.64L2615.98 2192.57C2608.13 2184.2 2597.18 2179.54 2587.4 2179.54C2579.06 2179.54 2568.57 2184.42 2560.04 2191.33C2555.82 2194.76 2552.19 2198.6 2549.63 2202.42C2547.06 2206.27 2545.69 2209.92 2545.69 2213C2545.69 2218.68 2548.4 2223.85 2553.12 2228.22C2557.84 2232.6 2564.5 2236.08 2572.09 2238.24C2587.31 2242.57 2605.5 2241.42 2617.98 2232.59L2618 2232.57C2625.52 2227.39 2628.8 2221.32 2628.57 2214.87C2628.32 2208.28 2624.38 2200.7 2616.06 2192.64ZM2535.62 2239.72C2527.92 2230.31 2524.34 2220.39 2525.3 2210.25C2526.26 2200.14 2531.7 2190.2 2541.28 2180.62C2548.22 2173.68 2553.59 2169.4 2560.47 2166.96C2567.26 2164.55 2575.32 2164.01 2587.4 2164.01C2599.49 2164.01 2607.54 2164.55 2614.34 2166.96C2621.22 2169.4 2626.59 2173.68 2633.53 2180.62C2643.11 2190.2 2648.55 2200.14 2649.51 2210.25C2650.47 2220.39 2646.89 2230.31 2639.18 2239.72C2634.34 2245.7 2630.11 2249.39 2622.48 2251.41C2615.13 2253.35 2604.65 2253.75 2587.4 2253.75C2570.16 2253.75 2559.68 2253.35 2552.33 2251.41C2544.7 2249.39 2540.47 2245.7 2535.62 2239.72Z" fill="#C9A48A" stroke="#C9A48A" stroke-width="0.5"/>
<path d="M2586.3 2914.93C2586.3 2914.93 2586.31 2914.93 2586.32 2914.91C2586.31 2914.92 2586.3 2914.93 2586.3 2914.93ZM2541.19 2598.68C2532.11 2537.11 2523.87 2480.62 2517.96 2439.25C2515 2418.56 2512.63 2401.66 2511.04 2389.77C2510.24 2383.84 2509.63 2379.15 2509.24 2375.87C2509.04 2374.23 2508.9 2372.94 2508.81 2372C2508.77 2371.53 2508.74 2371.14 2508.72 2370.82C2508.71 2370.67 2508.71 2370.51 2508.71 2370.37C2508.71 2370.3 2508.72 2370.12 2508.75 2369.91C2508.8 2369.52 2508.86 2369.11 2508.98 2368.73C2509.09 2368.35 2509.3 2367.8 2509.75 2367.33C2510.29 2366.77 2511.09 2366.41 2511.99 2366.51C2512.73 2366.6 2513.28 2366.98 2513.59 2367.23C2514.2 2367.75 2514.72 2368.49 2515.15 2369.21C2515.61 2369.97 2516.1 2370.92 2516.61 2372.02C2518.65 2376.38 2521.33 2383.7 2524.28 2392.81C2530.22 2411.09 2537.38 2436.99 2542.89 2462.07C2550.06 2493.49 2560.38 2552.78 2568.9 2607.61C2573.16 2635.03 2576.97 2661.37 2579.73 2682.58C2582.47 2703.72 2584.17 2719.92 2584.17 2726.97C2584.17 2731.2 2584.71 2735.12 2585.47 2737.91C2585.6 2738.37 2585.72 2738.77 2585.84 2739.15C2586.02 2738.56 2586.21 2737.88 2586.41 2737.11C2587.33 2733.48 2588.44 2728.16 2589.64 2721.55C2592.03 2708.33 2594.78 2690.11 2597.25 2670.07V2670.06C2605.78 2603.75 2619.8 2524.4 2632.6 2464.02C2638.99 2433.84 2645.09 2408.35 2650.04 2391.58C2652.51 2383.24 2654.73 2376.9 2656.63 2373.23C2657.1 2372.29 2657.59 2371.47 2658.1 2370.8C2658.56 2370.19 2659.2 2369.5 2660.03 2369.1C2660.48 2368.88 2661.03 2368.73 2661.66 2368.77C2662.29 2368.81 2662.85 2369.05 2663.3 2369.38C2664.12 2369.99 2664.57 2370.89 2664.84 2371.63L2664.87 2371.7C2665.02 2372.18 2665.03 2372.73 2665.04 2372.98C2665.04 2373.34 2665.03 2373.79 2665 2374.3C2664.96 2375.31 2664.84 2376.68 2664.69 2378.38C2664.36 2381.77 2663.82 2386.55 2663.08 2392.57C2661.61 2404.59 2659.36 2421.58 2656.51 2442.26C2650.81 2483.63 2642.69 2539.85 2633.62 2600.88C2615.48 2723.45 2599.01 2844.81 2596.81 2871.15C2595.99 2884.38 2594.74 2896.13 2593.43 2904.46C2592.77 2908.61 2592.08 2912 2591.4 2914.3C2591.06 2915.42 2590.68 2916.46 2590.22 2917.22C2590 2917.58 2589.64 2918.09 2589.07 2918.46C2588.37 2918.92 2587.38 2919.13 2586.39 2918.64C2585.7 2918.29 2585.28 2917.72 2585.07 2917.38C2584.82 2916.99 2584.61 2916.55 2584.43 2916.1C2584.06 2915.2 2583.72 2914.04 2583.39 2912.69C2582.72 2909.99 2582.04 2906.29 2581.38 2901.9C2580.06 2893.1 2578.82 2881.36 2578 2868.94C2576.35 2843.77 2559.89 2722.41 2541.19 2598.68Z" fill="#C9A48A"/>
<path d="M2588.91 2914.97C2588.91 2914.97 2588.91 2914.96 2588.89 2914.94M2586.3 2914.93C2586.3 2914.93 2586.31 2914.93 2586.32 2914.91C2586.31 2914.92 2586.3 2914.93 2586.3 2914.93ZM2541.19 2598.68C2532.11 2537.11 2523.87 2480.62 2517.96 2439.25C2515 2418.56 2512.63 2401.66 2511.04 2389.77C2510.24 2383.84 2509.63 2379.15 2509.24 2375.87C2509.04 2374.23 2508.9 2372.94 2508.81 2372C2508.77 2371.53 2508.74 2371.14 2508.72 2370.82C2508.71 2370.67 2508.71 2370.51 2508.71 2370.37C2508.71 2370.3 2508.72 2370.12 2508.75 2369.91C2508.8 2369.52 2508.86 2369.11 2508.98 2368.73C2509.09 2368.35 2509.3 2367.8 2509.75 2367.33C2510.29 2366.77 2511.09 2366.41 2511.99 2366.51C2512.73 2366.6 2513.28 2366.98 2513.59 2367.23C2514.2 2367.75 2514.72 2368.49 2515.15 2369.21C2515.61 2369.97 2516.1 2370.92 2516.61 2372.02C2518.65 2376.38 2521.33 2383.7 2524.28 2392.81C2530.22 2411.09 2537.38 2436.99 2542.89 2462.07C2550.06 2493.49 2560.38 2552.78 2568.9 2607.61C2573.16 2635.03 2576.97 2661.37 2579.73 2682.58C2582.47 2703.72 2584.17 2719.92 2584.17 2726.97C2584.17 2731.2 2584.71 2735.12 2585.47 2737.91C2585.6 2738.37 2585.72 2738.77 2585.84 2739.15C2586.02 2738.56 2586.21 2737.88 2586.41 2737.11C2587.33 2733.48 2588.44 2728.16 2589.64 2721.55C2592.03 2708.33 2594.78 2690.11 2597.25 2670.07V2670.06C2605.78 2603.75 2619.8 2524.4 2632.6 2464.02C2638.99 2433.84 2645.09 2408.35 2650.04 2391.58C2652.51 2383.24 2654.73 2376.9 2656.63 2373.23C2657.1 2372.29 2657.59 2371.47 2658.1 2370.8C2658.56 2370.19 2659.2 2369.5 2660.03 2369.1C2660.48 2368.88 2661.03 2368.73 2661.66 2368.77C2662.29 2368.81 2662.85 2369.05 2663.3 2369.38C2664.12 2369.99 2664.57 2370.89 2664.84 2371.63L2664.87 2371.7C2665.02 2372.18 2665.03 2372.73 2665.04 2372.98C2665.04 2373.34 2665.03 2373.79 2665 2374.3C2664.96 2375.31 2664.84 2376.68 2664.69 2378.38C2664.36 2381.77 2663.82 2386.55 2663.08 2392.57C2661.61 2404.59 2659.36 2421.58 2656.51 2442.26C2650.81 2483.63 2642.69 2539.85 2633.62 2600.88C2615.48 2723.45 2599.01 2844.81 2596.81 2871.15C2595.99 2884.38 2594.74 2896.13 2593.43 2904.46C2592.77 2908.61 2592.08 2912 2591.4 2914.3C2591.06 2915.42 2590.68 2916.46 2590.22 2917.22C2590 2917.58 2589.64 2918.09 2589.07 2918.46C2588.37 2918.92 2587.38 2919.13 2586.39 2918.64C2585.7 2918.29 2585.28 2917.72 2585.07 2917.38C2584.82 2916.99 2584.61 2916.55 2584.43 2916.1C2584.06 2915.2 2583.72 2914.04 2583.39 2912.69C2582.72 2909.99 2582.04 2906.29 2581.38 2901.9C2580.06 2893.1 2578.82 2881.36 2578 2868.94C2576.35 2843.77 2559.89 2722.41 2541.19 2598.68Z" stroke="#C9A48A" stroke-width="0.5"/>
</g>
<defs>
<filter id="filter0_dd_160_93" x="2716.59" y="1690.14" width="2251.99" height="2321.87" filterUnits="userSpaceOnUse" color-interpolation-filters="sRGB">
<feFlood flood-opacity="0" result="BackgroundImageFix"/>
<feColorMatrix in="SourceAlpha" type="matrix" values="0 0 0 0 0 0 0 0 0 0 0 0 0 0 0 0 0 0 127 0" result="hardAlpha"/>
<feOffset dx="4" dy="4"/>
<feGaussianBlur stdDeviation="2"/>
<feComposite in2="hardAlpha" operator="out"/>
<feColorMatrix type="matrix" values="0 0 0 0 0 0 0 0 0 0 0 0 0 0 0 0 0 0 0.28 0"/>
<feBlend mode="normal" in2="BackgroundImageFix" result="effect1_dropShadow_160_93"/>
<feColorMatrix in="SourceAlpha" type="matrix" values="0 0 0 0 0 0 0 0 0 0 0 0 0 0 0 0 0 0 127 0" result="hardAlpha"/>
<feOffset dy="4"/>
<feGaussianBlur stdDeviation="2.5"/>
<feComposite in2="hardAlpha" operator="out"/>
<feColorMatrix type="matrix" values="0 0 0 0 0.54902 0 0 0 0 0.411765 0 0 0 0 0.317647 0 0 0 1 0"/>
<feBlend mode="normal" in2="effect1_dropShadow_160_93" result="effect2_dropShadow_160_93"/>
<feBlend mode="normal" in="SourceGraphic" in2="effect2_dropShadow_160_93" result="shape"/>
</filter>
<filter id="filter1_dd_160_93" x="336" y="1691.14" width="2252.99" height="2319.87" filterUnits="userSpaceOnUse" color-interpolation-filters="sRGB">
<feFlood flood-opacity="0" result="BackgroundImageFix"/>
<feColorMatrix in="SourceAlpha" type="matrix" values="0 0 0 0 0 0 0 0 0 0 0 0 0 0 0 0 0 0 127 0" result="hardAlpha"/>
<feOffset dx="-4" dy="4"/>
<feGaussianBlur stdDeviation="2"/>
<feComposite in2="hardAlpha" operator="out"/>
<feColorMatrix type="matrix" values="0 0 0 0 0 0 0 0 0 0 0 0 0 0 0 0 0 0 0.28 0"/>
<feBlend mode="normal" in2="BackgroundImageFix" result="effect1_dropShadow_160_93"/>
<feColorMatrix in="SourceAlpha" type="matrix" values="0 0 0 0 0 0 0 0 0 0 0 0 0 0 0 0 0 0 127 0" result="hardAlpha"/>
<feOffset dx="2" dy="4"/>
<feGaussianBlur stdDeviation="2"/>
<feComposite in2="hardAlpha" operator="out"/>
<feColorMatrix type="matrix" values="0 0 0 0 0.54902 0 0 0 0 0.411765 0 0 0 0 0.317647 0 0 0 1 0"/>
<feBlend mode="normal" in2="effect1_dropShadow_160_93" result="effect2_dropShadow_160_93"/>
<feBlend mode="normal" in="SourceGraphic" in2="effect2_dropShadow_160_93" result="shape"/>
</filter>
<filter id="filter2_d_160_93" x="637.515" y="2762.84" width="4106.27" height="384.6" filterUnits="userSpaceOnUse" color-interpolation-filters="sRGB">
<feFlood flood-opacity="0" result="BackgroundImageFix"/>
<feColorMatrix in="SourceAlpha" type="matrix" values="0 0 0 0 0 0 0 0 0 0 0 0 0 0 0 0 0 0 127 0" result="hardAlpha"/>
<feOffset dy="4"/>
<feGaussianBlur stdDeviation="2"/>
<feComposite in2="hardAlpha" operator="out"/>
<feColorMatrix type="matrix" values="0 0 0 0 0 0 0 0 0 0 0 0 0 0 0 0 0 0 0.25 0"/>
<feBlend mode="normal" in2="BackgroundImageFix" result="effect1_dropShadow_160_93"/>
<feBlend mode="normal" in="SourceGraphic" in2="effect1_dropShadow_160_93" result="shape"/>
</filter>
<filter id="filter3_dd_160_93" x="1668.82" y="1307.57" width="1837.42" height="1834.66" filterUnits="userSpaceOnUse" color-interpolation-filters="sRGB">
<feFlood flood-opacity="0" result="BackgroundImageFix"/>
<feColorMatrix in="SourceAlpha" type="matrix" values="0 0 0 0 0 0 0 0 0 0 0 0 0 0 0 0 0 0 127 0" result="hardAlpha"/>
<feOffset dy="4"/>
<feGaussianBlur stdDeviation="2"/>
<feComposite in2="hardAlpha" operator="out"/>
<feColorMatrix type="matrix" values="0 0 0 0 0 0 0 0 0 0 0 0 0 0 0 0 0 0 0.25 0"/>
<feBlend mode="normal" in2="BackgroundImageFix" result="effect1_dropShadow_160_93"/>
<feColorMatrix in="SourceAlpha" type="matrix" values="0 0 0 0 0 0 0 0 0 0 0 0 0 0 0 0 0 0 127 0" result="hardAlpha"/>
<feOffset dy="2"/>
<feGaussianBlur stdDeviation="2"/>
<feComposite in2="hardAlpha" operator="out"/>
<feColorMatrix type="matrix" values="0 0 0 0 0.54902 0 0 0 0 0.411765 0 0 0 0 0.317647 0 0 0 1 0"/>
<feBlend mode="normal" in2="effect1_dropShadow_160_93" result="effect2_dropShadow_160_93"/>
<feBlend mode="normal" in="SourceGraphic" in2="effect2_dropShadow_160_93" result="shape"/>
</filter>
<linearGradient id="paint0_linear_160_93" x1="2684.82" y1="2652.87" x2="2684.82" y2="3333.34" gradientUnits="userSpaceOnUse">
<stop stop-color="#C9A48A"/>
<stop offset="1" stop-color="#C9A48A" stop-opacity="0"/>
</linearGradient>
</defs>
</svg>
